<?xml version="1.0" standalone="no"?>
<!DOCTYPE svg PUBLIC "-//W3C//DTD SVG 1.1//EN" "http://www.w3.org/Graphics/SVG/1.1/DTD/svg11.dtd">
<svg version="1.1" xmlns="http://www.w3.org/2000/svg" viewBox="0 0 867.5708080013956 419.9992193102661" width="2602.7124240041867" height="1259.9976579307981"><!-- svg-source:excalidraw --><metadata></metadata><defs><style class="style-fonts">
      </style></defs><g transform="translate(10 301.044973197795) rotate(0 203.42723166568976 18.61876357618172)" stroke="none"><path fill="#d3d3d3" d="M 1.4,8.57 Q 1.4,8.57 1.38,0.13 1.37,0.27 1.33,0.40 1.29,0.53 1.22,0.65 1.16,0.77 1.07,0.88 0.98,0.98 0.88,1.07 0.77,1.16 0.65,1.22 0.53,1.29 0.40,1.33 0.27,1.37 0.13,1.38 -1.71,1.4 -0.13,1.38 -0.27,1.37 -0.40,1.33 -0.53,1.29 -0.65,1.22 -0.77,1.16 -0.88,1.07 -0.98,0.98 -1.07,0.88 -1.16,0.77 -1.22,0.65 -1.29,0.53 -1.33,0.40 -1.37,0.27 -1.38,0.13 -1.4,-8.57 -1.34,-0.95 -1.29,-1.91 -0.73,-2.54 -0.17,-3.17 0.95,-3.81 2.09,-4.46 3.58,-4.36 5.07,-4.26 6.51,-3.43 7.96,-2.60 9.68,-1.15 11.40,0.29 13.61,2.37 15.82,4.45 18.61,6.84 21.41,9.23 24.54,11.47 27.68,13.71 30.68,16.26 33.69,18.81 38.27,23.86 42.85,28.91 46.81,32.41 50.76,35.91 54.80,38.70 58.85,41.49 65.73,46.36 72.62,51.23 77.78,55.39 82.94,59.54 87.53,62.96 92.12,66.37 100.24,70.48 108.36,74.58 115.87,78.02 123.38,81.45 129.55,83.86 135.72,86.27 141.23,88.51 146.74,90.76 151.88,92.90 157.01,95.04 162.97,96.79 168.94,98.54 175.04,99.76 181.13,100.99 186.92,102.28 192.70,103.58 202.44,104.57 212.19,105.56 223.58,106.06 234.97,106.55 245.46,105.77 255.94,104.99 262.91,103.91 269.87,102.84 276.78,101.61 283.70,100.39 289.87,98.75 296.05,97.12 301.20,95.27 306.36,93.42 311.70,91.46 317.05,89.50 322.43,87.51 327.80,85.51 333.53,82.15 339.25,78.78 346.59,72.97 353.93,67.16 360.02,61.84 366.11,56.52 370.49,52.53 374.87,48.54 379.45,42.09 384.03,35.65 387.70,30.37 391.37,25.08 394.89,18.38 398.42,11.67 400.16,6.35 401.90,1.03 402.09,-4.64 402.29,-10.32 401.71,-14.85 401.14,-19.38 399.50,-24.70 397.85,-30.03 395.33,-35.75 392.82,-41.48 389.50,-46.39 386.19,-51.31 384.25,-54.04 382.31,-56.78 379.06,-59.11 375.81,-61.43 370.42,-63.30 365.02,-65.17 360.60,-66.46 356.18,-67.74 352.63,-68.38 349.08,-69.02 345.25,-69.34 341.42,-69.66 337.47,-69.82 333.52,-69.99 326.41,-69.38 319.29,-68.78 311.95,-67.79 304.62,-66.80 297.16,-65.28 289.70,-63.75 284.60,-62.64 279.49,-61.54 274.55,-60.30 269.61,-59.06 264.45,-57.44 259.29,-55.81 250.52,-50.87 241.75,-45.94 233.19,-41.38 224.63,-36.83 216.59,-32.49 208.54,-28.16 203.52,-24.99 198.50,-21.81 193.23,-17.81 187.96,-13.81 182.57,-9.74 177.17,-5.67 167.24,2.55 157.31,10.79 150.95,15.95 144.60,21.11 137.97,26.45 131.34,31.79 126.62,35.52 121.90,39.24 113.67,44.56 105.45,49.87 99.96,53.55 94.48,57.24 87.23,61.86 79.98,66.47 70.82,71.55 61.65,76.63 53.58,80.56 45.52,84.50 38.67,86.82 31.83,89.15 27.82,89.97 23.81,90.80 21.60,89.67 19.39,88.55 19.29,88.45 19.20,88.35 19.12,88.24 19.04,88.13 18.99,88.00 18.94,87.87 18.91,87.74 18.88,87.61 18.88,87.47 18.88,87.33 18.90,87.20 18.93,87.06 18.98,86.93 19.03,86.81 19.11,86.69 19.18,86.58 19.28,86.48 19.38,86.38 19.49,86.30 19.60,86.23 19.73,86.17 19.85,86.12 19.99,86.09 20.12,86.06 20.26,86.06 20.40,86.06 20.53,86.09 20.67,86.11 20.79,86.17 20.92,86.22 21.04,86.29 21.15,86.37 21.25,86.46 21.35,86.56 21.42,86.67 21.50,86.79 21.55,86.91 21.61,87.04 21.64,87.17 21.66,87.31 21.67,87.45 21.67,87.58 21.64,87.72 21.61,87.85 21.56,87.98 21.51,88.11 21.44,88.22 21.36,88.34 21.27,88.43 21.17,88.53 21.06,88.61 20.94,88.69 20.82,88.74 20.69,88.79 20.55,88.82 20.42,88.85 20.28,88.85 20.15,88.85 20.01,88.83 19.88,88.80 19.75,88.75 19.62,88.70 19.51,88.62 19.39,88.55 19.29,88.45 19.20,88.35 19.12,88.24 19.04,88.13 18.99,88.00 18.94,87.87 18.91,87.74 18.88,87.61 18.88,87.47 18.88,87.33 18.90,87.20 18.93,87.06 18.98,86.93 19.03,86.81 19.11,86.69 19.18,86.58 19.28,86.48 19.38,86.38 19.49,86.30 19.60,86.23 19.73,86.17 19.85,86.12 19.99,86.09 20.12,86.06 20.26,86.06 20.40,86.06 20.53,86.09 20.67,86.11 20.79,86.17 20.92,86.22 22.55,87.12 24.19,88.02 27.63,87.24 31.08,86.45 37.76,84.18 44.45,81.91 52.40,78.03 60.36,74.14 69.45,69.11 78.55,64.07 85.75,59.48 92.94,54.90 98.42,51.21 103.91,47.53 112.09,42.25 120.27,36.96 124.94,33.28 129.60,29.60 136.22,24.27 142.84,18.93 149.18,13.78 155.53,8.63 165.48,0.37 175.44,-7.87 180.85,-11.95 186.27,-16.04 191.59,-20.07 196.90,-24.11 202.02,-27.34 207.13,-30.58 215.22,-34.94 223.31,-39.30 231.86,-43.84 240.41,-48.39 249.29,-53.39 258.18,-58.38 263.51,-60.07 268.85,-61.76 273.85,-63.01 278.86,-64.26 283.99,-65.38 289.13,-66.49 296.64,-68.03 304.15,-69.56 311.57,-70.56 318.99,-71.56 326.23,-72.17 333.46,-72.79 337.53,-72.62 341.60,-72.46 345.52,-72.13 349.45,-71.80 353.13,-71.13 356.82,-70.47 361.35,-69.15 365.88,-67.84 371.49,-65.88 377.10,-63.92 380.70,-61.34 384.30,-58.76 386.39,-55.83 388.49,-52.90 391.88,-47.86 395.27,-42.83 397.87,-36.92 400.47,-31.01 402.18,-25.49 403.88,-19.97 404.48,-15.21 405.08,-10.45 404.87,-4.46 404.66,1.52 402.83,7.14 401.00,12.76 397.38,19.65 393.76,26.54 390.04,31.90 386.32,37.26 381.64,43.83 376.96,50.39 372.47,54.50 367.98,58.61 361.85,63.96 355.72,69.31 348.28,75.20 340.83,81.09 334.92,84.57 329.00,88.04 323.51,90.08 318.02,92.12 312.67,94.09 307.31,96.05 302.10,97.92 296.88,99.79 290.59,101.46 284.30,103.12 277.32,104.36 270.33,105.60 263.30,106.69 256.26,107.77 245.64,108.56 235.01,109.35 223.50,108.85 211.98,108.35 202.12,107.35 192.25,106.34 186.40,105.03 180.55,103.72 174.41,102.49 168.27,101.26 162.17,99.47 156.07,97.68 150.88,95.52 145.68,93.35 140.18,91.11 134.68,88.87 128.48,86.45 122.29,84.03 114.71,80.57 107.14,77.10 98.89,72.93 90.64,68.75 85.94,65.26 81.23,61.76 76.08,57.61 70.93,53.47 64.09,48.63 57.24,43.79 53.14,40.95 49.03,38.12 44.96,34.51 40.89,30.90 36.31,25.86 31.74,20.82 28.85,18.37 25.96,15.92 22.82,13.68 19.68,11.43 16.82,8.98 13.95,6.53 11.74,4.45 9.54,2.38 7.94,1.02 6.34,-0.32 5.29,-0.95 4.23,-1.59 3.48,-1.66 2.73,-1.74 2.14,-1.35 1.55,-0.96 1.42,-0.90 1.29,-0.84 1.34,-0.42 1.4,8.57 1.4,8.57 L 1.4,8.57 Z"></path></g><g transform="translate(284.45436678964256 278.9782904408388) rotate(0 15.170844395407357 12.412509050787833)" stroke="none"><path fill="#d3d3d3" d="M -8.57,1.4 Q -8.57,1.4 -0.13,1.38 -0.27,1.37 -0.40,1.33 -0.53,1.29 -0.65,1.22 -0.77,1.16 -0.88,1.07 -0.98,0.98 -1.07,0.88 -1.16,0.77 -1.22,0.65 -1.29,0.53 -1.33,0.40 -1.37,0.27 -1.38,0.13 -1.4,-1.71 -1.38,-0.13 -1.37,-0.27 -1.33,-0.40 -1.29,-0.53 -1.22,-0.65 -1.16,-0.77 -1.07,-0.88 -0.98,-0.98 -0.88,-1.07 -0.77,-1.16 -0.65,-1.22 -0.53,-1.29 -0.40,-1.33 -0.27,-1.37 -0.13,-1.38 8.57,-1.4 0.71,-1.29 1.42,-1.19 1.77,-0.68 2.12,-0.18 3.49,0.92 4.86,2.03 8.35,5.04 11.84,8.05 16.31,11.61 20.78,15.16 23.40,16.97 26.03,18.78 27.36,20.05 28.69,21.32 29.22,22.14 29.75,22.97 29.14,23.71 28.54,24.44 28.41,24.49 28.28,24.53 28.14,24.55 28.01,24.57 27.87,24.56 27.73,24.55 27.60,24.51 27.47,24.48 27.34,24.41 27.22,24.35 27.11,24.27 27.00,24.19 26.91,24.08 26.82,23.98 26.76,23.86 26.69,23.74 26.64,23.61 26.60,23.48 26.58,23.34 26.56,23.21 26.57,23.07 26.58,22.94 26.62,22.80 26.65,22.67 26.72,22.55 26.78,22.42 26.86,22.32 26.94,22.21 27.05,22.12 27.15,22.03 27.27,21.96 27.39,21.89 27.52,21.85 27.65,21.80 27.78,21.78 27.92,21.77 28.06,21.78 28.19,21.79 28.33,21.82 28.46,21.86 28.58,21.92 28.71,21.98 28.81,22.06 28.92,22.15 29.01,22.25 29.10,22.35 29.17,22.47 29.24,22.59 29.28,22.72 29.33,22.85 29.35,22.99 29.36,23.12 29.35,23.26 29.34,23.40 29.31,23.53 29.27,23.66 29.21,23.79 29.15,23.91 29.07,24.02 28.98,24.13 28.88,24.22 28.78,24.31 28.66,24.37 28.54,24.44 28.41,24.49 28.28,24.53 28.14,24.55 28.01,24.57 27.87,24.56 27.73,24.55 27.60,24.51 27.47,24.48 27.34,24.41 27.22,24.35 27.11,24.27 27.00,24.19 26.91,24.08 26.82,23.98 26.76,23.86 26.69,23.74 26.64,23.61 26.60,23.48 26.58,23.34 26.56,23.21 26.57,23.07 26.58,22.94 26.62,22.80 26.65,22.67 26.72,22.55 26.78,22.42 26.86,22.32 26.94,22.21 27.05,22.12 27.15,22.03 27.05,22.42 26.95,22.81 26.87,23.09 26.79,23.37 25.52,22.16 24.26,20.95 21.69,19.18 19.12,17.41 14.58,13.81 10.05,10.21 6.55,7.19 3.06,4.17 1.50,2.86 -0.06,1.56 -0.05,1.37 -0.04,1.19 -0.02,1.29 -8.57,1.4 -8.57,1.4 L -8.57,1.4 Z"></path></g><g transform="translate(289.9710374788815 312.0783145762731) rotate(0 11.033341378478099 -17.239595903872043)" stroke="none"><path fill="#d3d3d3" d="M 1.25,0.62 Q 1.25,0.62 1.17,0.74 1.10,0.85 1.01,0.95 0.91,1.05 0.80,1.13 0.69,1.21 0.56,1.27 0.44,1.32 0.30,1.35 0.17,1.38 0.03,1.39 -0.09,1.39 -0.23,1.37 -0.36,1.35 -0.49,1.30 -0.62,1.25 -0.74,1.17 -0.85,1.10 -0.95,1.01 -1.05,0.91 -1.13,0.80 -1.21,0.69 -1.27,0.56 -1.32,0.44 -1.35,0.30 -1.38,0.17 -1.39,0.03 -1.39,-0.09 -1.37,-0.23 -1.35,-0.36 -1.30,-0.49 -1.25,-0.62 -0.89,-1.34 -0.53,-2.06 0.34,-3.46 1.22,-4.87 2.69,-7.29 4.16,-9.72 7.31,-14.38 10.46,-19.04 13.15,-23.19 15.84,-27.34 15.94,-27.43 16.05,-27.52 16.17,-27.59 16.29,-27.66 16.42,-27.70 16.55,-27.74 16.69,-27.76 16.82,-27.77 16.96,-27.76 17.10,-27.75 17.23,-27.71 17.36,-27.67 17.48,-27.61 17.60,-27.55 17.71,-27.46 17.82,-27.38 17.91,-27.27 18.00,-27.17 18.06,-27.05 18.13,-26.93 18.17,-26.80 18.21,-26.67 18.23,-26.53 18.25,-26.40 18.24,-26.26 18.22,-26.12 18.19,-25.99 18.15,-25.86 18.09,-25.74 18.02,-25.61 17.94,-25.51 17.85,-25.40 17.75,-25.31 17.64,-25.22 17.52,-25.15 17.40,-25.09 17.27,-25.05 17.14,-25.00 17.01,-24.99 16.87,-24.97 16.73,-24.98 16.60,-24.99 16.47,-25.03 16.33,-25.07 16.21,-25.13 16.09,-25.19 15.98,-25.28 15.87,-25.36 15.79,-25.47 15.70,-25.57 15.63,-25.69 15.56,-25.81 15.52,-25.94 15.48,-26.07 15.46,-26.21 15.45,-26.35 15.46,-26.48 15.47,-26.62 15.51,-26.75 15.54,-26.89 15.61,-27.01 15.67,-27.13 15.75,-27.24 15.84,-27.34 15.94,-27.43 16.05,-27.52 16.17,-27.59 16.29,-27.66 16.42,-27.70 16.55,-27.74 16.69,-27.76 16.82,-27.77 16.96,-27.76 17.10,-27.75 17.23,-27.71 17.36,-27.67 17.48,-27.61 17.60,-27.55 17.71,-27.46 17.82,-27.38 17.91,-27.27 18.00,-27.17 18.06,-27.05 18.13,-26.93 18.17,-26.80 18.21,-26.67 18.23,-26.53 18.25,-26.40 18.24,-26.26 18.22,-26.12 18.19,-25.99 18.15,-25.86 18.09,-25.74 18.02,-25.61 15.41,-21.56 12.80,-17.50 9.66,-12.85 6.52,-8.20 5.06,-5.80 3.60,-3.40 2.75,-2.04 1.91,-0.69 1.58,-0.03 1.25,0.62 1.25,0.62 L 1.25,0.62 Z"></path></g><g transform="translate(339.62107368203283 278.9782904408388) rotate(0 10.34375754232326 13.791676723097623)" stroke="none"><path fill="#d3d3d3" d="M 8.57,-1.4 Q 8.57,-1.4 0.13,-1.38 0.27,-1.37 0.40,-1.33 0.53,-1.29 0.65,-1.22 0.77,-1.16 0.88,-1.07 0.98,-0.98 1.07,-0.88 1.16,-0.77 1.22,-0.65 1.29,-0.53 1.33,-0.40 1.37,-0.27 1.38,-0.13 1.4,1.71 1.38,0.13 1.37,0.27 1.33,0.40 1.29,0.53 1.22,0.65 1.16,0.77 1.07,0.88 0.98,0.98 0.88,1.07 0.77,1.16 0.65,1.22 0.53,1.29 0.40,1.33 0.27,1.37 0.13,1.38 -8.57,1.4 -0.34,1.4 -0.68,1.4 -0.09,1.06 0.50,0.73 -0.72,0.68 -1.94,0.62 -2.01,0.28 -2.08,-0.06 -1.98,-0.39 -1.88,-0.73 -1.62,-0.97 -1.37,-1.22 -1.03,-1.31 -0.68,-1.4 -0.09,-0.33 0.50,0.73 0.53,0.05 0.56,-0.62 0.69,-0.35 0.81,-0.08 3.62,3.13 6.43,6.36 8.91,9.75 11.39,13.14 13.28,15.82 15.16,18.49 17.17,20.55 19.17,22.62 19.93,23.82 20.68,25.02 20.72,25.16 20.76,25.29 20.77,25.43 20.78,25.56 20.76,25.70 20.75,25.83 20.70,25.96 20.66,26.10 20.59,26.21 20.53,26.33 20.44,26.44 20.35,26.54 20.24,26.63 20.13,26.71 20.01,26.77 19.89,26.84 19.75,26.87 19.62,26.91 19.48,26.92 19.35,26.93 19.21,26.91 19.08,26.90 18.95,26.86 18.81,26.81 18.70,26.75 18.58,26.68 18.47,26.59 18.37,26.50 18.28,26.39 18.20,26.28 18.14,26.16 18.07,26.04 18.04,25.91 18.00,25.77 17.99,25.64 17.98,25.50 18.00,25.36 18.01,25.23 18.05,25.10 18.10,24.97 18.16,24.85 18.23,24.73 18.32,24.62 18.41,24.52 18.52,24.43 18.63,24.35 18.75,24.29 18.87,24.23 19.00,24.19 19.14,24.15 19.27,24.14 19.41,24.13 19.55,24.15 19.68,24.16 19.81,24.21 19.94,24.25 20.06,24.32 20.18,24.38 20.29,24.47 20.39,24.56 20.47,24.67 20.56,24.78 20.62,24.90 20.68,25.02 20.72,25.16 20.76,25.29 20.77,25.43 20.78,25.56 20.76,25.70 20.75,25.83 20.70,25.96 20.66,26.10 20.59,26.21 20.53,26.33 20.44,26.44 20.35,26.54 20.24,26.63 20.13,26.71 20.01,26.77 19.89,26.84 19.75,26.87 19.62,26.91 19.48,26.92 19.35,26.93 19.21,26.91 19.08,26.90 18.95,26.86 18.81,26.81 18.70,26.75 18.58,26.68 18.47,26.59 18.37,26.50 18.28,26.39 18.20,26.28 17.59,25.32 16.98,24.35 14.99,22.32 13.01,20.28 11.06,17.53 9.12,14.78 6.68,11.44 4.24,8.11 1.37,4.79 -1.50,1.46 -1.72,1.04 -1.94,0.62 -2.01,0.28 -2.08,-0.06 -1.98,-0.39 -1.88,-0.73 -1.62,-0.97 -1.37,-1.22 -1.03,-1.31 -0.68,-1.4 -0.34,-1.4 8.57,-1.4 8.57,-1.4 L 8.57,-1.4 Z"></path></g><g transform="translate(334.1044029927939 316.21581759320236) rotate(0 13.791676723097567 -18.618763576181777)" stroke="none"><path fill="#d3d3d3" d="M 1.4,8.57 Q 1.4,8.57 1.38,0.13 1.37,0.27 1.33,0.40 1.29,0.53 1.22,0.65 1.16,0.77 1.07,0.88 0.98,0.98 0.88,1.07 0.77,1.16 0.65,1.22 0.53,1.29 0.40,1.33 0.27,1.37 0.13,1.38 -1.71,1.4 -0.13,1.38 -0.27,1.37 -0.40,1.33 -0.53,1.29 -0.65,1.22 -0.77,1.16 -0.88,1.07 -0.98,0.98 -1.07,0.88 -1.16,0.77 -1.22,0.65 -1.29,0.53 -1.33,0.40 -1.37,0.27 -1.38,0.13 -1.4,-8.57 -1.29,-0.71 -1.19,-1.42 -0.71,-1.75 -0.23,-2.08 0.22,-2.80 0.69,-3.53 3.39,-5.67 6.10,-7.82 8.74,-10.86 11.39,-13.91 14.09,-17.85 16.80,-21.78 19.17,-25.44 21.55,-29.10 22.34,-30.80 23.13,-32.50 23.19,-33.30 23.26,-34.10 23.32,-35.03 23.38,-35.96 23.43,-36.09 23.47,-36.22 23.54,-36.33 23.61,-36.45 23.71,-36.55 23.80,-36.65 23.91,-36.74 24.02,-36.82 24.14,-36.88 24.27,-36.93 24.40,-36.97 24.53,-37.00 24.67,-37.01 24.81,-37.01 24.94,-36.99 25.08,-36.97 25.21,-36.93 25.34,-36.88 25.46,-36.81 25.57,-36.74 25.67,-36.64 25.78,-36.55 25.86,-36.44 25.94,-36.33 26.00,-36.21 26.06,-36.08 26.09,-35.95 26.12,-35.82 26.13,-35.68 26.13,-35.54 26.11,-35.41 26.09,-35.27 26.05,-35.14 26.00,-35.01 25.93,-34.90 25.86,-34.78 25.77,-34.68 25.67,-34.58 25.56,-34.49 25.45,-34.41 25.33,-34.35 25.20,-34.30 25.07,-34.26 24.94,-34.23 24.80,-34.22 24.66,-34.22 24.53,-34.24 24.39,-34.26 24.26,-34.30 24.13,-34.35 24.02,-34.42 23.90,-34.49 23.80,-34.58 23.70,-34.68 23.62,-34.79 23.53,-34.90 23.48,-35.02 23.42,-35.15 23.38,-35.28 23.35,-35.41 23.34,-35.55 23.34,-35.69 23.36,-35.82 23.38,-35.96 23.43,-36.09 23.47,-36.22 23.54,-36.33 23.61,-36.45 23.71,-36.55 23.80,-36.65 23.91,-36.74 24.02,-36.82 24.14,-36.88 24.27,-36.93 24.40,-36.97 24.53,-37.00 24.67,-37.01 24.81,-37.01 24.94,-36.99 25.08,-36.97 25.21,-36.93 25.34,-36.88 25.46,-36.81 25.57,-36.74 25.67,-36.64 25.78,-36.55 25.86,-36.44 25.94,-36.33 26.00,-36.21 26.06,-36.08 26.09,-35.95 26.12,-35.82 26.13,-35.68 26.13,-35.54 26.09,-34.72 26.05,-33.90 25.94,-32.84 25.84,-31.78 24.92,-29.77 24.00,-27.75 21.57,-23.99 19.13,-20.23 16.37,-16.21 13.60,-12.20 10.82,-8.99 8.03,-5.79 5.39,-3.71 2.75,-1.63 2.18,-0.81 1.61,0.01 1.40,0.03 1.19,0.04 1.29,0.02 1.4,8.57 1.4,8.57 L 1.4,8.57 Z"></path></g><g transform="translate(303.7627142019792 361.72835077942443) rotate(0 12.412509050787776 -5.516670689239049)" stroke="none"><path fill="#d3d3d3" d="M 1.4,8.57 Q 1.4,8.57 1.38,0.13 1.37,0.27 1.33,0.40 1.29,0.53 1.22,0.65 1.16,0.77 1.07,0.88 0.98,0.98 0.88,1.07 0.77,1.16 0.65,1.22 0.53,1.29 0.40,1.33 0.27,1.37 0.13,1.38 -1.71,1.4 -0.13,1.38 -0.27,1.37 -0.40,1.33 -0.53,1.29 -0.65,1.22 -0.77,1.16 -0.88,1.07 -0.98,0.98 -1.07,0.88 -1.16,0.77 -1.22,0.65 -1.29,0.53 -1.33,0.40 -1.37,0.27 -1.38,0.13 -1.4,-8.57 -1.39,-0.44 -1.38,-0.88 -0.96,-2.33 -0.53,-3.78 0.42,-4.87 1.39,-5.95 2.52,-7.12 3.64,-8.30 4.66,-9.32 5.68,-10.34 6.99,-10.88 8.31,-11.43 9.31,-11.69 10.30,-11.94 11.17,-12.06 12.03,-12.19 12.81,-12.25 13.59,-12.31 14.33,-12.34 15.07,-12.37 15.78,-12.38 16.50,-12.40 17.46,-12.36 18.43,-12.31 19.01,-11.82 19.59,-11.33 20.20,-10.71 20.80,-10.09 21.09,-9.44 21.38,-8.79 21.79,-8.24 22.21,-7.68 22.83,-6.95 23.46,-6.21 23.83,-5.37 24.19,-4.53 24.27,-4.00 24.35,-3.47 24.73,-3.18 25.11,-2.89 25.41,-2.22 25.70,-1.55 25.22,-1.97 24.74,-2.38 25.02,-1.17 25.30,0.04 25.01,0.18 24.71,0.33 24.39,0.32 24.06,0.32 23.77,0.17 23.48,0.02 23.29,-0.24 23.10,-0.50 23.92,-1.44 24.74,-2.38 24.13,-2.24 23.51,-2.10 23.38,-1.82 23.25,-1.54 23.04,-1.75 22.83,-1.95 21.76,-3.20 20.70,-4.45 19.93,-5.04 19.16,-5.62 18.19,-5.91 17.21,-6.20 15.40,-6.36 13.59,-6.52 11.64,-6.27 9.69,-6.01 8.63,-5.99 7.58,-5.96 7.07,-5.01 6.56,-4.06 5.01,-2.66 3.46,-1.27 3.33,-1.21 3.21,-1.15 3.08,-1.12 2.94,-1.09 2.81,-1.08 2.67,-1.07 2.53,-1.10 2.40,-1.12 2.27,-1.16 2.14,-1.21 2.02,-1.28 1.90,-1.35 1.80,-1.44 1.70,-1.53 1.62,-1.65 1.54,-1.76 1.48,-1.88 1.42,-2.00 1.39,-2.14 1.35,-2.27 1.35,-2.41 1.34,-2.54 1.36,-2.68 1.38,-2.82 1.43,-2.94 1.48,-3.07 1.55,-3.19 1.62,-3.31 1.71,-3.41 1.80,-3.51 1.91,-3.59 2.02,-3.68 2.15,-3.73 2.27,-3.79 2.40,-3.83 2.54,-3.86 2.67,-3.86 2.81,-3.87 2.95,-3.85 3.08,-3.83 3.21,-3.78 3.34,-3.74 3.46,-3.67 3.58,-3.60 3.68,-3.50 3.78,-3.41 3.86,-3.30 3.94,-3.19 4.00,-3.07 4.06,-2.94 4.09,-2.81 4.12,-2.68 4.13,-2.54 4.14,-2.40 4.12,-2.27 4.10,-2.13 4.05,-2.00 4.00,-1.87 3.93,-1.75 3.86,-1.64 3.77,-1.54 3.68,-1.43 3.57,-1.35 3.46,-1.27 3.33,-1.21 3.21,-1.15 3.08,-1.12 2.94,-1.09 2.81,-1.08 2.67,-1.07 2.53,-1.10 2.40,-1.12 2.27,-1.16 2.14,-1.21 2.02,-1.28 1.90,-1.35 1.80,-1.44 1.70,-1.53 1.62,-1.65 1.54,-1.76 1.48,-1.88 1.42,-2.00 1.39,-2.14 1.35,-2.27 1.35,-2.41 1.34,-2.54 1.36,-2.68 1.38,-2.82 1.43,-2.94 1.48,-3.07 1.55,-3.19 1.62,-3.31 1.71,-3.41 1.80,-3.51 3.10,-4.68 4.41,-5.85 5.25,-7.09 6.10,-8.34 7.74,-8.57 9.38,-8.80 11.46,-9.06 13.54,-9.32 15.64,-9.13 17.75,-8.94 19.09,-8.53 20.43,-8.12 21.53,-7.30 22.63,-6.49 23.93,-4.94 25.23,-3.39 25.60,-2.12 25.97,-0.86 25.63,-0.40 25.30,0.04 25.01,0.18 24.71,0.33 24.39,0.32 24.06,0.32 23.77,0.17 23.48,0.02 23.29,-0.24 23.10,-0.50 22.98,-0.86 22.86,-1.23 22.41,-1.62 21.95,-2.01 21.74,-2.85 21.52,-3.69 21.31,-4.21 21.09,-4.72 20.56,-5.33 20.02,-5.93 19.48,-6.66 18.95,-7.40 18.72,-7.96 18.49,-8.51 18.06,-8.92 17.62,-9.33 17.51,-9.52 17.39,-9.71 16.96,-9.66 16.54,-9.60 15.85,-9.59 15.15,-9.57 14.45,-9.54 13.76,-9.51 13.05,-9.46 12.34,-9.41 11.59,-9.30 10.85,-9.19 10.01,-8.98 9.18,-8.77 8.21,-8.39 7.24,-8.01 6.45,-7.18 5.65,-6.35 4.54,-5.19 3.43,-4.04 2.67,-3.23 1.91,-2.42 1.64,-1.45 1.38,-0.49 1.39,-0.24 1.4,8.57 1.4,8.57 L 1.4,8.57 Z"></path></g><g transform="translate(462.3669965176016 72.10313959437462) rotate(0 -35.858359480053764 52.40837154777091)" stroke="none"><path fill="#d3d3d3" d="M -1.4,-8.57 Q -1.4,-8.57 -1.38,-0.13 -1.37,-0.27 -1.33,-0.40 -1.29,-0.53 -1.22,-0.65 -1.16,-0.77 -1.07,-0.88 -0.98,-0.98 -0.88,-1.07 -0.77,-1.16 -0.65,-1.22 -0.53,-1.29 -0.40,-1.33 -0.27,-1.37 -0.13,-1.38 1.71,-1.4 0.13,-1.38 0.27,-1.37 0.40,-1.33 0.53,-1.29 0.65,-1.22 0.77,-1.16 0.88,-1.07 0.98,-0.98 1.07,-0.88 1.16,-0.77 1.22,-0.65 1.29,-0.53 1.33,-0.40 1.37,-0.27 1.38,-0.13 1.4,8.57 1.36,0.54 1.33,1.09 0.78,1.93 0.23,2.77 -1.09,3.46 -2.43,4.16 -6.45,6.51 -10.46,8.86 -13.77,11.00 -17.07,13.15 -21.80,19.00 -26.52,24.85 -30.64,30.21 -34.75,35.58 -38.19,40.33 -41.62,45.07 -44.70,49.49 -47.78,53.92 -50.69,58.86 -53.59,63.80 -57.11,70.73 -60.62,77.67 -62.71,82.50 -64.81,87.33 -66.20,91.10 -67.58,94.88 -68.27,97.09 -68.96,99.30 -69.49,101.08 -70.01,102.85 -70.51,103.08 -71.01,103.32 -71.44,103.29 -71.87,103.27 -72.20,103.00 -72.54,102.72 -72.65,102.31 -72.76,101.89 -72.61,101.49 -72.46,101.09 -72.29,100.92 -72.13,100.76 -72.02,99.95 -71.91,99.14 -71.85,99.02 -71.79,98.89 -71.71,98.78 -71.62,98.67 -71.52,98.58 -71.42,98.49 -71.30,98.42 -71.18,98.35 -71.06,98.30 -70.93,98.26 -70.79,98.24 -70.65,98.22 -70.52,98.23 -70.38,98.23 -70.25,98.27 -70.11,98.30 -69.99,98.36 -69.87,98.42 -69.76,98.50 -69.65,98.58 -69.55,98.68 -69.46,98.79 -69.39,98.90 -69.32,99.02 -69.28,99.15 -69.23,99.28 -69.21,99.42 -69.19,99.55 -69.20,99.69 -69.21,99.83 -69.24,99.96 -69.27,100.09 -69.33,100.22 -69.39,100.34 -69.47,100.45 -69.56,100.56 -69.66,100.65 -69.76,100.74 -69.88,100.81 -69.99,100.88 -70.12,100.93 -70.25,100.98 -70.39,101.00 -70.53,101.02 -70.66,101.01 -70.80,101.00 -70.93,100.97 -71.07,100.93 -71.19,100.87 -71.31,100.82 -71.42,100.73 -71.53,100.65 -71.62,100.55 -71.72,100.45 -71.79,100.33 -71.86,100.21 -71.90,100.08 -71.95,99.95 -71.97,99.82 -71.99,99.68 -71.98,99.54 -71.97,99.41 -71.94,99.27 -71.91,99.14 -71.85,99.02 -71.79,98.89 -71.71,98.78 -71.62,98.67 -71.52,98.58 -71.42,98.49 -71.30,98.42 -71.18,98.35 -71.06,98.30 -70.93,98.26 -70.79,98.24 -70.65,98.22 -70.52,98.23 -70.38,98.23 -70.25,98.27 -70.11,98.30 -69.99,98.36 -69.87,98.42 -69.76,98.50 -69.65,98.58 -69.55,98.68 -69.46,98.79 -69.39,98.90 -69.32,99.02 -69.28,99.15 -69.23,99.28 -69.21,99.42 -69.19,99.55 -69.20,99.69 -69.21,99.83 -69.38,100.85 -69.56,101.88 -69.92,102.36 -70.27,102.84 -70.23,102.02 -70.19,101.20 -70.60,102.26 -71.01,103.32 -71.44,103.29 -71.87,103.27 -72.20,103.00 -72.54,102.72 -72.65,102.31 -72.76,101.89 -72.61,101.49 -72.46,101.09 -71.32,101.14 -70.19,101.20 -70.95,100.90 -71.71,100.61 -71.86,100.75 -72.01,100.89 -71.84,99.73 -71.66,98.56 -70.95,96.27 -70.24,93.98 -68.82,90.13 -67.41,86.28 -65.28,81.38 -63.15,76.48 -59.60,69.47 -56.05,62.45 -53.09,57.43 -50.14,52.40 -47.02,47.93 -43.90,43.45 -40.45,38.68 -37.00,33.91 -32.86,28.51 -28.72,23.11 -23.83,17.09 -18.95,11.07 -15.44,8.77 -11.94,6.48 -7.85,4.09 -3.77,1.69 -2.69,1.18 -1.61,0.67 -1.47,0.47 -1.33,0.28 -1.36,0.14 -1.4,-8.57 -1.4,-8.57 L -1.4,-8.57 Z"></path></g><g transform="translate(375.4794331620867 154.8531999329603) rotate(0 22.066682756956197 22.756266593111064)" stroke="none"><path fill="#d3d3d3" d="M -1.4,-8.57 Q -1.4,-8.57 -1.38,-0.13 -1.37,-0.27 -1.33,-0.40 -1.29,-0.53 -1.22,-0.65 -1.16,-0.77 -1.07,-0.88 -0.98,-0.98 -0.88,-1.07 -0.77,-1.16 -0.65,-1.22 -0.53,-1.29 -0.40,-1.33 -0.27,-1.37 -0.13,-1.38 1.71,-1.4 0.13,-1.38 0.27,-1.37 0.40,-1.33 0.53,-1.29 0.65,-1.22 0.77,-1.16 0.88,-1.07 0.98,-0.98 1.07,-0.88 1.16,-0.77 1.22,-0.65 1.29,-0.53 1.33,-0.40 1.37,-0.27 1.38,-0.13 1.4,8.57 1.39,0.29 1.39,0.58 1.73,2.81 2.08,5.03 2.25,9.65 2.43,14.27 2.52,19.32 2.60,24.37 2.64,29.31 2.69,34.25 2.70,36.98 2.72,39.70 2.96,40.80 3.19,41.89 3.31,41.98 3.43,42.06 4.77,41.88 6.11,41.71 7.49,41.31 8.88,40.92 11.30,39.70 13.72,38.48 19.08,35.79 24.44,33.11 29.35,30.32 34.26,27.54 35.93,27.55 37.59,27.56 37.72,27.60 37.85,27.64 37.97,27.70 38.09,27.77 38.20,27.86 38.30,27.95 38.39,28.05 38.48,28.16 38.54,28.28 38.60,28.40 38.64,28.54 38.68,28.67 38.69,28.81 38.70,28.94 38.69,29.08 38.67,29.21 38.63,29.35 38.59,29.48 38.52,29.60 38.46,29.72 38.37,29.82 38.28,29.93 38.17,30.01 38.07,30.10 37.94,30.16 37.82,30.22 37.69,30.26 37.56,30.30 37.42,30.31 37.29,30.32 37.15,30.31 37.01,30.29 36.88,30.25 36.75,30.21 36.63,30.15 36.51,30.08 36.41,29.99 36.30,29.90 36.21,29.80 36.13,29.69 36.07,29.57 36.00,29.44 35.96,29.31 35.93,29.18 35.91,29.04 35.90,28.91 35.92,28.77 35.93,28.63 35.97,28.50 36.02,28.37 36.08,28.25 36.15,28.13 36.24,28.03 36.32,27.92 36.43,27.84 36.54,27.75 36.66,27.69 36.78,27.62 36.91,27.59 37.05,27.55 37.18,27.54 37.32,27.52 37.46,27.54 37.59,27.56 37.72,27.60 37.85,27.64 37.97,27.70 38.09,27.77 38.20,27.86 38.30,27.95 38.39,28.05 38.48,28.16 38.54,28.28 38.60,28.40 38.64,28.54 38.68,28.67 38.69,28.81 38.70,28.94 38.69,29.08 38.67,29.21 38.63,29.35 38.59,29.48 38.52,29.60 38.46,29.72 38.37,29.82 38.28,29.93 38.17,30.01 38.07,30.10 37.94,30.16 37.82,30.22 37.69,30.26 37.56,30.30 37.42,30.31 37.29,30.32 36.13,30.29 34.97,30.25 30.36,32.91 25.76,35.58 20.37,38.28 14.97,40.98 12.43,42.25 9.90,43.53 8.26,43.99 6.63,44.46 4.69,44.61 2.74,44.77 1.82,44.13 0.89,43.50 0.42,41.78 -0.05,40.06 -0.07,37.17 -0.10,34.27 -0.15,29.34 -0.19,24.41 -0.27,19.37 -0.36,14.34 -0.53,9.82 -0.70,5.30 -1.05,3.05 -1.39,0.79 -1.39,0.39 -1.4,-8.57 -1.4,-8.57 L -1.4,-8.57 Z"></path></g><g transform="translate(516.3817798892977 38.171571128521805) rotate(0 9.390523709507306 -12.91197010057249)" stroke="none"><path fill="#d3d3d3" d="M 1.35,0.33 Q 1.35,0.33 1.31,0.46 1.26,0.59 1.19,0.71 1.12,0.83 1.03,0.93 0.94,1.03 0.83,1.11 0.72,1.20 0.59,1.25 0.47,1.31 0.33,1.35 0.20,1.38 0.06,1.39 -0.06,1.39 -0.20,1.37 -0.33,1.35 -0.46,1.31 -0.59,1.26 -0.71,1.19 -0.83,1.12 -0.93,1.03 -1.03,0.94 -1.11,0.83 -1.20,0.72 -1.25,0.59 -1.31,0.47 -1.35,0.33 -1.38,0.20 -1.39,0.06 -1.39,-0.06 -1.37,-0.20 -1.35,-0.33 -1.16,-1.10 -0.97,-1.86 -0.68,-3.41 -0.39,-4.96 0.36,-8.57 1.11,-12.18 3.18,-16.52 5.25,-20.87 7.34,-21.96 9.43,-23.05 11.93,-17.79 14.42,-12.52 15.64,-8.94 16.86,-5.35 17.56,-3.73 18.27,-2.11 18.55,-1.92 18.83,-1.73 18.10,-1.80 17.37,-1.88 18.37,-1.23 19.37,-0.58 19.26,-0.22 19.14,0.13 18.86,0.38 18.57,0.64 18.20,0.70 17.82,0.76 17.47,0.62 17.11,0.48 17.24,-0.70 17.37,-1.88 16.97,-1.27 16.57,-0.65 16.59,-1.02 16.62,-1.40 16.66,-1.53 16.70,-1.66 16.77,-1.78 16.84,-1.90 16.93,-2.00 17.02,-2.10 17.12,-2.19 17.23,-2.27 17.36,-2.33 17.48,-2.40 17.61,-2.43 17.74,-2.47 17.88,-2.48 18.02,-2.49 18.15,-2.47 18.29,-2.46 18.42,-2.41 18.55,-2.37 18.67,-2.30 18.79,-2.23 18.89,-2.14 19.00,-2.05 19.08,-1.95 19.16,-1.84 19.23,-1.72 19.29,-1.59 19.32,-1.46 19.36,-1.33 19.37,-1.19 19.38,-1.06 19.36,-0.92 19.35,-0.78 19.31,-0.65 19.26,-0.52 19.19,-0.40 19.13,-0.28 19.04,-0.18 18.95,-0.08 18.84,0.00 18.73,0.08 18.61,0.15 18.49,0.21 18.35,0.24 18.22,0.28 18.08,0.29 17.95,0.30 17.81,0.28 17.68,0.27 17.55,0.22 17.41,0.18 17.30,0.11 17.18,0.05 17.07,-0.03 16.97,-0.12 16.88,-0.23 16.80,-0.34 16.74,-0.46 16.68,-0.59 16.64,-0.72 16.60,-0.85 16.59,-0.99 16.58,-1.12 16.60,-1.26 16.62,-1.40 16.66,-1.53 16.70,-1.66 16.77,-1.78 16.84,-1.90 16.93,-2.00 17.02,-2.10 17.12,-2.19 17.23,-2.27 17.36,-2.33 17.48,-2.40 17.61,-2.43 17.74,-2.47 17.88,-2.48 18.02,-2.49 18.15,-2.47 18.29,-2.46 18.42,-2.41 18.55,-2.37 18.67,-2.30 18.79,-2.23 18.89,-2.14 19.00,-2.05 19.08,-1.95 19.16,-1.84 19.23,-1.72 19.29,-1.59 19.32,-1.46 19.36,-1.33 19.37,-1.19 19.38,-1.06 19.38,-0.82 19.37,-0.58 19.26,-0.22 19.14,0.13 18.86,0.38 18.57,0.64 18.20,0.70 17.82,0.76 17.47,0.62 17.11,0.48 16.59,0.05 16.06,-0.38 15.16,-2.35 14.25,-4.33 13.03,-7.93 11.81,-11.53 10.21,-15.95 8.61,-20.37 7.98,-19.70 7.36,-19.03 5.56,-15.16 3.77,-11.29 3.06,-7.85 2.35,-4.42 2.05,-2.84 1.75,-1.26 1.55,-0.46 1.35,0.33 1.35,0.33 L 1.35,0.33 Z"></path></g><g transform="translate(519.5119544591334 31.128678346391382) rotate(0 6.6516209609010275 -1.1738154636884133)" stroke="none"><path fill="#d3d3d3" d="M -8.57,1.4 Q -8.57,1.4 -0.13,1.38 -0.27,1.37 -0.40,1.33 -0.53,1.29 -0.65,1.22 -0.77,1.16 -0.88,1.07 -0.98,0.98 -1.07,0.88 -1.16,0.77 -1.22,0.65 -1.29,0.53 -1.33,0.40 -1.37,0.27 -1.38,0.13 -1.4,-1.71 -1.38,-0.13 -1.37,-0.27 -1.33,-0.40 -1.29,-0.53 -1.22,-0.65 -1.16,-0.77 -1.07,-0.88 -0.98,-0.98 -0.88,-1.07 -0.77,-1.16 -0.65,-1.22 -0.53,-1.29 -0.40,-1.33 -0.27,-1.37 -0.13,-1.38 8.57,-1.4 0.25,-1.38 0.51,-1.37 1.42,-1.74 2.33,-2.12 4.28,-2.53 6.23,-2.94 8.11,-3.14 9.99,-3.35 10.13,-3.32 10.26,-3.30 10.39,-3.25 10.52,-3.20 10.63,-3.12 10.75,-3.05 10.84,-2.95 10.94,-2.86 11.02,-2.74 11.10,-2.63 11.15,-2.50 11.21,-2.38 11.24,-2.24 11.27,-2.11 11.27,-1.97 11.27,-1.84 11.25,-1.70 11.22,-1.57 11.17,-1.44 11.12,-1.31 11.05,-1.20 10.97,-1.08 10.88,-0.98 10.78,-0.88 10.67,-0.81 10.55,-0.73 10.43,-0.67 10.30,-0.62 10.17,-0.59 10.03,-0.56 9.90,-0.56 9.76,-0.56 9.62,-0.58 9.49,-0.61 9.36,-0.66 9.23,-0.71 9.12,-0.78 9.00,-0.86 8.90,-0.95 8.81,-1.05 8.73,-1.16 8.65,-1.27 8.60,-1.40 8.54,-1.52 8.51,-1.66 8.48,-1.79 8.48,-1.93 8.48,-2.07 8.50,-2.20 8.53,-2.34 8.58,-2.46 8.63,-2.59 8.70,-2.71 8.78,-2.82 8.87,-2.92 8.97,-3.02 9.08,-3.10 9.20,-3.18 9.32,-3.23 9.45,-3.28 9.58,-3.31 9.72,-3.34 9.85,-3.34 9.99,-3.35 10.13,-3.32 10.26,-3.30 10.39,-3.25 10.52,-3.20 10.63,-3.12 10.75,-3.05 10.84,-2.95 10.94,-2.86 11.02,-2.74 11.10,-2.63 11.15,-2.50 11.21,-2.38 11.24,-2.24 11.27,-2.11 11.27,-1.97 11.27,-1.84 11.25,-1.70 11.22,-1.57 11.17,-1.44 11.12,-1.31 11.05,-1.20 10.97,-1.08 10.88,-0.98 10.78,-0.88 10.67,-0.81 10.55,-0.73 10.43,-0.67 10.30,-0.62 10.17,-0.59 10.03,-0.56 8.35,-0.37 6.67,-0.18 4.91,0.18 3.14,0.55 2.09,0.96 1.04,1.37 0.52,1.38 -8.57,1.4 -8.57,1.4 L -8.57,1.4 Z"></path></g><g transform="translate(538.2930018781481 35.82394020114498) rotate(0 7.04289278213048 -3.5214463910652114)" stroke="none"><path fill="#d3d3d3" d="M 1.25,-0.62 Q 1.25,-0.62 1.30,-0.49 1.35,-0.36 1.37,-0.23 1.39,-0.09 1.39,0.03 1.38,0.17 1.35,0.30 1.32,0.44 1.27,0.56 1.21,0.69 1.13,0.80 1.05,0.91 0.95,1.01 0.85,1.10 0.74,1.17 0.62,1.25 0.49,1.30 0.36,1.35 0.23,1.37 0.09,1.39 -0.03,1.39 -0.17,1.38 -0.30,1.35 -0.44,1.32 -0.56,1.27 -0.69,1.21 -0.80,1.13 -0.91,1.05 -1.01,0.95 -1.10,0.85 -1.17,0.74 -1.25,0.62 -1.49,0.12 -1.73,-0.37 -1.85,-1.29 -1.98,-2.21 -2.03,-3.02 -2.08,-3.82 -1.38,-3.16 -0.68,-2.51 -1.38,-3.25 -2.08,-4.00 -1.86,-4.46 -1.64,-4.93 -1.16,-5.12 -0.68,-5.31 -0.20,-5.12 0.27,-4.93 -0.20,-3.72 -0.68,-2.51 0.01,-3.16 0.71,-3.82 0.68,-3.45 0.66,-3.07 0.65,-1.92 0.64,-0.76 0.63,0.01 0.62,0.79 0.62,0.99 0.62,1.19 0.13,0.51 -0.36,-0.16 0.01,0.89 0.39,1.94 0.04,2.21 -0.30,2.49 -0.74,2.50 -1.19,2.51 -1.54,2.25 -1.90,1.99 -2.04,1.57 -2.17,1.15 -1.26,0.49 -0.36,-0.16 -1.15,0.11 -1.94,0.40 -1.77,0.14 -1.59,-0.12 -0.67,-1.88 0.23,-3.65 2.03,-5.46 3.82,-7.28 5.82,-8.02 7.83,-8.75 10.02,-7.73 12.22,-6.71 13.27,-5.29 14.32,-3.87 14.85,-2.33 15.38,-0.79 15.15,-0.13 14.93,0.52 14.67,0.83 14.42,1.14 14.03,1.26 13.65,1.38 13.27,1.26 12.88,1.15 12.62,0.85 12.36,0.54 12.23,0.22 12.10,-0.09 12.09,-0.22 12.07,-0.36 12.08,-0.50 12.09,-0.63 12.12,-0.77 12.16,-0.90 12.22,-1.02 12.28,-1.14 12.37,-1.25 12.45,-1.36 12.56,-1.45 12.66,-1.54 12.78,-1.61 12.90,-1.68 13.03,-1.72 13.16,-1.76 13.30,-1.78 13.43,-1.80 13.57,-1.79 13.71,-1.78 13.84,-1.74 13.97,-1.70 14.09,-1.64 14.22,-1.58 14.32,-1.50 14.43,-1.41 14.52,-1.31 14.61,-1.20 14.68,-1.08 14.75,-0.97 14.79,-0.84 14.83,-0.70 14.85,-0.57 14.87,-0.43 14.86,-0.30 14.85,-0.16 14.81,-0.03 14.77,0.10 14.71,0.22 14.65,0.34 14.57,0.45 14.48,0.56 14.38,0.65 14.28,0.74 14.16,0.81 14.04,0.87 13.91,0.92 13.78,0.96 13.64,0.98 13.50,0.99 13.37,0.98 13.23,0.97 13.10,0.94 12.97,0.90 12.84,0.84 12.72,0.78 12.61,0.69 12.50,0.61 12.41,0.51 12.32,0.40 12.26,0.28 12.19,0.16 12.15,0.03 12.10,-0.09 12.09,-0.22 12.07,-0.36 12.08,-0.50 12.09,-0.63 12.12,-0.77 12.16,-0.90 12.22,-1.02 12.28,-1.14 12.37,-1.25 12.45,-1.36 12.56,-1.45 12.66,-1.54 12.78,-1.61 12.90,-1.68 13.03,-1.72 13.16,-1.76 13.30,-1.78 13.43,-1.80 13.57,-1.79 13.71,-1.78 13.84,-1.74 13.97,-1.70 14.09,-1.64 14.22,-1.58 14.32,-1.50 14.43,-1.41 14.52,-1.31 14.61,-1.20 14.68,-1.08 14.75,-0.97 14.83,-0.77 14.92,-0.58 14.27,-1.00 13.62,-1.41 14.28,-0.44 14.93,0.52 14.67,0.83 14.42,1.14 14.03,1.26 13.65,1.38 13.27,1.26 12.88,1.15 12.62,0.85 12.36,0.54 12.99,-0.43 13.62,-1.41 12.99,-0.99 12.35,-0.56 12.46,-0.70 12.58,-0.85 12.22,-1.70 11.86,-2.54 11.14,-3.55 10.42,-4.56 9.07,-5.26 7.72,-5.96 6.54,-5.45 5.36,-4.94 3.93,-3.48 2.50,-2.01 1.66,-0.36 0.82,1.29 0.60,1.62 0.39,1.94 0.04,2.21 -0.30,2.49 -0.74,2.50 -1.19,2.51 -1.54,2.25 -1.90,1.99 -2.04,1.57 -2.17,1.15 -2.17,0.95 -2.17,0.76 -2.16,-0.01 -2.15,-0.79 -2.14,-1.98 -2.13,-3.18 -2.10,-3.59 -2.08,-4.00 -1.86,-4.46 -1.64,-4.93 -1.16,-5.12 -0.68,-5.31 -0.20,-5.12 0.27,-4.93 0.49,-4.46 0.71,-4.00 0.75,-3.23 0.80,-2.47 0.87,-1.83 0.94,-1.18 1.10,-0.90 1.25,-0.62 1.25,-0.62 L 1.25,-0.62 Z"></path></g><g transform="translate(576.6376403586361 32.69376563130925) rotate(0 59.08204500565006 14.085785564260902)" stroke="none"><path fill="#d3d3d3" d="M 1.4,8.57 Q 1.4,8.57 1.38,0.13 1.37,0.27 1.33,0.40 1.29,0.53 1.22,0.65 1.16,0.77 1.07,0.88 0.98,0.98 0.88,1.07 0.77,1.16 0.65,1.22 0.53,1.29 0.40,1.33 0.27,1.37 0.13,1.38 -1.71,1.4 -0.13,1.38 -0.27,1.37 -0.40,1.33 -0.53,1.29 -0.65,1.22 -0.77,1.16 -0.88,1.07 -0.98,0.98 -1.07,0.88 -1.16,0.77 -1.22,0.65 -1.29,0.53 -1.33,0.40 -1.37,0.27 -1.38,0.13 -1.4,-8.57 -1.4,-0.19 -1.4,-0.39 -1.4,-0.68 -1.4,-0.97 -1.39,-1.75 -1.39,-2.52 -1.15,-3.96 -0.91,-5.41 -0.82,-5.22 -0.72,-5.03 -0.05,-4.89 0.60,-4.75 -0.27,-5.59 -1.15,-6.44 -0.98,-6.75 -0.81,-7.05 -0.51,-7.24 -0.21,-7.42 0.13,-7.44 0.48,-7.45 0.80,-7.30 1.11,-7.14 0.86,-5.94 0.60,-4.75 1.07,-5.24 1.55,-5.73 1.32,-4.90 1.09,-4.07 1.16,-2.62 1.23,-1.17 1.55,-0.02 1.88,1.12 2.32,1.54 2.77,1.96 3.00,1.97 3.23,1.97 3.51,1.49 3.80,1.02 4.24,-0.98 4.68,-2.98 4.92,-4.44 5.17,-5.89 5.36,-6.27 5.56,-6.66 5.95,-6.85 6.33,-7.04 6.76,-6.97 7.19,-6.90 7.49,-6.60 7.79,-6.29 7.95,-5.99 8.10,-5.69 8.38,-4.71 8.66,-3.74 8.98,-2.49 9.31,-1.25 9.65,0.09 10.00,1.45 10.12,2.00 10.24,2.55 10.48,2.48 10.71,2.42 11.17,2.21 11.62,2.00 11.84,1.64 12.06,1.28 12.40,0.34 12.74,-0.59 12.91,-1.44 13.09,-2.28 13.18,-2.95 13.28,-3.61 13.40,-3.56 13.52,-3.51 14.05,-3.48 14.57,-3.46 14.54,-3.07 14.51,-2.69 14.37,-2.01 14.23,-1.33 14.13,-0.49 14.04,0.34 13.82,0.66 13.59,0.97 13.53,0.73 13.46,0.50 12.88,0.23 12.31,-0.02 12.91,1.06 13.52,2.16 13.28,2.37 13.04,2.59 12.72,2.68 12.41,2.76 12.09,2.70 11.77,2.64 11.52,2.44 11.26,2.24 11.79,1.10 12.31,-0.02 11.76,0.27 11.21,0.58 11.44,0.24 11.67,-0.09 12.17,-0.83 12.66,-1.57 13.15,-2.40 13.65,-3.23 14.76,-4.31 15.87,-5.39 16.87,-6.02 17.87,-6.65 18.98,-6.48 20.08,-6.32 20.91,-5.89 21.74,-5.46 22.19,-4.68 22.65,-3.89 23.02,-2.34 23.39,-0.79 23.55,0.27 23.71,1.34 23.87,1.85 24.04,2.36 24.39,2.67 24.73,2.98 25.02,2.91 25.31,2.84 25.76,2.48 26.21,2.12 26.90,-1.27 27.58,-4.67 27.96,-7.82 28.35,-10.97 28.54,-13.33 28.73,-15.68 28.83,-17.17 28.92,-18.66 29.01,-18.97 29.10,-19.27 29.95,-19.28 30.80,-19.28 30.81,-16.83 30.81,-14.39 30.70,-11.37 30.58,-8.36 30.52,-6.07 30.47,-3.78 30.42,-1.62 30.37,0.53 30.50,0.75 30.63,0.98 30.07,0.59 29.50,0.19 30.00,1.30 30.49,2.42 30.22,2.64 29.94,2.86 29.59,2.92 29.24,2.98 28.90,2.86 28.57,2.73 28.34,2.46 28.11,2.19 28.80,1.19 29.50,0.19 28.87,0.47 28.24,0.75 29.11,-0.41 29.98,-1.58 30.82,-2.78 31.66,-3.98 32.78,-5.27 33.89,-6.56 35.41,-7.30 36.94,-8.05 38.33,-7.39 39.73,-6.73 40.36,-5.88 41.00,-5.04 41.30,-4.10 41.61,-3.16 41.53,-1.51 41.46,0.13 41.42,1.20 41.38,2.28 41.46,2.94 41.53,3.59 42.08,3.99 42.62,4.39 43.37,4.48 44.12,4.57 44.76,4.49 45.40,4.42 46.61,3.52 47.82,2.62 48.64,1.63 49.45,0.63 50.03,-0.36 50.60,-1.36 50.88,-2.45 51.16,-3.54 51.03,-4.04 50.91,-4.55 50.90,-4.67 50.88,-4.78 50.57,-4.54 50.25,-4.31 49.65,-3.59 49.04,-2.88 48.71,-1.33 48.38,0.21 48.69,1.80 49.00,3.39 49.85,4.42 50.70,5.44 51.64,5.47 52.58,5.49 53.63,5.02 54.68,4.56 55.79,3.77 56.90,2.99 57.86,2.02 58.82,1.04 59.87,-0.00 60.92,-1.06 61.45,-1.78 61.97,-2.50 62.45,-3.08 62.93,-3.66 63.23,-3.88 63.53,-4.09 63.89,-4.12 64.25,-4.15 64.58,-4.00 64.91,-3.84 65.12,-3.54 65.33,-3.24 65.37,-2.68 65.42,-2.12 64.81,-1.54 64.20,-0.95 63.76,-0.58 63.32,-0.20 63.14,0.21 62.96,0.64 62.84,1.57 62.72,2.50 62.82,3.65 62.93,4.80 63.33,5.72 63.73,6.64 63.86,7.06 64.00,7.49 64.17,7.43 64.35,7.38 64.86,6.81 65.36,6.25 65.67,5.61 65.98,4.98 66.36,3.66 66.73,2.34 67.10,1.16 67.47,-0.00 67.47,-0.34 67.46,-0.68 67.66,-1.17 67.87,-1.67 68.36,-1.87 68.86,-2.08 69.35,-1.87 69.85,-1.67 70.05,-1.17 70.26,-0.68 70.26,0.27 70.26,1.22 70.26,2.42 70.25,3.63 70.44,4.76 70.62,5.89 70.82,6.85 71.02,7.81 71.28,8.09 71.54,8.38 72.40,7.99 73.25,7.60 74.32,6.56 75.39,5.52 76.72,2.90 78.05,0.29 78.91,-2.35 79.78,-4.99 80.21,-8.02 80.65,-11.05 80.68,-13.10 80.71,-15.14 80.66,-15.86 80.61,-16.58 81.14,-16.49 81.67,-16.39 81.76,-15.96 81.84,-15.52 81.50,-13.63 81.16,-11.73 81.17,-8.32 81.18,-4.91 81.74,-2.49 82.31,-0.06 82.73,1.24 83.15,2.55 84.10,2.49 85.06,2.44 86.08,1.87 87.10,1.29 88.20,-0.60 89.30,-2.49 89.88,-5.16 90.47,-7.82 90.58,-10.35 90.70,-12.88 90.76,-14.36 90.82,-15.85 90.87,-16.57 90.93,-17.30 90.84,-17.38 90.74,-17.46 91.39,-17.14 92.03,-16.83 91.33,-17.81 90.63,-18.79 90.87,-19.08 91.10,-19.37 91.45,-19.49 91.80,-19.62 92.16,-19.55 92.53,-19.49 92.81,-19.24 93.08,-19.00 92.56,-17.91 92.03,-16.83 92.61,-17.25 93.19,-17.66 92.94,-17.12 92.69,-16.57 92.57,-15.40 92.45,-14.23 92.38,-12.41 92.31,-10.59 92.08,-8.11 91.85,-5.63 91.73,-3.62 91.62,-1.62 91.56,-0.52 91.49,0.56 91.48,0.77 91.47,0.98 91.08,0.87 90.70,0.76 90.62,0.69 90.55,0.61 91.27,-0.68 91.99,-1.98 92.80,-3.10 93.61,-4.22 94.65,-5.40 95.68,-6.59 96.53,-7.27 97.39,-7.95 98.22,-8.09 99.06,-8.22 99.86,-7.53 100.66,-6.84 100.92,-5.65 101.18,-4.46 101.28,-3.54 101.37,-2.62 101.42,-1.57 101.47,-0.53 101.45,-0.02 101.44,0.47 101.60,0.69 101.75,0.90 102.23,1.05 102.70,1.19 103.83,1.14 104.95,1.09 105.88,0.72 106.80,0.35 107.30,0.12 107.80,-0.10 108.03,-0.84 108.27,-1.58 108.48,-1.77 108.69,-1.95 109.26,-1.73 109.83,-1.51 110.09,-1.58 110.36,-1.66 110.14,-1.07 109.91,-0.49 109.96,0.60 110.02,1.70 110.20,2.37 110.38,3.04 110.53,3.05 110.69,3.06 111.78,1.93 112.87,0.80 113.99,-0.27 115.11,-1.34 115.88,-1.89 116.66,-2.45 117.12,-2.57 117.58,-2.70 118.01,-2.50 118.45,-2.30 118.66,-1.88 118.86,-1.45 118.75,-0.98 118.63,-0.52 118.43,-0.23 118.23,0.06 117.78,0.90 117.33,1.74 116.72,4.10 116.10,6.45 115.19,9.83 114.28,13.20 113.03,17.47 111.78,21.74 109.97,26.24 108.16,30.75 106.80,33.70 105.44,36.65 101.92,39.96 98.40,43.28 95.12,45.37 91.85,47.46 88.17,47.68 84.49,47.90 81.21,45.91 77.93,43.93 75.87,41.83 73.80,39.74 72.38,35.06 70.96,30.39 70.47,27.40 69.97,24.40 70.61,21.28 71.25,18.16 73.55,16.12 75.86,14.07 78.48,13.29 81.11,12.52 86.65,12.56 92.18,12.60 96.33,11.87 100.47,11.15 103.83,9.39 107.19,7.63 107.32,7.60 107.46,7.58 107.60,7.58 107.73,7.58 107.87,7.61 108.00,7.64 108.13,7.69 108.25,7.74 108.37,7.82 108.48,7.90 108.58,7.99 108.67,8.09 108.75,8.21 108.82,8.32 108.88,8.45 108.93,8.58 108.95,8.71 108.98,8.85 108.98,8.98 108.98,9.12 108.95,9.25 108.92,9.39 108.87,9.51 108.82,9.64 108.74,9.75 108.66,9.87 108.56,9.96 108.47,10.06 108.35,10.14 108.24,10.21 108.11,10.26 107.98,10.32 107.85,10.34 107.71,10.37 107.58,10.37 107.44,10.36 107.30,10.34 107.17,10.31 107.04,10.26 106.92,10.20 106.80,10.13 106.69,10.05 106.59,9.95 106.50,9.85 106.42,9.74 106.35,9.62 106.29,9.50 106.24,9.37 106.22,9.23 106.19,9.10 106.19,8.96 106.19,8.83 106.22,8.69 106.25,8.56 106.30,8.43 106.36,8.30 106.43,8.19 106.51,8.08 106.61,7.98 106.70,7.88 106.82,7.81 106.93,7.73 107.06,7.68 107.19,7.63 107.32,7.60 107.46,7.58 107.60,7.58 107.73,7.58 107.87,7.61 108.00,7.64 108.13,7.69 108.25,7.74 108.37,7.82 108.48,7.90 108.58,7.99 108.67,8.09 108.75,8.21 108.82,8.32 108.88,8.45 108.93,8.58 108.95,8.71 108.98,8.85 108.98,8.98 108.98,9.12 108.95,9.25 108.92,9.39 108.87,9.51 108.82,9.64 108.74,9.75 108.66,9.87 108.56,9.96 108.47,10.06 108.35,10.14 108.24,10.21 104.81,12.00 101.38,13.80 96.89,14.59 92.41,15.39 86.95,15.34 81.49,15.29 79.35,15.91 77.20,16.52 75.44,18.04 73.68,19.56 73.23,22.00 72.77,24.44 73.23,27.10 73.69,29.75 74.95,34.03 76.21,38.30 77.94,40.02 79.67,41.73 82.42,43.45 85.17,45.18 88.07,44.99 90.98,44.80 93.82,42.93 96.67,41.07 99.92,38.04 103.16,35.02 104.38,32.33 105.59,29.65 107.36,25.23 109.14,20.82 110.36,16.63 111.58,12.45 112.49,9.09 113.39,5.73 114.06,3.23 114.73,0.72 115.28,-0.32 115.83,-1.37 116.07,-1.72 116.31,-2.08 116.40,-1.19 116.49,-0.30 116.58,-1.37 116.66,-2.45 117.12,-2.57 117.58,-2.70 118.01,-2.50 118.45,-2.30 118.66,-1.88 118.86,-1.45 118.75,-0.98 118.63,-0.52 117.56,-0.41 116.49,-0.30 117.39,-0.23 118.28,-0.16 117.59,0.32 116.89,0.81 115.85,1.81 114.81,2.82 113.15,4.29 111.49,5.75 110.05,5.48 108.60,5.21 107.94,3.74 107.28,2.28 107.21,0.68 107.14,-0.91 107.46,-1.82 107.78,-2.73 108.34,-3.44 108.91,-4.15 110.07,-3.63 111.24,-3.11 111.09,-1.92 110.93,-0.73 110.43,0.49 109.93,1.72 108.96,2.30 107.99,2.89 106.76,3.36 105.53,3.83 103.91,3.90 102.29,3.96 101.19,3.56 100.09,3.15 99.44,2.27 98.79,1.39 98.73,0.48 98.67,-0.42 98.63,-1.42 98.58,-2.41 98.50,-3.23 98.41,-4.05 98.30,-4.78 98.20,-5.50 98.27,-5.51 98.34,-5.52 98.49,-5.48 98.64,-5.45 98.14,-5.02 97.63,-4.58 96.72,-3.53 95.81,-2.48 95.08,-1.47 94.35,-0.47 93.57,0.91 92.78,2.30 92.04,2.90 91.29,3.50 90.35,3.18 89.40,2.86 89.06,1.86 88.71,0.87 88.77,-0.44 88.82,-1.76 88.94,-3.80 89.05,-5.84 89.29,-8.31 89.52,-10.78 89.59,-12.61 89.66,-14.44 89.83,-15.87 89.99,-17.30 90.31,-18.05 90.63,-18.79 90.87,-19.08 91.10,-19.37 91.45,-19.49 91.80,-19.62 92.16,-19.55 92.53,-19.49 92.81,-19.24 93.08,-19.00 93.35,-18.53 93.62,-18.06 93.62,-16.90 93.61,-15.75 93.56,-14.25 93.50,-12.76 93.37,-10.10 93.25,-7.45 92.57,-4.46 91.90,-1.46 90.48,0.91 89.06,3.29 87.39,4.23 85.72,5.16 83.63,5.00 81.55,4.85 80.60,2.81 79.64,0.78 79.02,-1.90 78.40,-4.59 78.38,-8.28 78.37,-11.98 78.75,-14.12 79.14,-16.26 79.90,-17.63 80.67,-19.00 81.77,-18.62 82.87,-18.23 83.19,-16.79 83.50,-15.36 83.47,-13.09 83.44,-10.83 82.97,-7.59 82.50,-4.35 81.57,-1.49 80.63,1.36 79.13,4.27 77.64,7.18 76.19,8.58 74.73,9.98 72.90,10.56 71.07,11.14 69.86,10.22 68.65,9.31 68.27,7.88 67.88,6.45 67.67,5.15 67.46,3.85 67.46,2.53 67.46,1.22 67.46,0.27 67.46,-0.68 68.16,0.01 68.86,0.71 68.16,0.01 67.46,-0.68 67.66,-1.17 67.87,-1.67 68.36,-1.87 68.86,-2.08 69.35,-1.87 69.85,-1.67 70.05,-1.17 70.26,-0.68 69.56,0.01 68.86,0.71 69.56,0.01 70.26,-0.68 70.25,-0.13 70.24,0.40 69.83,1.77 69.41,3.14 69.00,4.57 68.59,6.00 68.11,6.94 67.63,7.88 66.55,8.91 65.48,9.94 64.06,9.94 62.64,9.94 61.93,8.92 61.22,7.90 60.72,6.69 60.21,5.49 60.07,3.97 59.92,2.45 60.09,1.17 60.26,-0.11 60.66,-0.98 61.06,-1.85 61.77,-2.51 62.48,-3.17 62.62,-3.08 62.76,-3.00 62.72,-2.65 62.69,-2.31 63.23,-1.85 63.77,-1.39 63.35,-2.53 62.93,-3.66 63.23,-3.88 63.53,-4.09 63.89,-4.12 64.25,-4.15 64.58,-4.00 64.91,-3.84 65.12,-3.54 65.33,-3.24 64.55,-2.32 63.77,-1.39 64.43,-1.64 65.09,-1.88 64.64,-1.33 64.18,-0.78 63.62,-0.01 63.05,0.75 61.93,1.88 60.81,3.01 59.76,4.07 58.71,5.13 57.38,6.07 56.04,7.00 54.55,7.62 53.06,8.25 51.26,8.10 49.47,7.95 47.98,6.29 46.49,4.63 46.03,2.41 45.58,0.19 46.05,-1.96 46.53,-4.11 47.55,-5.33 48.57,-6.55 49.93,-7.05 51.30,-7.55 52.29,-6.79 53.29,-6.03 53.62,-4.80 53.96,-3.56 53.58,-1.95 53.21,-0.33 52.48,0.94 51.76,2.22 50.75,3.44 49.74,4.66 48.10,5.84 46.45,7.02 45.28,7.19 44.12,7.37 42.82,7.17 41.53,6.97 40.33,6.00 39.14,5.04 38.86,3.76 38.59,2.48 38.63,1.24 38.66,0.01 38.75,-1.39 38.83,-2.79 38.67,-3.27 38.51,-3.75 38.21,-4.18 37.91,-4.61 37.43,-4.93 36.96,-5.25 36.31,-4.81 35.65,-4.38 34.77,-3.32 33.88,-2.26 33.06,-1.10 32.25,0.04 31.37,1.23 30.49,2.42 30.22,2.64 29.94,2.86 29.59,2.92 29.24,2.98 28.90,2.86 28.57,2.73 28.34,2.46 28.11,2.19 27.87,1.66 27.64,1.13 27.65,-1.35 27.67,-3.84 27.72,-6.14 27.78,-8.45 27.90,-11.50 28.02,-14.55 28.49,-17.97 28.96,-21.39 29.95,-21.38 30.95,-21.38 31.33,-20.10 31.72,-18.83 31.62,-17.16 31.52,-15.48 31.33,-13.08 31.13,-10.69 30.74,-7.45 30.34,-4.21 29.48,-0.32 28.61,3.56 27.53,4.48 26.44,5.40 25.22,5.54 24.00,5.68 22.89,4.85 21.78,4.02 21.39,3.03 21.00,2.04 20.82,0.89 20.64,-0.26 20.34,-1.58 20.03,-2.90 19.92,-3.17 19.81,-3.43 19.50,-3.55 19.20,-3.66 18.82,-3.79 18.44,-3.91 18.05,-3.57 17.65,-3.23 16.75,-2.37 15.85,-1.50 15.44,-0.79 15.03,-0.08 14.51,0.69 13.99,1.47 13.75,1.81 13.52,2.16 13.28,2.37 13.04,2.59 12.72,2.68 12.41,2.76 12.09,2.70 11.77,2.64 11.52,2.44 11.26,2.24 11.04,1.80 10.82,1.37 11.07,0.52 11.32,-0.33 11.39,-1.05 11.46,-1.77 11.65,-2.65 11.84,-3.53 12.47,-4.69 13.10,-5.85 14.16,-5.79 15.23,-5.73 15.64,-4.82 16.06,-3.92 15.96,-2.87 15.86,-1.83 15.64,-0.83 15.43,0.17 14.99,1.37 14.55,2.56 13.99,3.35 13.43,4.13 12.33,4.65 11.22,5.17 9.91,4.99 8.60,4.82 7.97,3.58 7.34,2.34 6.97,0.89 6.60,-0.55 6.28,-1.77 5.96,-3.00 5.72,-3.83 5.49,-4.66 5.39,-4.84 5.30,-5.03 6.03,-4.65 6.76,-4.27 6.16,-5.46 5.56,-6.66 5.95,-6.85 6.33,-7.04 6.76,-6.97 7.19,-6.90 7.49,-6.60 7.79,-6.29 7.28,-5.28 6.76,-4.27 7.34,-4.85 7.93,-5.43 7.68,-3.94 7.43,-2.44 6.89,-0.13 6.35,2.18 5.45,3.31 4.55,4.44 3.20,4.52 1.84,4.60 0.69,3.62 -0.46,2.63 -0.99,0.96 -1.52,-0.69 -1.60,-2.53 -1.68,-4.36 -1.42,-5.40 -1.15,-6.44 -0.98,-6.75 -0.81,-7.05 -0.51,-7.24 -0.21,-7.42 0.13,-7.44 0.48,-7.45 0.80,-7.30 1.11,-7.14 1.40,-6.78 1.69,-6.42 1.54,-4.39 1.39,-2.36 1.39,-1.67 1.4,-0.97 1.4,-0.68 1.4,-0.39 1.4,-0.19 1.4,8.57 1.4,8.57 L 1.4,8.57 Z"></path></g><g transform="translate(644.7189372525639 26.43341649163773) rotate(0 12.520698279343037 -1.1738154636884133)" stroke="none"><path fill="#d3d3d3" d="M -8.57,1.4 Q -8.57,1.4 -0.13,1.38 -0.27,1.37 -0.40,1.33 -0.53,1.29 -0.65,1.22 -0.77,1.16 -0.88,1.07 -0.98,0.98 -1.07,0.88 -1.16,0.77 -1.22,0.65 -1.29,0.53 -1.33,0.40 -1.37,0.27 -1.38,0.13 -1.4,-1.71 -1.38,-0.13 -1.37,-0.27 -1.33,-0.40 -1.29,-0.53 -1.22,-0.65 -1.16,-0.77 -1.07,-0.88 -0.98,-0.98 -0.88,-1.07 -0.77,-1.16 -0.65,-1.22 -0.53,-1.29 -0.40,-1.33 -0.27,-1.37 -0.13,-1.38 8.57,-1.4 0.39,-1.4 0.78,-1.4 2.69,-1.39 4.61,-1.39 9.79,-1.98 14.98,-2.56 15.11,-2.54 15.25,-2.52 15.37,-2.46 15.50,-2.41 15.62,-2.34 15.73,-2.27 15.83,-2.17 15.93,-2.07 16.01,-1.96 16.09,-1.85 16.14,-1.72 16.20,-1.60 16.23,-1.46 16.25,-1.33 16.26,-1.19 16.26,-1.05 16.23,-0.92 16.21,-0.78 16.16,-0.66 16.11,-0.53 16.03,-0.41 15.96,-0.30 15.86,-0.20 15.77,-0.10 15.66,-0.02 15.54,0.04 15.42,0.10 15.29,0.15 15.16,0.18 15.02,0.21 14.89,0.21 14.75,0.22 14.61,0.19 14.48,0.17 14.35,0.12 14.22,0.07 14.11,-0.00 13.99,-0.07 13.89,-0.17 13.80,-0.26 13.72,-0.38 13.64,-0.49 13.59,-0.61 13.53,-0.74 13.50,-0.87 13.47,-1.01 13.47,-1.15 13.47,-1.28 13.49,-1.42 13.52,-1.55 13.57,-1.68 13.62,-1.81 13.69,-1.92 13.77,-2.04 13.86,-2.14 13.96,-2.24 14.07,-2.31 14.18,-2.39 14.31,-2.45 14.43,-2.50 14.57,-2.53 14.70,-2.56 14.84,-2.56 14.98,-2.56 15.11,-2.54 15.25,-2.52 15.37,-2.46 15.50,-2.41 15.62,-2.34 15.73,-2.27 15.83,-2.17 15.93,-2.07 16.01,-1.96 16.09,-1.85 16.14,-1.72 16.20,-1.60 16.23,-1.46 16.25,-1.33 16.26,-1.19 16.26,-1.05 16.23,-0.92 16.21,-0.78 16.16,-0.66 16.11,-0.53 16.03,-0.41 15.96,-0.30 15.86,-0.20 15.77,-0.10 15.66,-0.02 15.54,0.04 15.42,0.10 15.29,0.15 15.16,0.18 15.02,0.21 9.90,0.80 4.77,1.39 2.77,1.39 0.78,1.4 0.39,1.4 -8.57,1.4 -8.57,1.4 L -8.57,1.4 Z"></path></g><g transform="translate(733.928912492883 12.347630927376827) rotate(0 -3.130174569835617 15.259601027949316)" stroke="none"><path fill="#d3d3d3" d="M 1.4,8.57 Q 1.4,8.57 1.38,0.13 1.37,0.27 1.33,0.40 1.29,0.53 1.22,0.65 1.16,0.77 1.07,0.88 0.98,0.98 0.88,1.07 0.77,1.16 0.65,1.22 0.53,1.29 0.40,1.33 0.27,1.37 0.13,1.38 -1.71,1.4 -0.13,1.38 -0.27,1.37 -0.40,1.33 -0.53,1.29 -0.65,1.22 -0.77,1.16 -0.88,1.07 -0.98,0.98 -1.07,0.88 -1.16,0.77 -1.22,0.65 -1.29,0.53 -1.33,0.40 -1.37,0.27 -1.38,0.13 -1.4,-8.57 -1.16,0.32 -0.92,0.65 -1.00,0.88 -1.08,1.11 -1.82,1.60 -2.55,2.08 -3.51,3.43 -4.46,4.77 -5.14,6.16 -5.81,7.55 -6.14,9.36 -6.48,11.17 -6.66,13.62 -6.84,16.07 -6.75,17.78 -6.66,19.49 -5.70,22.17 -4.74,24.86 -3.95,26.00 -3.17,27.15 -1.83,27.03 -0.49,26.91 -0.36,26.94 -0.22,26.98 -0.10,27.04 0.01,27.10 0.12,27.18 0.23,27.26 0.32,27.36 0.42,27.47 0.49,27.58 0.56,27.70 0.60,27.83 0.65,27.96 0.66,28.10 0.68,28.23 0.68,28.37 0.67,28.51 0.63,28.64 0.60,28.77 0.54,28.90 0.48,29.02 0.40,29.13 0.31,29.24 0.21,29.33 0.11,29.42 -0.00,29.49 -0.12,29.56 -0.25,29.61 -0.38,29.65 -0.51,29.67 -0.65,29.69 -0.79,29.68 -0.92,29.67 -1.06,29.64 -1.19,29.60 -1.31,29.54 -1.44,29.48 -1.55,29.40 -1.65,29.32 -1.75,29.22 -1.84,29.11 -1.91,29.00 -1.98,28.88 -2.02,28.75 -2.07,28.62 -2.09,28.48 -2.10,28.35 -2.10,28.21 -2.09,28.07 -2.05,27.94 -2.02,27.81 -1.96,27.68 -1.90,27.56 -1.82,27.45 -1.73,27.34 -1.63,27.25 -1.53,27.16 -1.41,27.09 -1.29,27.02 -1.16,26.97 -1.03,26.93 -0.90,26.91 -0.76,26.89 -0.63,26.90 -0.49,26.91 -0.36,26.94 -0.22,26.98 -0.10,27.04 0.01,27.10 0.12,27.18 0.23,27.26 0.32,27.36 0.42,27.47 0.49,27.58 0.56,27.70 0.60,27.83 0.65,27.96 0.66,28.10 0.68,28.23 0.68,28.37 0.67,28.51 0.63,28.64 0.60,28.77 0.54,28.90 0.48,29.02 0.40,29.13 0.31,29.24 0.21,29.33 0.11,29.42 -0.00,29.49 -0.12,29.56 -0.25,29.61 -0.38,29.65 -0.51,29.67 -0.65,29.69 -2.50,29.68 -4.36,29.68 -5.78,27.94 -7.20,26.20 -8.30,23.12 -9.40,20.04 -9.52,18.04 -9.64,16.04 -9.45,13.43 -9.26,10.81 -8.86,8.74 -8.47,6.67 -7.67,5.01 -6.87,3.34 -5.68,1.70 -4.48,0.06 -3.26,-0.72 -2.04,-1.51 -0.55,-1.47 0.92,-1.44 1.16,-0.72 1.4,8.57 1.4,8.57 L 1.4,8.57 Z"></path></g><g transform="translate(748.7972416996029 35.041396558686074) rotate(0 34.431920268193494 -5.086533675983105)" stroke="none"><path fill="#d3d3d3" d="M 1.4,8.57 Q 1.4,8.57 1.38,0.13 1.37,0.27 1.33,0.40 1.29,0.53 1.22,0.65 1.16,0.77 1.07,0.88 0.98,0.98 0.88,1.07 0.77,1.16 0.65,1.22 0.53,1.29 0.40,1.33 0.27,1.37 0.13,1.38 -1.71,1.4 -0.13,1.38 -0.27,1.37 -0.40,1.33 -0.53,1.29 -0.65,1.22 -0.77,1.16 -0.88,1.07 -0.98,0.98 -1.07,0.88 -1.16,0.77 -1.22,0.65 -1.29,0.53 -1.33,0.40 -1.37,0.27 -1.38,0.13 -1.4,-8.57 -1.4,-0.19 -1.4,-0.39 -1.39,-0.90 -1.39,-1.42 -1.20,-3.80 -1.00,-6.18 -1.08,-7.78 -1.15,-9.38 -1.35,-9.75 -1.55,-10.12 -0.88,-9.72 -0.21,-9.33 -0.91,-10.27 -1.60,-11.21 -1.36,-11.53 -1.12,-11.86 -0.74,-11.99 -0.36,-12.13 0.02,-12.03 0.41,-11.94 0.69,-11.64 0.96,-11.34 0.37,-10.34 -0.21,-9.33 0.40,-9.79 1.02,-10.25 0.92,-9.98 0.81,-9.71 0.57,-8.07 0.33,-6.43 0.21,-5.01 0.08,-3.58 0.02,-2.48 -0.03,-1.38 -0.17,-0.83 -0.30,-0.28 -0.95,-0.49 -1.59,-0.70 -1.14,-2.03 -0.68,-3.36 -0.05,-5.19 0.56,-7.02 1.27,-8.51 1.97,-10.01 2.57,-11.47 3.16,-12.93 4.66,-12.97 6.16,-13.00 7.05,-11.89 7.93,-10.77 8.28,-9.37 8.64,-7.97 8.58,-6.26 8.53,-4.54 8.31,-3.33 8.08,-2.12 7.96,-1.61 7.84,-1.11 7.34,-1.45 6.84,-1.78 6.52,-1.82 6.20,-1.85 7.69,-3.94 9.17,-6.02 10.36,-7.52 11.55,-9.01 12.65,-9.94 13.75,-10.86 15.28,-10.55 16.81,-10.23 17.73,-9.07 18.65,-7.92 19.07,-6.66 19.48,-5.41 19.46,-3.29 19.44,-1.17 19.61,-0.40 19.78,0.36 19.39,-0.12 19.00,-0.61 19.03,0.64 19.07,1.89 18.76,1.97 18.45,2.05 18.13,1.99 17.82,1.92 17.57,1.72 17.32,1.53 18.16,0.45 19.00,-0.61 18.38,-0.59 17.75,-0.58 18.31,-0.86 18.87,-1.14 19.69,-2.18 20.51,-3.23 21.32,-4.34 22.14,-5.45 22.74,-6.57 23.33,-7.70 23.79,-8.54 24.24,-9.39 24.28,-9.94 24.31,-10.48 24.77,-9.76 25.24,-9.04 24.89,-10.10 24.54,-11.15 24.90,-11.42 25.26,-11.69 25.71,-11.69 26.17,-11.69 26.52,-11.41 26.88,-11.13 26.06,-10.09 25.24,-9.04 26.05,-9.32 26.87,-9.59 26.35,-8.83 25.84,-8.08 25.42,-6.82 24.99,-5.56 24.78,-4.48 24.56,-3.40 24.63,-2.83 24.70,-2.27 26.17,-1.95 27.63,-1.64 28.94,-1.76 30.25,-1.87 31.05,-2.12 31.85,-2.36 32.06,-3.19 32.28,-4.01 31.91,-4.50 31.54,-4.98 30.89,-5.29 30.24,-5.60 29.26,-5.81 28.28,-6.03 27.92,-6.15 27.56,-6.28 27.25,-6.49 26.94,-6.71 26.79,-7.05 26.63,-7.40 26.68,-7.77 26.73,-8.15 26.97,-8.44 27.20,-8.73 27.92,-9.24 28.64,-9.74 30.13,-10.23 31.62,-10.71 32.90,-10.72 34.19,-10.73 35.46,-10.15 36.73,-9.58 37.55,-7.75 38.36,-5.92 38.71,-4.67 39.06,-3.42 39.12,-2.69 39.18,-1.95 38.91,-1.95 38.65,-1.95 39.23,-3.25 39.82,-4.56 40.79,-6.05 41.77,-7.54 42.98,-8.27 44.18,-9.00 45.41,-8.00 46.63,-6.99 47.24,-5.96 47.84,-4.93 48.24,-4.18 48.63,-3.42 49.14,-3.00 49.64,-2.59 51.67,-2.68 53.69,-2.78 55.24,-3.33 56.79,-3.87 57.82,-4.72 58.85,-5.57 59.19,-7.08 59.53,-8.59 59.58,-8.95 59.63,-9.32 59.66,-9.18 59.69,-9.04 59.10,-6.99 58.51,-4.93 58.81,-3.47 59.12,-2.00 60.20,-0.98 61.28,0.04 63.67,0.48 66.05,0.91 66.17,0.97 66.30,1.03 66.40,1.12 66.51,1.21 66.60,1.31 66.69,1.42 66.75,1.54 66.82,1.66 66.86,1.79 66.90,1.92 66.92,2.06 66.93,2.19 66.92,2.33 66.91,2.47 66.87,2.60 66.83,2.73 66.77,2.85 66.70,2.97 66.62,3.08 66.53,3.19 66.43,3.27 66.32,3.36 66.20,3.43 66.08,3.49 65.95,3.54 65.82,3.58 65.68,3.59 65.55,3.61 65.41,3.59 65.27,3.58 65.14,3.54 65.01,3.51 64.89,3.44 64.77,3.38 64.66,3.29 64.55,3.21 64.46,3.10 64.38,3.00 64.31,2.88 64.24,2.76 64.20,2.63 64.16,2.49 64.15,2.36 64.13,2.22 64.14,2.09 64.16,1.95 64.19,1.82 64.23,1.69 64.30,1.56 64.36,1.44 64.44,1.33 64.53,1.23 64.64,1.14 64.74,1.05 64.86,0.99 64.98,0.92 65.11,0.88 65.24,0.84 65.38,0.82 65.52,0.81 65.65,0.82 65.79,0.83 65.92,0.87 66.05,0.91 66.17,0.97 66.30,1.03 66.40,1.12 66.51,1.21 66.60,1.31 66.69,1.42 66.75,1.54 66.82,1.66 66.86,1.79 66.90,1.92 66.92,2.06 66.93,2.19 66.92,2.33 66.91,2.47 66.87,2.60 66.83,2.73 66.77,2.85 66.70,2.97 66.62,3.08 66.53,3.19 66.43,3.27 66.32,3.36 66.20,3.43 66.08,3.49 65.95,3.54 65.82,3.58 65.68,3.59 65.55,3.61 65.41,3.59 65.27,3.58 62.64,3.06 60.00,2.53 58.34,0.94 56.67,-0.64 56.19,-2.85 55.71,-5.06 56.67,-8.00 57.63,-10.94 59.20,-11.41 60.76,-11.88 61.55,-10.33 62.33,-8.78 61.79,-6.45 61.24,-4.12 59.72,-2.78 58.19,-1.45 56.20,-0.74 54.21,-0.03 51.50,0.01 48.79,0.07 47.65,-0.76 46.51,-1.60 45.96,-2.58 45.40,-3.56 44.91,-4.43 44.41,-5.30 44.20,-5.75 44.00,-6.20 43.91,-5.93 43.83,-5.65 43.00,-4.35 42.18,-3.06 40.73,-1.14 39.27,0.77 38.06,0.19 36.85,-0.39 36.59,-1.60 36.32,-2.82 36.02,-3.91 35.72,-5.01 35.23,-6.31 34.75,-7.60 34.20,-7.79 33.65,-7.98 32.86,-7.97 32.08,-7.95 30.99,-7.59 29.90,-7.24 29.37,-6.85 28.84,-6.46 29.12,-7.13 29.41,-7.79 28.48,-7.03 27.56,-6.28 27.25,-6.49 26.94,-6.71 26.79,-7.05 26.63,-7.40 26.68,-7.77 26.73,-8.15 26.97,-8.44 27.20,-8.73 28.31,-8.26 29.41,-7.79 28.95,-8.36 28.49,-8.92 28.76,-8.82 29.04,-8.72 30.11,-8.48 31.18,-8.24 32.30,-7.66 33.41,-7.07 34.23,-5.76 35.04,-4.45 34.49,-2.47 33.93,-0.49 32.41,0.17 30.89,0.84 29.14,0.99 27.38,1.14 25.05,0.42 22.71,-0.29 22.24,-1.79 21.76,-3.29 22.02,-4.78 22.28,-6.27 22.81,-7.79 23.33,-9.32 23.94,-10.23 24.54,-11.15 24.90,-11.42 25.26,-11.69 25.71,-11.69 26.17,-11.69 26.52,-11.41 26.88,-11.13 26.99,-10.69 27.10,-10.25 27.02,-9.43 26.93,-8.61 26.37,-7.50 25.81,-6.39 25.16,-5.18 24.51,-3.96 23.62,-2.74 22.73,-1.52 21.70,-0.25 20.66,1.01 19.86,1.45 19.07,1.89 18.76,1.97 18.45,2.05 18.13,1.99 17.82,1.92 17.57,1.72 17.32,1.53 17.18,1.24 17.04,0.95 16.85,0.02 16.65,-0.89 16.68,-2.94 16.71,-4.98 16.44,-5.80 16.18,-6.61 15.73,-7.25 15.29,-7.88 14.88,-8.02 14.48,-8.16 14.04,-7.64 13.61,-7.12 12.51,-5.73 11.41,-4.34 9.90,-2.22 8.38,-0.10 7.53,0.45 6.68,1.00 5.90,0.27 5.12,-0.44 5.22,-1.51 5.32,-2.57 5.53,-3.71 5.75,-4.85 5.80,-6.26 5.85,-7.68 5.62,-8.64 5.40,-9.59 5.13,-10.06 4.86,-10.52 4.83,-10.59 4.80,-10.66 4.69,-9.83 4.58,-9.00 3.87,-7.48 3.16,-5.97 2.52,-4.12 1.89,-2.27 0.60,-0.16 -0.68,1.93 -1.68,1.55 -2.69,1.17 -2.76,-0.16 -2.83,-1.51 -2.76,-2.65 -2.70,-3.79 -2.57,-5.27 -2.44,-6.76 -2.16,-8.58 -1.89,-10.40 -1.75,-10.81 -1.60,-11.21 -1.36,-11.53 -1.12,-11.86 -0.74,-11.99 -0.36,-12.13 0.02,-12.03 0.41,-11.94 0.69,-11.64 0.96,-11.34 1.25,-10.71 1.55,-10.08 1.67,-8.11 1.79,-6.14 1.59,-3.72 1.39,-1.31 1.39,-0.85 1.4,-0.39 1.4,-0.19 1.4,8.57 1.4,8.57 L 1.4,8.57 Z"></path></g><g transform="translate(522.6421290289693 55.387531262618495) rotate(0 65.34239414532146 30.12793023466918)" stroke="none"><path fill="#d3d3d3" d="M 8.57,-1.4 Q 8.57,-1.4 0.13,-1.38 0.27,-1.37 0.40,-1.33 0.53,-1.29 0.65,-1.22 0.77,-1.16 0.88,-1.07 0.98,-0.98 1.07,-0.88 1.16,-0.77 1.22,-0.65 1.29,-0.53 1.33,-0.40 1.37,-0.27 1.38,-0.13 1.4,1.71 1.38,0.13 1.37,0.27 1.33,0.40 1.29,0.53 1.22,0.65 1.16,0.77 1.07,0.88 0.98,0.98 0.88,1.07 0.77,1.16 0.65,1.22 0.53,1.29 0.40,1.33 0.27,1.37 0.13,1.38 -8.57,1.4 -0.23,1.38 -0.46,1.36 -0.56,1.41 -0.66,1.46 -1.87,3.13 -3.09,4.81 -3.68,6.06 -4.28,7.31 -4.11,8.24 -3.94,9.17 -2.96,10.07 -1.97,10.98 -0.41,12.73 1.14,14.47 2.25,16.02 3.36,17.57 2.99,19.25 2.61,20.94 1.66,21.98 0.71,23.02 -0.62,23.54 -1.96,24.07 -3.39,23.59 -4.81,23.12 -5.74,22.37 -6.66,21.62 -7.02,20.94 -7.39,20.25 -7.47,20.21 -7.55,20.16 -6.71,20.19 -5.88,20.22 -6.94,19.86 -8.00,19.51 -8.00,19.06 -8.00,18.62 -7.74,18.27 -7.47,17.92 -7.05,17.79 -6.62,17.67 -6.21,17.82 -5.80,17.98 -5.84,19.10 -5.88,20.22 -5.61,19.43 -5.34,18.63 -5.24,18.95 -5.14,19.27 -5.03,19.76 -4.93,20.25 -3.93,20.63 -2.93,21.00 -1.95,21.25 -0.96,21.50 0.07,21.18 1.11,20.85 2.38,19.29 3.65,17.72 4.34,15.97 5.02,14.22 5.56,12.59 6.10,10.97 6.18,10.18 6.25,9.40 6.48,8.95 6.70,8.51 7.17,8.32 7.63,8.14 8.10,8.31 8.57,8.48 8.80,8.93 9.03,9.37 9.08,9.80 9.13,10.24 8.96,11.83 8.78,13.43 8.70,17.88 8.61,22.34 8.57,26.32 8.52,30.30 8.70,33.46 8.87,36.62 8.96,38.98 9.04,41.35 9.09,41.93 9.13,42.52 8.97,43.02 8.81,43.52 8.34,43.77 7.88,44.01 7.38,43.87 6.87,43.72 6.61,43.27 6.35,42.81 5.97,40.15 5.60,37.49 5.41,34.32 5.23,31.16 5.54,28.31 5.86,25.46 6.64,23.19 7.42,20.92 8.67,18.70 9.92,16.49 11.04,15.64 12.15,14.78 13.39,15.01 14.64,15.24 15.16,16.90 15.68,18.57 15.61,19.80 15.54,21.03 15.04,22.12 14.54,23.22 13.43,24.59 12.32,25.95 11.13,26.73 9.94,27.51 8.54,27.33 7.13,27.14 6.54,26.15 5.95,25.15 5.62,24.82 5.28,24.49 5.09,24.14 4.91,23.79 4.95,23.39 4.98,22.99 5.23,22.68 5.48,22.36 5.86,22.24 6.24,22.11 6.69,22.10 7.14,22.10 8.40,22.30 9.65,22.50 10.95,22.78 12.25,23.06 13.36,23.01 14.47,22.97 15.91,22.60 17.36,22.23 19.20,21.12 21.04,20.01 22.34,18.90 23.64,17.79 24.41,16.97 25.17,16.15 25.33,15.70 25.50,15.25 25.47,15.25 25.44,15.24 25.54,15.17 25.64,15.10 25.02,16.04 24.41,16.99 23.97,18.00 23.53,19.00 23.46,20.06 23.39,21.12 23.81,21.74 24.23,22.37 24.48,22.63 24.72,22.90 25.60,23.04 26.49,23.19 27.42,22.97 28.35,22.75 29.53,21.96 30.71,21.17 31.71,19.82 32.71,18.47 33.84,16.96 34.98,15.44 35.73,14.51 36.47,13.58 37.07,13.04 37.67,12.49 38.57,12.99 39.48,13.50 39.32,14.42 39.16,15.33 38.87,15.96 38.59,16.60 38.29,17.19 38.00,17.78 37.86,19.05 37.72,20.32 37.96,21.22 38.20,22.12 38.69,22.81 39.19,23.50 39.93,23.67 40.68,23.84 41.72,23.49 42.77,23.13 44.24,21.89 45.71,20.64 46.47,19.45 47.23,18.26 47.80,17.30 48.37,16.35 48.45,16.09 48.53,15.84 48.89,15.43 49.24,15.03 49.77,15.00 50.30,14.96 50.71,15.31 51.11,15.66 51.15,16.19 51.19,16.73 51.08,16.97 50.98,17.21 51.26,18.32 51.53,19.44 51.98,20.33 52.42,21.22 52.88,21.70 53.33,22.19 54.89,21.63 56.45,21.07 57.61,20.35 58.77,19.63 59.53,18.05 60.28,16.46 60.49,15.56 60.70,14.66 60.92,14.70 61.13,14.75 61.36,14.85 61.59,14.94 61.10,16.26 60.62,17.58 60.10,19.27 59.59,20.96 59.32,23.34 59.06,25.73 58.73,29.91 58.39,34.10 57.61,38.64 56.84,43.19 54.82,47.72 52.81,52.25 50.82,54.67 48.83,57.09 46.60,57.46 44.38,57.84 42.79,56.37 41.21,54.90 40.12,52.75 39.03,50.61 38.49,48.50 37.96,46.38 37.90,44.44 37.84,42.51 38.42,40.13 39.01,37.75 39.82,35.59 40.63,33.42 43.36,31.89 46.10,30.36 48.59,29.46 51.09,28.57 53.47,27.94 55.84,27.31 58.74,26.23 61.64,25.15 63.59,24.28 65.53,23.40 66.99,22.09 68.45,20.79 69.57,18.81 70.70,16.83 71.29,15.61 71.88,14.39 72.24,14.05 72.61,13.70 73.11,13.69 73.62,13.69 74.00,14.02 74.37,14.35 74.43,14.85 74.49,15.35 74.41,15.64 74.34,15.93 74.30,16.56 74.26,17.18 74.41,18.21 74.57,19.24 74.99,20.45 75.41,21.66 75.68,22.21 75.96,22.77 76.27,22.65 76.58,22.52 77.20,21.86 77.81,21.19 78.38,20.24 78.96,19.28 79.67,18.16 80.39,17.04 81.03,16.19 81.68,15.33 82.05,15.08 82.42,14.82 82.90,14.72 83.37,14.61 83.80,14.84 84.23,15.07 84.41,15.53 84.58,15.98 84.42,16.44 84.25,16.90 83.98,17.22 83.71,17.54 83.22,18.06 82.72,18.57 82.36,19.09 81.99,19.61 81.63,20.92 81.26,22.23 81.18,22.96 81.10,23.69 81.34,23.88 81.58,24.07 82.97,23.43 84.37,22.78 85.96,22.08 87.55,21.37 88.90,20.47 90.24,19.56 91.27,18.75 92.30,17.94 92.87,17.29 93.44,16.64 93.98,16.27 94.53,15.90 94.28,16.76 94.03,17.62 94.50,16.66 94.97,15.70 95.45,15.75 95.93,15.80 96.26,16.15 96.59,16.49 96.62,16.97 96.65,17.45 96.37,17.84 96.09,18.22 95.06,17.92 94.03,17.62 94.83,18.02 95.64,18.42 95.64,18.40 95.64,18.38 95.35,18.66 95.06,18.93 94.39,19.68 93.73,20.42 93.73,21.10 93.74,21.77 93.95,22.20 94.17,22.62 94.22,22.76 94.28,22.90 95.25,22.12 96.23,21.35 97.03,20.04 97.84,18.73 98.24,18.05 98.64,17.37 99.17,17.77 99.70,18.17 100.04,18.12 100.37,18.07 100.11,19.01 99.85,19.94 99.70,20.97 99.55,21.99 99.61,23.07 99.67,24.16 100.32,24.95 100.96,25.74 101.14,25.91 101.32,26.09 102.16,25.62 103.01,25.14 104.89,23.01 106.77,20.88 108.50,18.27 110.23,15.66 111.10,13.77 111.97,11.89 112.31,12.81 112.65,13.74 112.31,12.81 111.97,11.88 112.37,11.52 112.76,11.16 113.30,11.18 113.83,11.20 114.19,11.60 114.55,11.99 114.53,12.53 114.51,13.06 113.58,13.40 112.65,13.74 113.58,13.41 114.51,13.07 113.62,14.95 112.73,16.84 112.30,18.98 111.87,21.12 112.19,22.84 112.50,24.56 112.87,25.52 113.23,26.47 114.16,26.04 115.09,25.61 116.28,24.35 117.46,23.09 118.44,21.55 119.43,20.01 120.11,17.56 120.80,15.11 120.96,13.76 121.11,12.40 121.01,11.75 120.91,11.09 121.45,11.67 122.00,12.25 121.56,11.19 121.12,10.12 121.44,9.86 121.76,9.59 122.17,9.55 122.59,9.52 122.95,9.72 123.32,9.93 123.50,10.30 123.68,10.68 122.84,11.47 122.00,12.25 122.73,11.95 123.47,11.64 122.87,12.57 122.26,13.49 122.00,14.22 121.73,14.95 121.59,16.63 121.44,18.30 121.55,20.44 121.65,22.57 121.91,23.54 122.17,24.51 122.36,24.59 122.55,24.67 122.98,24.21 123.42,23.75 124.21,22.85 124.99,21.94 125.76,21.31 126.53,20.67 126.77,20.41 127.00,20.15 126.97,20.30 126.93,20.45 127.41,21.13 127.90,21.80 127.54,20.73 127.19,19.66 127.54,19.40 127.89,19.14 128.33,19.14 128.76,19.14 129.12,19.40 129.47,19.66 129.60,20.07 129.73,20.49 128.81,21.15 127.90,21.80 128.69,21.54 129.47,21.28 129.14,21.73 128.81,22.19 128.68,22.60 128.55,23.02 128.60,23.42 128.64,23.82 128.83,24.07 129.01,24.32 129.70,24.49 130.39,24.65 131.26,24.61 132.13,24.56 133.02,24.24 133.91,23.92 134.77,23.07 135.63,22.22 136.46,22.25 137.29,22.29 137.72,23.02 138.15,23.75 137.57,25.91 136.99,28.06 136.31,29.63 135.62,31.20 134.30,33.93 132.99,36.67 130.56,41.37 128.13,46.07 126.12,49.62 124.11,53.18 122.79,55.09 121.46,57.01 119.40,58.04 117.34,59.07 114.79,59.13 112.25,59.19 108.54,57.76 104.84,56.32 101.99,53.99 99.15,51.65 97.61,49.87 96.08,48.09 96.16,45.19 96.24,42.28 97.36,39.63 98.48,36.98 100.73,34.41 102.98,31.83 106.96,29.94 110.94,28.06 114.23,27.35 117.53,26.64 119.85,25.88 122.16,25.13 122.30,25.12 122.43,25.12 122.57,25.14 122.70,25.16 122.83,25.21 122.96,25.26 123.08,25.34 123.19,25.41 123.29,25.50 123.39,25.60 123.47,25.71 123.55,25.82 123.61,25.95 123.66,26.07 123.69,26.21 123.72,26.34 123.73,26.48 123.73,26.61 123.71,26.75 123.68,26.88 123.64,27.01 123.59,27.14 123.51,27.26 123.44,27.37 123.35,27.47 123.25,27.57 123.14,27.65 123.03,27.73 122.90,27.79 122.78,27.84 122.64,27.87 122.51,27.90 122.37,27.91 122.24,27.91 122.10,27.89 121.96,27.86 121.84,27.82 121.71,27.77 121.59,27.69 121.48,27.62 121.38,27.53 121.28,27.43 121.20,27.32 121.12,27.21 121.06,27.08 121.01,26.96 120.98,26.82 120.95,26.69 120.94,26.55 120.94,26.41 120.96,26.28 120.98,26.14 121.03,26.02 121.08,25.89 121.16,25.77 121.23,25.66 121.32,25.56 121.42,25.46 121.53,25.38 121.64,25.30 121.77,25.24 121.89,25.19 122.03,25.16 122.16,25.13 122.30,25.12 122.43,25.12 122.57,25.14 122.70,25.16 122.83,25.21 122.96,25.26 123.08,25.34 123.19,25.41 123.29,25.50 123.39,25.60 123.47,25.71 123.55,25.82 123.61,25.95 123.66,26.07 123.69,26.21 123.72,26.34 123.73,26.48 123.73,26.61 123.71,26.75 123.68,26.88 123.64,27.01 123.59,27.14 123.51,27.26 123.44,27.37 123.35,27.47 123.25,27.57 123.14,27.65 123.03,27.73 122.90,27.79 122.78,27.84 120.52,28.59 118.27,29.34 115.05,30.03 111.83,30.71 108.25,32.39 104.67,34.06 102.76,36.26 100.85,38.47 99.91,40.68 98.97,42.90 98.84,45.02 98.72,47.15 99.90,48.39 101.08,49.63 103.67,51.77 106.25,53.91 109.49,55.17 112.74,56.43 114.70,56.39 116.67,56.35 118.14,55.63 119.62,54.90 120.68,53.30 121.73,51.70 123.70,48.22 125.67,44.74 128.08,40.08 130.48,35.42 131.78,32.72 133.08,30.03 133.72,28.57 134.36,27.11 134.86,25.55 135.36,23.99 135.60,24.33 135.85,24.68 136.31,24.73 136.78,24.78 136.11,25.52 135.45,26.26 134.07,26.78 132.70,27.30 131.39,27.37 130.09,27.43 128.77,27.04 127.46,26.65 126.76,25.78 126.06,24.91 125.91,23.86 125.76,22.81 126.02,21.89 126.29,20.97 126.74,20.32 127.19,19.66 127.54,19.40 127.89,19.14 128.33,19.14 128.76,19.14 129.12,19.40 129.47,19.66 129.60,20.07 129.73,20.49 129.69,20.77 129.65,21.05 129.10,21.83 128.55,22.61 127.75,23.28 126.95,23.94 126.16,24.86 125.36,25.77 124.20,26.60 123.04,27.43 121.61,26.96 120.18,26.49 119.54,24.79 118.90,23.09 118.77,20.67 118.65,18.25 118.82,16.30 119.00,14.35 119.38,13.30 119.75,12.25 120.43,11.19 121.12,10.12 121.44,9.86 121.76,9.59 122.17,9.55 122.59,9.52 122.95,9.72 123.32,9.93 123.50,10.30 123.68,10.68 123.80,11.52 123.91,12.36 123.73,14.00 123.55,15.65 122.77,18.40 121.98,21.16 120.82,22.99 119.66,24.83 118.11,26.41 116.57,27.99 114.38,28.53 112.20,29.07 111.03,27.29 109.87,25.50 109.47,23.30 109.07,21.10 109.57,18.54 110.06,15.97 111.02,13.93 111.97,11.88 112.37,11.52 112.76,11.16 113.30,11.18 113.83,11.20 114.19,11.60 114.55,11.99 114.53,12.53 114.51,13.06 113.59,15.04 112.67,17.03 110.83,19.81 108.98,22.59 106.84,24.99 104.69,27.38 102.96,28.13 101.24,28.89 100.19,28.38 99.14,27.87 98.10,26.53 97.07,25.18 96.91,23.54 96.75,21.91 96.93,20.63 97.11,19.35 97.52,18.02 97.92,16.70 98.81,16.04 99.69,15.37 100.54,16.12 101.39,16.87 100.86,18.44 100.33,20.02 99.28,21.66 98.24,23.29 96.28,24.50 94.32,25.70 93.21,25.11 92.11,24.51 91.56,23.46 91.01,22.41 91.06,20.93 91.10,19.44 92.08,18.21 93.05,16.98 93.70,16.44 94.35,15.89 94.66,15.80 94.97,15.70 95.45,15.75 95.93,15.80 96.26,16.15 96.59,16.49 96.62,16.97 96.65,17.45 96.37,17.84 96.09,18.22 95.69,18.48 95.29,18.74 94.76,19.35 94.23,19.96 93.06,20.89 91.89,21.82 90.40,22.82 88.91,23.82 87.18,24.59 85.45,25.36 83.33,26.11 81.21,26.85 79.90,25.89 78.59,24.94 78.54,23.38 78.49,21.83 78.97,20.12 79.46,18.42 80.00,17.61 80.55,16.81 81.09,16.24 81.63,15.67 81.87,15.38 82.11,15.10 82.12,16.01 82.13,16.92 82.28,15.87 82.42,14.82 82.90,14.72 83.37,14.61 83.80,14.84 84.23,15.07 84.41,15.53 84.58,15.98 84.42,16.44 84.25,16.90 83.19,16.91 82.13,16.92 83.04,17.05 83.94,17.17 83.77,17.27 83.60,17.37 83.15,18.00 82.70,18.63 82.02,19.70 81.33,20.76 80.68,21.84 80.02,22.91 78.94,23.96 77.87,25.01 76.38,25.18 74.89,25.36 73.90,24.15 72.92,22.95 72.39,21.43 71.85,19.91 71.66,18.61 71.46,17.31 71.52,16.40 71.57,15.50 71.68,15.08 71.78,14.65 72.22,15.48 72.66,16.32 72.27,15.35 71.88,14.39 72.24,14.05 72.61,13.70 73.11,13.69 73.62,13.69 74.00,14.02 74.37,14.35 74.43,14.85 74.49,15.35 73.57,15.83 72.66,16.32 73.53,15.96 74.40,15.61 73.79,16.87 73.17,18.14 71.90,20.35 70.62,22.55 68.84,24.15 67.06,25.74 64.89,26.74 62.71,27.74 59.70,28.86 56.69,29.98 54.31,30.61 51.92,31.24 49.58,32.08 47.24,32.92 45.00,34.08 42.76,35.24 42.22,36.90 41.69,38.55 41.16,40.68 40.62,42.80 40.68,44.40 40.73,45.99 41.19,47.81 41.65,49.63 42.57,51.44 43.48,53.25 44.34,54.21 45.20,55.16 46.29,54.92 47.39,54.68 48.90,52.74 50.42,50.79 52.29,46.58 54.16,42.38 54.89,38.06 55.61,33.75 55.94,29.61 56.27,25.46 56.56,22.93 56.84,20.39 57.42,18.50 57.99,16.61 58.92,14.68 59.84,12.76 61.31,12.62 62.78,12.49 63.14,13.64 63.50,14.79 63.21,16.09 62.92,17.39 61.89,19.44 60.86,21.49 59.25,22.55 57.63,23.61 55.19,24.27 52.76,24.93 51.49,23.94 50.22,22.95 49.56,21.67 48.90,20.39 48.54,18.73 48.18,17.08 48.35,16.46 48.53,15.85 48.97,16.73 49.41,17.62 49.33,16.32 49.24,15.03 49.77,15.00 50.30,14.96 50.71,15.31 51.11,15.66 51.15,16.19 51.19,16.73 50.30,17.17 49.41,17.62 50.30,17.18 51.18,16.74 51.05,17.13 50.91,17.52 50.26,18.62 49.61,19.73 48.71,21.11 47.81,22.49 45.97,24.04 44.13,25.58 42.45,26.11 40.78,26.64 39.22,26.24 37.65,25.84 36.67,24.60 35.68,23.35 35.31,21.95 34.93,20.54 35.12,18.77 35.31,17.01 35.68,16.21 36.05,15.42 36.30,14.85 36.56,14.28 36.70,14.36 36.83,14.43 37.55,14.83 38.27,15.22 38.50,15.23 38.73,15.23 37.96,16.20 37.19,17.16 36.07,18.65 34.95,20.15 33.79,21.68 32.63,23.20 31.05,24.26 29.47,25.32 28.01,25.65 26.55,25.99 25.01,25.69 23.46,25.39 22.76,24.77 22.06,24.14 21.37,22.98 20.68,21.82 20.74,20.10 20.80,18.38 21.41,16.95 22.02,15.53 23.50,13.95 24.97,12.38 26.12,12.75 27.27,13.12 27.77,14.00 28.28,14.87 27.95,16.19 27.62,17.50 26.61,18.65 25.60,19.79 24.14,21.04 22.67,22.29 20.56,23.55 18.44,24.81 16.65,25.28 14.87,25.74 13.44,25.79 12.01,25.85 10.57,25.55 9.13,25.25 8.05,25.07 6.96,24.89 6.64,24.90 6.32,24.91 6.95,24.48 7.58,24.04 6.43,24.27 5.28,24.49 5.09,24.14 4.91,23.79 4.95,23.39 4.98,22.99 5.23,22.68 5.48,22.36 5.86,22.24 6.24,22.11 6.91,23.08 7.58,24.04 7.43,23.29 7.28,22.53 7.75,23.03 8.23,23.52 8.47,24.18 8.72,24.83 8.98,24.82 9.24,24.80 9.83,24.35 10.41,23.90 11.29,22.82 12.16,21.73 12.49,21.04 12.82,20.36 12.86,19.59 12.89,18.83 12.83,18.08 12.77,17.32 12.85,17.40 12.92,17.47 12.50,17.88 12.07,18.29 11.02,20.18 9.97,22.06 9.28,24.07 8.59,26.07 8.31,28.65 8.02,31.23 8.21,34.22 8.39,37.21 8.75,39.82 9.12,42.43 8.35,41.83 7.59,41.23 8.20,42.37 8.81,43.52 8.34,43.77 7.88,44.01 7.38,43.87 6.87,43.72 6.61,43.27 6.35,42.81 6.97,42.02 7.59,41.23 6.96,41.98 6.34,42.72 6.29,42.11 6.25,41.50 6.16,39.12 6.07,36.75 5.90,33.55 5.73,30.36 5.77,26.33 5.81,22.30 5.90,17.77 5.99,13.24 6.16,11.75 6.33,10.25 6.29,9.98 6.26,9.71 6.96,10.33 7.66,10.94 6.96,10.17 6.25,9.40 6.48,8.95 6.70,8.51 7.17,8.32 7.63,8.14 8.10,8.31 8.57,8.48 8.80,8.93 9.03,9.37 8.35,10.15 7.66,10.94 8.35,10.31 9.04,9.68 8.94,10.61 8.84,11.55 8.25,13.36 7.65,15.17 6.86,17.16 6.06,19.15 4.37,21.16 2.67,23.17 0.91,23.74 -0.84,24.30 -2.33,23.98 -3.81,23.66 -5.41,22.90 -7.00,22.14 -7.40,21.14 -7.79,20.14 -7.90,19.82 -8.00,19.51 -8.00,19.06 -8.00,18.62 -7.74,18.27 -7.47,17.92 -7.05,17.79 -6.62,17.67 -6.21,17.82 -5.80,17.98 -5.51,18.22 -5.23,18.47 -4.87,19.15 -4.50,19.83 -3.97,20.26 -3.44,20.68 -2.73,20.97 -2.03,21.27 -1.46,21.00 -0.89,20.72 -0.36,20.16 0.15,19.61 0.38,18.87 0.62,18.14 -0.19,17.20 -1.00,16.26 -2.49,14.59 -3.99,12.92 -5.20,11.71 -6.41,10.49 -6.74,8.73 -7.06,6.97 -6.28,5.18 -5.51,3.40 -3.98,1.36 -2.46,-0.67 -1.78,-1.02 -1.10,-1.36 -0.55,-1.38 8.57,-1.4 8.57,-1.4 L 8.57,-1.4 Z"></path></g><g transform="translate(622.0251716212547 61.64788040229001) rotate(0 -0.391271821229509 0.39127182122948057)" stroke="none"><path fill="#d3d3d3" d="M -0.98,-0.98 Q -0.98,-0.98 -0.88,-1.07 -0.77,-1.16 -0.65,-1.22 -0.53,-1.29 -0.40,-1.33 -0.27,-1.37 -0.13,-1.38 5.09,-1.4 0.13,-1.38 0.27,-1.37 0.40,-1.33 0.53,-1.29 0.65,-1.22 0.77,-1.16 0.88,-1.07 0.98,-0.98 1.07,-0.88 1.16,-0.77 1.22,-0.65 1.29,-0.53 1.33,-0.40 1.37,-0.27 1.38,-0.13 1.4,5.09 1.38,0.13 1.37,0.27 1.33,0.40 1.29,0.53 1.22,0.65 1.16,0.77 1.07,0.88 0.98,0.98 0.79,1.18 0.59,1.38 0.59,0.39 0.59,-0.59 0.59,0.39 0.59,1.38 0.10,1.58 -0.39,1.79 -0.88,1.58 -1.38,1.38 -1.58,0.88 -1.79,0.39 -1.58,-0.10 -1.38,-0.59 -0.39,-0.59 0.59,-0.59 -0.39,-0.59 -1.38,-0.59 -1.17,-0.78 -0.97,-0.96 -0.85,-1.03 -0.73,-1.09 -0.60,-1.13 -0.46,-1.17 -0.33,-1.19 -0.19,-1.20 -0.05,-1.19 0.07,-1.17 0.20,-1.13 0.34,-1.09 0.46,-1.03 0.58,-0.96 0.68,-0.88 0.79,-0.79 0.88,-0.68 0.96,-0.58 1.03,-0.46 1.09,-0.34 1.13,-0.20 1.17,-0.07 1.19,0.05 1.20,0.19 1.19,0.33 1.17,0.46 1.13,0.60 1.09,0.73 1.03,0.85 0.96,0.97 0.88,1.07 0.79,1.18 0.68,1.27 0.58,1.35 0.46,1.42 0.34,1.48 0.20,1.52 0.07,1.56 -0.05,1.58 -0.19,1.59 -0.33,1.58 -0.46,1.56 -0.60,1.52 -0.73,1.48 -0.85,1.42 -0.97,1.35 -1.07,1.27 -1.18,1.18 -1.27,1.07 -1.35,0.97 -1.42,0.85 -1.48,0.73 -1.52,0.60 -1.56,0.46 -1.58,0.33 -1.59,0.19 -1.58,0.05 -1.56,-0.07 -1.52,-0.20 -1.48,-0.34 -1.42,-0.46 -1.35,-0.58 -1.27,-0.68 -1.18,-0.79 -1.07,-0.88 -0.97,-0.96 -0.85,-1.03 -0.73,-1.09 -0.60,-1.13 -0.46,-1.17 -0.33,-1.19 -0.19,-1.20 -0.05,-1.19 0.07,-1.17 0.20,-1.13 0.34,-1.09 0.46,-1.03 0.58,-0.96 0.68,-0.88 0.79,-0.79 0.88,-0.68 0.96,-0.58 1.03,-0.46 1.09,-0.34 1.13,-0.20 1.17,-0.07 1.19,0.05 1.20,0.19 1.19,0.33 1.17,0.46 1.13,0.60 1.09,0.73 1.03,0.85 0.96,0.97 0.88,1.07 0.79,1.18 0.69,1.28 0.59,1.38 0.10,1.58 -0.39,1.79 -0.88,1.58 -1.38,1.38 -1.58,0.88 -1.79,0.39 -1.58,-0.10 -1.38,-0.59 -1.18,-0.79 -0.98,-0.98 -0.98,-0.98 L -0.98,-0.98 Z"></path></g><g transform="translate(565.682029364211 55.387531262618495) rotate(0 0.391271821229509 -0.7825436424589327)" stroke="none"><path fill="#d3d3d3" d="M 8.57,-1.4 Q 8.57,-1.4 0.13,-1.38 0.27,-1.37 0.40,-1.33 0.53,-1.29 0.65,-1.22 0.77,-1.16 0.88,-1.07 0.98,-0.98 1.07,-0.88 1.16,-0.77 1.22,-0.65 1.29,-0.53 1.33,-0.40 1.37,-0.27 1.38,-0.13 1.4,1.71 1.38,0.13 1.37,0.27 1.33,0.40 1.29,0.53 1.22,0.65 1.16,0.77 1.07,0.88 0.98,0.98 0.88,1.07 0.77,1.16 0.65,1.22 0.53,1.29 0.40,1.33 0.27,1.37 0.13,1.38 -8.57,1.4 -0.19,1.4 -0.39,1.4 -0.73,1.31 -1.07,1.22 -1.32,0.97 -1.58,0.73 -1.68,0.39 -1.78,0.06 -1.71,-0.28 -1.64,-0.62 -1.44,-0.97 -1.24,-1.31 -0.66,-1.73 -0.09,-2.14 0.36,-2.25 0.83,-2.37 1.25,-2.16 1.68,-1.95 1.88,-1.52 2.08,-1.09 1.95,-0.63 1.83,-0.17 1.57,0.17 1.31,0.52 1.20,0.60 1.09,0.69 0.97,0.75 0.84,0.81 0.71,0.85 0.58,0.88 0.44,0.90 0.31,0.91 0.17,0.89 0.03,0.87 -0.09,0.83 -0.22,0.79 -0.34,0.72 -0.46,0.65 -0.56,0.56 -0.66,0.47 -0.75,0.37 -0.83,0.26 -0.90,0.14 -0.96,0.01 -0.99,-0.11 -1.03,-0.24 -1.04,-0.38 -1.05,-0.51 -1.04,-0.65 -1.02,-0.79 -0.98,-0.92 -0.93,-1.05 -0.87,-1.17 -0.80,-1.29 -0.71,-1.39 -0.62,-1.50 -0.51,-1.58 -0.41,-1.66 -0.28,-1.73 -0.16,-1.79 -0.03,-1.83 0.09,-1.86 0.23,-1.87 0.37,-1.88 0.50,-1.87 0.64,-1.85 0.77,-1.81 0.90,-1.77 1.02,-1.70 1.14,-1.63 1.24,-1.54 1.35,-1.45 1.43,-1.34 1.52,-1.24 1.58,-1.11 1.64,-0.99 1.68,-0.86 1.72,-0.73 1.73,-0.59 1.74,-0.45 1.72,-0.32 1.70,-0.18 1.66,-0.05 1.62,0.07 1.55,0.19 1.48,0.31 1.39,0.41 1.31,0.52 1.20,0.60 1.09,0.69 0.97,0.75 0.84,0.81 0.71,0.85 0.58,0.88 0.44,0.90 0.31,0.91 0.17,0.89 0.03,0.87 -0.09,0.83 -0.22,0.79 -0.34,0.72 -0.46,0.65 -0.56,0.56 -0.66,0.47 -0.75,0.37 -0.83,0.26 -0.90,0.14 -0.96,0.01 -0.99,-0.11 -1.03,-0.24 -1.04,-0.38 -1.05,-0.51 -1.04,-0.65 -1.02,-0.79 -0.98,-0.92 -0.93,-1.05 -0.87,-1.17 -0.80,-1.29 -0.63,-1.53 -0.46,-1.78 -0.38,-0.89 -0.31,0.00 -0.20,-1.07 -0.09,-2.14 0.36,-2.25 0.83,-2.37 1.25,-2.16 1.68,-1.95 1.88,-1.52 2.08,-1.09 1.95,-0.63 1.83,-0.17 0.75,-0.08 -0.31,0.00 0.57,0.09 1.46,0.18 1.15,0.36 0.85,0.53 0.85,0.58 0.86,0.62 0.83,-0.05 0.79,-0.73 -0.13,0.24 -1.07,1.22 -1.32,0.97 -1.58,0.73 -1.68,0.39 -1.78,0.06 -1.71,-0.28 -1.64,-0.62 -0.42,-0.68 0.79,-0.73 0.20,-1.06 -0.39,-1.4 -0.19,-1.4 8.57,-1.4 8.57,-1.4 L 8.57,-1.4 Z"></path></g><g transform="translate(696.366817654854 78.08129689392774) rotate(0 33.25810480450491 -6.26034913967149)" stroke="none"><path fill="#d3d3d3" d="M 0.98,0.98 Q 0.98,0.98 0.88,1.07 0.77,1.16 0.65,1.22 0.53,1.29 0.40,1.33 0.27,1.37 0.13,1.38 -1.11,1.4 -0.13,1.38 -0.27,1.37 -0.40,1.33 -0.53,1.29 -0.65,1.22 -0.77,1.16 -0.88,1.07 -0.98,0.98 -1.07,0.88 -1.16,0.77 -1.22,0.65 -1.29,0.53 -1.33,0.40 -1.37,0.27 -1.38,0.13 -1.4,-1.11 -1.38,-0.13 -1.37,-0.27 -1.33,-0.40 -1.29,-0.53 -1.22,-0.65 -1.16,-0.77 -1.07,-0.88 -0.98,-0.98 -0.79,-1.18 -0.59,-1.38 -0.30,-1.67 -0.01,-1.96 0.52,-2.50 1.06,-3.04 1.40,-3.33 1.73,-3.61 1.80,-3.16 1.86,-2.70 2.06,-2.49 2.26,-2.28 2.16,-2.31 2.07,-2.34 1.81,-1.49 1.55,-0.64 1.50,0.63 1.44,1.90 1.99,2.76 2.55,3.62 2.79,3.84 3.03,4.06 3.33,3.73 3.62,3.40 4.68,1.15 5.74,-1.09 6.29,-3.00 6.85,-4.90 7.13,-6.61 7.41,-8.31 7.55,-11.12 7.69,-13.93 7.77,-15.80 7.85,-17.67 8.10,-18.86 8.35,-20.06 8.48,-20.45 8.60,-20.85 8.94,-21.25 9.27,-21.64 9.79,-21.70 10.31,-21.76 10.72,-21.45 11.14,-21.13 11.22,-20.62 11.30,-20.10 11.17,-19.55 11.05,-19.00 10.98,-17.99 10.92,-16.98 10.89,-13.35 10.85,-9.73 11.03,-6.99 11.20,-4.25 11.65,-2.18 12.10,-0.11 12.82,1.54 13.53,3.21 14.37,3.90 15.21,4.60 15.90,4.52 16.58,4.45 18.08,2.85 19.59,1.25 20.40,-0.30 21.20,-1.87 21.59,-2.88 21.98,-3.90 22.02,-4.35 22.06,-4.79 21.77,-4.72 21.47,-4.64 21.06,-4.51 20.65,-4.38 20.03,-2.62 19.41,-0.86 19.41,0.95 19.40,2.78 19.57,3.77 19.74,4.76 20.76,4.89 21.78,5.01 23.03,4.50 24.28,3.98 25.69,2.63 27.10,1.28 28.20,-0.32 29.29,-1.93 29.70,-2.82 30.11,-3.71 30.36,-4.02 30.61,-4.33 30.56,-3.51 30.51,-2.68 30.92,-3.74 31.33,-4.79 31.76,-4.77 32.20,-4.74 32.53,-4.47 32.87,-4.19 32.98,-3.77 33.09,-3.35 32.92,-2.95 32.76,-2.54 31.64,-2.61 30.51,-2.68 31.28,-2.39 32.05,-2.09 32.01,-2.13 31.97,-2.18 31.84,-1.84 31.71,-1.50 31.40,-0.52 31.08,0.46 31.51,1.47 31.93,2.48 32.42,2.77 32.91,3.06 33.22,3.04 33.52,3.02 34.11,1.85 34.69,0.67 35.06,-0.16 35.44,-1.01 35.67,-1.74 35.91,-2.47 36.08,-2.70 36.25,-2.94 36.59,-3.18 36.93,-3.42 37.35,-3.42 37.76,-3.42 38.11,-3.19 38.45,-2.95 38.60,-2.57 38.75,-2.18 38.80,-1.45 38.85,-0.71 38.86,0.09 38.87,0.91 39.38,1.96 39.89,3.00 40.24,3.46 40.58,3.91 40.74,4.07 40.90,4.23 41.80,3.56 42.71,2.88 43.65,1.98 44.59,1.08 45.45,-0.13 46.31,-1.34 47.00,-2.43 47.69,-3.51 47.88,-3.70 48.07,-3.89 48.49,-4.08 48.91,-4.27 49.37,-4.15 49.82,-4.04 50.09,-3.66 50.37,-3.29 50.35,-2.82 50.34,-2.36 50.24,-2.14 50.14,-1.92 50.09,-0.95 50.04,0.00 50.19,1.04 50.34,2.08 50.50,2.79 50.65,3.49 50.95,3.70 51.25,3.91 51.49,3.86 51.73,3.81 52.25,3.02 52.78,2.24 53.50,0.09 54.22,-2.04 54.79,-4.87 55.35,-7.71 55.64,-10.25 55.92,-12.80 55.88,-14.79 55.83,-16.77 55.62,-17.76 55.41,-18.74 56.06,-18.18 56.72,-17.63 56.08,-18.53 55.44,-19.44 55.71,-19.81 55.97,-20.17 56.41,-20.30 56.84,-20.43 57.26,-20.26 57.69,-20.09 57.92,-19.71 58.15,-19.32 57.43,-18.47 56.72,-17.63 57.42,-18.12 58.12,-18.62 57.63,-17.06 57.15,-15.50 56.91,-12.89 56.67,-10.28 57.28,-6.58 57.89,-2.88 59.61,-0.20 61.32,2.46 63.01,3.32 64.70,4.17 64.80,4.27 64.90,4.36 64.98,4.47 65.06,4.59 65.11,4.71 65.17,4.84 65.20,4.97 65.23,5.11 65.23,5.24 65.23,5.38 65.21,5.52 65.18,5.65 65.13,5.78 65.08,5.91 65.01,6.02 64.93,6.14 64.84,6.24 64.74,6.34 64.63,6.41 64.52,6.49 64.39,6.55 64.27,6.60 64.13,6.63 64.00,6.66 63.86,6.66 63.72,6.66 63.59,6.64 63.45,6.62 63.33,6.57 63.20,6.52 63.08,6.44 62.97,6.37 62.87,6.27 62.77,6.18 62.69,6.06 62.61,5.95 62.56,5.83 62.50,5.70 62.47,5.57 62.44,5.43 62.44,5.29 62.44,5.16 62.46,5.02 62.49,4.89 62.54,4.76 62.59,4.63 62.66,4.52 62.74,4.40 62.83,4.30 62.93,4.20 63.04,4.13 63.15,4.05 63.28,3.99 63.40,3.94 63.54,3.91 63.67,3.88 63.81,3.88 63.95,3.87 64.08,3.90 64.22,3.92 64.34,3.97 64.47,4.02 64.59,4.10 64.70,4.17 64.80,4.27 64.90,4.36 64.98,4.47 65.06,4.59 65.11,4.71 65.17,4.84 65.20,4.97 65.23,5.11 65.23,5.24 65.23,5.38 65.21,5.52 65.18,5.65 65.13,5.78 65.08,5.91 65.01,6.02 64.93,6.14 64.84,6.24 64.74,6.34 64.63,6.41 64.52,6.49 64.39,6.55 64.27,6.60 64.13,6.63 64.00,6.66 63.86,6.66 63.72,6.66 63.59,6.64 63.45,6.62 63.33,6.57 63.20,6.52 61.32,5.53 59.44,4.54 57.36,1.33 55.28,-1.87 54.58,-6.02 53.88,-10.18 54.14,-13.11 54.40,-16.04 54.92,-17.74 55.44,-19.44 55.71,-19.81 55.97,-20.17 56.41,-20.30 56.84,-20.43 57.26,-20.26 57.69,-20.09 57.92,-19.71 58.15,-19.32 58.38,-18.21 58.61,-17.09 58.66,-14.89 58.72,-12.68 58.42,-9.98 58.12,-7.27 57.52,-4.30 56.92,-1.32 56.09,1.10 55.26,3.53 54.25,4.85 53.23,6.17 51.97,6.41 50.70,6.66 49.55,5.90 48.39,5.14 48.00,3.90 47.60,2.66 47.42,1.39 47.24,0.12 47.33,-1.20 47.41,-2.52 47.57,-2.96 47.73,-3.39 47.99,-2.55 48.25,-1.71 48.58,-2.99 48.91,-4.27 49.37,-4.15 49.82,-4.04 50.09,-3.66 50.37,-3.29 50.35,-2.82 50.34,-2.36 49.30,-2.04 48.25,-1.71 49.13,-1.79 50.00,-1.87 49.93,-1.80 49.86,-1.74 49.25,-0.76 48.64,0.21 47.67,1.56 46.71,2.91 45.57,4.00 44.43,5.09 42.74,6.06 41.05,7.03 39.93,6.56 38.82,6.09 38.17,5.29 37.52,4.48 36.83,3.02 36.15,1.56 36.10,0.49 36.06,-0.58 36.01,-1.28 35.96,-1.98 36.45,-1.36 36.95,-0.74 36.60,-1.84 36.25,-2.94 36.59,-3.18 36.93,-3.42 37.35,-3.42 37.76,-3.42 38.11,-3.19 38.45,-2.95 38.60,-2.57 38.75,-2.18 37.85,-1.46 36.95,-0.74 37.71,-0.98 38.46,-1.22 38.43,-1.20 38.39,-1.17 38.23,-0.60 38.06,-0.02 37.63,0.95 37.19,1.93 36.16,3.62 35.12,5.32 33.76,5.57 32.39,5.81 31.11,5.07 29.83,4.32 29.06,2.47 28.29,0.63 28.70,-0.96 29.12,-2.56 29.68,-3.47 30.24,-4.38 30.78,-4.59 31.33,-4.79 31.76,-4.77 32.20,-4.74 32.53,-4.47 32.87,-4.19 32.98,-3.77 33.09,-3.35 32.92,-2.95 32.76,-2.54 32.62,-2.38 32.48,-2.22 32.11,-1.39 31.74,-0.56 30.48,1.26 29.23,3.09 27.51,4.71 25.79,6.34 23.92,7.07 22.04,7.80 19.93,7.30 17.83,6.80 17.23,4.97 16.63,3.14 16.64,0.88 16.66,-1.37 17.65,-3.85 18.64,-6.34 19.88,-6.88 21.12,-7.42 22.56,-7.11 24.00,-6.81 24.38,-5.23 24.77,-3.66 24.27,-2.20 23.77,-0.75 22.81,1.07 21.86,2.89 19.83,4.93 17.80,6.97 16.11,7.13 14.43,7.29 12.87,6.11 11.32,4.92 10.38,2.83 9.44,0.75 8.93,-1.55 8.42,-3.86 8.24,-6.76 8.05,-9.65 8.09,-13.37 8.12,-17.08 8.20,-18.24 8.28,-19.40 8.42,-20.06 8.57,-20.72 9.07,-19.89 9.56,-19.06 9.42,-20.35 9.27,-21.64 9.79,-21.70 10.31,-21.76 10.72,-21.45 11.14,-21.13 11.22,-20.62 11.30,-20.10 10.43,-19.58 9.56,-19.06 10.41,-19.52 11.27,-19.98 11.16,-19.66 11.06,-19.34 10.84,-18.33 10.63,-17.32 10.56,-15.56 10.49,-13.80 10.34,-10.91 10.19,-8.01 9.89,-6.15 9.58,-4.28 8.97,-2.19 8.35,-0.09 7.07,2.54 5.78,5.18 4.52,6.01 3.26,6.85 1.96,6.27 0.66,5.69 -0.29,4.17 -1.25,2.65 -1.22,0.72 -1.18,-1.19 -0.47,-2.83 0.23,-4.46 1.29,-4.77 2.35,-5.07 3.30,-4.63 4.24,-4.18 4.23,-3.26 4.23,-2.34 3.63,-1.70 3.04,-1.06 2.50,-0.52 1.96,0.01 1.67,0.30 1.38,0.59 1.18,0.79 0.98,0.98 0.98,0.98 L 0.98,0.98 Z"></path></g><g transform="translate(678.3683138782983 85.12418967605822) rotate(0 -3.521446391065183 5.477805497212586)" stroke="none"><path fill="#d3d3d3" d="M -0.98,-0.98 Q -0.98,-0.98 -0.88,-1.07 -0.77,-1.16 -0.65,-1.22 -0.53,-1.29 -0.40,-1.33 -0.27,-1.37 -0.13,-1.38 -2.53,-1.4 0.13,-1.38 0.27,-1.37 0.40,-1.33 0.53,-1.29 0.65,-1.22 0.77,-1.16 0.88,-1.07 0.98,-0.98 1.07,-0.88 1.16,-0.77 1.22,-0.65 1.29,-0.53 1.33,-0.40 1.37,-0.27 1.38,-0.13 1.4,-2.53 1.38,0.13 1.37,0.27 1.33,0.40 1.29,0.53 1.22,0.65 1.16,0.77 1.07,0.88 0.98,0.98 0.65,1.31 0.33,1.63 -0.40,2.93 -1.14,4.24 -2.29,6.04 -3.43,7.85 -3.66,8.44 -3.88,9.04 -3.97,9.15 -4.05,9.26 -4.15,9.35 -4.25,9.44 -4.37,9.51 -4.49,9.58 -4.62,9.62 -4.75,9.67 -4.88,9.69 -5.02,9.71 -5.16,9.70 -5.29,9.69 -5.43,9.66 -5.56,9.63 -5.68,9.57 -5.81,9.51 -5.92,9.42 -6.03,9.34 -6.12,9.24 -6.21,9.14 -6.28,9.02 -6.35,8.90 -6.40,8.77 -6.44,8.64 -6.46,8.51 -6.48,8.37 -6.47,8.23 -6.47,8.10 -6.43,7.96 -6.40,7.83 -6.34,7.71 -6.28,7.58 -6.20,7.47 -6.11,7.36 -6.01,7.27 -5.91,7.18 -5.79,7.11 -5.67,7.04 -5.54,7.00 -5.41,6.95 -5.28,6.93 -5.14,6.91 -5.01,6.92 -4.87,6.93 -4.74,6.96 -4.60,6.99 -4.48,7.05 -4.36,7.11 -4.25,7.19 -4.14,7.28 -4.04,7.38 -3.95,7.48 -3.88,7.60 -3.81,7.72 -3.77,7.85 -3.72,7.98 -3.70,8.11 -3.68,8.25 -3.69,8.39 -3.70,8.52 -3.73,8.66 -3.77,8.79 -3.83,8.91 -3.88,9.04 -3.97,9.15 -4.05,9.26 -4.15,9.35 -4.25,9.44 -4.37,9.51 -4.49,9.58 -4.62,9.62 -4.75,9.67 -4.88,9.69 -5.02,9.71 -5.16,9.70 -5.29,9.69 -5.43,9.66 -5.56,9.63 -5.68,9.57 -5.81,9.51 -5.92,9.42 -6.03,9.34 -6.12,9.24 -6.21,9.14 -6.28,9.02 -6.35,8.90 -6.40,8.77 -6.44,8.64 -6.46,8.51 -6.48,8.37 -6.47,8.23 -6.47,8.10 -6.43,7.96 -6.40,7.83 -6.17,7.22 -5.95,6.62 -4.74,4.71 -3.54,2.80 -2.72,1.36 -1.89,-0.06 -1.44,-0.52 -0.98,-0.98 -0.98,-0.98 L -0.98,-0.98 Z"></path></g><g transform="translate(772.2735509733711 60.86533675983111) rotate(0 4.695261854753653 18.389775597785075)" stroke="none"><path fill="#d3d3d3" d="M -8.57,1.4 Q -8.57,1.4 -0.13,1.38 -0.27,1.37 -0.40,1.33 -0.53,1.29 -0.65,1.22 -0.77,1.16 -0.88,1.07 -0.98,0.98 -1.07,0.88 -1.16,0.77 -1.22,0.65 -1.29,0.53 -1.33,0.40 -1.37,0.27 -1.38,0.13 -1.4,-1.71 -1.38,-0.13 -1.37,-0.27 -1.33,-0.40 -1.29,-0.53 -1.22,-0.65 -1.16,-0.77 -1.07,-0.88 -0.98,-0.98 -0.88,-1.07 -0.77,-1.16 -0.65,-1.22 -0.53,-1.29 -0.40,-1.33 -0.27,-1.37 -0.13,-1.38 8.57,-1.4 0.56,-1.29 1.12,-1.19 1.44,-0.77 1.77,-0.35 2.56,0.66 3.35,1.68 4.61,3.28 5.87,4.89 7.12,8.39 8.38,11.89 8.60,15.31 8.81,18.73 7.72,23.20 6.62,27.67 5.91,29.95 5.19,32.23 5.21,32.97 5.23,33.72 5.44,34.22 5.65,34.72 5.66,34.86 5.67,34.99 5.66,35.13 5.65,35.27 5.61,35.40 5.57,35.53 5.51,35.65 5.44,35.77 5.36,35.88 5.27,35.99 5.16,36.07 5.06,36.16 4.94,36.23 4.82,36.29 4.69,36.33 4.56,36.37 4.42,36.39 4.28,36.40 4.15,36.39 4.01,36.38 3.88,36.34 3.75,36.30 3.62,36.24 3.50,36.17 3.40,36.09 3.29,36.00 3.20,35.89 3.11,35.79 3.05,35.67 2.98,35.55 2.94,35.42 2.90,35.28 2.89,35.15 2.87,35.01 2.89,34.87 2.90,34.74 2.94,34.61 2.98,34.48 3.04,34.35 3.11,34.23 3.19,34.13 3.28,34.02 3.38,33.93 3.49,33.84 3.61,33.78 3.73,33.71 3.86,33.67 3.99,33.63 4.13,33.62 4.27,33.60 4.40,33.62 4.54,33.63 4.67,33.67 4.80,33.71 4.92,33.77 5.04,33.83 5.15,33.92 5.26,34.01 5.35,34.11 5.43,34.22 5.50,34.34 5.56,34.46 5.60,34.59 5.65,34.72 5.66,34.86 5.67,34.99 5.66,35.13 5.65,35.27 5.61,35.40 5.57,35.53 5.51,35.65 5.44,35.77 5.36,35.88 5.27,35.99 5.16,36.07 5.06,36.16 4.94,36.23 4.82,36.29 4.69,36.33 4.56,36.37 4.42,36.39 4.28,36.40 4.15,36.39 4.01,36.38 3.88,36.34 3.75,36.30 3.62,36.24 3.50,36.17 3.40,36.09 3.29,36.00 3.20,35.89 3.11,35.79 3.05,35.67 2.98,35.55 2.74,34.93 2.49,34.31 2.45,33.08 2.42,31.85 3.17,29.38 3.92,26.92 4.97,22.70 6.02,18.48 5.83,15.47 5.64,12.46 4.53,9.35 3.42,6.25 2.28,4.83 1.14,3.40 0.27,2.27 -0.59,1.13 -0.47,1.16 -0.34,1.19 -0.17,1.29 -8.57,1.4 -8.57,1.4 L -8.57,1.4 Z"></path></g><g transform="translate(806.7054712415645 63.21296768720788) rotate(0 -1.9563591061473744 15.650872849178825)" stroke="none"><path fill="#d3d3d3" d="M 8.57,-1.4 Q 8.57,-1.4 0.13,-1.38 0.27,-1.37 0.40,-1.33 0.53,-1.29 0.65,-1.22 0.77,-1.16 0.88,-1.07 0.98,-0.98 1.07,-0.88 1.16,-0.77 1.22,-0.65 1.29,-0.53 1.33,-0.40 1.37,-0.27 1.38,-0.13 1.4,1.71 1.38,0.13 1.37,0.27 1.33,0.40 1.29,0.53 1.22,0.65 1.16,0.77 1.07,0.88 0.98,0.98 0.88,1.07 0.77,1.16 0.65,1.22 0.53,1.29 0.40,1.33 0.27,1.37 0.13,1.38 -8.57,1.4 0.05,1.35 0.11,1.30 -0.90,2.31 -1.93,3.32 -2.91,4.44 -3.89,5.56 -4.57,6.50 -5.24,7.43 -5.71,8.15 -6.18,8.88 -6.28,9.01 -6.37,9.13 -5.69,9.53 -5.01,9.93 -3.37,10.87 -1.72,11.82 0.01,13.18 1.74,14.55 2.89,16.42 4.03,18.28 4.16,20.77 4.29,23.27 3.47,25.38 2.66,27.49 1.39,28.90 0.13,30.31 -1.86,30.30 -3.85,30.30 -5.28,29.08 -6.70,27.86 -6.77,27.75 -6.84,27.63 -6.89,27.50 -6.94,27.37 -6.96,27.24 -6.98,27.10 -6.98,26.96 -6.97,26.83 -6.94,26.69 -6.91,26.56 -6.85,26.43 -6.79,26.31 -6.71,26.20 -6.63,26.09 -6.53,25.99 -6.43,25.90 -6.31,25.83 -6.20,25.76 -6.07,25.71 -5.94,25.66 -5.81,25.64 -5.67,25.62 -5.53,25.62 -5.40,25.63 -5.26,25.66 -5.13,25.69 -5.00,25.75 -4.88,25.81 -4.77,25.89 -4.66,25.97 -4.56,26.07 -4.47,26.17 -4.40,26.28 -4.33,26.40 -4.28,26.53 -4.23,26.66 -4.21,26.79 -4.19,26.93 -4.19,27.07 -4.20,27.20 -4.23,27.34 -4.26,27.47 -4.32,27.60 -4.37,27.72 -4.46,27.83 -4.54,27.94 -4.64,28.04 -4.74,28.13 -4.85,28.20 -4.97,28.27 -5.10,28.32 -5.23,28.37 -5.36,28.39 -5.50,28.41 -5.64,28.41 -5.77,28.40 -5.91,28.37 -6.04,28.34 -6.16,28.28 -6.29,28.22 -6.40,28.14 -6.51,28.06 -6.61,27.96 -6.70,27.86 -6.77,27.75 -6.84,27.63 -6.89,27.50 -6.94,27.37 -6.96,27.24 -6.98,27.10 -6.98,26.96 -6.97,26.83 -6.94,26.69 -6.91,26.56 -6.85,26.43 -6.79,26.31 -6.71,26.20 -6.63,26.09 -6.53,25.99 -6.43,25.90 -6.31,25.83 -6.20,25.76 -6.07,25.71 -5.94,25.66 -5.81,25.64 -5.67,25.62 -5.53,25.62 -5.40,25.63 -5.26,25.66 -5.13,25.69 -5.00,25.75 -4.88,25.81 -4.77,25.89 -4.66,25.97 -3.75,26.83 -2.84,27.69 -1.93,27.73 -1.02,27.76 -0.38,26.91 0.25,26.06 0.89,24.44 1.53,22.82 1.44,20.96 1.36,19.11 0.51,17.77 -0.33,16.42 -1.81,15.28 -3.28,14.14 -4.92,13.20 -6.56,12.27 -7.75,11.24 -8.95,10.22 -8.89,9.08 -8.82,7.94 -8.19,6.90 -7.56,5.86 -6.82,4.84 -6.08,3.82 -5.01,2.59 -3.93,1.37 -2.41,0.03 -0.90,-1.30 -0.45,-1.35 8.57,-1.4 8.57,-1.4 L 8.57,-1.4 Z"></path></g><g transform="translate(794.9673166046805 79.64638417884566) rotate(0 10.564339173195663 -1.5650872849178938)" stroke="none"><path fill="#d3d3d3" d="M -8.57,1.4 Q -8.57,1.4 -0.13,1.38 -0.27,1.37 -0.40,1.33 -0.53,1.29 -0.65,1.22 -0.77,1.16 -0.88,1.07 -0.98,0.98 -1.07,0.88 -1.16,0.77 -1.22,0.65 -1.29,0.53 -1.33,0.40 -1.37,0.27 -1.38,0.13 -1.4,-1.71 -1.38,-0.13 -1.37,-0.27 -1.33,-0.40 -1.29,-0.53 -1.22,-0.65 -1.16,-0.77 -1.07,-0.88 -0.98,-0.98 -0.88,-1.07 -0.77,-1.16 -0.65,-1.22 -0.53,-1.29 -0.40,-1.33 -0.27,-1.37 -0.13,-1.38 8.57,-1.4 0.78,-1.4 1.56,-1.4 3.07,-1.39 4.59,-1.39 8.42,-1.97 12.26,-2.54 14.52,-3.05 16.78,-3.55 16.92,-3.54 17.06,-3.53 17.19,-3.49 17.32,-3.45 17.44,-3.39 17.57,-3.33 17.67,-3.25 17.78,-3.16 17.87,-3.06 17.96,-2.96 18.03,-2.84 18.10,-2.72 18.14,-2.59 18.18,-2.46 18.20,-2.32 18.22,-2.18 18.21,-2.05 18.20,-1.91 18.16,-1.78 18.13,-1.65 18.07,-1.52 18.00,-1.40 17.92,-1.29 17.84,-1.18 17.73,-1.09 17.63,-1.00 17.51,-0.94 17.39,-0.87 17.26,-0.83 17.13,-0.78 16.99,-0.76 16.86,-0.75 16.72,-0.76 16.58,-0.77 16.45,-0.80 16.32,-0.84 16.20,-0.90 16.07,-0.96 15.97,-1.05 15.86,-1.13 15.77,-1.23 15.68,-1.34 15.61,-1.46 15.54,-1.58 15.50,-1.71 15.45,-1.84 15.44,-1.97 15.42,-2.11 15.43,-2.25 15.44,-2.38 15.48,-2.52 15.51,-2.65 15.57,-2.77 15.63,-2.89 15.72,-3.00 15.80,-3.11 15.91,-3.20 16.01,-3.29 16.13,-3.36 16.25,-3.43 16.38,-3.47 16.51,-3.51 16.65,-3.53 16.78,-3.55 16.92,-3.54 17.06,-3.53 17.19,-3.49 17.32,-3.45 17.44,-3.39 17.57,-3.33 17.67,-3.25 17.78,-3.16 17.87,-3.06 17.96,-2.96 18.03,-2.84 18.10,-2.72 18.14,-2.59 18.18,-2.46 18.20,-2.32 18.22,-2.18 18.21,-2.05 18.20,-1.91 18.16,-1.78 18.13,-1.65 18.07,-1.52 18.00,-1.40 17.92,-1.29 17.84,-1.18 17.73,-1.09 17.63,-1.00 17.51,-0.94 17.39,-0.87 17.26,-0.83 17.13,-0.78 14.95,-0.29 12.77,0.20 8.78,0.79 4.79,1.39 3.18,1.39 1.56,1.4 0.78,1.4 -8.57,1.4 -8.57,1.4 L -8.57,1.4 Z"></path></g><g transform="translate(816.8785385935307 86.68927696097609) rotate(0 20.34613470393242 -5.869077318442038)" stroke="none"><path fill="#d3d3d3" d="M -8.57,1.4 Q -8.57,1.4 -0.13,1.38 -0.27,1.37 -0.40,1.33 -0.53,1.29 -0.65,1.22 -0.77,1.16 -0.88,1.07 -0.98,0.98 -1.07,0.88 -1.16,0.77 -1.22,0.65 -1.29,0.53 -1.33,0.40 -1.37,0.27 -1.38,0.13 -1.4,-1.71 -1.38,-0.13 -1.37,-0.27 -1.33,-0.40 -1.29,-0.53 -1.22,-0.65 -1.16,-0.77 -1.07,-0.88 -0.98,-0.98 -0.88,-1.07 -0.77,-1.16 -0.65,-1.22 -0.53,-1.29 -0.40,-1.33 -0.27,-1.37 -0.13,-1.38 8.57,-1.4 0.19,-1.4 0.39,-1.4 0.45,-1.36 0.51,-1.32 0.88,-1.61 1.25,-1.91 1.52,-3.27 1.78,-4.64 1.77,-5.39 1.75,-6.14 2.29,-5.47 2.82,-4.80 2.37,-5.80 1.91,-6.81 2.24,-7.12 2.57,-7.43 3.02,-7.48 3.47,-7.52 3.86,-7.28 4.24,-7.03 4.40,-6.61 4.55,-6.18 3.69,-5.49 2.82,-4.80 3.61,-5.15 4.39,-5.51 4.04,-4.85 3.68,-4.19 3.52,-3.27 3.36,-2.36 3.79,-0.46 4.22,1.42 4.88,2.44 5.54,3.47 5.72,3.74 5.91,4.01 7.06,2.17 8.21,0.33 9.33,-1.42 10.46,-3.17 11.00,-4.72 11.53,-6.27 11.62,-7.11 11.71,-7.95 11.91,-7.92 12.12,-7.90 12.19,-7.71 12.25,-7.51 12.73,-7.97 13.21,-8.42 11.99,-8.21 10.77,-8.00 10.64,-8.31 10.50,-8.62 10.52,-8.96 10.55,-9.30 10.73,-9.59 10.91,-9.87 11.21,-10.04 11.50,-10.21 12.36,-9.32 13.21,-8.42 13.10,-9.07 12.98,-9.72 13.24,-9.37 13.49,-9.02 14.96,-8.27 16.42,-7.51 17.87,-6.45 19.32,-5.39 20.52,-4.16 21.72,-2.93 22.36,-1.33 23.00,0.26 22.86,2.18 22.73,4.10 22.07,5.46 21.42,6.81 19.59,7.51 17.77,8.20 15.92,7.86 14.06,7.52 12.96,7.34 11.87,7.16 11.09,6.85 10.30,6.55 9.93,6.22 9.57,5.89 9.51,5.39 9.46,4.90 9.74,4.49 10.03,4.09 10.51,3.97 10.99,3.86 11.54,3.94 12.09,4.03 12.93,4.46 13.77,4.89 15.24,5.27 16.71,5.64 18.74,6.02 20.77,6.41 22.03,6.33 23.29,6.25 24.44,4.13 25.59,2.02 26.26,-0.83 26.94,-3.68 27.28,-6.03 27.62,-8.37 27.22,-11.43 26.83,-14.48 26.46,-15.96 26.09,-17.45 25.72,-18.18 25.36,-18.91 26.03,-18.52 26.71,-18.13 25.99,-19.05 25.28,-19.98 25.52,-20.31 25.76,-20.64 26.14,-20.78 26.52,-20.92 26.91,-20.83 27.31,-20.74 27.59,-20.45 27.86,-20.15 27.28,-19.14 26.71,-18.13 27.32,-18.61 27.94,-19.08 27.57,-18.02 27.20,-16.97 27.21,-15.55 27.22,-14.13 27.41,-11.79 27.61,-9.46 27.71,-5.72 27.81,-1.98 27.80,-0.18 27.80,1.62 27.59,1.62 27.38,1.63 27.42,1.31 27.47,0.99 28.72,-0.81 29.97,-2.62 31.35,-4.28 32.73,-5.94 34.77,-6.63 36.81,-7.32 38.29,-6.58 39.76,-5.83 40.42,-4.07 41.07,-2.31 41.14,0.31 41.20,2.93 41.03,4.48 40.86,6.02 40.95,6.32 41.04,6.62 40.60,6.14 40.16,5.66 40.33,6.89 40.50,8.11 40.19,8.24 39.88,8.36 39.54,8.33 39.21,8.29 38.93,8.11 38.65,7.92 38.49,7.62 38.33,7.33 39.24,6.49 40.16,5.66 39.51,5.75 38.87,5.84 39.24,5.59 39.61,5.34 39.74,5.30 39.87,5.25 40.00,5.23 40.14,5.22 40.28,5.22 40.41,5.23 40.55,5.27 40.68,5.30 40.80,5.37 40.92,5.43 41.03,5.51 41.14,5.59 41.23,5.70 41.32,5.80 41.39,5.92 41.46,6.04 41.50,6.17 41.55,6.30 41.57,6.43 41.58,6.57 41.58,6.71 41.57,6.84 41.53,6.98 41.50,7.11 41.43,7.23 41.37,7.35 41.29,7.46 41.21,7.57 41.10,7.66 41.00,7.75 40.88,7.82 40.76,7.89 40.63,7.93 40.50,7.98 40.37,8.00 40.23,8.01 40.09,8.01 39.96,8.00 39.82,7.96 39.69,7.93 39.57,7.86 39.45,7.80 39.34,7.72 39.23,7.64 39.14,7.53 39.05,7.43 38.98,7.31 38.91,7.19 38.87,7.06 38.82,6.93 38.80,6.80 38.79,6.66 38.79,6.52 38.80,6.39 38.84,6.25 38.87,6.12 38.94,6.00 39.00,5.88 39.08,5.77 39.16,5.66 39.27,5.57 39.37,5.48 39.49,5.41 39.61,5.34 39.74,5.30 39.87,5.25 40.00,5.23 40.14,5.22 40.28,5.22 40.41,5.23 40.55,5.27 40.68,5.30 40.80,5.37 40.92,5.43 41.03,5.51 41.14,5.59 41.23,5.70 41.32,5.80 41.39,5.92 41.46,6.04 41.50,6.17 41.55,6.30 41.57,6.43 41.58,6.57 41.58,6.71 41.57,6.84 41.53,6.98 41.50,7.11 41.43,7.23 41.37,7.35 41.29,7.46 41.21,7.57 41.10,7.66 41.00,7.75 40.75,7.93 40.50,8.11 40.19,8.24 39.88,8.36 39.54,8.33 39.21,8.29 38.93,8.11 38.65,7.92 38.49,7.62 38.33,7.33 38.20,6.78 38.07,6.24 38.23,4.53 38.40,2.82 38.36,0.50 38.32,-1.82 37.98,-2.90 37.65,-3.99 37.14,-4.26 36.63,-4.52 35.49,-4.09 34.35,-3.66 33.28,-2.30 32.21,-0.94 30.90,0.93 29.59,2.82 28.44,3.62 27.29,4.43 26.25,3.55 25.21,2.68 25.11,0.38 25.01,-1.91 24.91,-5.61 24.81,-9.31 24.62,-11.66 24.42,-14.02 24.43,-15.72 24.44,-17.42 24.86,-18.70 25.28,-19.98 25.52,-20.31 25.76,-20.64 26.14,-20.78 26.52,-20.92 26.91,-20.83 27.31,-20.74 27.59,-20.45 27.86,-20.15 28.29,-19.28 28.72,-18.42 29.15,-16.71 29.58,-15.00 30.00,-11.68 30.42,-8.35 30.05,-5.75 29.69,-3.16 28.94,-0.05 28.19,3.05 26.51,5.82 24.82,8.59 22.75,8.90 20.68,9.21 18.39,8.79 16.11,8.38 14.43,7.94 12.76,7.51 12.00,7.10 11.24,6.69 10.93,6.67 10.63,6.64 11.40,6.12 12.17,5.60 11.23,6.07 10.30,6.55 9.93,6.22 9.57,5.89 9.51,5.39 9.46,4.90 9.74,4.49 10.03,4.09 10.51,3.97 10.99,3.86 11.58,4.73 12.17,5.60 11.74,4.77 11.32,3.94 11.96,4.20 12.61,4.46 13.58,4.61 14.55,4.76 16.06,5.08 17.56,5.41 18.53,5.09 19.51,4.76 19.76,4.09 20.01,3.41 20.12,2.05 20.23,0.69 19.81,-0.35 19.38,-1.39 18.43,-2.33 17.49,-3.27 16.22,-4.20 14.94,-5.13 13.32,-6.00 11.69,-6.88 11.23,-7.44 10.77,-8.00 10.64,-8.31 10.50,-8.62 10.52,-8.96 10.55,-9.30 10.73,-9.59 10.91,-9.87 11.21,-10.04 11.50,-10.21 12.50,-10.27 13.50,-10.34 14.00,-9.27 14.49,-8.19 14.38,-6.94 14.27,-5.68 13.63,-3.81 12.98,-1.95 11.75,-0.01 10.51,1.92 8.51,4.33 6.51,6.75 5.08,6.14 3.65,5.53 2.64,4.02 1.64,2.51 1.10,0.11 0.56,-2.28 0.79,-3.69 1.03,-5.09 1.47,-5.95 1.91,-6.81 2.24,-7.12 2.57,-7.43 3.02,-7.48 3.47,-7.52 3.86,-7.28 4.24,-7.03 4.40,-6.61 4.55,-6.18 4.56,-5.27 4.57,-4.35 4.10,-2.39 3.63,-0.43 2.53,0.44 1.44,1.32 0.91,1.36 0.39,1.4 0.19,1.4 -8.57,1.4 -8.57,1.4 L -8.57,1.4 Z"></path></g><g transform="translate(823.1388877332022 67.12568589950263) rotate(0 -0.39127182122945214 0.39127182122945214)" stroke="none"><path fill="#d3d3d3" d="M -0.98,-0.98 Q -0.98,-0.98 -0.88,-1.07 -0.77,-1.16 -0.65,-1.22 -0.53,-1.29 -0.40,-1.33 -0.27,-1.37 -0.13,-1.38 1.11,-1.4 0.13,-1.38 0.27,-1.37 0.40,-1.33 0.53,-1.29 0.65,-1.22 0.77,-1.16 0.88,-1.07 0.98,-0.98 1.07,-0.88 1.16,-0.77 1.22,-0.65 1.29,-0.53 1.33,-0.40 1.37,-0.27 1.38,-0.13 1.4,1.11 1.38,0.13 1.37,0.27 1.33,0.40 1.29,0.53 1.22,0.65 1.16,0.77 1.07,0.88 0.98,0.98 0.29,1.39 -0.39,1.79 -0.98,1.48 -1.57,1.18 -1.75,0.88 -1.93,0.57 -1.94,0.22 -1.94,-0.12 -1.78,-0.43 -1.62,-0.74 -1.32,-0.94 -1.02,-1.13 -0.74,-1.21 -0.46,-1.29 -0.33,-1.29 -0.19,-1.29 -0.05,-1.27 0.07,-1.25 0.20,-1.20 0.33,-1.15 0.44,-1.08 0.56,-1.00 0.66,-0.91 0.76,-0.81 0.84,-0.70 0.92,-0.59 0.97,-0.47 1.03,-0.34 1.06,-0.21 1.09,-0.07 1.09,0.05 1.10,0.19 1.07,0.33 1.05,0.46 1.00,0.59 0.95,0.72 0.88,0.84 0.81,0.95 0.71,1.05 0.62,1.15 0.51,1.23 0.39,1.31 0.27,1.37 0.14,1.42 0.01,1.45 -0.11,1.48 -0.25,1.49 -0.39,1.49 -0.52,1.47 -0.66,1.44 -0.79,1.39 -0.91,1.35 -1.03,1.27 -1.15,1.20 -1.25,1.10 -1.35,1.01 -1.43,0.90 -1.50,0.79 -1.56,0.66 -1.62,0.54 -1.65,0.40 -1.68,0.27 -1.68,0.13 -1.68,-0.00 -1.66,-0.13 -1.64,-0.27 -1.59,-0.40 -1.54,-0.52 -1.47,-0.64 -1.39,-0.76 -1.30,-0.86 -1.21,-0.95 -1.09,-1.03 -0.98,-1.11 -0.86,-1.17 -0.73,-1.23 -0.60,-1.26 -0.46,-1.29 -0.33,-1.29 -0.19,-1.29 -0.05,-1.27 0.07,-1.25 0.20,-1.20 0.33,-1.15 0.44,-1.08 0.56,-1.00 0.66,-0.91 0.76,-0.81 0.84,-0.70 0.92,-0.59 0.97,-0.47 1.03,-0.34 1.06,-0.21 1.09,-0.07 1.09,0.05 1.10,0.19 1.07,0.33 1.05,0.46 1.00,0.59 0.95,0.72 0.88,0.84 0.81,0.95 0.71,1.05 0.62,1.15 0.51,1.23 0.39,1.31 0.27,1.37 0.14,1.42 0.00,1.47 -0.14,1.52 0.31,1.02 0.77,0.51 -0.57,0.54 -1.93,0.57 -1.94,0.22 -1.94,-0.12 -1.78,-0.43 -1.62,-0.74 -1.32,-0.94 -1.02,-1.13 -0.12,-0.30 0.77,0.51 0.58,-0.13 0.40,-0.79 0.00,-0.90 -0.39,-1.00 -0.69,-0.99 -0.98,-0.98 -0.98,-0.98 L -0.98,-0.98 Z"></path></g></svg>