<?xml version="1.0" standalone="no"?>
<!DOCTYPE svg PUBLIC "-//W3C//DTD SVG 1.1//EN" "http://www.w3.org/Graphics/SVG/1.1/DTD/svg11.dtd">
<svg version="1.1" xmlns="http://www.w3.org/2000/svg" viewBox="0 0 483 282" width="1449" height="846"><!-- svg-source:excalidraw --><metadata></metadata><defs><style class="style-fonts">
      </style></defs><g transform="translate(29 104) rotate(0 143.5 84)" stroke="none"><path fill="#d3d3d3" d="M -1.4,-8.57 Q -1.4,-8.57 -1.38,-0.13 -1.37,-0.27 -1.33,-0.40 -1.29,-0.53 -1.22,-0.65 -1.16,-0.77 -1.07,-0.88 -0.98,-0.98 -0.88,-1.07 -0.77,-1.16 -0.65,-1.22 -0.53,-1.29 -0.40,-1.33 -0.27,-1.37 -0.13,-1.38 1.71,-1.4 0.13,-1.38 0.27,-1.37 0.40,-1.33 0.53,-1.29 0.65,-1.22 0.77,-1.16 0.88,-1.07 0.98,-0.98 1.07,-0.88 1.16,-0.77 1.22,-0.65 1.29,-0.53 1.33,-0.40 1.37,-0.27 1.38,-0.13 1.4,8.57 1.38,0.11 1.37,0.23 1.60,0.78 1.83,1.33 1.97,1.94 2.11,2.55 2.41,3.78 2.71,5.02 3.60,7.37 4.50,9.73 5.44,12.41 6.39,15.09 8.35,19.64 10.30,24.19 11.76,26.93 13.22,29.67 16.71,34.81 20.19,39.95 24.70,47.79 29.21,55.63 32.94,61.77 36.68,67.91 40.28,73.22 43.89,78.53 48.92,85.40 53.96,92.28 59.46,98.45 64.95,104.62 71.43,111.19 77.91,117.76 84.87,123.52 91.82,129.28 97.77,133.39 103.72,137.50 111.68,141.80 119.64,146.10 125.85,149.25 132.06,152.39 139.37,155.20 146.69,158.00 154.29,160.15 161.89,162.29 171.14,163.36 180.39,164.43 190.75,164.47 201.11,164.51 208.99,164.04 216.87,163.57 226.00,161.35 235.14,159.13 243.19,156.28 251.25,153.43 257.22,150.79 263.20,148.14 270.14,143.35 277.09,138.56 282.03,134.46 286.98,130.35 290.90,125.62 294.82,120.88 297.01,116.84 299.19,112.80 300.53,108.11 301.86,103.41 302.29,98.61 302.72,93.81 302.45,89.24 302.18,84.68 300.63,80.05 299.07,75.41 295.59,71.60 292.10,67.80 289.86,65.37 287.62,62.95 284.55,60.53 281.49,58.11 277.78,55.94 274.07,53.76 269.04,52.18 264.02,50.60 257.56,49.81 251.10,49.01 243.15,49.36 235.20,49.70 226.23,50.87 217.26,52.03 207.78,53.86 198.30,55.69 191.07,57.36 183.84,59.02 175.98,61.10 168.13,63.17 162.98,64.70 157.83,66.23 152.77,68.24 147.72,70.25 142.44,72.50 137.16,74.75 129.76,78.13 122.37,81.51 113.19,85.69 104.00,89.88 96.93,93.46 89.85,97.04 82.56,101.08 75.27,105.13 66.13,110.15 56.99,115.17 51.44,118.41 45.89,121.66 38.61,126.53 31.33,131.41 24.94,135.35 18.55,139.29 14.59,142.01 10.64,144.74 5.64,147.61 0.64,150.49 -3.11,152.68 -6.88,154.88 -9.25,155.97 -11.63,157.06 -13.01,157.83 -14.40,158.60 -15.46,159.30 -16.52,159.99 -16.66,160.03 -16.79,160.07 -16.92,160.09 -17.06,160.10 -17.20,160.09 -17.33,160.07 -17.46,160.03 -17.60,159.99 -17.72,159.93 -17.84,159.86 -17.94,159.78 -18.05,159.69 -18.14,159.58 -18.22,159.48 -18.29,159.36 -18.35,159.24 -18.39,159.11 -18.43,158.97 -18.45,158.84 -18.46,158.70 -18.45,158.56 -18.43,158.43 -18.39,158.30 -18.35,158.17 -18.29,158.04 -18.23,157.92 -18.14,157.82 -18.05,157.71 -17.95,157.62 -17.84,157.54 -17.72,157.47 -17.60,157.41 -17.47,157.37 -17.34,157.33 -17.20,157.31 -17.06,157.30 -16.93,157.31 -16.79,157.33 -16.66,157.37 -16.53,157.41 -16.41,157.47 -16.28,157.54 -16.18,157.62 -16.07,157.71 -15.98,157.82 -15.90,157.92 -15.83,158.04 -15.77,158.16 -15.73,158.29 -15.69,158.43 -15.67,158.56 -15.66,158.70 -15.67,158.84 -15.69,158.97 -15.73,159.10 -15.77,159.23 -15.83,159.36 -15.90,159.48 -15.98,159.58 -16.07,159.69 -16.18,159.78 -16.28,159.86 -16.40,159.93 -16.52,159.99 -16.66,160.03 -16.79,160.07 -16.92,160.09 -17.06,160.10 -17.20,160.09 -17.33,160.07 -17.46,160.03 -17.60,159.99 -17.72,159.93 -17.84,159.86 -17.94,159.78 -18.05,159.69 -18.14,159.58 -18.22,159.48 -18.29,159.36 -18.35,159.24 -18.39,159.11 -18.43,158.97 -18.45,158.84 -18.46,158.70 -18.45,158.56 -18.43,158.43 -18.39,158.30 -18.35,158.17 -18.29,158.04 -18.23,157.92 -18.14,157.82 -18.05,157.71 -17.95,157.62 -17.84,157.54 -16.85,156.87 -15.86,156.21 -14.37,155.39 -12.89,154.57 -10.53,153.48 -8.17,152.39 -4.46,150.23 -0.75,148.06 4.19,145.22 9.14,142.37 13.08,139.66 17.02,136.94 23.42,133.00 29.81,129.06 37.11,124.17 44.40,119.28 50.00,116.01 55.60,112.73 64.76,107.70 73.92,102.67 81.23,98.62 88.54,94.57 95.66,90.96 102.79,87.35 112.00,83.16 121.21,78.96 128.62,75.58 136.02,72.19 141.34,69.93 146.65,67.66 151.78,65.62 156.91,63.59 162.14,62.03 167.37,60.48 175.27,58.39 183.17,56.30 190.45,54.63 197.73,52.95 207.27,51.11 216.81,49.27 225.88,48.09 234.95,46.91 243.08,46.56 251.21,46.22 257.91,47.04 264.61,47.87 269.91,49.53 275.20,51.20 279.14,53.50 283.07,55.80 286.29,58.35 289.52,60.89 291.84,63.40 294.17,65.90 297.82,69.95 301.48,73.99 303.21,79.07 304.93,84.14 305.22,89.00 305.52,93.85 305.07,98.88 304.62,103.92 303.20,108.89 301.78,113.86 299.46,118.15 297.14,122.45 293.05,127.39 288.96,132.33 283.87,136.56 278.78,140.80 271.67,145.69 264.56,150.59 258.42,153.31 252.28,156.04 244.11,158.93 235.93,161.82 226.61,164.08 217.28,166.34 209.24,166.82 201.19,167.31 190.71,167.27 180.22,167.23 170.79,166.13 161.35,165.04 153.58,162.85 145.80,160.66 138.36,157.81 130.93,154.95 124.63,151.77 118.34,148.58 110.30,144.24 102.26,139.89 96.19,135.70 90.13,131.51 83.08,125.66 76.02,119.82 69.46,113.18 62.91,106.54 57.35,100.29 51.78,94.04 46.69,87.09 41.60,80.14 37.96,74.78 34.32,69.43 30.56,63.24 26.80,57.06 22.31,49.25 17.82,41.44 14.32,36.28 10.82,31.12 9.30,28.26 7.78,25.41 5.78,20.76 3.78,16.11 2.83,13.40 1.87,10.70 0.95,8.27 0.03,5.85 -0.28,4.52 -0.61,3.19 -0.72,2.67 -0.83,2.16 -1.10,1.46 -1.37,0.76 -1.38,0.38 -1.4,-8.57 -1.4,-8.57 L -1.4,-8.57 Z"></path></g><g transform="translate(255 184) rotate(0 -1.5 4)" stroke="none"><path fill="#d3d3d3" d="M -1.4,-8.57 Q -1.4,-8.57 -1.38,-0.13 -1.37,-0.27 -1.33,-0.40 -1.29,-0.53 -1.22,-0.65 -1.16,-0.77 -1.07,-0.88 -0.98,-0.98 -0.88,-1.07 -0.77,-1.16 -0.65,-1.22 -0.53,-1.29 -0.40,-1.33 -0.27,-1.37 -0.13,-1.38 1.71,-1.4 0.13,-1.38 0.27,-1.37 0.40,-1.33 0.53,-1.29 0.65,-1.22 0.77,-1.16 0.88,-1.07 0.98,-0.98 1.07,-0.88 1.16,-0.77 1.22,-0.65 1.29,-0.53 1.33,-0.40 1.37,-0.27 1.38,-0.13 1.4,8.57 1.4,0.25 1.4,0.49 1.31,0.84 1.22,1.18 0.97,1.43 0.73,1.69 0.39,1.79 0.06,1.89 -0.28,1.82 -0.62,1.75 -0.62,1.69 -0.62,1.64 -0.74,1.67 -0.86,1.70 -0.91,1.73 -0.97,1.75 -0.83,1.84 -0.69,1.92 -0.11,2.44 0.46,2.96 0.46,3.45 0.46,3.94 0.42,4.57 0.39,5.20 0.11,5.80 -0.16,6.41 -0.26,6.55 -0.36,6.70 -0.22,6.80 -0.09,6.90 -0.05,7.03 -0.00,7.16 0.01,7.30 0.02,7.43 0.02,7.57 0.01,7.71 -0.02,7.84 -0.06,7.97 -0.12,8.09 -0.18,8.22 -0.26,8.33 -0.34,8.44 -0.45,8.53 -0.55,8.62 -0.67,8.68 -0.79,8.75 -0.92,8.80 -1.05,8.84 -1.18,8.86 -1.32,8.88 -1.46,8.87 -1.59,8.86 -1.73,8.82 -1.86,8.79 -1.98,8.73 -2.11,8.67 -2.21,8.58 -2.32,8.50 -2.41,8.40 -2.50,8.29 -2.57,8.17 -2.64,8.06 -2.68,7.93 -2.73,7.80 -2.75,7.66 -2.76,7.52 -2.76,7.39 -2.75,7.25 -2.71,7.12 -2.68,6.98 -2.61,6.86 -2.55,6.74 -2.47,6.63 -2.39,6.52 -2.28,6.43 -2.18,6.34 -2.06,6.27 -1.94,6.20 -1.81,6.16 -1.68,6.11 -1.55,6.10 -1.41,6.08 -1.27,6.09 -1.14,6.10 -1.00,6.13 -0.87,6.17 -0.75,6.23 -0.63,6.29 -0.52,6.37 -0.41,6.46 -0.32,6.56 -0.23,6.66 -0.16,6.78 -0.09,6.90 -0.05,7.03 -0.00,7.16 0.01,7.30 0.02,7.43 0.02,7.57 0.01,7.71 -0.02,7.84 -0.06,7.97 -0.12,8.09 -0.18,8.22 -0.26,8.33 -0.34,8.44 -0.45,8.53 -0.55,8.62 -0.67,8.68 -0.79,8.75 -0.92,8.80 -1.05,8.84 -1.18,8.86 -1.32,8.88 -1.46,8.87 -1.59,8.86 -1.73,8.82 -1.86,8.79 -1.98,8.73 -2.11,8.67 -2.21,8.58 -2.32,8.50 -2.41,8.40 -2.50,8.29 -2.81,7.76 -3.11,7.22 -2.95,6.33 -2.79,5.45 -2.55,4.98 -2.31,4.52 -2.31,4.01 -2.30,3.50 -2.22,3.72 -2.15,3.94 -2.41,3.91 -2.68,3.88 -3.22,2.87 -3.77,1.86 -3.20,0.70 -2.63,-0.45 -1.50,-0.80 -0.37,-1.14 0.12,-0.94 0.62,-0.75 -0.05,-0.72 -0.73,-0.69 0.24,0.24 1.22,1.18 0.97,1.43 0.73,1.69 0.39,1.79 0.06,1.89 -0.28,1.82 -0.62,1.75 -0.68,0.53 -0.73,-0.69 -1.06,-0.09 -1.4,0.49 -1.4,0.24 -1.4,-8.57 -1.4,-8.57 L -1.4,-8.57 Z"></path></g><g transform="translate(297 186) rotate(0 -3 3)" stroke="none"><path fill="#d3d3d3" d="M -1.4,-8.57 Q -1.4,-8.57 -1.38,-0.13 -1.37,-0.27 -1.33,-0.40 -1.29,-0.53 -1.22,-0.65 -1.16,-0.77 -1.07,-0.88 -0.98,-0.98 -0.88,-1.07 -0.77,-1.16 -0.65,-1.22 -0.53,-1.29 -0.40,-1.33 -0.27,-1.37 -0.13,-1.38 1.71,-1.4 0.13,-1.38 0.27,-1.37 0.40,-1.33 0.53,-1.29 0.65,-1.22 0.77,-1.16 0.88,-1.07 0.98,-0.98 1.07,-0.88 1.16,-0.77 1.22,-0.65 1.29,-0.53 1.33,-0.40 1.37,-0.27 1.38,-0.13 1.4,8.57 1.29,0.61 1.19,1.23 0.86,1.46 0.53,1.69 0.40,2.01 0.28,2.32 -0.73,2.88 -1.74,3.43 -2.49,3.78 -3.24,4.12 -3.49,4.50 -3.73,4.88 -3.78,4.73 -3.82,4.58 -3.91,4.45 -4.01,4.33 -3.70,4.37 -3.40,4.42 -3.16,4.33 -2.91,4.25 -2.63,3.96 -2.36,3.67 -2.39,3.59 -2.43,3.52 -2.06,4.17 -1.70,4.82 -1.77,3.64 -1.84,2.46 -1.47,2.33 -1.11,2.20 -0.73,2.29 -0.35,2.37 -0.08,2.64 0.19,2.92 0.27,3.30 0.36,3.67 -0.67,4.25 -1.70,4.82 -0.96,4.78 -0.22,4.74 -0.71,5.09 -1.20,5.44 -1.63,5.57 -2.07,5.70 -2.49,5.53 -2.91,5.37 -3.14,4.99 -3.38,4.60 -3.33,4.15 -3.28,3.70 -2.70,2.51 -2.13,1.32 -2.04,1.21 -1.95,1.11 -1.84,1.03 -1.73,0.95 -1.60,0.89 -1.48,0.83 -1.35,0.80 -1.21,0.76 -1.08,0.75 -0.94,0.75 -0.80,0.77 -0.67,0.79 -0.54,0.83 -0.41,0.88 -0.29,0.95 -0.17,1.02 -0.07,1.11 0.02,1.20 0.10,1.31 0.19,1.42 0.24,1.55 0.30,1.67 0.34,1.80 0.37,1.94 0.38,2.07 0.39,2.21 0.37,2.35 0.35,2.48 0.30,2.61 0.25,2.74 0.18,2.86 0.11,2.98 0.02,3.08 -0.06,3.18 -0.17,3.26 -0.28,3.34 -0.40,3.40 -0.53,3.46 -0.66,3.50 -0.79,3.53 -0.93,3.54 -1.07,3.54 -1.20,3.52 -1.34,3.50 -1.47,3.46 -1.60,3.41 -1.72,3.34 -1.83,3.27 -1.94,3.18 -2.04,3.09 -2.12,2.98 -2.20,2.87 -2.26,2.75 -2.32,2.62 -2.35,2.49 -2.39,2.36 -2.39,2.22 -2.40,2.08 -2.38,1.95 -2.36,1.81 -2.32,1.68 -2.27,1.55 -2.20,1.43 -2.13,1.32 -2.04,1.21 -1.95,1.11 -1.84,1.03 -1.73,0.95 -1.60,0.89 -1.48,0.83 -1.35,0.80 -1.21,0.76 -1.08,0.75 -0.94,0.75 -0.80,0.77 -0.67,0.79 -0.54,0.83 -0.41,0.88 -0.29,0.95 -0.17,1.02 -0.07,1.11 0.02,1.20 0.10,1.31 0.19,1.42 0.24,1.55 0.30,1.67 0.34,1.80 0.37,1.94 0.38,2.07 0.39,2.21 0.37,2.35 0.35,2.48 0.30,2.61 0.25,2.74 -0.24,3.82 -0.74,4.89 -0.93,4.06 -1.11,3.22 -1.16,4.33 -1.20,5.44 -1.63,5.57 -2.07,5.70 -2.49,5.53 -2.91,5.37 -3.14,4.99 -3.38,4.60 -3.33,4.15 -3.28,3.70 -2.20,3.46 -1.11,3.22 -1.97,3.19 -2.82,3.15 -2.33,2.81 -1.84,2.46 -1.47,2.33 -1.11,2.20 -0.73,2.29 -0.35,2.37 -0.08,2.64 0.19,2.92 0.27,3.30 0.36,3.67 0.29,4.20 0.22,4.73 -0.55,5.65 -1.34,6.56 -2.23,6.88 -3.11,7.21 -4.07,7.07 -5.03,6.93 -5.65,6.45 -6.26,5.96 -6.35,5.08 -6.45,4.20 -5.79,3.13 -5.12,2.05 -4.06,1.49 -3.00,0.93 -2.39,0.68 -1.78,0.42 -1.65,0.11 -1.53,-0.19 -1.36,-0.21 -1.19,-0.23 -1.29,-0.11 -1.4,-8.57 -1.4,-8.57 L -1.4,-8.57 Z"></path></g><g transform="translate(252 218) rotate(0 18 1.5)" stroke="none"><path fill="#d3d3d3" d="M 1.4,8.57 Q 1.4,8.57 1.38,0.13 1.37,0.27 1.33,0.40 1.29,0.53 1.22,0.65 1.16,0.77 1.07,0.88 0.98,0.98 0.88,1.07 0.77,1.16 0.65,1.22 0.53,1.29 0.40,1.33 0.27,1.37 0.13,1.38 -1.71,1.4 -0.13,1.38 -0.27,1.37 -0.40,1.33 -0.53,1.29 -0.65,1.22 -0.77,1.16 -0.88,1.07 -0.98,0.98 -1.07,0.88 -1.16,0.77 -1.22,0.65 -1.29,0.53 -1.33,0.40 -1.37,0.27 -1.38,0.13 -1.4,-8.57 -1.4,-0.25 -1.4,-0.49 -0.7,0.2 0,0.89 -0.7,0.19 -1.4,-0.50 -1.19,-0.99 -0.98,-1.48 -0.49,-1.69 0,-1.9 0.49,-1.69 0.98,-1.48 1.19,-0.99 1.4,-0.50 0.7,0.19 0,0.89 0.7,0.2 1.4,-0.49 1.36,-0.60 1.32,-0.71 1.38,-0.68 1.44,-0.66 1.90,-0.36 2.36,-0.07 4.33,0.59 6.29,1.25 8.24,1.84 10.19,2.42 13.63,2.71 17.07,3.00 19.31,3.15 21.56,3.30 23.12,3.37 24.69,3.45 26.35,3.26 28.00,3.07 29.28,2.51 30.55,1.96 31.44,1.44 32.32,0.93 32.94,0.50 33.55,0.06 33.79,-0.27 34.03,-0.62 34.17,-1.03 34.31,-1.45 34.40,-0.82 34.48,-0.19 35.07,-1.28 35.66,-2.38 35.98,-2.30 36.30,-2.21 36.54,-1.99 36.78,-1.78 36.90,-1.47 37.02,-1.16 35.75,-0.68 34.48,-0.19 35.04,0.10 35.60,0.41 35.31,0.39 35.01,0.37 34.88,0.33 34.75,0.28 34.63,0.22 34.51,0.15 34.41,0.06 34.30,-0.02 34.22,-0.13 34.13,-0.24 34.07,-0.36 34.01,-0.48 33.97,-0.61 33.93,-0.74 33.92,-0.88 33.91,-1.02 33.93,-1.15 33.95,-1.29 33.99,-1.42 34.03,-1.55 34.10,-1.67 34.17,-1.79 34.25,-1.89 34.34,-2.00 34.45,-2.08 34.56,-2.17 34.68,-2.23 34.80,-2.29 34.94,-2.33 35.07,-2.37 35.21,-2.38 35.34,-2.39 35.48,-2.37 35.61,-2.36 35.75,-2.31 35.88,-2.27 36.00,-2.20 36.12,-2.14 36.22,-2.05 36.32,-1.96 36.41,-1.85 36.49,-1.74 36.56,-1.62 36.62,-1.50 36.65,-1.36 36.69,-1.23 36.70,-1.10 36.71,-0.96 36.70,-0.82 36.68,-0.69 36.64,-0.56 36.60,-0.43 36.53,-0.31 36.46,-0.19 36.37,-0.08 36.28,0.01 36.17,0.10 36.07,0.18 35.94,0.24 35.82,0.31 35.69,0.34 35.56,0.38 35.42,0.39 35.28,0.40 35.15,0.39 35.01,0.37 34.88,0.33 34.75,0.28 34.63,0.22 34.51,0.15 34.41,0.06 34.30,-0.02 34.22,-0.13 34.13,-0.24 34.07,-0.36 34.01,-0.48 33.97,-0.61 33.93,-0.74 33.92,-0.88 33.91,-1.02 33.93,-1.15 33.95,-1.29 33.99,-1.42 34.03,-1.55 34.10,-1.67 34.17,-1.79 34.25,-1.89 34.34,-2.00 34.45,-2.08 34.56,-2.17 34.68,-2.23 34.80,-2.29 34.94,-2.33 35.07,-2.37 35.21,-2.38 35.34,-2.39 35.50,-2.38 35.66,-2.38 35.98,-2.30 36.30,-2.21 36.54,-1.99 36.78,-1.78 36.90,-1.47 37.02,-1.16 36.98,-0.84 36.95,-0.51 36.73,0.07 36.51,0.67 36.02,1.35 35.54,2.03 34.69,2.65 33.85,3.28 32.83,3.87 31.81,4.46 30.27,5.12 28.73,5.77 26.76,6.01 24.79,6.24 23.09,6.17 21.40,6.09 19.13,5.94 16.86,5.79 13.27,5.48 9.67,5.17 7.56,4.55 5.45,3.92 3.29,3.18 1.13,2.44 0.34,1.92 -0.44,1.41 -0.88,0.81 -1.32,0.21 -1.36,-0.14 -1.4,-0.50 -1.19,-0.99 -0.98,-1.48 -0.49,-1.69 0,-1.9 0.49,-1.69 0.98,-1.48 1.19,-0.99 1.4,-0.50 1.4,-0.25 1.4,8.57 1.4,8.57 L 1.4,8.57 Z"></path></g><g transform="translate(410 11) rotate(0 -8 23)" stroke="none"><path fill="#d3d3d3" d="M -8.57,1.4 Q -8.57,1.4 -0.13,1.38 -0.27,1.37 -0.40,1.33 -0.53,1.29 -0.65,1.22 -0.77,1.16 -0.88,1.07 -0.98,0.98 -1.07,0.88 -1.16,0.77 -1.22,0.65 -1.29,0.53 -1.33,0.40 -1.37,0.27 -1.38,0.13 -1.4,-1.71 -1.38,-0.13 -1.37,-0.27 -1.33,-0.40 -1.29,-0.53 -1.22,-0.65 -1.16,-0.77 -1.07,-0.88 -0.98,-0.98 -0.88,-1.07 -0.77,-1.16 -0.65,-1.22 -0.53,-1.29 -0.40,-1.33 -0.27,-1.37 -0.13,-1.38 8.57,-1.4 0.25,-1.4 0.49,-1.4 -0.09,-1.06 -0.69,-0.73 0.53,-0.68 1.75,-0.62 1.82,-0.28 1.89,0.06 1.79,0.39 1.69,0.73 1.43,0.97 1.18,1.22 0.84,1.31 0.50,1.4 -0.09,0.33 -0.69,-0.73 -0.72,-0.05 -0.75,0.62 -0.50,0.71 -0.26,0.80 -2.78,1.91 -5.30,3.03 -7.20,4.01 -9.10,5.00 -10.14,6.00 -11.18,7.00 -11.28,9.19 -11.37,11.39 -10.33,13.17 -9.28,14.96 -7.27,16.67 -5.25,18.38 -3.08,20.41 -0.91,22.44 0.45,26.39 1.82,30.34 1.97,33.41 2.11,36.48 1.28,39.00 0.44,41.53 -2.67,43.33 -5.80,45.12 -8.19,45.71 -10.58,46.31 -12.49,46.02 -14.40,45.73 -15.96,44.41 -17.51,43.09 -17.59,42.97 -17.66,42.85 -17.71,42.73 -17.76,42.60 -17.78,42.46 -17.81,42.33 -17.80,42.19 -17.80,42.05 -17.77,41.92 -17.74,41.78 -17.68,41.66 -17.63,41.53 -17.55,41.42 -17.47,41.31 -17.37,41.21 -17.27,41.12 -17.16,41.05 -17.04,40.97 -16.91,40.92 -16.78,40.87 -16.65,40.85 -16.51,40.83 -16.38,40.83 -16.24,40.83 -16.11,40.86 -15.97,40.89 -15.85,40.95 -15.72,41.00 -15.61,41.08 -15.50,41.16 -15.40,41.26 -15.31,41.36 -15.23,41.48 -15.16,41.59 -15.11,41.72 -15.06,41.85 -15.04,41.98 -15.01,42.12 -15.02,42.26 -15.02,42.39 -15.05,42.53 -15.08,42.66 -15.14,42.79 -15.19,42.91 -15.27,43.03 -15.35,43.14 -15.45,43.23 -15.55,43.33 -15.66,43.40 -15.78,43.47 -15.91,43.52 -16.04,43.57 -16.17,43.60 -16.31,43.62 -16.44,43.62 -16.58,43.61 -16.71,43.58 -16.85,43.55 -16.97,43.50 -17.10,43.44 -17.21,43.36 -17.32,43.28 -17.42,43.18 -17.51,43.09 -17.59,42.97 -17.66,42.85 -17.71,42.73 -17.76,42.60 -17.78,42.46 -17.81,42.33 -17.80,42.19 -17.80,42.05 -17.77,41.92 -17.74,41.78 -17.68,41.66 -17.63,41.53 -17.55,41.42 -17.47,41.31 -17.37,41.21 -17.27,41.12 -17.16,41.05 -17.04,40.97 -16.91,40.92 -16.78,40.87 -16.65,40.85 -16.51,40.83 -16.38,40.83 -16.24,40.83 -16.11,40.86 -15.97,40.89 -15.85,40.95 -15.72,41.00 -15.61,41.08 -15.50,41.16 -14.37,42.17 -13.24,43.18 -11.99,43.34 -10.73,43.51 -8.78,43.01 -6.83,42.52 -4.27,41.14 -1.72,39.76 -1.19,37.94 -0.66,36.12 -0.79,33.49 -0.92,30.87 -2.09,27.42 -3.26,23.97 -5.18,22.22 -7.11,20.47 -9.27,18.61 -11.44,16.75 -12.77,14.39 -14.09,12.04 -13.92,8.95 -13.75,5.87 -12.25,4.31 -10.76,2.74 -8.60,1.60 -6.44,0.46 -2.83,-0.66 0.76,-1.80 1.25,-1.21 1.75,-0.62 1.82,-0.28 1.89,0.06 1.79,0.39 1.69,0.73 1.43,0.97 1.18,1.22 0.84,1.31 0.50,1.4 0.25,1.4 -8.57,1.4 -8.57,1.4 L -8.57,1.4 Z"></path></g><g transform="translate(388 39) rotate(0 17 -2)" stroke="none"><path fill="#d3d3d3" d="M -8.57,1.4 Q -8.57,1.4 -0.13,1.38 -0.27,1.37 -0.40,1.33 -0.53,1.29 -0.65,1.22 -0.77,1.16 -0.88,1.07 -0.98,0.98 -1.07,0.88 -1.16,0.77 -1.22,0.65 -1.29,0.53 -1.33,0.40 -1.37,0.27 -1.38,0.13 -1.4,-1.71 -1.38,-0.13 -1.37,-0.27 -1.33,-0.40 -1.29,-0.53 -1.22,-0.65 -1.16,-0.77 -1.07,-0.88 -0.98,-0.98 -0.88,-1.07 -0.77,-1.16 -0.65,-1.22 -0.53,-1.29 -0.40,-1.33 -0.27,-1.37 -0.13,-1.38 8.57,-1.4 0.45,-1.39 0.91,-1.39 2.87,-1.64 4.83,-1.89 10.58,-2.51 16.32,-3.13 20.19,-3.70 24.06,-4.26 26.65,-4.54 29.23,-4.83 29.37,-4.80 29.50,-4.78 29.63,-4.73 29.76,-4.68 29.87,-4.60 29.99,-4.53 30.09,-4.43 30.19,-4.34 30.27,-4.23 30.34,-4.11 30.40,-3.99 30.45,-3.86 30.48,-3.73 30.51,-3.59 30.51,-3.46 30.52,-3.32 30.49,-3.18 30.47,-3.05 30.42,-2.92 30.37,-2.79 30.29,-2.68 30.22,-2.56 30.12,-2.46 30.03,-2.37 29.91,-2.29 29.80,-2.21 29.67,-2.15 29.55,-2.10 29.41,-2.07 29.28,-2.04 29.14,-2.04 29.01,-2.04 28.87,-2.06 28.74,-2.09 28.61,-2.14 28.48,-2.19 28.37,-2.26 28.25,-2.34 28.15,-2.43 28.05,-2.53 27.97,-2.64 27.90,-2.75 27.84,-2.88 27.79,-3.00 27.76,-3.14 27.73,-3.27 27.73,-3.41 27.72,-3.55 27.75,-3.68 27.77,-3.82 27.82,-3.94 27.87,-4.07 27.95,-4.19 28.02,-4.30 28.12,-4.40 28.21,-4.50 28.33,-4.58 28.44,-4.66 28.57,-4.71 28.69,-4.77 28.83,-4.79 28.96,-4.82 29.10,-4.83 29.23,-4.83 29.37,-4.80 29.50,-4.78 29.63,-4.73 29.76,-4.68 29.87,-4.60 29.99,-4.53 30.09,-4.43 30.19,-4.34 30.27,-4.23 30.34,-4.11 30.40,-3.99 30.45,-3.86 30.48,-3.73 30.51,-3.59 30.51,-3.46 30.52,-3.32 30.49,-3.18 30.47,-3.05 30.42,-2.92 30.37,-2.79 30.29,-2.68 30.22,-2.56 30.12,-2.46 30.03,-2.37 29.91,-2.29 29.80,-2.21 29.67,-2.15 29.55,-2.10 29.41,-2.07 29.28,-2.04 26.85,-1.76 24.43,-1.48 20.55,-0.92 16.67,-0.36 10.91,0.26 5.16,0.89 3.12,1.14 1.08,1.39 0.54,1.39 -8.57,1.4 -8.57,1.4 L -8.57,1.4 Z"></path></g><g transform="translate(426 55) rotate(0 23.5 -11.5)" stroke="none"><path fill="#d3d3d3" d="M 0.98,0.98 Q 0.98,0.98 0.88,1.07 0.77,1.16 0.65,1.22 0.53,1.29 0.40,1.33 0.27,1.37 0.13,1.38 -1.11,1.4 -0.13,1.38 -0.27,1.37 -0.40,1.33 -0.53,1.29 -0.65,1.22 -0.77,1.16 -0.88,1.07 -0.98,0.98 -1.07,0.88 -1.16,0.77 -1.22,0.65 -1.29,0.53 -1.33,0.40 -1.37,0.27 -1.38,0.13 -1.4,-1.11 -1.38,-0.13 -1.37,-0.27 -1.33,-0.40 -1.29,-0.53 -1.22,-0.65 -1.16,-0.77 -1.07,-0.88 -0.98,-0.98 -0.82,-1.13 -0.65,-1.28 -0.34,-2.05 -0.02,-2.82 0.64,-4.22 1.31,-5.61 1.64,-6.78 1.96,-7.94 2.27,-8.34 2.58,-8.75 3.08,-8.84 3.58,-8.93 4.01,-8.65 4.44,-8.38 4.57,-7.88 4.70,-7.39 4.61,-6.71 4.53,-6.04 4.25,-4.84 3.97,-3.63 4.26,-2.28 4.54,-0.94 5.14,-0.18 5.74,0.57 6.94,0.58 8.13,0.58 9.46,-0.47 10.79,-1.53 11.74,-2.75 12.68,-3.97 13.66,-6.30 14.64,-8.63 15.16,-10.12 15.68,-11.62 16.15,-12.49 16.62,-13.36 16.81,-13.19 17.00,-13.02 17.49,-12.85 17.97,-12.69 17.67,-12.42 17.36,-12.16 17.17,-11.99 16.98,-11.83 18.08,-11.08 19.19,-10.33 20.85,-9.03 22.51,-7.73 24.41,-6.26 26.31,-4.80 27.34,-3.45 28.37,-2.10 28.91,-0.52 29.45,1.05 28.34,2.33 27.23,3.61 25.32,4.10 23.41,4.59 21.75,4.54 20.09,4.49 18.82,4.47 17.54,4.44 16.65,4.43 15.76,4.42 16.42,3.97 17.08,3.53 15.97,3.80 14.85,4.07 14.63,3.71 14.42,3.35 14.45,2.93 14.47,2.51 14.74,2.19 15.00,1.86 15.40,1.74 15.80,1.62 16.44,2.57 17.08,3.53 16.90,2.75 16.71,1.97 17.11,2.36 17.51,2.75 18.52,2.93 19.54,3.10 21.76,2.99 23.98,2.87 25.68,2.40 27.38,1.92 28.61,0.65 29.83,-0.61 30.99,-5.19 32.16,-9.77 32.77,-13.10 33.38,-16.44 33.68,-18.85 33.99,-21.26 34.14,-22.98 34.29,-24.70 34.37,-25.33 34.45,-25.95 34.67,-26.38 34.90,-26.81 35.34,-26.99 35.79,-27.17 36.25,-27.02 36.71,-26.87 36.96,-26.46 37.21,-26.05 37.26,-25.79 37.31,-25.53 37.33,-22.08 37.36,-18.64 37.11,-15.45 36.87,-12.26 36.75,-9.64 36.63,-7.03 36.32,-5.07 36.02,-3.10 36.10,-2.70 36.18,-2.29 35.64,-2.85 35.10,-3.41 35.53,-2.32 35.96,-1.24 35.64,-0.99 35.32,-0.74 34.92,-0.70 34.51,-0.67 34.15,-0.87 33.80,-1.06 33.61,-1.43 33.43,-1.79 34.26,-2.60 35.10,-3.41 34.38,-3.12 33.65,-2.83 35.21,-5.09 36.77,-7.35 38.13,-9.06 39.48,-10.77 41.02,-11.77 42.57,-12.77 43.98,-12.19 45.40,-11.62 46.23,-9.10 47.06,-6.57 47.15,-4.14 47.24,-1.71 47.28,-0.04 47.31,1.63 47.24,1.95 47.17,2.28 46.96,2.53 46.74,2.79 46.43,2.92 46.12,3.04 45.79,3.01 45.46,2.98 44.79,2.72 44.12,2.45 43.66,1.85 43.20,1.24 43.16,1.11 43.11,0.98 43.09,0.85 43.08,0.71 43.08,0.57 43.09,0.44 43.13,0.30 43.16,0.17 43.22,0.05 43.28,-0.06 43.37,-0.17 43.45,-0.28 43.55,-0.37 43.66,-0.46 43.78,-0.53 43.89,-0.60 44.02,-0.65 44.15,-0.69 44.29,-0.71 44.43,-0.73 44.56,-0.72 44.70,-0.71 44.83,-0.68 44.96,-0.64 45.09,-0.58 45.21,-0.52 45.32,-0.44 45.43,-0.35 45.52,-0.25 45.61,-0.15 45.68,-0.03 45.75,0.08 45.79,0.21 45.84,0.34 45.86,0.48 45.87,0.61 45.87,0.75 45.86,0.89 45.82,1.02 45.79,1.15 45.73,1.27 45.67,1.40 45.58,1.51 45.50,1.62 45.40,1.71 45.29,1.80 45.18,1.87 45.06,1.93 44.93,1.98 44.80,2.02 44.66,2.04 44.52,2.06 44.39,2.05 44.25,2.04 44.12,2.01 43.99,1.97 43.86,1.91 43.74,1.85 43.63,1.77 43.52,1.69 43.43,1.58 43.34,1.48 43.27,1.36 43.20,1.24 43.16,1.11 43.11,0.98 43.09,0.85 43.08,0.71 43.08,0.57 43.09,0.44 43.13,0.30 43.16,0.17 43.22,0.05 43.28,-0.06 43.37,-0.17 43.45,-0.28 43.55,-0.37 43.66,-0.46 43.78,-0.53 43.89,-0.60 44.02,-0.65 44.15,-0.69 44.29,-0.71 44.43,-0.73 44.56,-0.72 44.70,-0.71 44.83,-0.68 44.96,-0.64 45.09,-0.58 45.21,-0.52 45.32,-0.44 45.43,-0.35 45.52,-0.25 45.61,-0.15 45.70,0.02 45.79,0.20 46.08,0.27 46.37,0.34 45.73,0.43 45.09,0.53 46.20,1.08 47.31,1.63 47.24,1.95 47.17,2.28 46.96,2.53 46.74,2.79 46.43,2.92 46.12,3.04 45.79,3.01 45.46,2.98 45.27,1.76 45.09,0.53 44.80,1.11 44.52,1.69 44.48,0.03 44.44,-1.63 44.37,-3.87 44.30,-6.11 43.81,-7.93 43.32,-9.75 43.10,-9.87 42.87,-9.98 42.14,-9.36 41.41,-8.74 40.22,-7.21 39.03,-5.69 37.49,-3.46 35.96,-1.24 35.64,-0.99 35.32,-0.74 34.92,-0.70 34.51,-0.67 34.15,-0.87 33.80,-1.06 33.61,-1.43 33.43,-1.79 33.32,-2.42 33.22,-3.06 33.53,-5.18 33.84,-7.31 33.96,-9.87 34.08,-12.43 34.32,-15.58 34.56,-18.74 34.54,-21.99 34.52,-25.24 34.50,-25.37 34.47,-25.50 35.18,-24.94 35.89,-24.38 35.17,-25.16 34.45,-25.95 34.67,-26.38 34.90,-26.81 35.34,-26.99 35.79,-27.17 36.25,-27.02 36.71,-26.87 36.96,-26.46 37.21,-26.05 36.55,-25.21 35.89,-24.38 36.56,-24.99 37.23,-25.60 37.15,-25.00 37.08,-24.40 36.92,-22.68 36.77,-20.96 36.46,-18.49 36.14,-16.02 35.52,-12.59 34.89,-9.16 33.58,-4.21 32.27,0.74 30.55,2.53 28.83,4.32 26.64,4.97 24.45,5.63 21.90,5.76 19.34,5.90 17.81,5.58 16.27,5.26 15.56,4.66 14.85,4.07 14.63,3.71 14.42,3.35 14.45,2.93 14.47,2.51 14.74,2.19 15.00,1.86 15.40,1.74 15.80,1.62 16.69,1.63 17.59,1.64 18.88,1.67 20.17,1.70 21.64,1.75 23.12,1.80 24.48,1.49 25.84,1.18 26.27,0.86 26.70,0.53 26.32,-0.08 25.95,-0.70 25.14,-1.76 24.33,-2.82 22.56,-4.17 20.79,-5.51 19.11,-6.84 17.43,-8.16 15.84,-9.66 14.26,-11.16 14.69,-12.50 15.12,-13.84 16.07,-14.58 17.02,-15.32 17.99,-15.16 18.97,-15.01 19.16,-13.85 19.34,-12.69 18.80,-11.60 18.25,-10.51 17.75,-9.07 17.25,-7.63 16.17,-5.09 15.10,-2.56 13.93,-1.05 12.77,0.45 10.89,1.85 9.00,3.25 6.77,3.17 4.54,3.10 3.29,1.70 2.03,0.30 1.60,-1.67 1.17,-3.64 1.47,-5.07 1.77,-6.51 1.84,-7.12 1.92,-7.73 2.47,-6.96 3.03,-6.18 2.80,-7.47 2.58,-8.75 3.08,-8.84 3.58,-8.93 4.01,-8.65 4.44,-8.38 4.57,-7.88 4.70,-7.39 3.86,-6.79 3.03,-6.18 3.84,-6.68 4.65,-7.18 4.29,-5.90 3.93,-4.63 3.23,-3.15 2.52,-1.67 2.09,-0.69 1.65,0.28 1.32,0.63 0.98,0.98 0.98,0.98 L 0.98,0.98 Z"></path></g><g transform="translate(444 24) rotate(0 0.00004999999998744897 0.00004999999998744897)" stroke="none"><path fill="#d3d3d3" d="M -0.98,0.98 Q -0.98,0.98 -1.07,0.88 -1.16,0.77 -1.22,0.65 -1.29,0.53 -1.33,0.40 -1.37,0.27 -1.38,0.13 -1.4,-1.07 -1.38,-0.13 -1.37,-0.27 -1.33,-0.40 -1.29,-0.53 -1.22,-0.65 -1.16,-0.77 -1.07,-0.88 -0.98,-0.98 -0.88,-1.07 -0.77,-1.16 -0.65,-1.22 -0.53,-1.29 -0.40,-1.33 -0.27,-1.37 -0.13,-1.38 3.47,-1.4 0.13,-1.38 0.27,-1.37 0.40,-1.33 0.53,-1.29 0.65,-1.22 0.77,-1.16 0.88,-1.07 0.98,-0.98 1.07,-0.88 1.16,-0.77 1.22,-0.65 1.29,-0.53 1.33,-0.40 1.37,-0.27 1.38,-0.13 1.40,0.00 1.38,0.13 1.37,0.27 1.33,0.40 1.29,0.53 1.22,0.65 1.16,0.77 1.07,0.88 0.98,0.98 0.88,1.07 0.77,1.16 0.65,1.22 0.53,1.29 0.40,1.33 0.27,1.37 0.13,1.38 0.00,1.40 -0.13,1.38 -0.27,1.37 -0.40,1.33 -0.53,1.29 -0.65,1.22 -0.77,1.16 -0.88,1.07 -0.98,0.98 -0.98,0.98 L -0.98,0.98 Z"></path></g><g transform="translate(346 101) rotate(0 -12 13.5)" stroke="none"><path fill="#d3d3d3" d="M -8.57,1.4 Q -8.57,1.4 -0.13,1.38 -0.27,1.37 -0.40,1.33 -0.53,1.29 -0.65,1.22 -0.77,1.16 -0.88,1.07 -0.98,0.98 -1.07,0.88 -1.16,0.77 -1.22,0.65 -1.29,0.53 -1.33,0.40 -1.37,0.27 -1.38,0.13 -1.4,-1.71 -1.38,-0.13 -1.37,-0.27 -1.33,-0.40 -1.29,-0.53 -1.22,-0.65 -1.16,-0.77 -1.07,-0.88 -0.98,-0.98 -0.88,-1.07 -0.77,-1.16 -0.65,-1.22 -0.53,-1.29 -0.40,-1.33 -0.27,-1.37 -0.13,-1.38 8.57,-1.4 0.00,-1.19 0.01,-0.98 -0.09,-0.37 -0.19,0.23 0.09,0.44 0.37,0.64 0.13,0.75 -0.11,0.87 -2.04,2.38 -3.98,3.89 -5.96,5.64 -7.94,7.39 -10.93,10.75 -13.91,14.12 -16.37,17.01 -18.83,19.90 -20.08,22.11 -21.32,24.33 -22.08,24.99 -22.85,25.66 -22.92,25.35 -22.99,25.05 -22.92,25.17 -22.85,25.29 -22.80,25.42 -22.76,25.55 -22.74,25.68 -22.72,25.82 -22.73,25.96 -22.73,26.09 -22.77,26.23 -22.80,26.36 -22.86,26.48 -22.92,26.61 -23.00,26.72 -23.08,26.83 -23.19,26.92 -23.29,27.01 -23.41,27.08 -23.52,27.15 -23.65,27.20 -23.78,27.24 -23.92,27.26 -24.05,27.28 -24.19,27.27 -24.33,27.27 -24.46,27.23 -24.59,27.20 -24.72,27.14 -24.84,27.08 -24.95,27.00 -25.06,26.92 -25.15,26.81 -25.25,26.71 -25.32,26.59 -25.39,26.48 -25.43,26.35 -25.48,26.22 -25.50,26.08 -25.52,25.95 -25.51,25.81 -25.50,25.67 -25.47,25.54 -25.43,25.41 -25.38,25.28 -25.32,25.16 -25.23,25.05 -25.15,24.94 -25.05,24.85 -24.95,24.76 -24.83,24.69 -24.71,24.62 -24.58,24.57 -24.45,24.52 -24.32,24.50 -24.18,24.48 -24.04,24.49 -23.91,24.50 -23.77,24.53 -23.64,24.57 -23.52,24.63 -23.39,24.68 -23.28,24.77 -23.17,24.85 -23.08,24.95 -22.99,25.05 -22.92,25.17 -22.85,25.29 -22.80,25.42 -22.76,25.55 -22.74,25.68 -22.72,25.82 -22.73,25.96 -22.73,26.09 -22.77,26.23 -22.80,26.36 -22.86,26.48 -22.92,26.61 -23.00,26.72 -23.08,26.83 -23.19,26.92 -23.29,27.01 -23.41,27.08 -23.52,27.15 -23.65,27.20 -23.78,27.24 -23.92,27.26 -24.05,27.28 -24.19,27.27 -24.33,27.27 -24.46,27.23 -24.59,27.20 -24.72,27.14 -24.84,27.08 -24.95,27.00 -25.06,26.92 -25.35,26.40 -25.64,25.88 -24.64,24.33 -23.65,22.77 -22.39,20.53 -21.13,18.30 -18.57,15.29 -16.02,12.28 -12.97,8.85 -9.92,5.41 -7.84,3.57 -5.76,1.73 -3.57,0.05 -1.38,-1.62 -0.38,-1.88 0.62,-2.14 1.40,-1.69 2.19,-1.23 2.09,-0.12 1.98,0.98 0.99,1.19 -8.57,1.4 -8.57,1.4 L -8.57,1.4 Z"></path></g><g transform="translate(313 114) rotate(0 6.5 13.5)" stroke="none"><path fill="#d3d3d3" d="M 8.57,-1.4 Q 8.57,-1.4 0.13,-1.38 0.27,-1.37 0.40,-1.33 0.53,-1.29 0.65,-1.22 0.77,-1.16 0.88,-1.07 0.98,-0.98 1.07,-0.88 1.16,-0.77 1.22,-0.65 1.29,-0.53 1.33,-0.40 1.37,-0.27 1.38,-0.13 1.4,1.71 1.38,0.13 1.37,0.27 1.33,0.40 1.29,0.53 1.22,0.65 1.16,0.77 1.07,0.88 0.98,0.98 0.88,1.07 0.77,1.16 0.65,1.22 0.53,1.29 0.40,1.33 0.27,1.37 0.13,1.38 -8.57,1.4 0.11,1.29 0.23,1.19 0.41,1.04 0.59,0.88 0.55,1.43 0.50,1.97 -0.53,6.58 -1.57,11.20 -2.33,14.21 -3.09,17.22 -3.49,19.53 -3.88,21.84 -4.30,22.89 -4.73,23.95 -4.75,24.13 -4.77,24.30 -4.56,24.50 -4.35,24.70 -3.37,24.89 -2.39,25.07 0.87,24.95 4.14,24.83 7.07,24.52 9.99,24.22 12.23,24.06 14.47,23.91 15.71,23.85 16.96,23.79 17.65,23.49 18.35,23.20 18.49,23.19 18.62,23.17 18.76,23.18 18.90,23.20 19.03,23.24 19.16,23.27 19.28,23.34 19.40,23.40 19.51,23.49 19.62,23.57 19.70,23.68 19.79,23.78 19.86,23.90 19.92,24.03 19.96,24.16 20.01,24.29 20.02,24.42 20.04,24.56 20.02,24.70 20.01,24.83 19.97,24.96 19.93,25.10 19.87,25.22 19.81,25.34 19.72,25.45 19.63,25.55 19.53,25.64 19.42,25.73 19.30,25.80 19.18,25.86 19.05,25.90 18.92,25.94 18.78,25.96 18.65,25.97 18.51,25.96 18.37,25.95 18.24,25.91 18.11,25.87 17.99,25.81 17.87,25.74 17.76,25.66 17.65,25.57 17.57,25.47 17.48,25.36 17.41,25.24 17.35,25.12 17.31,24.99 17.26,24.86 17.25,24.72 17.24,24.58 17.25,24.45 17.26,24.31 17.30,24.18 17.34,24.05 17.40,23.93 17.46,23.80 17.55,23.70 17.64,23.59 17.74,23.50 17.85,23.41 17.97,23.35 18.09,23.28 18.22,23.24 18.35,23.20 18.49,23.19 18.62,23.17 18.76,23.18 18.90,23.20 19.03,23.24 19.16,23.27 19.28,23.34 19.40,23.40 19.51,23.49 19.62,23.57 19.70,23.68 19.79,23.78 19.86,23.90 19.92,24.03 19.96,24.16 20.01,24.29 20.02,24.42 20.04,24.56 20.02,24.70 20.01,24.83 19.97,24.96 19.93,25.10 19.87,25.22 19.81,25.34 19.72,25.45 19.63,25.55 19.53,25.64 19.42,25.73 19.30,25.80 19.18,25.86 18.39,26.19 17.59,26.51 16.12,26.61 14.64,26.70 12.44,26.85 10.24,27.01 7.29,27.32 4.33,27.63 0.85,27.74 -2.63,27.86 -4.17,27.50 -5.70,27.15 -6.52,26.29 -7.34,25.42 -7.42,24.46 -7.49,23.51 -7.04,22.30 -6.58,21.09 -6.21,18.87 -5.83,16.64 -5.06,13.59 -4.29,10.54 -3.27,6.03 -2.25,1.52 -2.17,0.81 -2.09,0.11 -1.66,-0.54 -1.23,-1.19 -0.61,-1.29 8.57,-1.4 8.57,-1.4 L 8.57,-1.4 Z"></path></g><g transform="translate(325 120) rotate(0 27.5 -18.5)" stroke="none"><path fill="#d3d3d3" d="M -8.57,1.4 Q -8.57,1.4 -0.13,1.38 -0.27,1.37 -0.40,1.33 -0.53,1.29 -0.65,1.22 -0.77,1.16 -0.88,1.07 -0.98,0.98 -1.07,0.88 -1.16,0.77 -1.22,0.65 -1.29,0.53 -1.33,0.40 -1.37,0.27 -1.38,0.13 -1.4,-1.71 -1.38,-0.13 -1.37,-0.27 -1.33,-0.40 -1.29,-0.53 -1.22,-0.65 -1.16,-0.77 -1.07,-0.88 -0.98,-0.98 -0.88,-1.07 -0.77,-1.16 -0.65,-1.22 -0.53,-1.29 -0.40,-1.33 -0.27,-1.37 -0.13,-1.38 8.57,-1.4 -0.06,-1.32 -0.12,-1.25 0.01,-1.56 0.15,-1.87 1.87,-3.91 3.60,-5.95 6.24,-8.50 8.89,-11.05 14.73,-15.59 20.57,-20.12 25.28,-23.41 29.99,-26.70 35.38,-29.36 40.77,-32.02 43.93,-33.33 47.09,-34.64 49.03,-35.59 50.97,-36.53 51.10,-36.56 51.24,-36.58 51.38,-36.58 51.51,-36.57 51.65,-36.54 51.78,-36.51 51.91,-36.45 52.03,-36.40 52.14,-36.32 52.25,-36.24 52.35,-36.14 52.44,-36.04 52.51,-35.92 52.59,-35.80 52.64,-35.68 52.68,-35.55 52.71,-35.41 52.73,-35.28 52.73,-35.14 52.72,-35.00 52.69,-34.87 52.66,-34.73 52.60,-34.61 52.55,-34.48 52.47,-34.37 52.39,-34.26 52.29,-34.17 52.19,-34.07 52.07,-34.00 51.95,-33.93 51.83,-33.88 51.70,-33.83 51.56,-33.81 51.43,-33.79 51.29,-33.79 51.15,-33.79 51.02,-33.83 50.88,-33.86 50.76,-33.91 50.63,-33.97 50.52,-34.05 50.41,-34.13 50.32,-34.23 50.22,-34.33 50.15,-34.45 50.08,-34.56 50.03,-34.69 49.98,-34.82 49.96,-34.95 49.94,-35.09 49.94,-35.23 49.94,-35.36 49.98,-35.50 50.01,-35.63 50.06,-35.76 50.12,-35.88 50.20,-35.99 50.28,-36.10 50.38,-36.20 50.48,-36.29 50.60,-36.36 50.71,-36.44 50.84,-36.49 50.97,-36.53 51.10,-36.56 51.24,-36.58 51.38,-36.58 51.51,-36.57 51.65,-36.54 51.78,-36.51 51.91,-36.45 52.03,-36.40 52.14,-36.32 52.25,-36.24 52.35,-36.14 52.44,-36.04 52.51,-35.92 52.59,-35.80 52.64,-35.68 52.68,-35.55 52.71,-35.41 52.73,-35.28 52.73,-35.14 52.72,-35.00 52.69,-34.87 52.66,-34.73 52.60,-34.61 52.55,-34.48 52.47,-34.37 52.39,-34.26 52.29,-34.17 52.19,-34.07 52.07,-34.00 51.95,-33.93 50.10,-33.01 48.25,-32.10 45.09,-30.78 41.92,-29.47 36.67,-26.88 31.41,-24.29 26.82,-21.08 22.23,-17.87 16.48,-13.40 10.72,-8.94 8.18,-6.49 5.64,-4.04 3.99,-2.08 2.34,-0.12 1.73,0.56 1.12,1.25 0.56,1.32 -8.57,1.4 -8.57,1.4 L -8.57,1.4 Z"></path></g></svg>