<?xml version="1.0" standalone="no"?>
<!DOCTYPE svg PUBLIC "-//W3C//DTD SVG 1.1//EN" "http://www.w3.org/Graphics/SVG/1.1/DTD/svg11.dtd">
<svg version="1.1" xmlns="http://www.w3.org/2000/svg" viewBox="0 0 790 503" width="2370" height="1509"><!-- svg-source:excalidraw --><metadata></metadata><defs><style class="style-fonts">
      </style></defs><g transform="translate(163 127) rotate(0 143.5 84)" stroke="none"><path fill="#1e1e1e" d="M -1.4,-8.57 Q -1.4,-8.57 -1.38,-0.13 -1.37,-0.27 -1.33,-0.40 -1.29,-0.53 -1.22,-0.65 -1.16,-0.77 -1.07,-0.88 -0.98,-0.98 -0.88,-1.07 -0.77,-1.16 -0.65,-1.22 -0.53,-1.29 -0.40,-1.33 -0.27,-1.37 -0.13,-1.38 1.71,-1.4 0.13,-1.38 0.27,-1.37 0.40,-1.33 0.53,-1.29 0.65,-1.22 0.77,-1.16 0.88,-1.07 0.98,-0.98 1.07,-0.88 1.16,-0.77 1.22,-0.65 1.29,-0.53 1.33,-0.40 1.37,-0.27 1.38,-0.13 1.4,8.57 1.38,0.11 1.37,0.23 1.60,0.78 1.83,1.33 1.97,1.94 2.11,2.55 2.41,3.78 2.71,5.02 3.60,7.37 4.50,9.73 5.44,12.41 6.39,15.09 8.35,19.64 10.30,24.19 11.76,26.93 13.22,29.67 16.71,34.81 20.19,39.95 24.70,47.79 29.21,55.63 32.94,61.77 36.68,67.91 40.28,73.22 43.89,78.53 48.92,85.40 53.96,92.28 59.46,98.45 64.95,104.62 71.43,111.19 77.91,117.76 84.87,123.52 91.82,129.28 97.77,133.39 103.72,137.50 111.68,141.80 119.64,146.10 125.85,149.25 132.06,152.39 139.37,155.20 146.69,158.00 154.29,160.15 161.89,162.29 171.14,163.36 180.39,164.43 190.75,164.47 201.11,164.51 208.99,164.04 216.87,163.57 226.00,161.35 235.14,159.13 243.19,156.28 251.25,153.43 257.22,150.79 263.20,148.14 270.14,143.35 277.09,138.56 282.03,134.46 286.98,130.35 290.90,125.62 294.82,120.88 297.01,116.84 299.19,112.80 300.53,108.11 301.86,103.41 302.29,98.61 302.72,93.81 302.45,89.24 302.18,84.68 300.63,80.05 299.07,75.41 295.59,71.60 292.10,67.80 289.86,65.37 287.62,62.95 284.55,60.53 281.49,58.11 277.78,55.94 274.07,53.76 269.04,52.18 264.02,50.60 257.56,49.81 251.10,49.01 243.15,49.36 235.20,49.70 226.23,50.87 217.26,52.03 207.78,53.86 198.30,55.69 191.07,57.36 183.84,59.02 175.98,61.10 168.13,63.17 162.98,64.70 157.83,66.23 152.77,68.24 147.72,70.25 142.44,72.50 137.16,74.75 129.76,78.13 122.37,81.51 113.19,85.69 104.00,89.88 96.93,93.46 89.85,97.04 82.56,101.08 75.27,105.13 66.13,110.15 56.99,115.17 51.44,118.41 45.89,121.66 38.61,126.53 31.33,131.41 24.94,135.35 18.55,139.29 14.59,142.01 10.64,144.74 5.64,147.61 0.64,150.49 -3.11,152.68 -6.88,154.88 -9.25,155.97 -11.63,157.06 -13.01,157.83 -14.40,158.60 -15.46,159.30 -16.52,159.99 -16.66,160.03 -16.79,160.07 -16.92,160.09 -17.06,160.10 -17.20,160.09 -17.33,160.07 -17.46,160.03 -17.60,159.99 -17.72,159.93 -17.84,159.86 -17.94,159.78 -18.05,159.69 -18.14,159.58 -18.22,159.48 -18.29,159.36 -18.35,159.24 -18.39,159.11 -18.43,158.97 -18.45,158.84 -18.46,158.70 -18.45,158.56 -18.43,158.43 -18.39,158.30 -18.35,158.17 -18.29,158.04 -18.23,157.92 -18.14,157.82 -18.05,157.71 -17.95,157.62 -17.84,157.54 -17.72,157.47 -17.60,157.41 -17.47,157.37 -17.34,157.33 -17.20,157.31 -17.06,157.30 -16.93,157.31 -16.79,157.33 -16.66,157.37 -16.53,157.41 -16.41,157.47 -16.28,157.54 -16.18,157.62 -16.07,157.71 -15.98,157.82 -15.90,157.92 -15.83,158.04 -15.77,158.16 -15.73,158.29 -15.69,158.43 -15.67,158.56 -15.66,158.70 -15.67,158.84 -15.69,158.97 -15.73,159.10 -15.77,159.23 -15.83,159.36 -15.90,159.48 -15.98,159.58 -16.07,159.69 -16.18,159.78 -16.28,159.86 -16.40,159.93 -16.52,159.99 -16.66,160.03 -16.79,160.07 -16.92,160.09 -17.06,160.10 -17.20,160.09 -17.33,160.07 -17.46,160.03 -17.60,159.99 -17.72,159.93 -17.84,159.86 -17.94,159.78 -18.05,159.69 -18.14,159.58 -18.22,159.48 -18.29,159.36 -18.35,159.24 -18.39,159.11 -18.43,158.97 -18.45,158.84 -18.46,158.70 -18.45,158.56 -18.43,158.43 -18.39,158.30 -18.35,158.17 -18.29,158.04 -18.23,157.92 -18.14,157.82 -18.05,157.71 -17.95,157.62 -17.84,157.54 -16.85,156.87 -15.86,156.21 -14.37,155.39 -12.89,154.57 -10.53,153.48 -8.17,152.39 -4.46,150.23 -0.75,148.06 4.19,145.22 9.14,142.37 13.08,139.66 17.02,136.94 23.42,133.00 29.81,129.06 37.11,124.17 44.40,119.28 50.00,116.01 55.60,112.73 64.76,107.70 73.92,102.67 81.23,98.62 88.54,94.57 95.66,90.96 102.79,87.35 112.00,83.16 121.21,78.96 128.62,75.58 136.02,72.19 141.34,69.93 146.65,67.66 151.78,65.62 156.91,63.59 162.14,62.03 167.37,60.48 175.27,58.39 183.17,56.30 190.45,54.63 197.73,52.95 207.27,51.11 216.81,49.27 225.88,48.09 234.95,46.91 243.08,46.56 251.21,46.22 257.91,47.04 264.61,47.87 269.91,49.53 275.20,51.20 279.14,53.50 283.07,55.80 286.29,58.35 289.52,60.89 291.84,63.40 294.17,65.90 297.82,69.95 301.48,73.99 303.21,79.07 304.93,84.14 305.22,89.00 305.52,93.85 305.07,98.88 304.62,103.92 303.20,108.89 301.78,113.86 299.46,118.15 297.14,122.45 293.05,127.39 288.96,132.33 283.87,136.56 278.78,140.80 271.67,145.69 264.56,150.59 258.42,153.31 252.28,156.04 244.11,158.93 235.93,161.82 226.61,164.08 217.28,166.34 209.24,166.82 201.19,167.31 190.71,167.27 180.22,167.23 170.79,166.13 161.35,165.04 153.58,162.85 145.80,160.66 138.36,157.81 130.93,154.95 124.63,151.77 118.34,148.58 110.30,144.24 102.26,139.89 96.19,135.70 90.13,131.51 83.08,125.66 76.02,119.82 69.46,113.18 62.91,106.54 57.35,100.29 51.78,94.04 46.69,87.09 41.60,80.14 37.96,74.78 34.32,69.43 30.56,63.24 26.80,57.06 22.31,49.25 17.82,41.44 14.32,36.28 10.82,31.12 9.30,28.26 7.78,25.41 5.78,20.76 3.78,16.11 2.83,13.40 1.87,10.70 0.95,8.27 0.03,5.85 -0.28,4.52 -0.61,3.19 -0.72,2.67 -0.83,2.16 -1.10,1.46 -1.37,0.76 -1.38,0.38 -1.4,-8.57 -1.4,-8.57 L -1.4,-8.57 Z"></path></g><g transform="translate(389 207) rotate(0 -1.5 4)" stroke="none"><path fill="#1e1e1e" d="M -1.4,-8.57 Q -1.4,-8.57 -1.38,-0.13 -1.37,-0.27 -1.33,-0.40 -1.29,-0.53 -1.22,-0.65 -1.16,-0.77 -1.07,-0.88 -0.98,-0.98 -0.88,-1.07 -0.77,-1.16 -0.65,-1.22 -0.53,-1.29 -0.40,-1.33 -0.27,-1.37 -0.13,-1.38 1.71,-1.4 0.13,-1.38 0.27,-1.37 0.40,-1.33 0.53,-1.29 0.65,-1.22 0.77,-1.16 0.88,-1.07 0.98,-0.98 1.07,-0.88 1.16,-0.77 1.22,-0.65 1.29,-0.53 1.33,-0.40 1.37,-0.27 1.38,-0.13 1.4,8.57 1.4,0.25 1.4,0.49 1.31,0.84 1.22,1.18 0.97,1.43 0.73,1.69 0.39,1.79 0.06,1.89 -0.28,1.82 -0.62,1.75 -0.62,1.69 -0.62,1.64 -0.74,1.67 -0.86,1.70 -0.91,1.73 -0.97,1.75 -0.83,1.84 -0.69,1.92 -0.11,2.44 0.46,2.96 0.46,3.45 0.46,3.94 0.42,4.57 0.39,5.20 0.11,5.80 -0.16,6.41 -0.26,6.55 -0.36,6.70 -0.22,6.80 -0.09,6.90 -0.05,7.03 -0.00,7.16 0.01,7.30 0.02,7.43 0.02,7.57 0.01,7.71 -0.02,7.84 -0.06,7.97 -0.12,8.09 -0.18,8.22 -0.26,8.33 -0.34,8.44 -0.45,8.53 -0.55,8.62 -0.67,8.68 -0.79,8.75 -0.92,8.80 -1.05,8.84 -1.18,8.86 -1.32,8.88 -1.46,8.87 -1.59,8.86 -1.73,8.82 -1.86,8.79 -1.98,8.73 -2.11,8.67 -2.21,8.58 -2.32,8.50 -2.41,8.40 -2.50,8.29 -2.57,8.17 -2.64,8.06 -2.68,7.93 -2.73,7.80 -2.75,7.66 -2.76,7.52 -2.76,7.39 -2.75,7.25 -2.71,7.12 -2.68,6.98 -2.61,6.86 -2.55,6.74 -2.47,6.63 -2.39,6.52 -2.28,6.43 -2.18,6.34 -2.06,6.27 -1.94,6.20 -1.81,6.16 -1.68,6.11 -1.55,6.10 -1.41,6.08 -1.27,6.09 -1.14,6.10 -1.00,6.13 -0.87,6.17 -0.75,6.23 -0.63,6.29 -0.52,6.37 -0.41,6.46 -0.32,6.56 -0.23,6.66 -0.16,6.78 -0.09,6.90 -0.05,7.03 -0.00,7.16 0.01,7.30 0.02,7.43 0.02,7.57 0.01,7.71 -0.02,7.84 -0.06,7.97 -0.12,8.09 -0.18,8.22 -0.26,8.33 -0.34,8.44 -0.45,8.53 -0.55,8.62 -0.67,8.68 -0.79,8.75 -0.92,8.80 -1.05,8.84 -1.18,8.86 -1.32,8.88 -1.46,8.87 -1.59,8.86 -1.73,8.82 -1.86,8.79 -1.98,8.73 -2.11,8.67 -2.21,8.58 -2.32,8.50 -2.41,8.40 -2.50,8.29 -2.81,7.76 -3.11,7.22 -2.95,6.33 -2.79,5.45 -2.55,4.98 -2.31,4.52 -2.31,4.01 -2.30,3.50 -2.22,3.72 -2.15,3.94 -2.41,3.91 -2.68,3.88 -3.22,2.87 -3.77,1.86 -3.20,0.70 -2.63,-0.45 -1.50,-0.80 -0.37,-1.14 0.12,-0.94 0.62,-0.75 -0.05,-0.72 -0.73,-0.69 0.24,0.24 1.22,1.18 0.97,1.43 0.73,1.69 0.39,1.79 0.06,1.89 -0.28,1.82 -0.62,1.75 -0.68,0.53 -0.73,-0.69 -1.06,-0.09 -1.4,0.49 -1.4,0.24 -1.4,-8.57 -1.4,-8.57 L -1.4,-8.57 Z"></path></g><g transform="translate(431 209) rotate(0 -3 3)" stroke="none"><path fill="#1e1e1e" d="M -1.4,-8.57 Q -1.4,-8.57 -1.38,-0.13 -1.37,-0.27 -1.33,-0.40 -1.29,-0.53 -1.22,-0.65 -1.16,-0.77 -1.07,-0.88 -0.98,-0.98 -0.88,-1.07 -0.77,-1.16 -0.65,-1.22 -0.53,-1.29 -0.40,-1.33 -0.27,-1.37 -0.13,-1.38 1.71,-1.4 0.13,-1.38 0.27,-1.37 0.40,-1.33 0.53,-1.29 0.65,-1.22 0.77,-1.16 0.88,-1.07 0.98,-0.98 1.07,-0.88 1.16,-0.77 1.22,-0.65 1.29,-0.53 1.33,-0.40 1.37,-0.27 1.38,-0.13 1.4,8.57 1.29,0.61 1.19,1.23 0.86,1.46 0.53,1.69 0.40,2.01 0.28,2.32 -0.73,2.88 -1.74,3.43 -2.49,3.78 -3.24,4.12 -3.49,4.50 -3.73,4.88 -3.78,4.73 -3.82,4.58 -3.91,4.45 -4.01,4.33 -3.70,4.37 -3.40,4.42 -3.16,4.33 -2.91,4.25 -2.63,3.96 -2.36,3.67 -2.39,3.59 -2.43,3.52 -2.06,4.17 -1.70,4.82 -1.77,3.64 -1.84,2.46 -1.47,2.33 -1.11,2.20 -0.73,2.29 -0.35,2.37 -0.08,2.64 0.19,2.92 0.27,3.30 0.36,3.67 -0.67,4.25 -1.70,4.82 -0.96,4.78 -0.22,4.74 -0.71,5.09 -1.20,5.44 -1.63,5.57 -2.07,5.70 -2.49,5.53 -2.91,5.37 -3.14,4.99 -3.38,4.60 -3.33,4.15 -3.28,3.70 -2.70,2.51 -2.13,1.32 -2.04,1.21 -1.95,1.11 -1.84,1.03 -1.73,0.95 -1.60,0.89 -1.48,0.83 -1.35,0.80 -1.21,0.76 -1.08,0.75 -0.94,0.75 -0.80,0.77 -0.67,0.79 -0.54,0.83 -0.41,0.88 -0.29,0.95 -0.17,1.02 -0.07,1.11 0.02,1.20 0.10,1.31 0.19,1.42 0.24,1.55 0.30,1.67 0.34,1.80 0.37,1.94 0.38,2.07 0.39,2.21 0.37,2.35 0.35,2.48 0.30,2.61 0.25,2.74 0.18,2.86 0.11,2.98 0.02,3.08 -0.06,3.18 -0.17,3.26 -0.28,3.34 -0.40,3.40 -0.53,3.46 -0.66,3.50 -0.79,3.53 -0.93,3.54 -1.07,3.54 -1.20,3.52 -1.34,3.50 -1.47,3.46 -1.60,3.41 -1.72,3.34 -1.83,3.27 -1.94,3.18 -2.04,3.09 -2.12,2.98 -2.20,2.87 -2.26,2.75 -2.32,2.62 -2.35,2.49 -2.39,2.36 -2.39,2.22 -2.40,2.08 -2.38,1.95 -2.36,1.81 -2.32,1.68 -2.27,1.55 -2.20,1.43 -2.13,1.32 -2.04,1.21 -1.95,1.11 -1.84,1.03 -1.73,0.95 -1.60,0.89 -1.48,0.83 -1.35,0.80 -1.21,0.76 -1.08,0.75 -0.94,0.75 -0.80,0.77 -0.67,0.79 -0.54,0.83 -0.41,0.88 -0.29,0.95 -0.17,1.02 -0.07,1.11 0.02,1.20 0.10,1.31 0.19,1.42 0.24,1.55 0.30,1.67 0.34,1.80 0.37,1.94 0.38,2.07 0.39,2.21 0.37,2.35 0.35,2.48 0.30,2.61 0.25,2.74 -0.24,3.82 -0.74,4.89 -0.93,4.06 -1.11,3.22 -1.16,4.33 -1.20,5.44 -1.63,5.57 -2.07,5.70 -2.49,5.53 -2.91,5.37 -3.14,4.99 -3.38,4.60 -3.33,4.15 -3.28,3.70 -2.20,3.46 -1.11,3.22 -1.97,3.19 -2.82,3.15 -2.33,2.81 -1.84,2.46 -1.47,2.33 -1.11,2.20 -0.73,2.29 -0.35,2.37 -0.08,2.64 0.19,2.92 0.27,3.30 0.36,3.67 0.29,4.20 0.22,4.73 -0.55,5.65 -1.34,6.56 -2.23,6.88 -3.11,7.21 -4.07,7.07 -5.03,6.93 -5.65,6.45 -6.26,5.96 -6.35,5.08 -6.45,4.20 -5.79,3.13 -5.12,2.05 -4.06,1.49 -3.00,0.93 -2.39,0.68 -1.78,0.42 -1.65,0.11 -1.53,-0.19 -1.36,-0.21 -1.19,-0.23 -1.29,-0.11 -1.4,-8.57 -1.4,-8.57 L -1.4,-8.57 Z"></path></g><g transform="translate(386 241) rotate(0 18 1.5)" stroke="none"><path fill="#1e1e1e" d="M 1.4,8.57 Q 1.4,8.57 1.38,0.13 1.37,0.27 1.33,0.40 1.29,0.53 1.22,0.65 1.16,0.77 1.07,0.88 0.98,0.98 0.88,1.07 0.77,1.16 0.65,1.22 0.53,1.29 0.40,1.33 0.27,1.37 0.13,1.38 -1.71,1.4 -0.13,1.38 -0.27,1.37 -0.40,1.33 -0.53,1.29 -0.65,1.22 -0.77,1.16 -0.88,1.07 -0.98,0.98 -1.07,0.88 -1.16,0.77 -1.22,0.65 -1.29,0.53 -1.33,0.40 -1.37,0.27 -1.38,0.13 -1.4,-8.57 -1.4,-0.25 -1.4,-0.49 -0.7,0.2 0,0.89 -0.7,0.19 -1.4,-0.50 -1.19,-0.99 -0.98,-1.48 -0.49,-1.69 0,-1.9 0.49,-1.69 0.98,-1.48 1.19,-0.99 1.4,-0.50 0.7,0.19 0,0.89 0.7,0.2 1.4,-0.49 1.36,-0.60 1.32,-0.71 1.38,-0.68 1.44,-0.66 1.90,-0.36 2.36,-0.07 4.33,0.59 6.29,1.25 8.24,1.84 10.19,2.42 13.63,2.71 17.07,3.00 19.31,3.15 21.56,3.30 23.12,3.37 24.69,3.45 26.35,3.26 28.00,3.07 29.28,2.51 30.55,1.96 31.44,1.44 32.32,0.93 32.94,0.50 33.55,0.06 33.79,-0.27 34.03,-0.62 34.17,-1.03 34.31,-1.45 34.40,-0.82 34.48,-0.19 35.07,-1.28 35.66,-2.38 35.98,-2.30 36.30,-2.21 36.54,-1.99 36.78,-1.78 36.90,-1.47 37.02,-1.16 35.75,-0.68 34.48,-0.19 35.04,0.10 35.60,0.41 35.31,0.39 35.01,0.37 34.88,0.33 34.75,0.28 34.63,0.22 34.51,0.15 34.41,0.06 34.30,-0.02 34.22,-0.13 34.13,-0.24 34.07,-0.36 34.01,-0.48 33.97,-0.61 33.93,-0.74 33.92,-0.88 33.91,-1.02 33.93,-1.15 33.95,-1.29 33.99,-1.42 34.03,-1.55 34.10,-1.67 34.17,-1.79 34.25,-1.89 34.34,-2.00 34.45,-2.08 34.56,-2.17 34.68,-2.23 34.80,-2.29 34.94,-2.33 35.07,-2.37 35.21,-2.38 35.34,-2.39 35.48,-2.37 35.61,-2.36 35.75,-2.31 35.88,-2.27 36.00,-2.20 36.12,-2.14 36.22,-2.05 36.32,-1.96 36.41,-1.85 36.49,-1.74 36.56,-1.62 36.62,-1.50 36.65,-1.36 36.69,-1.23 36.70,-1.10 36.71,-0.96 36.70,-0.82 36.68,-0.69 36.64,-0.56 36.60,-0.43 36.53,-0.31 36.46,-0.19 36.37,-0.08 36.28,0.01 36.17,0.10 36.07,0.18 35.94,0.24 35.82,0.31 35.69,0.34 35.56,0.38 35.42,0.39 35.28,0.40 35.15,0.39 35.01,0.37 34.88,0.33 34.75,0.28 34.63,0.22 34.51,0.15 34.41,0.06 34.30,-0.02 34.22,-0.13 34.13,-0.24 34.07,-0.36 34.01,-0.48 33.97,-0.61 33.93,-0.74 33.92,-0.88 33.91,-1.02 33.93,-1.15 33.95,-1.29 33.99,-1.42 34.03,-1.55 34.10,-1.67 34.17,-1.79 34.25,-1.89 34.34,-2.00 34.45,-2.08 34.56,-2.17 34.68,-2.23 34.80,-2.29 34.94,-2.33 35.07,-2.37 35.21,-2.38 35.34,-2.39 35.50,-2.38 35.66,-2.38 35.98,-2.30 36.30,-2.21 36.54,-1.99 36.78,-1.78 36.90,-1.47 37.02,-1.16 36.98,-0.84 36.95,-0.51 36.73,0.07 36.51,0.67 36.02,1.35 35.54,2.03 34.69,2.65 33.85,3.28 32.83,3.87 31.81,4.46 30.27,5.12 28.73,5.77 26.76,6.01 24.79,6.24 23.09,6.17 21.40,6.09 19.13,5.94 16.86,5.79 13.27,5.48 9.67,5.17 7.56,4.55 5.45,3.92 3.29,3.18 1.13,2.44 0.34,1.92 -0.44,1.41 -0.88,0.81 -1.32,0.21 -1.36,-0.14 -1.4,-0.50 -1.19,-0.99 -0.98,-1.48 -0.49,-1.69 0,-1.9 0.49,-1.69 0.98,-1.48 1.19,-0.99 1.4,-0.50 1.4,-0.25 1.4,8.57 1.4,8.57 L 1.4,8.57 Z"></path></g><g transform="translate(329 25) rotate(0 -6 226.5)" stroke="none"><path fill="#1971c2" d="M 0.98,-0.98 Q 0.98,-0.98 1.07,-0.88 1.16,-0.77 1.22,-0.65 1.29,-0.53 1.33,-0.40 1.37,-0.27 1.38,-0.13 1.4,1.11 1.38,0.13 1.37,0.27 1.33,0.40 1.29,0.53 1.22,0.65 1.16,0.77 1.07,0.88 0.98,0.98 0.88,1.07 0.77,1.16 0.65,1.22 0.53,1.29 0.40,1.33 0.27,1.37 0.13,1.38 -1.11,1.4 -0.13,1.38 -0.27,1.37 -0.40,1.33 -0.53,1.29 -0.65,1.22 -0.77,1.16 -0.88,1.07 -0.98,0.98 -1.43,0.53 -1.88,0.08 -2.55,-0.36 -3.22,-0.80 -8.96,-3.99 -14.70,-7.17 -24.73,-8.76 -34.76,-10.35 -43.27,-10.66 -51.77,-10.97 -61.76,-10.13 -71.76,-9.29 -83.00,-7.87 -94.25,-6.45 -106.62,-4.50 -118.98,-2.54 -129.37,-0.57 -139.77,1.39 -152.40,5.36 -165.04,9.32 -176.07,14.52 -187.09,19.73 -200.57,28.55 -214.05,37.37 -227.27,48.51 -240.49,59.65 -251.06,70.43 -261.64,81.20 -270.91,94.55 -280.17,107.90 -286.55,119.06 -292.93,130.22 -297.85,140.73 -302.76,151.23 -306.46,167.93 -310.16,184.63 -311.77,197.19 -313.37,209.76 -312.93,222.71 -312.49,235.65 -308.80,250.83 -305.10,266.00 -299.02,281.57 -292.94,297.13 -287.18,308.37 -281.42,319.61 -273.83,329.93 -266.25,340.25 -254.98,351.15 -243.71,362.04 -232.36,371.47 -221.00,380.90 -203.85,391.61 -186.70,402.31 -172.89,409.90 -159.09,417.50 -143.94,424.04 -128.80,430.59 -118.72,434.86 -108.65,439.14 -95.89,444.01 -83.14,448.89 -71.31,452.31 -59.49,455.74 -42.10,458.45 -24.72,461.16 -10.78,462.52 3.15,463.88 15.58,464.56 28.00,465.23 51.42,463.33 74.84,461.42 91.79,458.73 108.73,456.03 119.68,453.44 130.63,450.85 141.33,447.56 152.02,444.28 164.82,438.91 177.63,433.54 192.74,424.88 207.86,416.22 222.89,405.16 237.93,394.10 248.17,385.10 258.41,376.10 266.98,366.43 275.54,356.76 281.80,344.25 288.05,331.74 292.19,319.25 296.32,306.76 298.63,296.31 300.95,285.86 301.86,273.21 302.76,260.56 300.99,245.81 299.21,231.05 294.84,216.69 290.46,202.33 285.79,190.17 281.11,178.00 276.55,168.71 271.98,159.42 264.98,149.07 257.99,138.71 248.76,128.30 239.52,117.88 231.91,110.18 224.31,102.48 215.77,94.89 207.24,87.30 197.00,79.28 186.76,71.26 170.67,61.26 154.58,51.27 140.28,43.76 125.98,36.26 115.85,30.77 105.73,25.28 92.20,20.05 78.67,14.82 69.17,11.45 59.67,8.09 50.18,5.66 40.70,3.23 34.50,1.77 28.31,0.32 21.56,-0.15 14.82,-0.63 1.71,1.61 -11.39,3.86 -20.38,5.25 -29.36,6.64 -29.50,6.62 -29.64,6.60 -29.76,6.55 -29.89,6.51 -30.01,6.44 -30.13,6.37 -30.23,6.28 -30.34,6.19 -30.42,6.08 -30.50,5.97 -30.56,5.84 -30.62,5.72 -30.65,5.59 -30.69,5.45 -30.70,5.32 -30.70,5.18 -30.68,5.04 -30.67,4.91 -30.62,4.78 -30.57,4.65 -30.51,4.53 -30.44,4.41 -30.34,4.31 -30.25,4.21 -30.14,4.12 -30.03,4.04 -29.91,3.98 -29.79,3.92 -29.65,3.89 -29.52,3.85 -29.38,3.85 -29.25,3.84 -29.11,3.86 -28.97,3.88 -28.85,3.92 -28.72,3.97 -28.60,4.04 -28.48,4.11 -28.38,4.20 -28.27,4.29 -28.19,4.40 -28.11,4.51 -28.05,4.63 -27.99,4.76 -27.96,4.89 -27.92,5.02 -27.91,5.16 -27.91,5.30 -27.93,5.43 -27.94,5.57 -27.99,5.70 -28.04,5.83 -28.10,5.94 -28.17,6.06 -28.27,6.17 -28.36,6.27 -28.47,6.35 -28.58,6.43 -28.70,6.49 -28.82,6.55 -28.96,6.59 -29.09,6.62 -29.23,6.63 -29.36,6.64 -29.50,6.62 -29.64,6.60 -29.76,6.55 -29.89,6.51 -30.01,6.44 -30.13,6.37 -30.23,6.28 -30.34,6.19 -30.42,6.08 -30.50,5.97 -30.56,5.84 -30.62,5.72 -30.65,5.59 -30.69,5.45 -30.70,5.32 -30.70,5.18 -30.68,5.04 -30.67,4.91 -30.62,4.78 -30.57,4.65 -30.51,4.53 -30.44,4.41 -30.34,4.31 -30.25,4.21 -30.14,4.12 -30.03,4.04 -29.91,3.98 -29.79,3.92 -29.65,3.89 -29.52,3.85 -20.68,2.48 -11.84,1.10 1.42,-1.16 14.69,-3.42 21.71,-2.93 28.72,-2.44 35.05,-0.96 41.37,0.51 50.93,2.96 60.48,5.41 70.06,8.80 79.64,12.19 93.27,17.46 106.90,22.74 117.10,28.26 127.30,33.79 141.64,41.31 155.97,48.84 172.17,58.90 188.37,68.96 198.70,77.06 209.03,85.15 217.63,92.80 226.23,100.44 233.90,108.21 241.57,115.97 250.88,126.48 260.20,137.00 267.30,147.51 274.40,158.01 279.04,167.44 283.67,176.88 288.39,189.15 293.11,201.42 297.53,215.95 301.95,230.47 303.76,245.48 305.56,260.50 304.64,273.38 303.72,286.27 301.37,296.88 299.02,307.50 294.83,320.15 290.64,332.80 284.25,345.57 277.86,358.33 269.12,368.21 260.39,378.09 250.04,387.19 239.69,396.29 224.53,407.43 209.38,418.57 194.13,427.31 178.87,436.05 165.92,441.48 152.97,446.91 142.17,450.23 131.37,453.55 120.32,456.16 109.27,458.78 92.22,461.49 75.17,464.20 51.61,466.12 28.04,468.03 15.49,467.35 2.94,466.67 -11.06,465.30 -25.07,463.94 -42.58,461.21 -60.09,458.47 -72.06,455.01 -84.03,451.54 -96.86,446.64 -109.70,441.73 -119.80,437.45 -129.90,433.16 -145.11,426.59 -160.32,420.01 -174.22,412.37 -188.12,404.72 -205.38,393.95 -222.64,383.17 -234.11,373.65 -245.58,364.13 -256.97,353.11 -268.35,342.09 -276.08,331.59 -283.80,321.09 -289.64,309.68 -295.49,298.28 -301.63,282.56 -307.77,266.84 -311.52,251.44 -315.27,236.03 -315.72,222.83 -316.17,209.63 -314.54,196.89 -312.92,184.15 -309.17,167.24 -305.41,150.33 -300.41,139.63 -295.42,128.93 -288.98,117.67 -282.54,106.40 -273.17,92.91 -263.80,79.42 -253.09,68.51 -242.39,57.60 -229.06,46.36 -215.72,35.13 -202.09,26.20 -188.46,17.28 -177.26,12.00 -166.06,6.71 -153.25,2.69 -140.45,-1.31 -129.96,-3.31 -119.46,-5.30 -107.05,-7.26 -94.65,-9.22 -83.35,-10.65 -72.05,-12.07 -61.94,-12.92 -51.84,-13.77 -43.16,-13.45 -34.48,-13.14 -24.14,-11.48 -13.79,-9.82 -7.78,-6.50 -1.77,-3.19 -0.94,-2.63 -0.11,-2.08 0.43,-1.53 0.98,-0.98 0.98,-0.98 L 0.98,-0.98 Z"></path></g><g transform="translate(674 33) rotate(0 -1 15.5)" stroke="none"><path fill="#1e1e1e" d="M 1.4,8.57 Q 1.4,8.57 1.38,0.13 1.37,0.27 1.33,0.40 1.29,0.53 1.22,0.65 1.16,0.77 1.07,0.88 0.98,0.98 0.88,1.07 0.77,1.16 0.65,1.22 0.53,1.29 0.40,1.33 0.27,1.37 0.13,1.38 -1.71,1.4 -0.13,1.38 -0.27,1.37 -0.40,1.33 -0.53,1.29 -0.65,1.22 -0.77,1.16 -0.88,1.07 -0.98,0.98 -1.07,0.88 -1.16,0.77 -1.22,0.65 -1.29,0.53 -1.33,0.40 -1.37,0.27 -1.38,0.13 -1.4,-8.57 -1.4,-0.25 -1.4,-0.5 -1.13,-0.32 -0.87,-0.15 -2.69,0.51 -4.51,1.18 -5.63,1.62 -6.74,2.05 -6.49,2.82 -6.25,3.58 -5.00,4.85 -3.76,6.11 -0.56,9.10 2.64,12.09 4.58,14.46 6.52,16.83 7.28,18.95 8.04,21.08 7.83,23.36 7.62,25.65 5.80,27.92 3.97,30.20 1.67,31.05 -0.62,31.90 -2.52,31.99 -4.42,32.08 -6.02,30.63 -7.62,29.19 -7.68,29.07 -7.75,28.95 -7.80,28.82 -7.84,28.69 -7.86,28.55 -7.87,28.42 -7.86,28.28 -7.85,28.14 -7.82,28.01 -7.78,27.88 -7.72,27.76 -7.66,27.63 -7.58,27.52 -7.49,27.42 -7.39,27.33 -7.28,27.24 -7.17,27.17 -7.05,27.10 -6.92,27.06 -6.79,27.01 -6.65,27.00 -6.51,26.98 -6.38,26.99 -6.24,27.00 -6.11,27.03 -5.98,27.07 -5.85,27.13 -5.73,27.19 -5.62,27.28 -5.51,27.36 -5.42,27.46 -5.33,27.57 -5.26,27.69 -5.20,27.81 -5.15,27.94 -5.11,28.07 -5.09,28.20 -5.08,28.34 -5.08,28.48 -5.09,28.61 -5.13,28.75 -5.17,28.88 -5.23,29.00 -5.29,29.12 -5.37,29.23 -5.46,29.34 -5.56,29.43 -5.66,29.52 -5.78,29.59 -5.90,29.66 -6.03,29.70 -6.16,29.74 -6.30,29.76 -6.44,29.78 -6.57,29.77 -6.71,29.76 -6.84,29.72 -6.97,29.69 -7.10,29.62 -7.22,29.56 -7.33,29.48 -7.44,29.40 -7.53,29.29 -7.62,29.19 -7.68,29.07 -7.75,28.95 -7.80,28.82 -7.84,28.69 -7.86,28.55 -7.87,28.42 -7.86,28.28 -7.85,28.14 -7.82,28.01 -7.78,27.88 -7.72,27.76 -7.66,27.63 -7.58,27.52 -7.49,27.42 -7.39,27.33 -7.28,27.24 -7.17,27.17 -7.05,27.10 -6.92,27.06 -6.79,27.01 -6.65,27.00 -6.51,26.98 -6.38,26.99 -6.24,27.00 -6.11,27.03 -5.98,27.07 -5.85,27.13 -5.73,27.19 -5.62,27.28 -5.51,27.36 -4.50,28.40 -3.49,29.44 -2.35,29.30 -1.21,29.16 0.57,28.54 2.35,27.92 3.68,26.26 5.02,24.61 5.14,23.02 5.26,21.44 4.68,19.83 4.09,18.21 2.35,16.11 0.60,14.01 -2.56,11.05 -5.73,8.10 -7.24,6.47 -8.74,4.85 -9.00,2.83 -9.25,0.82 -7.36,-0.30 -5.48,-1.43 -2.30,-1.89 0.87,-2.34 1.13,-1.42 1.4,-0.5 1.4,-0.24 1.4,8.57 1.4,8.57 L 1.4,8.57 Z"></path></g><g transform="translate(664 49) rotate(0 12 -0.5)" stroke="none"><path fill="#1e1e1e" d="M -8.57,1.4 Q -8.57,1.4 -0.13,1.38 -0.27,1.37 -0.40,1.33 -0.53,1.29 -0.65,1.22 -0.77,1.16 -0.88,1.07 -0.98,0.98 -1.07,0.88 -1.16,0.77 -1.22,0.65 -1.29,0.53 -1.33,0.40 -1.37,0.27 -1.38,0.13 -1.4,-1.71 -1.38,-0.13 -1.37,-0.27 -1.33,-0.40 -1.29,-0.53 -1.22,-0.65 -1.16,-0.77 -1.07,-0.88 -0.98,-0.98 -0.88,-1.07 -0.77,-1.16 -0.65,-1.22 -0.53,-1.29 -0.40,-1.33 -0.27,-1.37 -0.13,-1.38 8.57,-1.4 0.31,-1.39 0.62,-1.39 1.99,-1.14 3.35,-0.89 7.47,-1.02 11.58,-1.14 13.84,-1.20 16.10,-1.25 18.07,-1.79 20.05,-2.33 20.19,-2.33 20.32,-2.32 20.46,-2.29 20.59,-2.26 20.72,-2.21 20.84,-2.15 20.95,-2.07 21.07,-1.99 21.16,-1.89 21.26,-1.79 21.33,-1.68 21.40,-1.56 21.45,-1.43 21.50,-1.31 21.52,-1.17 21.55,-1.04 21.54,-0.90 21.54,-0.76 21.51,-0.63 21.48,-0.49 21.42,-0.37 21.37,-0.24 21.29,-0.13 21.21,-0.02 21.11,0.07 21.01,0.16 20.90,0.23 20.78,0.31 20.65,0.36 20.52,0.41 20.39,0.43 20.25,0.45 20.12,0.45 19.98,0.45 19.85,0.42 19.71,0.39 19.59,0.33 19.46,0.28 19.35,0.20 19.24,0.12 19.14,0.02 19.05,-0.07 18.97,-0.19 18.90,-0.30 18.85,-0.43 18.80,-0.56 18.78,-0.69 18.76,-0.83 18.76,-0.97 18.76,-1.10 18.79,-1.24 18.82,-1.37 18.88,-1.50 18.93,-1.62 19.01,-1.74 19.09,-1.85 19.19,-1.94 19.29,-2.04 19.41,-2.11 19.52,-2.18 19.65,-2.23 19.78,-2.28 19.91,-2.31 20.05,-2.33 20.19,-2.33 20.32,-2.32 20.46,-2.29 20.59,-2.26 20.72,-2.21 20.84,-2.15 20.95,-2.07 21.07,-1.99 21.16,-1.89 21.26,-1.79 21.33,-1.68 21.40,-1.56 21.45,-1.43 21.50,-1.31 21.52,-1.17 21.55,-1.04 21.54,-0.90 21.54,-0.76 21.51,-0.63 21.48,-0.49 21.42,-0.37 21.37,-0.24 21.29,-0.13 21.21,-0.02 21.11,0.07 21.01,0.16 20.90,0.23 20.78,0.31 20.65,0.36 20.52,0.41 18.52,0.96 16.51,1.50 14.09,1.57 11.66,1.64 7.40,1.77 3.14,1.89 1.75,1.64 0.37,1.39 0.18,1.39 -8.57,1.4 -8.57,1.4 L -8.57,1.4 Z"></path></g><g transform="translate(694 60) rotate(0 19.5 -3.5)" stroke="none"><path fill="#1e1e1e" d="M 1.25,0.62 Q 1.25,0.62 1.17,0.74 1.10,0.85 1.01,0.95 0.91,1.05 0.80,1.13 0.69,1.21 0.56,1.27 0.44,1.32 0.30,1.35 0.17,1.38 0.03,1.39 -0.09,1.39 -0.23,1.37 -0.36,1.35 -0.49,1.30 -0.62,1.25 -0.74,1.17 -0.85,1.10 -0.95,1.01 -1.05,0.91 -1.13,0.80 -1.21,0.69 -1.27,0.56 -1.32,0.44 -1.35,0.30 -1.38,0.17 -1.39,0.03 -1.39,-0.09 -1.37,-0.23 -1.35,-0.36 -1.30,-0.49 -1.25,-0.62 -1.03,-1.05 -0.81,-1.48 -0.71,-1.87 -0.62,-2.25 -0.57,-2.71 -0.51,-3.17 -0.10,-2.44 0.30,-1.72 0.06,-2.82 -0.17,-3.92 0.19,-4.14 0.57,-4.36 1.01,-4.32 1.44,-4.27 1.77,-3.98 2.09,-3.68 1.19,-2.70 0.30,-1.72 1.11,-1.90 1.92,-2.07 1.83,-2.02 1.73,-1.96 1.67,-0.44 1.60,1.08 1.89,2.14 2.17,3.21 3.14,3.68 4.10,4.16 4.60,3.94 5.10,3.72 6.21,1.69 7.31,-0.33 8.16,-1.63 9.00,-2.93 9.37,-3.88 9.74,-4.83 9.80,-4.71 9.87,-4.59 9.82,-4.53 9.78,-4.48 10.66,-4.58 11.54,-4.69 10.46,-4.77 9.38,-4.85 9.26,-5.31 9.13,-5.76 9.32,-6.19 9.51,-6.62 9.93,-6.84 10.36,-7.05 10.82,-6.94 11.28,-6.84 11.41,-5.77 11.54,-4.69 11.61,-5.58 11.67,-6.47 11.76,-6.34 11.85,-6.21 12.02,-6.00 12.20,-5.79 13.04,-5.42 13.89,-5.04 15.75,-3.71 17.61,-2.37 18.61,-0.77 19.61,0.82 19.82,2.61 20.02,4.40 19.14,6.00 18.26,7.60 16.98,8.14 15.70,8.68 14.43,8.28 13.16,7.87 11.96,6.96 10.76,6.05 10.52,5.93 10.29,5.80 10.63,5.40 10.97,4.99 11.66,5.53 12.36,6.06 13.37,5.97 14.38,5.87 15.68,4.72 16.98,3.57 18.65,1.78 20.33,-0.01 21.13,-1.56 21.93,-3.11 22.34,-4.60 22.74,-6.08 22.95,-7.51 23.16,-8.94 23.02,-10.64 22.88,-12.35 22.81,-13.49 22.74,-14.63 23.43,-13.98 24.12,-13.32 23.43,-14.08 22.74,-14.83 22.97,-15.29 23.19,-15.75 23.67,-15.94 24.15,-16.12 24.62,-15.93 25.10,-15.74 24.61,-14.53 24.12,-13.32 24.83,-13.96 25.53,-14.61 25.49,-14.16 25.46,-13.72 25.19,-11.61 24.93,-9.50 25.53,-6.99 26.14,-4.48 26.45,-2.16 26.75,0.15 26.13,1.29 25.50,2.43 25.48,2.57 25.47,2.72 25.01,1.93 24.56,1.15 24.94,2.14 25.32,3.14 24.95,3.46 24.59,3.78 24.11,3.78 23.62,3.79 23.25,3.48 22.88,3.17 22.80,2.69 22.71,2.22 23.64,1.68 24.56,1.15 23.71,1.47 22.86,1.80 23.45,0.77 24.04,-0.24 26.72,-1.81 29.40,-3.38 31.42,-4.17 33.43,-4.96 35.34,-4.36 37.24,-3.77 38.12,-0.94 39.01,1.88 39.10,4.04 39.20,6.20 38.93,7.18 38.65,8.15 38.58,8.27 38.51,8.38 38.41,8.48 38.32,8.58 38.20,8.66 38.09,8.74 37.97,8.80 37.84,8.85 37.71,8.88 37.57,8.91 37.44,8.91 37.30,8.92 37.16,8.89 37.03,8.87 36.90,8.82 36.77,8.77 36.66,8.70 36.54,8.63 36.44,8.53 36.34,8.44 36.26,8.32 36.18,8.21 36.13,8.09 36.07,7.96 36.04,7.83 36.01,7.69 36.01,7.56 36.01,7.42 36.03,7.28 36.05,7.15 36.10,7.02 36.15,6.89 36.22,6.78 36.30,6.66 36.39,6.56 36.49,6.46 36.60,6.38 36.71,6.30 36.84,6.25 36.96,6.19 37.10,6.16 37.23,6.13 37.37,6.13 37.50,6.13 37.64,6.15 37.77,6.17 37.90,6.22 38.03,6.27 38.15,6.34 38.26,6.42 38.36,6.51 38.46,6.61 38.54,6.72 38.62,6.83 38.68,6.96 38.73,7.08 38.76,7.22 38.79,7.35 38.79,7.49 38.80,7.62 38.77,7.76 38.75,7.90 38.70,8.02 38.65,8.15 38.58,8.27 38.51,8.38 38.41,8.48 38.32,8.58 38.20,8.66 38.09,8.74 37.97,8.80 37.84,8.85 37.71,8.88 37.57,8.91 37.44,8.91 37.30,8.92 37.16,8.89 37.03,8.87 36.90,8.82 36.77,8.77 36.66,8.70 36.54,8.63 36.44,8.53 36.34,8.44 36.26,8.32 36.18,8.21 36.13,8.09 36.07,7.96 36.04,7.83 36.01,7.69 36.01,7.56 36.01,7.42 36.03,7.28 36.05,7.15 36.24,6.52 36.42,5.89 36.33,4.11 36.24,2.33 35.75,0.26 35.26,-1.79 34.42,-1.98 33.59,-2.16 32.11,-1.52 30.64,-0.87 28.34,0.42 26.04,1.71 25.68,2.43 25.32,3.14 24.95,3.46 24.59,3.78 24.11,3.78 23.62,3.79 23.25,3.48 22.88,3.17 22.80,2.69 22.71,2.22 22.79,1.84 22.87,1.46 23.44,0.54 24.00,-0.37 23.70,-2.16 23.39,-3.95 22.76,-6.65 22.13,-9.35 22.40,-11.67 22.67,-14.00 22.71,-14.42 22.74,-14.83 22.97,-15.29 23.19,-15.75 23.67,-15.94 24.15,-16.12 24.62,-15.93 25.10,-15.74 25.32,-15.27 25.53,-14.81 25.60,-13.67 25.67,-12.54 25.81,-10.70 25.95,-8.85 25.72,-7.18 25.48,-5.51 25.01,-3.80 24.54,-2.09 23.58,-0.24 22.61,1.60 20.76,3.60 18.91,5.60 17.16,7.03 15.42,8.47 13.33,8.55 11.24,8.63 9.73,6.52 8.23,4.41 9.17,3.71 10.11,3.01 11.09,3.29 12.07,3.58 13.28,4.49 14.49,5.40 15.05,5.64 15.61,5.88 15.99,5.71 16.38,5.53 16.82,4.71 17.27,3.88 17.12,2.82 16.97,1.76 16.27,0.65 15.57,-0.45 14.03,-1.53 12.49,-2.62 11.52,-3.07 10.56,-3.53 10.11,-3.99 9.67,-4.45 9.53,-4.65 9.38,-4.85 9.26,-5.31 9.13,-5.76 9.32,-6.19 9.51,-6.62 9.93,-6.84 10.36,-7.05 10.82,-6.94 11.28,-6.84 11.76,-6.45 12.25,-6.05 12.38,-5.26 12.51,-4.47 12.01,-3.07 11.50,-1.67 10.60,-0.28 9.71,1.11 8.32,3.47 6.94,5.83 5.47,6.39 4.00,6.96 2.02,5.99 0.04,5.03 -0.56,3.22 -1.17,1.41 -1.01,-0.80 -0.85,-3.03 -0.51,-3.47 -0.17,-3.92 0.19,-4.14 0.57,-4.36 1.01,-4.32 1.44,-4.27 1.77,-3.98 2.09,-3.68 2.17,-3.25 2.26,-2.82 2.19,-2.28 2.12,-1.74 1.96,-1.12 1.81,-0.51 1.53,0.05 1.25,0.62 1.25,0.62 L 1.25,0.62 Z"></path></g><g transform="translate(700 40) rotate(0 1 -0.5)" stroke="none"><path fill="#1e1e1e" d="M -8.57,1.4 Q -8.57,1.4 -0.13,1.38 -0.27,1.37 -0.40,1.33 -0.53,1.29 -0.65,1.22 -0.77,1.16 -0.88,1.07 -0.98,0.98 -1.07,0.88 -1.16,0.77 -1.22,0.65 -1.29,0.53 -1.33,0.40 -1.37,0.27 -1.38,0.13 -1.4,-1.71 -1.38,-0.13 -1.37,-0.27 -1.33,-0.40 -1.29,-0.53 -1.22,-0.65 -1.16,-0.77 -1.07,-0.88 -0.98,-0.98 -0.88,-1.07 -0.77,-1.16 -0.65,-1.22 -0.53,-1.29 -0.40,-1.33 -0.27,-1.37 -0.13,-1.38 8.57,-1.4 0.04,-1.36 0.09,-1.33 0.28,-1.50 0.47,-1.66 0.24,-0.75 0.01,0.15 0.37,-0.82 0.73,-1.79 1.23,-1.80 1.73,-1.81 2.11,-1.48 2.48,-1.15 2.54,-0.65 2.60,-0.15 1.30,-0.00 0.01,0.15 0.89,0.47 1.76,0.79 1.32,0.96 0.88,1.12 0.74,1.13 0.60,1.14 0.47,1.13 0.33,1.11 0.20,1.07 0.07,1.03 -0.04,0.97 -0.16,0.90 -0.27,0.81 -0.37,0.72 -0.46,0.62 -0.54,0.51 -0.61,0.39 -0.67,0.26 -0.71,0.13 -0.75,0.00 -0.76,-0.13 -0.77,-0.26 -0.75,-0.40 -0.74,-0.53 -0.70,-0.67 -0.66,-0.80 -0.59,-0.92 -0.52,-1.04 -0.44,-1.14 -0.35,-1.25 -0.24,-1.33 -0.13,-1.42 -0.01,-1.48 0.10,-1.54 0.23,-1.58 0.36,-1.62 0.50,-1.63 0.64,-1.64 0.77,-1.63 0.91,-1.61 1.04,-1.57 1.17,-1.53 1.29,-1.47 1.41,-1.40 1.52,-1.31 1.62,-1.22 1.71,-1.12 1.79,-1.01 1.86,-0.89 1.92,-0.76 1.96,-0.63 2.00,-0.50 2.01,-0.36 2.02,-0.23 2.00,-0.09 1.99,0.03 1.95,0.17 1.91,0.30 1.84,0.42 1.77,0.54 1.69,0.64 1.60,0.75 1.49,0.83 1.38,0.92 1.26,0.98 1.14,1.04 1.01,1.08 0.88,1.12 0.74,1.13 0.60,1.14 0.47,1.13 0.33,1.11 0.20,1.07 0.07,1.03 -0.04,0.97 -0.16,0.90 -0.27,0.81 -0.37,0.72 -0.46,0.62 -0.54,0.51 -0.61,0.39 -0.67,0.26 -0.71,0.13 -0.75,0.00 -0.76,-0.13 -0.77,-0.26 -0.75,-0.40 -0.74,-0.53 -0.70,-0.67 -0.66,-0.80 -0.59,-0.92 -0.52,-1.04 -0.44,-1.14 -0.35,-1.25 -0.24,-1.33 -0.13,-1.42 -0.01,-1.48 0.10,-1.54 0.41,-1.67 0.73,-1.79 1.23,-1.80 1.73,-1.81 2.11,-1.48 2.48,-1.15 2.54,-0.65 2.60,-0.15 2.31,0.25 2.02,0.66 1.46,1.00 0.90,1.33 0.45,1.36 -8.57,1.4 -8.57,1.4 L -8.57,1.4 Z"></path></g><g transform="translate(756 69) rotate(0 12 -4)" stroke="none"><path fill="#1e1e1e" d="M 1.4,8.57 Q 1.4,8.57 1.38,0.13 1.37,0.27 1.33,0.40 1.29,0.53 1.22,0.65 1.16,0.77 1.07,0.88 0.98,0.98 0.88,1.07 0.77,1.16 0.65,1.22 0.53,1.29 0.40,1.33 0.27,1.37 0.13,1.38 -1.71,1.4 -0.13,1.38 -0.27,1.37 -0.40,1.33 -0.53,1.29 -0.65,1.22 -0.77,1.16 -0.88,1.07 -0.98,0.98 -1.07,0.88 -1.16,0.77 -1.22,0.65 -1.29,0.53 -1.33,0.40 -1.37,0.27 -1.38,0.13 -1.4,-8.57 -1.38,-0.38 -1.37,-0.76 -1.10,-1.46 -0.83,-2.17 -0.46,-3.71 -0.09,-5.26 0.46,-6.78 1.02,-8.30 1.41,-8.59 1.80,-8.89 2.13,-9.00 2.45,-9.11 2.79,-9.05 3.13,-8.99 3.40,-8.78 3.67,-8.57 3.80,-8.25 3.94,-7.94 4.04,-7.30 4.14,-6.65 4.41,-5.69 4.67,-4.72 5.45,-3.37 6.23,-2.02 6.45,-1.73 6.68,-1.44 7.01,-1.74 7.34,-2.04 7.85,-2.79 8.35,-3.54 8.64,-5.06 8.92,-6.57 8.84,-7.34 8.76,-8.12 9.37,-7.49 9.98,-6.86 9.41,-7.79 8.84,-8.72 9.13,-9.08 9.42,-9.44 9.88,-9.54 10.33,-9.64 10.75,-9.43 11.16,-9.22 10.57,-8.04 9.98,-6.86 10.73,-7.32 11.48,-7.78 11.20,-7.03 10.93,-6.27 10.80,-5.46 10.68,-4.64 10.61,-3.73 10.54,-2.82 10.29,-2.38 10.05,-1.94 9.48,-2.08 8.90,-2.22 9.29,-2.80 9.68,-3.37 11.29,-5.31 12.90,-7.24 14.55,-8.53 16.21,-9.81 18.02,-10.48 19.84,-11.15 21.44,-9.04 23.03,-6.92 23.39,-4.90 23.75,-2.89 23.91,-1.45 24.07,-0.00 23.72,-0.53 23.36,-1.07 23.32,0.17 23.27,1.41 22.95,1.48 22.63,1.54 22.31,1.45 21.99,1.37 21.75,1.14 21.51,0.92 21.40,0.61 21.29,0.30 22.33,-0.38 23.36,-1.07 22.72,-1.09 22.08,-1.11 22.29,-1.20 22.50,-1.28 22.64,-1.30 22.77,-1.32 22.91,-1.31 23.05,-1.31 23.18,-1.27 23.31,-1.24 23.44,-1.18 23.56,-1.12 23.67,-1.04 23.78,-0.96 23.87,-0.85 23.96,-0.75 24.03,-0.63 24.10,-0.52 24.15,-0.39 24.20,-0.26 24.22,-0.12 24.24,0.00 24.23,0.14 24.22,0.28 24.19,0.41 24.15,0.54 24.10,0.67 24.04,0.79 23.95,0.90 23.87,1.01 23.77,1.10 23.67,1.20 23.55,1.27 23.43,1.34 23.30,1.38 23.17,1.43 23.04,1.45 22.90,1.47 22.77,1.46 22.63,1.45 22.50,1.42 22.36,1.39 22.24,1.33 22.11,1.27 22.00,1.19 21.89,1.10 21.80,1.00 21.71,0.90 21.64,0.78 21.57,0.66 21.52,0.54 21.48,0.41 21.46,0.27 21.44,0.13 21.45,0.00 21.45,-0.13 21.49,-0.26 21.52,-0.40 21.58,-0.52 21.64,-0.64 21.72,-0.75 21.80,-0.86 21.90,-0.96 22.01,-1.05 22.12,-1.12 22.24,-1.19 22.37,-1.23 22.50,-1.28 22.64,-1.30 22.77,-1.32 22.91,-1.31 23.05,-1.31 23.18,-1.27 23.31,-1.24 23.44,-1.18 23.56,-1.12 23.67,-1.04 23.78,-0.96 23.87,-0.85 23.96,-0.75 24.03,-0.63 24.10,-0.52 24.15,-0.39 24.20,-0.26 24.22,-0.12 24.24,0.00 24.23,0.14 24.22,0.28 24.19,0.41 24.15,0.54 24.10,0.67 24.04,0.79 23.95,0.90 23.87,1.01 23.77,1.10 23.67,1.20 23.55,1.27 23.43,1.34 23.35,1.37 23.27,1.41 22.95,1.48 22.63,1.54 22.31,1.45 21.99,1.37 21.75,1.14 21.51,0.92 21.40,0.61 21.29,0.30 21.13,-1.10 20.98,-2.50 20.70,-4.19 20.43,-5.88 19.76,-7.17 19.09,-8.46 18.38,-7.94 17.67,-7.42 16.26,-6.33 14.85,-5.23 13.35,-3.41 11.84,-1.59 11.00,-0.66 10.16,0.27 9.12,0.15 8.08,0.04 7.91,-1.47 7.74,-2.98 7.82,-3.98 7.90,-4.97 8.06,-5.97 8.22,-6.97 8.53,-7.84 8.84,-8.72 9.13,-9.08 9.42,-9.44 9.88,-9.54 10.33,-9.64 10.75,-9.43 11.16,-9.22 11.36,-8.80 11.55,-8.38 11.63,-7.40 11.72,-6.43 11.33,-4.45 10.94,-2.47 10.09,-1.23 9.25,0.00 7.88,0.67 6.51,1.35 5.33,0.59 4.15,-0.15 3.12,-1.89 2.10,-3.63 1.75,-4.84 1.41,-6.05 1.29,-6.77 1.18,-7.49 1.58,-6.96 1.99,-6.44 1.89,-7.66 1.80,-8.89 2.13,-9.00 2.45,-9.11 2.79,-9.05 3.13,-8.99 3.40,-8.78 3.67,-8.57 3.80,-8.25 3.94,-7.94 2.96,-7.19 1.99,-6.44 2.65,-6.49 3.31,-6.54 3.27,-6.55 3.22,-6.57 2.91,-5.52 2.59,-4.48 2.21,-2.90 1.83,-1.32 1.60,-0.78 1.37,-0.23 1.38,-0.11 1.4,8.57 1.4,8.57 L 1.4,8.57 Z"></path></g><g transform="translate(766 49) rotate(0 1 0)" stroke="none"><path fill="#1e1e1e" d="M -8.57,1.4 Q -8.57,1.4 -0.13,1.38 -0.27,1.37 -0.40,1.33 -0.53,1.29 -0.65,1.22 -0.77,1.16 -0.88,1.07 -0.98,0.98 -1.07,0.88 -1.16,0.77 -1.22,0.65 -1.29,0.53 -1.33,0.40 -1.37,0.27 -1.38,0.13 -1.4,-1.71 -1.38,-0.13 -1.37,-0.27 -1.33,-0.40 -1.29,-0.53 -1.22,-0.65 -1.16,-0.77 -1.07,-0.88 -0.98,-0.98 -0.88,-1.07 -0.77,-1.16 -0.65,-1.22 -0.53,-1.29 -0.40,-1.33 -0.27,-1.37 -0.13,-1.38 8.57,-1.4 0.25,-1.4 0.5,-1.4 0.87,-1.4 1.25,-1.4 0.55,-0.7 -0.14,0 0.55,-0.7 1.25,-1.4 1.74,-1.19 2.23,-0.98 2.44,-0.49 2.65,0 2.44,0.49 2.23,0.98 1.74,1.19 1.25,1.4 0.55,0.7 -0.14,0 0.55,0.7 1.25,1.4 0.80,1.38 0.35,1.37 0.22,1.33 0.08,1.29 -0.03,1.22 -0.15,1.16 -0.25,1.07 -0.36,0.98 -0.45,0.88 -0.53,0.77 -0.60,0.65 -0.66,0.53 -0.70,0.40 -0.74,0.27 -0.76,0.13 -0.77,8.36 -0.76,-0.13 -0.74,-0.27 -0.70,-0.40 -0.66,-0.53 -0.60,-0.65 -0.53,-0.77 -0.45,-0.88 -0.36,-0.98 -0.25,-1.07 -0.15,-1.16 -0.03,-1.22 0.08,-1.29 0.22,-1.33 0.35,-1.37 0.48,-1.38 0.62,-1.4 0.76,-1.38 0.89,-1.37 1.02,-1.33 1.16,-1.29 1.28,-1.22 1.40,-1.16 1.50,-1.07 1.61,-0.98 1.70,-0.88 1.78,-0.77 1.85,-0.65 1.91,-0.53 1.95,-0.40 1.99,-0.27 2.01,-0.13 2.02,-3.55 2.01,0.13 1.99,0.27 1.95,0.40 1.91,0.53 1.85,0.65 1.78,0.77 1.70,0.88 1.61,0.98 1.50,1.07 1.40,1.16 1.28,1.22 1.16,1.29 1.02,1.33 0.89,1.37 0.76,1.38 0.62,1.4 0.48,1.38 0.35,1.37 0.22,1.33 0.08,1.29 -0.03,1.22 -0.15,1.16 -0.25,1.07 -0.36,0.98 -0.45,0.88 -0.53,0.77 -0.60,0.65 -0.66,0.53 -0.70,0.40 -0.74,0.27 -0.76,0.13 -0.77,0 -0.76,-0.13 -0.74,-0.27 -0.70,-0.40 -0.66,-0.53 -0.60,-0.65 -0.53,-0.77 -0.45,-0.88 -0.36,-0.98 -0.25,-1.07 -0.15,-1.16 -0.03,-1.22 0.08,-1.29 0.22,-1.33 0.35,-1.37 0.48,-1.38 0.62,-1.4 0.93,-1.4 1.25,-1.4 1.74,-1.19 2.23,-0.98 2.44,-0.49 2.65,0 2.44,0.49 2.23,0.98 1.74,1.19 1.25,1.4 0.87,1.4 0.5,1.4 0.24,1.4 -8.57,1.4 -8.57,1.4 L -8.57,1.4 Z"></path></g><g transform="translate(670 100) rotate(0 0 -1)" stroke="none"><path fill="#1e1e1e" d="M -1.4,-8.57 Q -1.4,-8.57 -1.38,-0.13 -1.37,-0.27 -1.33,-0.40 -1.29,-0.53 -1.22,-0.65 -1.16,-0.77 -1.07,-0.88 -0.98,-0.98 -0.88,-1.07 -0.77,-1.16 -0.65,-1.22 -0.53,-1.29 -0.40,-1.33 -0.27,-1.37 -0.13,-1.38 1.71,-1.4 0.13,-1.38 0.27,-1.37 0.40,-1.33 0.53,-1.29 0.65,-1.22 0.77,-1.16 0.88,-1.07 0.98,-0.98 1.07,-0.88 1.16,-0.77 1.22,-0.65 1.29,-0.53 1.33,-0.40 1.37,-0.27 1.38,-0.13 1.4,8.57 1.4,0.25 1.4,0.49 1.31,0.84 1.22,1.18 0.97,1.43 0.73,1.69 0.39,1.79 0.06,1.89 -0.28,1.82 -0.62,1.75 -1.23,1.18 -1.85,0.60 -1.42,-0.44 -1.00,-1.50 -0.84,-1.95 -0.69,-2.40 -0.34,-2.79 0.01,-3.19 0.54,-3.23 1.07,-3.26 1.47,-2.91 1.87,-2.56 1.91,-2.03 1.95,-1.50 1.74,-0.89 1.53,-0.28 1.45,-0.17 1.37,-0.06 1.28,0.03 1.18,0.12 1.06,0.20 0.95,0.27 0.82,0.32 0.69,0.37 0.56,0.40 0.42,0.42 0.28,0.42 0.15,0.42 0.01,0.39 -0.11,0.36 -0.24,0.30 -0.36,0.25 -0.48,0.17 -0.59,0.09 -0.68,-0.00 -0.78,-0.09 -0.85,-0.21 -0.93,-0.33 -0.98,-0.45 -1.03,-0.58 -1.05,-0.72 -1.08,-0.85 -1.08,-0.99 -1.07,-1.13 -1.04,-1.26 -1.01,-1.39 -0.96,-1.52 -0.91,-1.65 -0.83,-1.76 -0.75,-1.87 -0.65,-1.97 -0.55,-2.06 -0.44,-2.14 -0.32,-2.21 -0.19,-2.26 -0.07,-2.31 0.06,-2.33 0.19,-2.36 0.33,-2.36 0.47,-2.35 0.60,-2.33 0.74,-2.30 0.86,-2.24 0.99,-2.19 1.10,-2.11 1.21,-2.03 1.31,-1.93 1.41,-1.83 1.48,-1.72 1.55,-1.60 1.60,-1.47 1.65,-1.35 1.68,-1.21 1.70,-1.08 1.70,-0.94 1.70,-0.80 1.67,-0.67 1.64,-0.53 1.59,-0.41 1.53,-0.28 1.45,-0.17 1.37,-0.06 1.28,0.03 1.18,0.12 1.06,0.20 0.95,0.27 0.82,0.32 0.69,0.37 0.56,0.40 0.42,0.42 0.28,0.42 0.15,0.42 0.01,0.39 -0.11,0.36 -0.24,0.30 -0.36,0.25 -0.48,0.17 -0.59,0.09 -0.68,-0.00 -0.78,-0.09 -0.85,-0.21 -0.93,-0.33 -0.98,-0.45 -1.03,-0.58 -1.05,-0.72 -1.08,-0.85 -1.08,-0.99 -1.07,-1.13 -1.04,-1.26 -1.01,-1.39 -0.86,-1.88 -0.70,-2.36 -0.26,-1.48 0.17,-0.61 -0.25,-1.50 -0.69,-2.40 -0.34,-2.79 0.01,-3.19 0.54,-3.23 1.07,-3.26 1.47,-2.91 1.87,-2.56 1.91,-2.03 1.95,-1.50 1.06,-1.05 0.17,-0.61 1.06,-1.04 1.94,-1.47 1.72,-0.86 1.50,-0.24 1.17,-0.17 0.85,-0.10 0.73,-0.43 0.62,-0.75 -0.05,-0.72 -0.73,-0.69 0.24,0.24 1.22,1.18 0.97,1.43 0.73,1.69 0.39,1.79 0.06,1.89 -0.28,1.82 -0.62,1.75 -0.68,0.53 -0.73,-0.69 -1.06,-0.09 -1.4,0.49 -1.4,0.24 -1.4,-8.57 -1.4,-8.57 L -1.4,-8.57 Z"></path></g><g transform="translate(669 99) rotate(0 6.5 6.5)" stroke="none"><path fill="#1e1e1e" d="M -0.98,-0.98 Q -0.98,-0.98 -0.88,-1.07 -0.77,-1.16 -0.65,-1.22 -0.53,-1.29 -0.40,-1.33 -0.27,-1.37 -0.13,-1.38 1.11,-1.4 0.13,-1.38 0.27,-1.37 0.40,-1.33 0.53,-1.29 0.65,-1.22 0.77,-1.16 0.88,-1.07 0.98,-0.98 1.07,-0.88 1.16,-0.77 1.22,-0.65 1.29,-0.53 1.33,-0.40 1.37,-0.27 1.38,-0.13 1.4,1.11 1.38,0.13 1.37,0.27 1.33,0.40 1.29,0.53 1.22,0.65 1.16,0.77 1.07,0.88 0.98,0.98 0.76,1.20 0.54,1.42 -0.15,2.09 -0.85,2.75 0.11,4.12 1.08,5.49 2.56,4.17 4.04,2.86 4.77,2.16 5.49,1.45 5.83,1.28 6.16,1.10 6.54,1.12 6.92,1.14 7.23,1.35 7.54,1.57 7.69,1.91 7.85,2.26 7.98,3.12 8.11,3.98 8.34,5.19 8.57,6.40 9.87,7.57 11.17,8.74 12.63,8.70 14.10,8.65 14.23,8.69 14.36,8.73 14.48,8.79 14.60,8.85 14.71,8.94 14.82,9.03 14.91,9.13 14.99,9.24 15.06,9.36 15.13,9.48 15.17,9.61 15.21,9.74 15.22,9.87 15.24,10.01 15.22,10.15 15.21,10.28 15.17,10.42 15.14,10.55 15.07,10.67 15.01,10.79 14.92,10.90 14.84,11.01 14.73,11.09 14.63,11.18 14.50,11.25 14.38,11.31 14.25,11.35 14.12,11.39 13.99,11.41 13.85,11.42 13.71,11.41 13.58,11.40 13.44,11.36 13.31,11.32 13.19,11.26 13.07,11.20 12.96,11.11 12.86,11.02 12.77,10.92 12.68,10.81 12.61,10.69 12.55,10.57 12.51,10.44 12.47,10.31 12.45,10.17 12.44,10.04 12.45,9.90 12.46,9.76 12.50,9.63 12.54,9.50 12.60,9.38 12.67,9.26 12.75,9.15 12.84,9.04 12.94,8.96 13.05,8.87 13.17,8.80 13.29,8.74 13.42,8.69 13.55,8.65 13.69,8.64 13.82,8.62 13.96,8.64 14.10,8.65 14.23,8.69 14.36,8.73 14.48,8.79 14.60,8.85 14.71,8.94 14.82,9.03 14.91,9.13 14.99,9.24 15.06,9.36 15.13,9.48 15.17,9.61 15.21,9.74 15.22,9.87 15.24,10.01 15.22,10.15 15.21,10.28 15.17,10.42 15.14,10.55 15.07,10.67 15.01,10.79 14.92,10.90 14.84,11.01 14.73,11.09 14.63,11.18 14.50,11.25 14.38,11.31 14.25,11.35 14.12,11.39 13.99,11.41 13.85,11.42 12.02,11.39 10.19,11.36 8.17,9.59 6.15,7.82 5.75,6.15 5.35,4.48 5.22,3.58 5.08,2.67 5.55,3.23 6.01,3.79 5.75,2.62 5.49,1.45 5.83,1.28 6.16,1.10 6.54,1.12 6.92,1.14 7.23,1.35 7.54,1.57 7.69,1.91 7.85,2.26 6.93,3.02 6.01,3.79 6.72,3.63 7.43,3.47 6.63,4.24 5.83,5.01 3.25,6.63 0.66,8.25 -1.49,5.50 -3.64,2.74 -2.59,1.15 -1.54,-0.42 -1.26,-0.70 -0.98,-0.98 -0.98,-0.98 L -0.98,-0.98 Z"></path></g><g transform="translate(710 107) rotate(0 31 -5)" stroke="none"><path fill="#1e1e1e" d="M -1.4,-8.57 Q -1.4,-8.57 -1.38,-0.13 -1.37,-0.27 -1.33,-0.40 -1.29,-0.53 -1.22,-0.65 -1.16,-0.77 -1.07,-0.88 -0.98,-0.98 -0.88,-1.07 -0.77,-1.16 -0.65,-1.22 -0.53,-1.29 -0.40,-1.33 -0.27,-1.37 -0.13,-1.38 1.71,-1.4 0.13,-1.38 0.27,-1.37 0.40,-1.33 0.53,-1.29 0.65,-1.22 0.77,-1.16 0.88,-1.07 0.98,-0.98 1.07,-0.88 1.16,-0.77 1.22,-0.65 1.29,-0.53 1.33,-0.40 1.37,-0.27 1.38,-0.13 1.4,8.57 1.4,0.25 1.4,0.49 0.7,-0.2 0,-0.89 0.7,-0.19 1.4,0.50 1.19,0.99 0.98,1.48 0.49,1.69 0,1.9 -0.49,1.69 -0.98,1.48 -1.19,0.99 -1.4,0.50 -0.7,-0.19 0,-0.89 -0.7,-0.2 -1.4,0.49 -1.39,-0.19 -1.39,-0.88 -1.13,-2.25 -0.87,-3.62 -0.25,-7.26 0.36,-10.89 0.67,-13.21 0.98,-15.52 1.45,-14.77 1.91,-14.02 1.54,-15.03 1.16,-16.05 1.52,-16.35 1.88,-16.65 2.36,-16.66 2.83,-16.66 3.19,-16.37 3.56,-16.07 3.66,-15.61 3.76,-15.15 2.84,-14.58 1.91,-14.02 2.75,-14.32 3.58,-14.63 3.30,-14.19 3.02,-13.75 2.88,-11.38 2.74,-9.01 2.65,-6.75 2.57,-4.49 2.50,-3.08 2.42,-1.66 2.88,-0.97 3.34,-0.28 3.96,-0.11 4.58,0.04 5.28,-0.40 5.99,-0.86 7.69,-2.84 9.39,-4.81 10.57,-6.14 11.76,-7.46 12.52,-8.03 13.27,-8.61 13.35,-8.79 13.42,-8.98 13.83,-9.33 14.23,-9.68 14.77,-9.65 15.30,-9.61 15.65,-9.20 16.00,-8.80 15.97,-8.26 15.93,-7.73 15.75,-7.37 15.57,-7.01 14.76,-5.66 13.96,-4.31 13.59,-2.79 13.22,-1.27 13.20,-0.29 13.18,0.69 13.58,1.02 13.98,1.34 15.51,1.39 17.04,1.43 18.18,1.09 19.31,0.75 20.06,-0.21 20.81,-1.19 21.25,-2.68 21.68,-4.17 21.98,-4.56 22.28,-4.96 22.77,-5.05 23.25,-5.15 23.68,-4.90 24.11,-4.65 24.27,-4.18 24.42,-3.72 24.42,-3.53 24.41,-3.35 24.40,-2.58 24.40,-1.81 24.60,-0.58 24.80,0.64 25.26,1.35 25.72,2.06 25.92,2.36 26.12,2.66 27.04,1.25 27.95,-0.14 28.59,-2.11 29.23,-4.07 29.57,-6.06 29.90,-8.04 30.08,-10.04 30.25,-12.04 30.34,-13.30 30.42,-14.56 30.98,-13.82 31.55,-13.09 31.02,-14.00 30.49,-14.91 30.80,-15.29 31.12,-15.67 31.60,-15.75 32.09,-15.84 32.51,-15.57 32.93,-15.31 33.07,-14.84 33.22,-14.37 32.38,-13.73 31.55,-13.09 32.35,-13.55 33.15,-14.02 32.71,-12.72 32.27,-11.42 32.06,-9.58 31.85,-7.74 31.73,-5.80 31.62,-3.86 31.57,-2.14 31.51,-0.42 31.47,0.54 31.43,1.50 31.62,1.92 31.81,2.33 31.28,1.91 30.74,1.50 31.16,2.64 31.59,3.79 31.30,3.99 31.01,4.19 30.66,4.23 30.31,4.26 29.98,4.12 29.66,3.98 29.45,3.70 29.23,3.42 29.99,2.46 30.74,1.50 30.10,1.73 29.46,1.97 30.05,1.29 30.63,0.61 31.92,-1.47 33.22,-3.56 34.49,-5.24 35.75,-6.93 37.53,-7.88 39.30,-8.84 41.89,-7.60 44.49,-6.35 46.00,-4.86 47.51,-3.36 47.99,-1.58 48.47,0.20 46.00,1.68 43.52,3.17 41.50,3.49 39.47,3.82 37.90,3.43 36.33,3.04 35.84,2.84 35.36,2.65 36.26,2.29 37.15,1.93 36.20,2.26 35.24,2.59 34.90,2.20 34.56,1.81 34.58,1.29 34.61,0.77 34.98,0.41 35.36,0.05 35.88,0.05 36.40,0.05 36.78,0.99 37.15,1.93 36.84,1.02 36.52,0.11 37.76,0.75 38.99,1.39 40.57,1.95 42.15,2.50 43.90,3.02 45.65,3.55 47.37,3.80 49.08,4.06 51.04,3.50 53.00,2.95 54.42,2.02 55.84,1.08 56.44,0.41 57.03,-0.26 56.72,-1.58 56.42,-2.89 56.09,-3.42 55.77,-3.95 55.59,-3.94 55.41,-3.93 54.55,-2.30 53.68,-0.67 53.60,1.22 53.52,3.12 54.20,4.35 54.87,5.57 56.70,5.81 58.52,6.05 58.65,6.11 58.77,6.17 58.88,6.25 58.99,6.34 59.08,6.44 59.17,6.54 59.24,6.66 59.31,6.78 59.35,6.91 59.40,7.04 59.42,7.17 59.44,7.31 59.43,7.45 59.42,7.58 59.38,7.72 59.35,7.85 59.29,7.97 59.23,8.10 59.15,8.21 59.06,8.31 58.96,8.41 58.86,8.50 58.74,8.57 58.62,8.63 58.49,8.68 58.36,8.72 58.23,8.74 58.09,8.76 57.95,8.75 57.82,8.75 57.68,8.71 57.55,8.68 57.43,8.62 57.30,8.56 57.19,8.47 57.09,8.39 56.99,8.29 56.90,8.18 56.83,8.07 56.76,7.95 56.72,7.82 56.68,7.69 56.66,7.55 56.64,7.42 56.65,7.28 56.65,7.14 56.69,7.01 56.72,6.88 56.78,6.75 56.84,6.63 56.93,6.52 57.01,6.41 57.11,6.32 57.22,6.23 57.33,6.16 57.45,6.09 57.58,6.05 57.71,6.00 57.85,5.98 57.98,5.96 58.12,5.97 58.26,5.98 58.39,6.01 58.52,6.05 58.65,6.11 58.77,6.17 58.88,6.25 58.99,6.34 59.08,6.44 59.17,6.54 59.24,6.66 59.31,6.78 59.35,6.91 59.40,7.04 59.42,7.17 59.44,7.31 59.43,7.45 59.42,7.58 59.38,7.72 59.35,7.85 59.29,7.97 59.23,8.10 59.15,8.21 59.06,8.31 58.96,8.41 58.86,8.50 58.74,8.57 58.62,8.63 58.49,8.68 58.36,8.72 58.23,8.74 58.09,8.76 57.95,8.75 57.82,8.75 55.55,8.32 53.29,7.89 52.05,5.85 50.81,3.81 50.90,1.18 50.99,-1.44 52.46,-3.87 53.93,-6.30 55.42,-6.40 56.92,-6.51 57.94,-5.27 58.97,-4.04 59.36,-1.83 59.75,0.38 58.75,1.76 57.74,3.14 55.95,4.32 54.17,5.50 51.72,6.18 49.27,6.85 47.16,6.57 45.06,6.28 43.17,5.72 41.28,5.17 39.58,4.56 37.88,3.96 36.56,3.28 35.24,2.59 34.90,2.20 34.56,1.81 34.58,1.29 34.61,0.77 34.98,0.41 35.36,0.05 35.88,0.05 36.40,0.05 36.80,0.21 37.20,0.38 38.40,0.70 39.60,1.02 41.12,0.77 42.63,0.51 44.25,-0.14 45.86,-0.81 45.51,-1.33 45.15,-1.85 44.00,-2.97 42.85,-4.08 41.11,-5.06 39.38,-6.04 38.50,-5.44 37.62,-4.84 36.58,-3.41 35.54,-1.99 34.21,0.13 32.89,2.26 32.24,3.03 31.59,3.79 31.30,3.99 31.01,4.19 30.66,4.23 30.31,4.26 29.98,4.12 29.66,3.98 29.45,3.70 29.23,3.42 28.96,2.72 28.68,2.02 28.69,0.75 28.71,-0.50 28.77,-2.25 28.82,-3.99 28.94,-5.99 29.06,-7.98 29.30,-10.01 29.54,-12.03 30.02,-13.47 30.49,-14.91 30.80,-15.29 31.12,-15.67 31.60,-15.75 32.09,-15.84 32.51,-15.57 32.93,-15.31 33.07,-14.84 33.22,-14.37 33.13,-13.09 33.04,-11.82 32.86,-9.75 32.68,-7.69 32.31,-5.54 31.95,-3.40 31.18,-1.10 30.41,1.18 28.52,3.30 26.62,5.41 25.20,4.75 23.78,4.08 22.99,2.87 22.20,1.66 21.90,0.04 21.61,-1.57 21.61,-2.49 21.61,-3.41 21.62,-3.61 21.62,-3.82 22.21,-3.10 22.79,-2.39 22.54,-3.67 22.28,-4.96 22.77,-5.05 23.25,-5.15 23.68,-4.90 24.11,-4.65 24.27,-4.18 24.42,-3.72 23.61,-3.05 22.79,-2.39 23.58,-2.87 24.36,-3.36 23.83,-1.63 23.29,0.10 22.10,1.58 20.90,3.06 19.15,3.63 17.41,4.21 15.17,4.07 12.93,3.94 11.79,2.91 10.65,1.88 10.54,0.15 10.44,-1.56 10.90,-3.46 11.37,-5.36 12.24,-6.85 13.10,-8.34 13.26,-8.66 13.42,-8.98 13.74,-8.04 14.05,-7.10 14.14,-8.39 14.23,-9.68 14.77,-9.65 15.30,-9.61 15.65,-9.20 16.00,-8.80 15.97,-8.26 15.93,-7.73 14.99,-7.42 14.05,-7.10 14.99,-7.42 15.93,-7.73 15.68,-7.28 15.44,-6.83 14.56,-6.12 13.67,-5.42 12.58,-4.19 11.49,-2.96 9.63,-0.83 7.77,1.29 6.36,2.05 4.96,2.81 3.35,2.41 1.74,2.01 0.74,0.56 -0.25,-0.87 -0.24,-2.73 -0.22,-4.58 -0.14,-6.87 -0.05,-9.15 0.14,-11.87 0.34,-14.58 0.75,-15.31 1.16,-16.05 1.52,-16.35 1.88,-16.65 2.36,-16.66 2.83,-16.66 3.19,-16.37 3.56,-16.07 3.66,-15.61 3.76,-15.15 3.44,-12.81 3.13,-10.47 2.50,-6.80 1.87,-3.12 1.63,-1.87 1.39,-0.61 1.39,-0.05 1.4,0.50 1.19,0.99 0.98,1.48 0.49,1.69 0,1.9 -0.49,1.69 -0.98,1.48 -1.19,0.99 -1.4,0.50 -1.4,0.25 -1.4,-8.57 -1.4,-8.57 L -1.4,-8.57 Z"></path></g><g transform="translate(627 58) rotate(0 -22 11.5)" stroke="none"><path fill="#1e1e1e" d="M -8.57,1.4 Q -8.57,1.4 -0.13,1.38 -0.27,1.37 -0.40,1.33 -0.53,1.29 -0.65,1.22 -0.77,1.16 -0.88,1.07 -0.98,0.98 -1.07,0.88 -1.16,0.77 -1.22,0.65 -1.29,0.53 -1.33,0.40 -1.37,0.27 -1.38,0.13 -1.4,-1.71 -1.38,-0.13 -1.37,-0.27 -1.33,-0.40 -1.29,-0.53 -1.22,-0.65 -1.16,-0.77 -1.07,-0.88 -0.98,-0.98 -0.88,-1.07 -0.77,-1.16 -0.65,-1.22 -0.53,-1.29 -0.40,-1.33 -0.27,-1.37 -0.13,-1.38 8.57,-1.4 0.48,-1.36 0.96,-1.32 1.79,-0.70 2.62,-0.09 1.70,-0.04 0.77,-0.00 1.82,0.07 2.87,0.16 3.00,0.63 3.14,1.11 2.93,1.55 2.72,2.00 2.27,2.20 1.81,2.39 1.34,2.24 0.87,2.09 0.82,1.04 0.77,-0.00 0.70,0.91 0.63,1.83 0.58,1.73 0.54,1.62 0.34,1.58 0.15,1.54 -0.43,1.26 -1.01,0.97 -2.71,0.84 -4.41,0.70 -6.26,0.63 -8.11,0.55 -10.00,0.75 -11.88,0.96 -13.74,1.29 -15.61,1.62 -17.95,2.73 -20.30,3.84 -22.74,5.64 -25.17,7.44 -27.40,9.10 -29.64,10.76 -32.74,13.33 -35.85,15.90 -37.65,17.43 -39.45,18.97 -40.56,19.95 -41.67,20.92 -42.52,21.95 -43.37,22.98 -44.28,23.64 -45.20,24.30 -45.63,24.34 -46.06,24.37 -46.19,24.34 -46.32,24.30 -46.45,24.24 -46.57,24.18 -46.68,24.09 -46.79,24.01 -46.88,23.91 -46.97,23.80 -47.04,23.69 -47.11,23.57 -47.15,23.44 -47.19,23.31 -47.21,23.17 -47.23,23.03 -47.22,22.90 -47.21,22.76 -47.18,22.63 -47.14,22.50 -47.08,22.37 -47.02,22.25 -46.94,22.14 -46.85,22.03 -46.75,21.94 -46.65,21.85 -46.53,21.78 -46.41,21.71 -46.28,21.67 -46.15,21.63 -46.01,21.61 -45.88,21.59 -45.74,21.60 -45.60,21.61 -45.47,21.64 -45.34,21.68 -45.21,21.74 -45.09,21.80 -44.98,21.88 -44.87,21.97 -44.78,22.07 -44.69,22.17 -44.62,22.29 -44.56,22.41 -44.51,22.54 -44.47,22.67 -44.45,22.81 -44.43,22.94 -44.44,23.08 -44.45,23.22 -44.49,23.35 -44.52,23.48 -44.58,23.61 -44.64,23.73 -44.73,23.84 -44.81,23.95 -44.91,24.04 -45.02,24.13 -45.13,24.20 -45.25,24.27 -45.38,24.31 -45.51,24.35 -45.65,24.37 -45.79,24.39 -45.92,24.38 -46.06,24.37 -46.19,24.34 -46.32,24.30 -46.45,24.24 -46.57,24.18 -46.68,24.09 -46.79,24.01 -46.88,23.91 -46.97,23.80 -47.04,23.69 -47.11,23.57 -47.15,23.44 -47.19,23.31 -47.21,23.17 -47.23,23.03 -47.22,22.90 -47.21,22.76 -47.18,22.63 -47.14,22.50 -47.08,22.37 -47.02,22.25 -46.94,22.14 -46.85,22.03 -46.75,21.94 -46.65,21.85 -46.53,21.78 -46.41,21.71 -46.28,21.67 -46.15,21.63 -46.01,21.61 -45.88,21.59 -46.01,21.63 -46.14,21.67 -45.72,21.32 -45.31,20.97 -44.50,19.97 -43.69,18.98 -42.49,17.92 -41.29,16.85 -39.47,15.30 -37.65,13.75 -34.51,11.15 -31.36,8.55 -29.10,6.87 -26.84,5.19 -24.29,3.31 -21.73,1.44 -19.10,0.19 -16.46,-1.04 -14.37,-1.42 -12.28,-1.80 -10.24,-2.02 -8.21,-2.24 -6.22,-2.16 -4.24,-2.08 -2.26,-1.90 -0.29,-1.72 0.46,-1.38 1.22,-1.04 1.71,-0.83 2.20,-0.62 2.53,-0.23 2.87,0.16 3.00,0.63 3.14,1.11 2.93,1.55 2.72,2.00 2.27,2.20 1.81,2.39 1.34,2.24 0.87,2.09 0.45,1.70 0.03,1.32 0.01,1.36 -8.57,1.4 -8.57,1.4 L -8.57,1.4 Z"></path></g><g transform="translate(574 61) rotate(0 2.5 19)" stroke="none"><path fill="#1e1e1e" d="M -1.32,-0.44 Q -1.32,-0.44 -1.27,-0.56 -1.21,-0.69 -1.13,-0.80 -1.05,-0.91 -0.95,-1.01 -0.85,-1.10 -0.74,-1.17 -0.62,-1.25 -0.49,-1.30 -0.36,-1.35 -0.23,-1.37 -0.09,-1.39 0.03,-1.39 0.17,-1.38 0.30,-1.35 0.44,-1.32 0.56,-1.27 0.69,-1.21 0.80,-1.13 0.91,-1.05 1.01,-0.95 1.10,-0.85 1.17,-0.74 1.25,-0.62 1.30,-0.49 1.35,-0.36 1.37,-0.23 1.39,-0.09 1.39,0.03 1.38,0.17 1.35,0.30 1.32,0.44 1.06,1.22 0.80,2.00 -1.58,7.42 -3.98,12.84 -6.16,17.26 -8.34,21.69 -9.93,25.65 -11.52,29.62 -12.55,31.80 -13.58,33.99 -13.81,34.89 -14.05,35.79 -14.17,35.81 -14.28,35.84 -14.53,35.69 -14.78,35.55 -14.35,35.38 -13.92,35.21 -13.39,34.87 -12.86,34.53 -12.04,34.07 -11.21,33.62 -7.51,31.87 -3.82,30.13 0.06,28.75 3.94,27.37 7.63,26.44 11.31,25.50 13.76,24.84 16.21,24.17 16.81,23.70 17.41,23.24 17.83,22.66 18.25,22.08 18.35,22.00 18.46,21.91 18.59,21.85 18.71,21.79 18.84,21.76 18.97,21.72 19.11,21.71 19.25,21.70 19.38,21.72 19.52,21.74 19.65,21.78 19.78,21.83 19.90,21.89 20.02,21.96 20.12,22.05 20.22,22.14 20.31,22.25 20.39,22.36 20.45,22.48 20.51,22.61 20.55,22.74 20.59,22.87 20.59,23.01 20.60,23.15 20.59,23.28 20.57,23.42 20.52,23.55 20.48,23.68 20.41,23.80 20.34,23.92 20.25,24.02 20.16,24.12 20.06,24.21 19.95,24.29 19.82,24.35 19.70,24.41 19.57,24.45 19.44,24.48 19.30,24.49 19.16,24.50 19.03,24.48 18.89,24.47 18.76,24.42 18.63,24.38 18.51,24.31 18.39,24.24 18.29,24.15 18.18,24.06 18.10,23.95 18.02,23.84 17.96,23.72 17.90,23.60 17.86,23.47 17.82,23.33 17.81,23.20 17.81,23.06 17.82,22.92 17.84,22.79 17.88,22.66 17.93,22.53 18.00,22.41 18.07,22.29 18.16,22.19 18.25,22.08 18.35,22.00 18.46,21.91 18.59,21.85 18.71,21.79 18.84,21.76 18.97,21.72 19.11,21.71 19.25,21.70 19.38,21.72 19.52,21.74 19.65,21.78 19.78,21.83 19.90,21.89 20.02,21.96 20.12,22.05 20.22,22.14 20.31,22.25 20.39,22.36 20.45,22.48 20.51,22.61 20.55,22.74 20.59,22.87 20.59,23.01 20.60,23.15 20.59,23.28 20.57,23.42 20.52,23.55 20.48,23.68 20.41,23.80 20.34,23.92 19.88,24.55 19.42,25.18 18.44,25.93 17.46,26.68 14.75,27.44 12.03,28.21 8.39,29.13 4.76,30.05 1.00,31.39 -2.75,32.72 -6.34,34.42 -9.94,36.11 -10.68,36.52 -11.43,36.93 -12.06,37.33 -12.68,37.72 -13.56,38.02 -14.43,38.33 -15.30,38.12 -16.16,37.92 -16.50,36.83 -16.85,35.73 -16.53,34.40 -16.22,33.06 -15.16,30.78 -14.09,28.50 -12.49,24.52 -10.90,20.55 -8.71,16.10 -6.51,11.65 -4.16,6.32 -1.80,0.99 -1.56,0.27 -1.32,-0.44 -1.32,-0.44 L -1.32,-0.44 Z"></path></g><g transform="translate(142 63) rotate(0 -49.5 52.5)" stroke="none"><path fill="#1971c2" d="M -0.98,-0.98 Q -0.98,-0.98 -0.88,-1.07 -0.77,-1.16 -0.65,-1.22 -0.53,-1.29 -0.40,-1.33 -0.27,-1.37 -0.13,-1.38 1.11,-1.4 0.13,-1.38 0.27,-1.37 0.40,-1.33 0.53,-1.29 0.65,-1.22 0.77,-1.16 0.88,-1.07 0.98,-0.98 1.07,-0.88 1.16,-0.77 1.22,-0.65 1.29,-0.53 1.33,-0.40 1.37,-0.27 1.38,-0.13 1.4,1.11 1.38,0.13 1.37,0.27 1.33,0.40 1.29,0.53 1.22,0.65 1.16,0.77 1.07,0.88 0.98,0.98 -0.27,2.25 -1.54,3.51 -5.90,7.38 -10.27,11.25 -27.43,29.41 -44.59,47.57 -58.04,62.25 -71.48,76.94 -71.60,77.01 -71.71,77.08 -71.84,77.12 -71.97,77.17 -72.11,77.19 -72.24,77.21 -72.38,77.20 -72.52,77.19 -72.65,77.16 -72.78,77.12 -72.91,77.06 -73.03,77.01 -73.14,76.92 -73.25,76.84 -73.34,76.74 -73.44,76.64 -73.51,76.52 -73.58,76.40 -73.62,76.27 -73.67,76.14 -73.69,76.01 -73.71,75.87 -73.70,75.73 -73.69,75.60 -73.66,75.46 -73.62,75.33 -73.56,75.21 -73.51,75.08 -73.42,74.97 -73.34,74.86 -73.24,74.77 -73.14,74.68 -73.02,74.61 -72.90,74.54 -72.77,74.49 -72.64,74.45 -72.51,74.43 -72.37,74.41 -72.23,74.42 -72.10,74.42 -71.96,74.46 -71.83,74.49 -71.71,74.55 -71.58,74.61 -71.47,74.69 -71.36,74.77 -71.27,74.88 -71.18,74.98 -71.11,75.10 -71.04,75.21 -70.99,75.34 -70.95,75.47 -70.93,75.61 -70.91,75.74 -70.92,75.88 -70.92,76.02 -70.96,76.15 -70.99,76.28 -71.05,76.41 -71.11,76.53 -71.19,76.64 -71.27,76.75 -71.38,76.84 -71.48,76.94 -71.60,77.01 -71.71,77.08 -71.84,77.12 -71.97,77.17 -72.11,77.19 -72.24,77.21 -72.38,77.20 -72.52,77.19 -72.65,77.16 -72.78,77.12 -72.91,77.06 -73.03,77.01 -73.14,76.92 -73.25,76.84 -73.34,76.74 -73.44,76.64 -73.51,76.52 -73.58,76.40 -73.62,76.27 -73.67,76.14 -73.69,76.01 -73.71,75.87 -73.70,75.73 -73.69,75.60 -73.66,75.46 -73.62,75.33 -73.56,75.21 -73.51,75.08 -73.42,74.97 -73.34,74.86 -59.99,60.26 -46.65,45.67 -29.43,27.45 -12.22,9.24 -7.84,5.36 -3.45,1.48 -2.22,0.24 -0.98,-0.98 -0.98,-0.98 L -0.98,-0.98 Z"></path></g><g transform="translate(219 24) rotate(0 -87.5 92)" stroke="none"><path fill="#1971c2" d="M -0.70,-1.20 Q -0.70,-1.20 -0.58,-1.26 -0.45,-1.32 -0.32,-1.35 -0.18,-1.38 -0.05,-1.39 0.08,-1.39 0.22,-1.37 0.35,-1.35 0.48,-1.30 0.61,-1.25 0.73,-1.18 0.84,-1.11 0.94,-1.02 1.04,-0.92 1.12,-0.81 1.20,-0.70 1.26,-0.58 1.32,-0.45 1.35,-0.32 1.38,-0.18 1.39,-0.05 1.39,0.08 1.37,0.22 1.35,0.35 1.30,0.48 1.25,0.61 1.18,0.73 1.11,0.84 1.02,0.94 0.92,1.04 0.81,1.12 0.70,1.20 -2.28,2.95 -5.27,4.69 -8.21,6.53 -11.15,8.36 -20.83,17.23 -30.50,26.11 -48.60,46.05 -66.70,65.99 -80.76,82.22 -94.81,98.45 -111.61,117.57 -128.40,136.70 -139.90,148.86 -151.40,161.02 -151.52,161.09 -151.64,161.16 -151.77,161.20 -151.90,161.24 -152.04,161.26 -152.17,161.28 -152.31,161.27 -152.45,161.26 -152.58,161.22 -152.71,161.19 -152.84,161.12 -152.96,161.06 -153.07,160.98 -153.18,160.90 -153.27,160.79 -153.36,160.69 -153.42,160.57 -153.49,160.45 -153.53,160.32 -153.58,160.19 -153.60,160.05 -153.61,159.92 -153.60,159.78 -153.59,159.64 -153.56,159.51 -153.52,159.38 -153.46,159.26 -153.40,159.13 -153.32,159.02 -153.23,158.92 -153.13,158.83 -153.02,158.74 -152.91,158.67 -152.79,158.60 -152.66,158.56 -152.53,158.51 -152.39,158.50 -152.25,158.48 -152.12,158.49 -151.98,158.50 -151.85,158.53 -151.72,158.57 -151.59,158.63 -151.47,158.69 -151.36,158.78 -151.25,158.86 -151.16,158.96 -151.07,159.07 -151.00,159.19 -150.94,159.31 -150.89,159.44 -150.85,159.57 -150.83,159.70 -150.81,159.84 -150.82,159.97 -150.83,160.11 -150.87,160.24 -150.91,160.38 -150.97,160.50 -151.03,160.62 -151.11,160.73 -151.20,160.84 -151.30,160.93 -151.40,161.02 -151.52,161.09 -151.64,161.16 -151.77,161.20 -151.90,161.24 -152.04,161.26 -152.17,161.28 -152.31,161.27 -152.45,161.26 -152.58,161.22 -152.71,161.19 -152.84,161.12 -152.96,161.06 -153.07,160.98 -153.18,160.90 -153.27,160.79 -153.36,160.69 -153.42,160.57 -153.49,160.45 -153.53,160.32 -153.58,160.19 -153.60,160.05 -153.61,159.92 -153.60,159.78 -153.59,159.64 -153.56,159.51 -153.52,159.38 -153.46,159.26 -153.40,159.13 -153.32,159.02 -153.23,158.92 -141.85,146.87 -130.47,134.82 -113.70,115.71 -96.93,96.61 -82.86,80.37 -68.79,64.13 -50.64,44.13 -32.49,24.13 -22.66,15.13 -12.84,6.13 -9.78,4.21 -6.72,2.30 -3.71,0.54 -0.70,-1.20 -0.70,-1.20 L -0.70,-1.20 Z"></path></g><g transform="translate(264 38) rotate(0 -34.5 34)" stroke="none"><path fill="#1971c2" d="M -0.98,-0.98 Q -0.98,-0.98 -0.88,-1.07 -0.77,-1.16 -0.65,-1.22 -0.53,-1.29 -0.40,-1.33 -0.27,-1.37 -0.13,-1.38 1.11,-1.4 0.13,-1.38 0.27,-1.37 0.40,-1.33 0.53,-1.29 0.65,-1.22 0.77,-1.16 0.88,-1.07 0.98,-0.98 1.07,-0.88 1.16,-0.77 1.22,-0.65 1.29,-0.53 1.33,-0.40 1.37,-0.27 1.38,-0.13 1.4,1.11 1.38,0.13 1.37,0.27 1.33,0.40 1.29,0.53 1.22,0.65 1.16,0.77 1.07,0.88 0.98,0.98 0.73,1.23 0.48,1.48 0.11,1.86 -0.26,2.23 -3.95,5.93 -7.64,9.62 -20.23,21.71 -32.83,33.81 -41.61,42.59 -50.39,51.37 -53.77,54.99 -57.14,58.61 -58.66,60.51 -60.19,62.41 -60.30,62.49 -60.42,62.57 -60.54,62.63 -60.67,62.68 -60.80,62.71 -60.94,62.74 -61.07,62.74 -61.21,62.74 -61.35,62.72 -61.48,62.69 -61.61,62.64 -61.74,62.59 -61.85,62.52 -61.97,62.44 -62.07,62.35 -62.16,62.25 -62.24,62.14 -62.32,62.03 -62.38,61.90 -62.43,61.77 -62.46,61.64 -62.49,61.51 -62.49,61.37 -62.49,61.23 -62.47,61.10 -62.44,60.96 -62.39,60.83 -62.34,60.71 -62.27,60.59 -62.19,60.48 -62.10,60.38 -62.00,60.28 -61.89,60.20 -61.78,60.12 -61.65,60.07 -61.52,60.01 -61.39,59.98 -61.26,59.96 -61.12,59.95 -60.98,59.95 -60.85,59.98 -60.71,60.00 -60.58,60.05 -60.46,60.10 -60.34,60.18 -60.23,60.25 -60.13,60.35 -60.03,60.44 -59.95,60.55 -59.87,60.67 -59.82,60.79 -59.76,60.92 -59.73,61.05 -59.71,61.19 -59.70,61.32 -59.70,61.46 -59.73,61.60 -59.75,61.73 -59.80,61.86 -59.85,61.99 -59.93,62.10 -60.00,62.22 -60.10,62.32 -60.19,62.41 -60.30,62.49 -60.42,62.57 -60.54,62.63 -60.67,62.68 -60.80,62.71 -60.94,62.74 -61.07,62.74 -61.21,62.74 -61.35,62.72 -61.48,62.69 -61.61,62.64 -61.74,62.59 -61.85,62.52 -61.97,62.44 -62.07,62.35 -62.16,62.25 -62.24,62.14 -62.32,62.03 -62.38,61.90 -62.43,61.77 -62.46,61.64 -62.49,61.51 -62.49,61.37 -62.49,61.23 -62.47,61.10 -62.44,60.96 -62.39,60.83 -62.34,60.71 -62.27,60.59 -62.19,60.48 -60.73,58.63 -59.26,56.78 -55.83,53.11 -52.41,49.43 -43.60,40.62 -34.79,31.81 -22.19,19.71 -9.60,7.62 -5.92,3.94 -2.23,0.26 -1.86,-0.11 -1.48,-0.48 -1.23,-0.73 -0.98,-0.98 -0.98,-0.98 L -0.98,-0.98 Z"></path></g><g transform="translate(327 50) rotate(0 -54.5 46.5)" stroke="none"><path fill="#1971c2" d="M 8.57,-1.4 Q 8.57,-1.4 0.13,-1.38 0.27,-1.37 0.40,-1.33 0.53,-1.29 0.65,-1.22 0.77,-1.16 0.88,-1.07 0.98,-0.98 1.07,-0.88 1.16,-0.77 1.22,-0.65 1.29,-0.53 1.33,-0.40 1.37,-0.27 1.38,-0.13 1.4,1.71 1.38,0.13 1.37,0.27 1.33,0.40 1.29,0.53 1.22,0.65 1.16,0.77 1.07,0.88 0.98,0.98 0.88,1.07 0.77,1.16 0.65,1.22 0.53,1.29 0.40,1.33 0.27,1.37 0.13,1.38 -8.57,1.4 -0.36,1.38 -0.73,1.37 -3.00,2.28 -5.27,3.19 -13.67,10.37 -22.07,17.54 -41.07,34.92 -60.06,52.29 -71.57,62.23 -83.08,72.18 -89.34,77.65 -95.60,83.13 -97.49,84.63 -99.38,86.12 -99.15,85.34 -98.93,84.55 -99.57,85.49 -100.21,86.43 -100.62,86.30 -101.03,86.18 -101.30,85.84 -101.56,85.50 -101.58,85.07 -101.59,84.64 -100.26,84.60 -98.93,84.55 -99.60,84.09 -100.28,83.63 -99.83,83.63 -99.38,83.63 -99.25,83.67 -99.12,83.70 -98.99,83.77 -98.87,83.83 -98.76,83.91 -98.66,84.00 -98.57,84.10 -98.48,84.20 -98.41,84.32 -98.34,84.44 -98.30,84.57 -98.25,84.70 -98.24,84.84 -98.22,84.98 -98.23,85.11 -98.24,85.25 -98.28,85.38 -98.31,85.51 -98.38,85.64 -98.44,85.76 -98.52,85.87 -98.61,85.98 -98.71,86.07 -98.81,86.15 -98.93,86.22 -99.05,86.29 -99.18,86.33 -99.31,86.38 -99.45,86.39 -99.59,86.41 -99.72,86.40 -99.86,86.39 -99.99,86.35 -100.12,86.32 -100.25,86.26 -100.37,86.19 -100.48,86.11 -100.58,86.03 -100.67,85.92 -100.76,85.82 -100.83,85.70 -100.90,85.58 -100.94,85.45 -100.99,85.32 -101.00,85.18 -101.02,85.05 -101.01,84.91 -101.00,84.77 -100.96,84.64 -100.93,84.51 -100.86,84.38 -100.80,84.26 -100.72,84.15 -100.63,84.05 -100.53,83.96 -100.43,83.87 -100.31,83.80 -100.19,83.73 -100.06,83.69 -99.93,83.64 -99.79,83.63 -99.65,83.61 -99.52,83.62 -99.38,83.63 -99.25,83.67 -99.12,83.70 -98.99,83.77 -98.87,83.83 -98.76,83.91 -98.66,84.00 -98.57,84.10 -98.48,84.20 -98.41,84.32 -98.34,84.44 -98.30,84.57 -98.25,84.70 -98.24,84.84 -98.22,84.98 -98.23,85.11 -98.24,85.25 -98.28,85.38 -98.31,85.51 -98.38,85.64 -98.44,85.76 -98.52,85.87 -98.61,85.98 -98.71,86.07 -98.81,86.15 -98.93,86.22 -99.05,86.29 -99.18,86.33 -99.31,86.38 -99.45,86.39 -99.59,86.41 -99.90,86.42 -100.21,86.43 -100.62,86.30 -101.03,86.18 -101.30,85.84 -101.56,85.50 -101.58,85.07 -101.59,84.64 -101.35,84.29 -101.11,83.93 -99.25,82.46 -97.39,80.98 -91.15,75.52 -84.91,70.06 -73.42,60.13 -61.93,50.20 -42.92,32.82 -23.92,15.45 -15.32,8.12 -6.72,0.80 -3.99,-0.28 -1.26,-1.37 -0.63,-1.38 8.57,-1.4 8.57,-1.4 L 8.57,-1.4 Z"></path></g><g transform="translate(384 61) rotate(0 -66 57.5)" stroke="none"><path fill="#1971c2" d="M -0.98,-0.98 Q -0.98,-0.98 -0.88,-1.07 -0.77,-1.16 -0.65,-1.22 -0.53,-1.29 -0.40,-1.33 -0.27,-1.37 -0.13,-1.38 1.11,-1.4 0.13,-1.38 0.27,-1.37 0.40,-1.33 0.53,-1.29 0.65,-1.22 0.77,-1.16 0.88,-1.07 0.98,-0.98 1.07,-0.88 1.16,-0.77 1.22,-0.65 1.29,-0.53 1.33,-0.40 1.37,-0.27 1.38,-0.13 1.4,1.11 1.38,0.13 1.37,0.27 1.33,0.40 1.29,0.53 1.22,0.65 1.16,0.77 1.07,0.88 0.98,0.98 0.20,1.76 -0.57,2.54 -3.98,5.20 -7.40,7.86 -12.83,11.91 -18.26,15.97 -36.46,30.99 -54.66,46.00 -65.75,55.51 -76.85,65.02 -89.64,76.51 -102.43,88.00 -109.55,94.98 -116.68,101.95 -118.08,103.53 -119.49,105.10 -119.61,105.18 -119.73,105.25 -119.86,105.30 -119.98,105.34 -120.12,105.37 -120.26,105.39 -120.39,105.38 -120.53,105.38 -120.66,105.35 -120.80,105.32 -120.92,105.26 -121.05,105.20 -121.16,105.12 -121.27,105.04 -121.36,104.94 -121.46,104.84 -121.53,104.72 -121.60,104.61 -121.65,104.48 -121.70,104.35 -121.72,104.21 -121.74,104.08 -121.74,103.94 -121.73,103.80 -121.70,103.67 -121.67,103.54 -121.61,103.41 -121.55,103.29 -121.47,103.18 -121.39,103.06 -121.29,102.97 -121.19,102.88 -121.07,102.81 -120.96,102.73 -120.83,102.69 -120.70,102.64 -120.56,102.62 -120.43,102.59 -120.29,102.60 -120.16,102.60 -120.02,102.64 -119.89,102.67 -119.76,102.72 -119.64,102.78 -119.53,102.86 -119.42,102.94 -119.32,103.04 -119.23,103.14 -119.16,103.26 -119.08,103.38 -119.04,103.50 -118.99,103.63 -118.97,103.77 -118.95,103.90 -118.95,104.04 -118.96,104.18 -118.99,104.31 -119.02,104.45 -119.08,104.57 -119.13,104.70 -119.21,104.81 -119.29,104.92 -119.39,105.01 -119.49,105.10 -119.61,105.18 -119.73,105.25 -119.86,105.30 -119.98,105.34 -120.12,105.37 -120.26,105.39 -120.39,105.38 -120.53,105.38 -120.66,105.35 -120.80,105.32 -120.92,105.26 -121.05,105.20 -121.16,105.12 -121.27,105.04 -121.36,104.94 -121.46,104.84 -121.53,104.72 -121.60,104.61 -121.65,104.48 -121.70,104.35 -121.72,104.21 -121.74,104.08 -121.74,103.94 -121.73,103.80 -121.70,103.67 -121.67,103.54 -121.61,103.41 -121.55,103.29 -121.47,103.18 -121.39,103.06 -120.05,101.54 -118.71,100.02 -111.52,92.99 -104.34,85.96 -91.52,74.43 -78.70,62.91 -67.58,53.39 -56.46,43.86 -38.22,28.81 -19.98,13.77 -14.54,9.70 -9.09,5.63 -5.76,3.04 -2.42,0.45 -1.70,-0.26 -0.98,-0.98 -0.98,-0.98 L -0.98,-0.98 Z"></path></g><g transform="translate(434 83) rotate(0 -24.5 21)" stroke="none"><path fill="#1971c2" d="M 8.57,-1.4 Q 8.57,-1.4 0.13,-1.38 0.27,-1.37 0.40,-1.33 0.53,-1.29 0.65,-1.22 0.77,-1.16 0.88,-1.07 0.98,-0.98 1.07,-0.88 1.16,-0.77 1.22,-0.65 1.29,-0.53 1.33,-0.40 1.37,-0.27 1.38,-0.13 1.4,1.71 1.38,0.13 1.37,0.27 1.33,0.40 1.29,0.53 1.22,0.65 1.16,0.77 1.07,0.88 0.98,0.98 0.88,1.07 0.77,1.16 0.65,1.22 0.53,1.29 0.40,1.33 0.27,1.37 0.13,1.38 -8.57,1.4 -0.09,1.38 -0.19,1.36 -1.65,2.05 -3.11,2.74 -4.59,3.57 -6.07,4.40 -14.30,11.29 -22.52,18.18 -28.38,23.37 -34.24,28.57 -37.77,32.24 -41.30,35.92 -41.42,35.99 -41.54,36.06 -41.67,36.10 -41.80,36.14 -41.94,36.16 -42.07,36.18 -42.21,36.17 -42.35,36.16 -42.48,36.12 -42.61,36.08 -42.73,36.02 -42.85,35.96 -42.96,35.87 -43.07,35.79 -43.16,35.68 -43.25,35.58 -43.32,35.46 -43.39,35.34 -43.43,35.21 -43.47,35.08 -43.49,34.95 -43.50,34.81 -43.49,34.67 -43.48,34.54 -43.45,34.40 -43.41,34.27 -43.35,34.15 -43.29,34.03 -43.20,33.92 -43.12,33.81 -43.01,33.72 -42.91,33.63 -42.79,33.56 -42.67,33.50 -42.54,33.45 -42.41,33.41 -42.27,33.39 -42.14,33.38 -42.00,33.39 -41.86,33.40 -41.73,33.43 -41.60,33.47 -41.48,33.53 -41.35,33.59 -41.25,33.68 -41.14,33.76 -41.05,33.87 -40.96,33.97 -40.89,34.09 -40.82,34.21 -40.78,34.34 -40.74,34.47 -40.72,34.61 -40.70,34.74 -40.72,34.88 -40.73,35.02 -40.76,35.15 -40.80,35.28 -40.86,35.40 -40.92,35.53 -41.01,35.63 -41.09,35.74 -41.20,35.83 -41.30,35.92 -41.42,35.99 -41.54,36.06 -41.67,36.10 -41.80,36.14 -41.94,36.16 -42.07,36.18 -42.21,36.17 -42.35,36.16 -42.48,36.12 -42.61,36.08 -42.73,36.02 -42.85,35.96 -42.96,35.87 -43.07,35.79 -43.16,35.68 -43.25,35.58 -43.32,35.46 -43.39,35.34 -43.43,35.21 -43.47,35.08 -43.49,34.95 -43.50,34.81 -43.49,34.67 -43.48,34.54 -43.45,34.40 -43.41,34.27 -43.35,34.15 -43.29,34.03 -43.20,33.92 -43.12,33.81 -39.65,30.18 -36.19,26.55 -30.27,21.30 -24.35,16.06 -16.01,9.08 -7.67,2.09 -6.02,1.17 -4.38,0.25 -2.59,-0.55 -0.80,-1.36 -0.40,-1.38 8.57,-1.4 8.57,-1.4 L 8.57,-1.4 Z"></path></g><g transform="translate(496 117) rotate(0 -26 21)" stroke="none"><path fill="#1971c2" d="M -1.16,-0.77 Q -1.16,-0.77 -1.07,-0.88 -0.99,-0.98 -0.88,-1.07 -0.77,-1.16 -0.65,-1.22 -0.53,-1.29 -0.40,-1.33 -0.27,-1.37 -0.13,-1.38 -0.00,-1.39 0.13,-1.38 0.27,-1.37 0.40,-1.33 0.53,-1.29 0.65,-1.22 0.77,-1.16 0.88,-1.07 0.98,-0.99 1.07,-0.88 1.16,-0.77 1.22,-0.65 1.29,-0.53 1.33,-0.40 1.37,-0.27 1.38,-0.13 1.39,-0.00 1.38,0.13 1.37,0.27 1.33,0.40 1.29,0.53 1.22,0.65 1.16,0.77 0.64,1.55 0.13,2.32 -1.44,4.28 -3.01,6.24 -7.07,9.48 -11.14,12.72 -21.13,20.31 -31.12,27.90 -35.47,31.52 -39.82,35.13 -39.95,35.18 -40.08,35.24 -40.21,35.27 -40.35,35.29 -40.48,35.29 -40.62,35.30 -40.76,35.27 -40.89,35.24 -41.02,35.19 -41.14,35.14 -41.26,35.07 -41.37,34.99 -41.47,34.89 -41.57,34.80 -41.65,34.68 -41.72,34.57 -41.78,34.45 -41.83,34.32 -41.86,34.18 -41.89,34.05 -41.89,33.91 -41.89,33.78 -41.86,33.64 -41.84,33.51 -41.79,33.38 -41.74,33.25 -41.66,33.14 -41.58,33.02 -41.49,32.92 -41.39,32.83 -41.28,32.75 -41.17,32.67 -41.04,32.62 -40.91,32.56 -40.78,32.54 -40.64,32.51 -40.51,32.51 -40.37,32.51 -40.23,32.53 -40.10,32.56 -39.97,32.61 -39.85,32.66 -39.73,32.74 -39.62,32.81 -39.52,32.91 -39.42,33.00 -39.34,33.12 -39.27,33.23 -39.21,33.36 -39.16,33.48 -39.13,33.62 -39.10,33.75 -39.10,33.89 -39.10,34.03 -39.13,34.16 -39.15,34.30 -39.20,34.42 -39.25,34.55 -39.33,34.67 -39.41,34.78 -39.50,34.88 -39.60,34.98 -39.71,35.05 -39.82,35.13 -39.95,35.18 -40.08,35.24 -40.21,35.27 -40.35,35.29 -40.48,35.29 -40.62,35.30 -40.76,35.27 -40.89,35.24 -41.02,35.19 -41.14,35.14 -41.26,35.07 -41.37,34.99 -41.47,34.89 -41.57,34.80 -41.65,34.68 -41.72,34.57 -41.78,34.45 -41.83,34.32 -41.86,34.18 -41.89,34.05 -41.89,33.91 -41.89,33.78 -41.86,33.64 -41.84,33.51 -41.79,33.38 -41.74,33.25 -41.66,33.14 -41.58,33.02 -41.49,32.92 -41.39,32.83 -37.13,29.27 -32.87,25.71 -22.86,18.11 -12.85,10.52 -8.92,7.38 -4.98,4.25 -3.55,2.46 -2.13,0.67 -1.64,-0.05 -1.16,-0.77 -1.16,-0.77 L -1.16,-0.77 Z"></path></g><g transform="translate(559 163) rotate(0 -34.5 28)" stroke="none"><path fill="#1971c2" d="M -8.57,1.4 Q -8.57,1.4 -0.13,1.38 -0.27,1.37 -0.40,1.33 -0.53,1.29 -0.65,1.22 -0.77,1.16 -0.88,1.07 -0.98,0.98 -1.07,0.88 -1.16,0.77 -1.22,0.65 -1.29,0.53 -1.33,0.40 -1.37,0.27 -1.38,0.13 -1.4,-1.71 -1.38,-0.13 -1.37,-0.27 -1.33,-0.40 -1.29,-0.53 -1.22,-0.65 -1.16,-0.77 -1.07,-0.88 -0.98,-0.98 -0.88,-1.07 -0.77,-1.16 -0.65,-1.22 -0.53,-1.29 -0.40,-1.33 -0.27,-1.37 -0.13,-1.38 8.57,-1.4 0.25,-1.4 0.5,-1.4 0.87,-1.4 1.25,-1.4 0.55,-0.7 -0.14,0 0.55,-0.7 1.25,-1.4 1.74,-1.19 2.23,-0.98 2.44,-0.49 2.65,0 2.44,0.49 2.23,0.98 1.74,1.19 1.25,1.4 0.55,0.7 -0.14,0 0.55,0.7 1.25,1.4 1.03,1.39 0.81,1.38 0.13,1.56 -0.53,1.73 -4.11,4.78 -7.69,7.82 -12.54,11.88 -17.40,15.95 -26.34,23.24 -35.27,30.53 -42.25,35.93 -49.22,41.33 -54.46,45.28 -59.70,49.23 -62.07,50.96 -64.44,52.68 -64.21,51.84 -63.97,51.01 -64.50,51.97 -65.03,52.93 -65.48,52.85 -65.94,52.78 -66.25,52.44 -66.55,52.09 -66.58,51.63 -66.61,51.17 -65.29,51.09 -63.97,51.01 -64.74,50.59 -65.50,50.17 -64.54,50.02 -63.59,49.87 -63.45,49.89 -63.32,49.91 -63.19,49.95 -63.06,49.99 -62.94,50.06 -62.82,50.13 -62.72,50.22 -62.61,50.31 -62.53,50.42 -62.44,50.53 -62.38,50.65 -62.32,50.77 -62.29,50.91 -62.25,51.04 -62.24,51.17 -62.23,51.31 -62.25,51.45 -62.26,51.58 -62.31,51.71 -62.35,51.84 -62.42,51.96 -62.49,52.08 -62.58,52.19 -62.67,52.29 -62.78,52.37 -62.88,52.46 -63.01,52.52 -63.13,52.58 -63.26,52.62 -63.40,52.65 -63.53,52.66 -63.67,52.67 -63.80,52.65 -63.94,52.64 -64.07,52.59 -64.20,52.55 -64.32,52.48 -64.44,52.41 -64.54,52.32 -64.65,52.23 -64.73,52.13 -64.81,52.02 -64.88,51.89 -64.94,51.77 -64.97,51.64 -65.01,51.51 -65.02,51.37 -65.03,51.23 -65.01,51.10 -64.99,50.96 -64.95,50.83 -64.91,50.70 -64.84,50.58 -64.77,50.46 -64.68,50.36 -64.59,50.25 -64.48,50.17 -64.37,50.09 -64.25,50.03 -64.13,49.96 -64.00,49.93 -63.86,49.89 -63.73,49.88 -63.59,49.87 -63.45,49.89 -63.32,49.91 -63.19,49.95 -63.06,49.99 -62.94,50.06 -62.82,50.13 -62.72,50.22 -62.61,50.31 -62.53,50.42 -62.44,50.53 -62.38,50.65 -62.32,50.77 -62.29,50.91 -62.25,51.04 -62.24,51.17 -62.23,51.31 -62.25,51.45 -62.26,51.58 -62.31,51.71 -62.35,51.84 -62.42,51.96 -62.49,52.08 -62.58,52.19 -62.67,52.29 -62.78,52.37 -62.88,52.46 -63.01,52.52 -63.13,52.58 -63.26,52.62 -63.40,52.65 -64.21,52.79 -65.03,52.93 -65.48,52.85 -65.94,52.78 -66.25,52.44 -66.55,52.09 -66.58,51.63 -66.61,51.17 -66.35,50.80 -66.09,50.42 -63.73,48.70 -61.37,46.98 -56.14,43.04 -50.92,39.10 -43.97,33.72 -37.01,28.34 -28.10,21.06 -19.18,13.79 -14.34,9.73 -9.49,5.67 -5.66,2.46 -1.84,-0.73 -0.70,-1.06 0.43,-1.38 0.84,-1.39 1.25,-1.4 1.74,-1.19 2.23,-0.98 2.44,-0.49 2.65,0 2.44,0.49 2.23,0.98 1.74,1.19 1.25,1.4 0.87,1.4 0.5,1.4 0.24,1.4 -8.57,1.4 -8.57,1.4 L -8.57,1.4 Z"></path></g><g transform="translate(566 217) rotate(0 -113.5 111)" stroke="none"><path fill="#1971c2" d="M 0.62,1.25 Q 0.62,1.25 0.49,1.30 0.36,1.35 0.23,1.37 0.09,1.39 -0.03,1.39 -0.17,1.38 -0.30,1.35 -0.44,1.32 -0.56,1.27 -0.69,1.21 -0.80,1.13 -0.91,1.05 -1.01,0.95 -1.10,0.85 -1.17,0.74 -1.25,0.62 -1.30,0.49 -1.35,0.36 -1.37,0.23 -1.39,0.09 -1.39,-0.03 -1.38,-0.17 -1.35,-0.30 -1.32,-0.44 -1.27,-0.56 -1.21,-0.69 -1.13,-0.80 -1.05,-0.91 -0.95,-1.01 -0.85,-1.10 -0.74,-1.17 -0.62,-1.25 -0.12,-1.50 0.37,-1.75 0.71,-1.82 1.06,-1.89 1.39,-1.79 1.73,-1.69 1.97,-1.43 2.22,-1.18 2.31,-0.84 2.39,-0.49 2.36,-0.14 2.32,0.21 1.92,0.76 1.53,1.31 -4.13,6.76 -9.79,12.21 -15.86,17.67 -21.94,23.13 -33.71,33.61 -45.49,44.08 -57.63,55.31 -69.76,66.54 -81.82,77.90 -93.88,89.26 -109.41,104.69 -124.94,120.12 -134.97,130.10 -145.00,140.08 -152.74,147.04 -160.48,154.01 -166.35,160.74 -172.22,167.47 -178.17,173.36 -184.13,179.25 -188.07,183.15 -192.00,187.04 -194.94,190.95 -197.87,194.85 -200.36,198.83 -202.84,202.80 -204.58,205.28 -206.32,207.77 -207.22,209.30 -208.12,210.83 -208.86,211.64 -209.60,212.45 -210.20,213.09 -210.80,213.72 -211.35,214.28 -211.90,214.85 -212.78,215.72 -213.65,216.59 -214.70,217.06 -215.75,217.53 -216.53,217.75 -217.31,217.97 -217.81,218.04 -218.31,218.11 -219.53,218.87 -220.75,219.64 -221.58,219.99 -222.40,220.35 -222.85,220.80 -223.29,221.24 -223.86,221.52 -224.44,221.81 -225.05,222.09 -225.66,222.38 -226.03,222.81 -226.40,223.24 -226.95,223.53 -227.50,223.82 -228.04,223.85 -228.57,223.89 -228.97,223.54 -229.38,223.19 -229.42,222.66 -229.45,222.12 -229.11,221.72 -228.76,221.31 -228.47,221.17 -228.19,221.03 -227.42,220.66 -226.65,220.29 -226.51,220.26 -226.38,220.24 -226.24,220.24 -226.10,220.25 -225.97,220.28 -225.84,220.31 -225.71,220.36 -225.59,220.42 -225.47,220.50 -225.36,220.58 -225.27,220.68 -225.17,220.78 -225.10,220.89 -225.03,221.01 -224.98,221.14 -224.93,221.27 -224.90,221.40 -224.88,221.54 -224.89,221.67 -224.89,221.81 -224.92,221.95 -224.95,222.08 -225.01,222.20 -225.06,222.33 -225.14,222.44 -225.22,222.55 -225.32,222.65 -225.42,222.74 -225.54,222.82 -225.65,222.89 -225.78,222.94 -225.91,222.99 -226.04,223.01 -226.18,223.03 -226.32,223.03 -226.45,223.03 -226.59,223.00 -226.72,222.97 -226.85,222.91 -226.97,222.85 -227.08,222.77 -227.19,222.70 -227.29,222.60 -227.38,222.50 -227.46,222.38 -227.53,222.26 -227.58,222.14 -227.63,222.01 -227.65,221.87 -227.67,221.74 -227.67,221.60 -227.67,221.46 -227.64,221.33 -227.61,221.20 -227.55,221.07 -227.49,220.94 -227.42,220.83 -227.34,220.72 -227.24,220.63 -227.14,220.53 -227.02,220.46 -226.90,220.39 -226.78,220.34 -226.65,220.29 -226.51,220.26 -226.38,220.24 -226.24,220.24 -226.10,220.25 -225.97,220.28 -225.84,220.31 -225.71,220.36 -225.59,220.42 -225.47,220.50 -225.36,220.58 -225.27,220.68 -225.17,220.78 -225.10,220.89 -225.03,221.01 -224.98,221.14 -224.93,221.27 -224.90,221.40 -224.88,221.54 -224.89,221.67 -224.89,221.81 -224.92,221.95 -224.95,222.08 -225.01,222.20 -225.06,222.33 -225.14,222.44 -225.22,222.55 -225.32,222.65 -225.42,222.74 -225.54,222.82 -225.65,222.89 -226.29,223.21 -226.93,223.53 -227.22,223.67 -227.50,223.81 -227.19,222.88 -226.87,221.94 -227.19,222.88 -227.50,223.82 -228.04,223.85 -228.57,223.89 -228.97,223.54 -229.38,223.19 -229.42,222.66 -229.45,222.12 -229.11,221.72 -228.76,221.31 -227.81,221.63 -226.87,221.94 -227.81,221.62 -228.75,221.31 -228.43,221.17 -228.12,221.03 -227.75,220.60 -227.38,220.16 -226.52,219.72 -225.65,219.28 -225.28,219.12 -224.90,218.95 -224.45,218.50 -223.99,218.04 -223.02,217.60 -222.05,217.16 -220.67,216.32 -219.29,215.49 -218.60,215.36 -217.91,215.24 -217.30,215.07 -216.69,214.90 -215.97,214.59 -215.24,214.28 -214.57,213.58 -213.90,212.89 -213.36,212.33 -212.82,211.78 -212.23,211.16 -211.64,210.54 -211.01,209.86 -210.38,209.17 -209.53,207.71 -208.68,206.26 -206.93,203.75 -205.18,201.25 -202.68,197.26 -200.18,193.27 -197.14,189.24 -194.11,185.20 -190.11,181.23 -186.10,177.26 -180.18,171.41 -174.26,165.55 -168.37,158.80 -162.48,152.05 -154.70,145.04 -146.92,138.04 -136.92,128.09 -126.91,118.13 -111.37,102.69 -95.83,87.25 -83.75,75.87 -71.67,64.50 -59.52,53.25 -47.37,42.01 -35.59,31.53 -23.80,21.05 -17.75,15.60 -11.70,10.16 -6.11,4.79 -0.53,-0.56 -0.42,-0.64 -0.32,-0.71 -0.36,-0.60 -0.39,-0.49 -0.06,0.09 0.26,0.69 0.66,-0.60 1.06,-1.89 1.39,-1.79 1.73,-1.69 1.97,-1.43 2.22,-1.18 2.31,-0.84 2.39,-0.49 1.33,0.09 0.26,0.69 0.94,0.72 1.62,0.75 1.12,1.00 0.62,1.25 0.62,1.25 L 0.62,1.25 Z"></path></g><g transform="translate(577 268) rotate(0 -85 73)" stroke="none"><path fill="#1971c2" d="M 1.4,8.57 Q 1.4,8.57 1.38,0.13 1.37,0.27 1.33,0.40 1.29,0.53 1.22,0.65 1.16,0.77 1.07,0.88 0.98,0.98 0.88,1.07 0.77,1.16 0.65,1.22 0.53,1.29 0.40,1.33 0.27,1.37 0.13,1.38 -1.71,1.4 -0.13,1.38 -0.27,1.37 -0.40,1.33 -0.53,1.29 -0.65,1.22 -0.77,1.16 -0.88,1.07 -0.98,0.98 -1.07,0.88 -1.16,0.77 -1.22,0.65 -1.29,0.53 -1.33,0.40 -1.37,0.27 -1.38,0.13 -1.4,-8.57 -1.13,0.30 -0.86,0.60 -0.64,0.81 -0.42,1.02 -4.79,4.01 -9.16,6.99 -28.38,22.75 -47.59,38.50 -67.46,55.64 -87.33,72.77 -101.26,84.84 -115.20,96.91 -125.66,106.19 -136.12,115.46 -143.35,122.11 -150.59,128.75 -155.18,132.80 -159.78,136.85 -162.02,139.30 -164.25,141.76 -165.20,143.33 -166.15,144.90 -166.25,144.99 -166.35,145.08 -166.47,145.15 -166.58,145.22 -166.71,145.27 -166.84,145.32 -166.98,145.34 -167.11,145.36 -167.25,145.35 -167.39,145.34 -167.52,145.31 -167.65,145.28 -167.78,145.22 -167.90,145.16 -168.01,145.08 -168.12,145.00 -168.22,144.90 -168.31,144.80 -168.38,144.68 -168.45,144.56 -168.50,144.43 -168.54,144.30 -168.56,144.17 -168.58,144.03 -168.58,143.89 -168.57,143.76 -168.54,143.62 -168.51,143.49 -168.45,143.37 -168.39,143.24 -168.31,143.13 -168.23,143.02 -168.12,142.93 -168.02,142.84 -167.91,142.77 -167.79,142.70 -167.66,142.65 -167.53,142.60 -167.39,142.58 -167.26,142.56 -167.12,142.57 -166.98,142.57 -166.85,142.61 -166.72,142.64 -166.59,142.70 -166.47,142.76 -166.36,142.84 -166.25,142.92 -166.16,143.02 -166.06,143.12 -165.99,143.24 -165.92,143.36 -165.88,143.49 -165.83,143.62 -165.81,143.75 -165.79,143.89 -165.79,144.02 -165.80,144.16 -165.83,144.29 -165.87,144.43 -165.93,144.55 -165.98,144.68 -166.07,144.79 -166.15,144.90 -166.25,144.99 -166.35,145.08 -166.47,145.15 -166.58,145.22 -166.71,145.27 -166.84,145.32 -166.98,145.34 -167.11,145.36 -167.25,145.35 -167.39,145.34 -167.52,145.31 -167.65,145.28 -167.78,145.22 -167.90,145.16 -168.01,145.08 -168.12,145.00 -168.22,144.90 -168.31,144.80 -168.38,144.68 -168.45,144.56 -168.50,144.43 -168.54,144.30 -168.56,144.17 -168.58,144.03 -168.58,143.89 -168.57,143.76 -168.54,143.62 -168.51,143.49 -168.45,143.37 -168.39,143.24 -167.45,141.67 -166.50,140.09 -164.12,137.47 -161.74,134.85 -157.10,130.76 -152.46,126.67 -145.23,120.03 -138.00,113.39 -127.52,104.09 -117.04,94.80 -103.10,82.73 -89.16,70.65 -69.28,53.51 -49.40,36.36 -30.11,20.55 -10.83,4.75 -6.20,1.61 -1.57,-1.52 -0.35,-1.56 0.86,-1.60 1.13,-0.80 1.4,8.57 1.4,8.57 L 1.4,8.57 Z"></path></g><g transform="translate(576 323) rotate(0 -60.5 54)" stroke="none"><path fill="#1971c2" d="M -1.25,-0.62 Q -1.25,-0.62 -1.17,-0.74 -1.10,-0.85 -1.01,-0.95 -0.91,-1.05 -0.80,-1.13 -0.69,-1.21 -0.56,-1.27 -0.44,-1.32 -0.30,-1.35 -0.17,-1.38 -0.03,-1.39 0.09,-1.39 0.23,-1.37 0.36,-1.35 0.49,-1.30 0.62,-1.25 0.74,-1.17 0.85,-1.10 0.95,-1.01 1.05,-0.91 1.13,-0.80 1.21,-0.69 1.27,-0.56 1.32,-0.44 1.35,-0.30 1.38,-0.17 1.39,-0.03 1.39,0.09 1.37,0.23 1.35,0.36 1.30,0.49 1.25,0.62 0.95,1.20 0.65,1.79 -0.81,3.40 -2.28,5.01 -11.25,12.53 -20.21,20.06 -41.67,38.55 -63.13,57.04 -77.47,70.12 -91.80,83.19 -91.93,83.25 -92.05,83.31 -92.18,83.35 -92.32,83.38 -92.45,83.39 -92.59,83.39 -92.73,83.37 -92.86,83.35 -92.99,83.31 -93.12,83.26 -93.24,83.19 -93.36,83.12 -93.46,83.03 -93.56,82.94 -93.64,82.83 -93.72,82.72 -93.78,82.60 -93.84,82.47 -93.88,82.34 -93.91,82.21 -93.92,82.07 -93.92,81.93 -93.91,81.80 -93.89,81.66 -93.84,81.53 -93.79,81.40 -93.72,81.28 -93.65,81.17 -93.56,81.06 -93.47,80.96 -93.36,80.88 -93.25,80.80 -93.13,80.74 -93.00,80.68 -92.87,80.64 -92.74,80.61 -92.60,80.60 -92.46,80.60 -92.33,80.62 -92.19,80.64 -92.06,80.68 -91.93,80.73 -91.81,80.80 -91.70,80.87 -91.59,80.96 -91.49,81.05 -91.41,81.16 -91.33,81.27 -91.27,81.39 -91.21,81.52 -91.18,81.65 -91.14,81.78 -91.13,81.92 -91.13,82.06 -91.15,82.19 -91.17,82.33 -91.21,82.46 -91.26,82.59 -91.33,82.71 -91.40,82.82 -91.49,82.93 -91.58,83.03 -91.69,83.11 -91.80,83.19 -91.93,83.25 -92.05,83.31 -92.18,83.35 -92.32,83.38 -92.45,83.39 -92.59,83.39 -92.73,83.37 -92.86,83.35 -92.99,83.31 -93.12,83.26 -93.24,83.19 -93.36,83.12 -93.46,83.03 -93.56,82.94 -93.64,82.83 -93.72,82.72 -93.78,82.60 -93.84,82.47 -93.88,82.34 -93.91,82.21 -93.92,82.07 -93.92,81.93 -93.91,81.80 -93.89,81.66 -93.84,81.53 -93.79,81.40 -93.72,81.28 -93.65,81.17 -93.56,81.06 -93.47,80.96 -79.23,67.95 -64.99,54.95 -43.51,36.44 -22.03,17.93 -13.12,10.46 -4.21,2.98 -2.93,1.59 -1.65,0.20 -1.45,-0.20 -1.25,-0.62 -1.25,-0.62 L -1.25,-0.62 Z"></path></g><g transform="translate(328 331) rotate(0 -62 54)" stroke="none"><path fill="#1971c2" d="M -0.87,-1.09 Q -0.87,-1.09 -0.75,-1.16 -0.64,-1.24 -0.51,-1.29 -0.38,-1.34 -0.25,-1.36 -0.11,-1.39 0.01,-1.39 0.15,-1.39 0.28,-1.36 0.42,-1.33 0.54,-1.28 0.67,-1.22 0.78,-1.14 0.90,-1.07 0.99,-0.97 1.09,-0.87 1.16,-0.75 1.24,-0.64 1.29,-0.51 1.34,-0.38 1.36,-0.25 1.39,-0.11 1.39,0.01 1.39,0.15 1.36,0.28 1.33,0.42 1.28,0.54 1.22,0.67 1.14,0.78 1.07,0.90 0.97,0.99 0.87,1.09 -0.37,2.09 -1.62,3.09 -4.73,5.58 -7.85,8.07 -18.14,17.05 -28.43,26.03 -36.07,33.27 -43.72,40.51 -60.07,56.16 -76.42,71.80 -87.13,80.15 -97.83,88.50 -103.40,92.39 -108.96,96.28 -112.58,99.53 -116.19,102.79 -116.32,102.85 -116.44,102.91 -116.58,102.94 -116.71,102.97 -116.85,102.98 -116.98,102.99 -117.12,102.97 -117.25,102.95 -117.38,102.90 -117.51,102.85 -117.63,102.78 -117.75,102.71 -117.85,102.62 -117.95,102.53 -118.03,102.42 -118.11,102.31 -118.17,102.18 -118.23,102.06 -118.26,101.93 -118.30,101.79 -118.30,101.66 -118.31,101.52 -118.29,101.38 -118.27,101.25 -118.22,101.12 -118.18,100.99 -118.11,100.87 -118.04,100.75 -117.94,100.65 -117.85,100.55 -117.74,100.47 -117.63,100.39 -117.51,100.33 -117.38,100.27 -117.25,100.24 -117.12,100.20 -116.98,100.20 -116.84,100.19 -116.71,100.21 -116.57,100.23 -116.44,100.28 -116.31,100.32 -116.20,100.39 -116.08,100.47 -115.98,100.56 -115.87,100.65 -115.79,100.76 -115.71,100.87 -115.65,100.99 -115.59,101.12 -115.56,101.25 -115.53,101.38 -115.52,101.52 -115.51,101.66 -115.53,101.79 -115.56,101.93 -115.60,102.06 -115.65,102.19 -115.72,102.31 -115.79,102.42 -115.88,102.53 -115.97,102.63 -116.08,102.71 -116.19,102.79 -116.32,102.85 -116.44,102.91 -116.58,102.94 -116.71,102.97 -116.85,102.98 -116.98,102.99 -117.12,102.97 -117.25,102.95 -117.38,102.90 -117.51,102.85 -117.63,102.78 -117.75,102.71 -117.85,102.62 -117.95,102.53 -118.03,102.42 -118.11,102.31 -118.17,102.18 -118.23,102.06 -118.26,101.93 -118.30,101.79 -118.30,101.66 -118.31,101.52 -118.29,101.38 -118.27,101.25 -118.22,101.12 -118.18,100.99 -118.11,100.87 -118.04,100.75 -117.94,100.65 -117.85,100.55 -114.28,97.32 -110.70,94.09 -105.10,90.17 -99.50,86.24 -88.88,77.96 -78.25,69.69 -61.95,54.08 -45.65,38.48 -37.98,31.22 -30.31,23.96 -19.98,14.94 -9.64,5.92 -6.51,3.41 -3.37,0.90 -2.12,-0.09 -0.87,-1.09 -0.87,-1.09 L -0.87,-1.09 Z"></path></g><g transform="translate(242 304) rotate(0 -64.5 48)" stroke="none"><path fill="#1971c2" d="M 1.32,-0.44 Q 1.32,-0.44 1.35,-0.30 1.38,-0.17 1.39,-0.03 1.39,0.09 1.37,0.23 1.35,0.36 1.30,0.49 1.25,0.62 1.17,0.74 1.10,0.85 1.01,0.95 0.91,1.05 0.80,1.13 0.69,1.21 0.56,1.27 0.44,1.32 0.30,1.35 0.17,1.38 0.03,1.39 -0.09,1.39 -0.23,1.37 -0.36,1.35 -0.49,1.30 -0.62,1.25 -0.74,1.17 -0.85,1.10 -0.95,1.01 -1.05,0.91 -1.13,0.80 -1.21,0.69 -1.27,0.56 -1.32,0.44 -1.46,-0.09 -1.59,-0.62 -1.70,-0.73 -1.81,-0.85 -4.72,0.60 -7.62,2.05 -27.96,18.78 -48.29,35.51 -60.75,45.90 -73.20,56.30 -84.93,65.74 -96.66,75.19 -104.29,81.43 -111.92,87.66 -116.12,90.61 -120.31,93.55 -120.44,93.59 -120.57,93.64 -120.71,93.66 -120.85,93.67 -120.98,93.66 -121.12,93.65 -121.25,93.62 -121.38,93.58 -121.51,93.52 -121.63,93.46 -121.74,93.37 -121.85,93.29 -121.94,93.18 -122.03,93.08 -122.09,92.96 -122.16,92.84 -122.20,92.71 -122.25,92.58 -122.26,92.44 -122.28,92.31 -122.27,92.17 -122.26,92.03 -122.22,91.90 -122.19,91.77 -122.13,91.65 -122.07,91.52 -121.98,91.42 -121.90,91.31 -121.79,91.22 -121.69,91.13 -121.57,91.06 -121.45,90.99 -121.32,90.95 -121.19,90.91 -121.05,90.89 -120.92,90.87 -120.78,90.88 -120.64,90.89 -120.51,90.93 -120.38,90.97 -120.26,91.03 -120.13,91.09 -120.03,91.17 -119.92,91.26 -119.83,91.36 -119.74,91.47 -119.67,91.58 -119.60,91.70 -119.56,91.83 -119.52,91.96 -119.50,92.10 -119.48,92.24 -119.49,92.37 -119.50,92.51 -119.54,92.64 -119.58,92.78 -119.64,92.90 -119.70,93.02 -119.78,93.13 -119.87,93.24 -119.97,93.33 -120.07,93.42 -120.19,93.48 -120.31,93.55 -120.44,93.59 -120.57,93.64 -120.71,93.66 -120.85,93.67 -120.98,93.66 -121.12,93.65 -121.25,93.62 -121.38,93.58 -121.51,93.52 -121.63,93.46 -121.74,93.37 -121.85,93.29 -121.94,93.18 -122.03,93.08 -122.09,92.96 -122.16,92.84 -122.20,92.71 -122.25,92.58 -122.26,92.44 -122.28,92.31 -122.27,92.17 -122.26,92.03 -122.22,91.90 -122.19,91.77 -122.13,91.65 -122.07,91.52 -121.98,91.42 -121.90,91.31 -121.79,91.22 -121.69,91.13 -117.65,88.28 -113.62,85.43 -106.02,79.23 -98.42,73.02 -86.70,63.57 -74.98,54.13 -62.53,43.74 -50.08,33.35 -29.60,16.52 -9.12,-0.30 -5.40,-1.97 -1.68,-3.64 -0.54,-3.01 0.59,-2.37 0.96,-1.40 1.32,-0.44 1.32,-0.44 L 1.32,-0.44 Z"></path></g><g transform="translate(369 346) rotate(0 -57.5 47.5)" stroke="none"><path fill="#1971c2" d="M -0.44,-1.32 Q -0.44,-1.32 -0.30,-1.35 -0.17,-1.38 -0.03,-1.39 0.09,-1.39 0.23,-1.37 0.36,-1.35 0.49,-1.30 0.62,-1.25 0.74,-1.17 0.85,-1.10 0.95,-1.01 1.05,-0.91 1.13,-0.80 1.21,-0.69 1.27,-0.56 1.32,-0.44 1.35,-0.30 1.38,-0.17 1.39,-0.03 1.39,0.09 1.37,0.23 1.35,0.36 1.30,0.49 1.25,0.62 1.17,0.74 1.10,0.85 1.01,0.95 0.91,1.05 0.80,1.13 0.69,1.21 0.56,1.27 0.44,1.32 -0.22,1.54 -0.89,1.76 -2.89,3.06 -4.90,4.36 -16.92,15.01 -28.94,25.67 -48.23,42.77 -67.52,59.87 -78.44,68.94 -89.35,78.01 -95.68,82.61 -102.02,87.22 -102.14,87.26 -102.27,87.31 -102.41,87.33 -102.55,87.35 -102.68,87.34 -102.82,87.33 -102.95,87.30 -103.09,87.26 -103.21,87.20 -103.33,87.14 -103.44,87.06 -103.55,86.98 -103.64,86.88 -103.74,86.77 -103.80,86.66 -103.87,86.54 -103.92,86.41 -103.96,86.28 -103.98,86.14 -104.00,86.01 -104.00,85.87 -103.99,85.73 -103.95,85.60 -103.92,85.47 -103.86,85.34 -103.80,85.22 -103.72,85.11 -103.63,85.00 -103.53,84.91 -103.43,84.82 -103.31,84.75 -103.19,84.68 -103.06,84.63 -102.93,84.59 -102.80,84.57 -102.66,84.55 -102.53,84.56 -102.39,84.56 -102.26,84.60 -102.12,84.63 -102.00,84.69 -101.88,84.75 -101.77,84.84 -101.66,84.92 -101.57,85.02 -101.47,85.12 -101.40,85.24 -101.33,85.36 -101.29,85.49 -101.24,85.62 -101.22,85.75 -101.21,85.89 -101.21,86.03 -101.22,86.16 -101.26,86.30 -101.29,86.43 -101.35,86.55 -101.41,86.68 -101.49,86.79 -101.57,86.90 -101.68,86.99 -101.78,87.08 -101.90,87.15 -102.02,87.22 -102.14,87.26 -102.27,87.31 -102.41,87.33 -102.55,87.35 -102.68,87.34 -102.82,87.33 -102.95,87.30 -103.09,87.26 -103.21,87.20 -103.33,87.14 -103.44,87.06 -103.55,86.98 -103.64,86.88 -103.74,86.77 -103.80,86.66 -103.87,86.54 -103.92,86.41 -103.96,86.28 -103.98,86.14 -104.00,86.01 -104.00,85.87 -103.99,85.73 -103.95,85.60 -103.92,85.47 -103.86,85.34 -103.80,85.22 -103.72,85.11 -103.63,85.00 -103.53,84.91 -103.43,84.82 -97.25,80.31 -91.07,75.80 -80.21,66.77 -69.34,57.75 -50.07,40.66 -30.80,23.57 -18.70,12.85 -6.59,2.13 -4.35,0.68 -2.10,-0.76 -1.27,-1.04 -0.44,-1.32 -0.44,-1.32 L -0.44,-1.32 Z"></path></g><g transform="translate(284 312) rotate(0 -57.5 43.5)" stroke="none"><path fill="#1971c2" d="M 8.57,-1.4 Q 8.57,-1.4 0.13,-1.38 0.27,-1.37 0.40,-1.33 0.53,-1.29 0.65,-1.22 0.77,-1.16 0.88,-1.07 0.98,-0.98 1.07,-0.88 1.16,-0.77 1.22,-0.65 1.29,-0.53 1.33,-0.40 1.37,-0.27 1.38,-0.13 1.4,1.71 1.38,0.13 1.37,0.27 1.33,0.40 1.29,0.53 1.22,0.65 1.16,0.77 1.07,0.88 0.98,0.98 0.88,1.07 0.77,1.16 0.65,1.22 0.53,1.29 0.40,1.33 0.27,1.37 0.13,1.38 -8.57,1.4 -0.03,1.36 -0.06,1.33 -1.24,2.22 -2.41,3.12 -14.59,12.36 -26.77,21.61 -48.39,38.25 -70.01,54.90 -81.21,61.79 -92.41,68.68 -92.55,68.72 -92.68,68.75 -92.82,68.76 -92.95,68.77 -93.09,68.75 -93.22,68.73 -93.35,68.69 -93.48,68.64 -93.60,68.57 -93.72,68.50 -93.82,68.41 -93.93,68.32 -94.01,68.21 -94.09,68.10 -94.15,67.98 -94.21,67.86 -94.25,67.73 -94.28,67.59 -94.29,67.46 -94.30,67.32 -94.28,67.18 -94.26,67.05 -94.22,66.92 -94.17,66.79 -94.11,66.67 -94.04,66.55 -93.95,66.45 -93.85,66.34 -93.75,66.26 -93.64,66.18 -93.51,66.12 -93.39,66.06 -93.26,66.02 -93.12,65.99 -92.99,65.98 -92.85,65.97 -92.71,65.99 -92.58,66.01 -92.45,66.05 -92.32,66.10 -92.20,66.17 -92.08,66.24 -91.98,66.33 -91.88,66.42 -91.79,66.53 -91.71,66.64 -91.65,66.76 -91.59,66.88 -91.55,67.01 -91.52,67.15 -91.51,67.28 -91.50,67.42 -91.52,67.56 -91.54,67.69 -91.58,67.82 -91.63,67.95 -91.70,68.07 -91.77,68.19 -91.86,68.29 -91.95,68.40 -92.06,68.48 -92.17,68.56 -92.29,68.62 -92.41,68.68 -92.55,68.72 -92.68,68.75 -92.82,68.76 -92.95,68.77 -93.09,68.75 -93.22,68.73 -93.35,68.69 -93.48,68.64 -93.60,68.57 -93.72,68.50 -93.82,68.41 -93.93,68.32 -94.01,68.21 -94.09,68.10 -94.15,67.98 -94.21,67.86 -94.25,67.73 -94.28,67.59 -94.29,67.46 -94.30,67.32 -94.28,67.18 -94.26,67.05 -94.22,66.92 -94.17,66.79 -94.11,66.67 -94.04,66.55 -93.95,66.45 -93.85,66.34 -93.75,66.26 -93.64,66.18 -82.62,59.39 -71.60,52.59 -50.04,35.99 -28.47,19.38 -16.28,10.13 -4.08,0.87 -2.50,-0.22 -0.93,-1.33 -0.46,-1.36 8.57,-1.4 8.57,-1.4 L 8.57,-1.4 Z"></path></g><g transform="translate(147 312) rotate(0 -19 16.5)" stroke="none"><path fill="#1971c2" d="M 1.4,8.57 Q 1.4,8.57 1.38,0.13 1.37,0.27 1.33,0.40 1.29,0.53 1.22,0.65 1.16,0.77 1.07,0.88 0.98,0.98 0.88,1.07 0.77,1.16 0.65,1.22 0.53,1.29 0.40,1.33 0.27,1.37 0.13,1.38 -1.71,1.4 -0.13,1.38 -0.27,1.37 -0.40,1.33 -0.53,1.29 -0.65,1.22 -0.77,1.16 -0.88,1.07 -0.98,0.98 -1.07,0.88 -1.16,0.77 -1.22,0.65 -1.29,0.53 -1.33,0.40 -1.37,0.27 -1.38,0.13 -1.4,-8.57 -1.4,-0.25 -1.4,-0.49 -0.90,0.16 -0.40,0.83 -0.78,-0.21 -1.16,-1.27 -0.81,-1.54 -0.47,-1.81 -0.03,-1.82 0.40,-1.83 0.76,-1.58 1.12,-1.33 1.26,-0.91 1.4,-0.50 0.49,0.16 -0.40,0.83 0.37,0.55 1.16,0.27 0.88,0.69 0.59,1.11 -3.32,5.36 -7.25,9.61 -12.23,14.24 -17.20,18.86 -22.30,23.00 -27.40,27.14 -27.53,27.19 -27.66,27.24 -27.79,27.27 -27.93,27.30 -28.06,27.29 -28.20,27.29 -28.33,27.27 -28.47,27.24 -28.60,27.19 -28.72,27.13 -28.84,27.06 -28.95,26.98 -29.05,26.88 -29.14,26.79 -29.22,26.67 -29.29,26.56 -29.35,26.43 -29.40,26.30 -29.42,26.17 -29.45,26.03 -29.45,25.90 -29.45,25.76 -29.42,25.62 -29.40,25.49 -29.34,25.36 -29.29,25.24 -29.21,25.12 -29.14,25.01 -29.04,24.91 -28.94,24.82 -28.83,24.74 -28.71,24.66 -28.59,24.61 -28.46,24.56 -28.32,24.53 -28.19,24.51 -28.05,24.51 -27.92,24.51 -27.78,24.54 -27.65,24.56 -27.52,24.62 -27.39,24.67 -27.28,24.75 -27.17,24.82 -27.07,24.92 -26.97,25.02 -26.90,25.13 -26.82,25.25 -26.77,25.37 -26.72,25.50 -26.69,25.63 -26.66,25.77 -26.66,25.91 -26.66,26.04 -26.69,26.18 -26.72,26.31 -26.77,26.44 -26.83,26.57 -26.90,26.68 -26.98,26.79 -27.08,26.89 -27.17,26.99 -27.29,27.06 -27.40,27.14 -27.53,27.19 -27.66,27.24 -27.79,27.27 -27.93,27.30 -28.06,27.29 -28.20,27.29 -28.33,27.27 -28.47,27.24 -28.60,27.19 -28.72,27.13 -28.84,27.06 -28.95,26.98 -29.05,26.88 -29.14,26.79 -29.22,26.67 -29.29,26.56 -29.35,26.43 -29.40,26.30 -29.42,26.17 -29.45,26.03 -29.45,25.90 -29.45,25.76 -29.42,25.62 -29.40,25.49 -29.34,25.36 -29.29,25.24 -29.21,25.12 -29.14,25.01 -29.04,24.91 -28.94,24.82 -23.99,20.78 -19.04,16.75 -14.14,12.19 -9.24,7.63 -5.42,3.50 -1.59,-0.61 -1.38,-0.94 -1.16,-1.27 -0.81,-1.54 -0.47,-1.81 -0.03,-1.82 0.40,-1.83 0.76,-1.58 1.12,-1.33 1.26,-0.91 1.4,-0.50 1.4,-0.25 1.4,8.57 1.4,8.57 L 1.4,8.57 Z"></path></g><g transform="translate(176 213) rotate(0 -52 42.5)" stroke="none"><path fill="#1971c2" d="M -0.98,-0.98 Q -0.98,-0.98 -0.88,-1.07 -0.77,-1.16 -0.65,-1.22 -0.53,-1.29 -0.40,-1.33 -0.27,-1.37 -0.13,-1.38 1.11,-1.4 0.13,-1.38 0.27,-1.37 0.40,-1.33 0.53,-1.29 0.65,-1.22 0.77,-1.16 0.88,-1.07 0.98,-0.98 1.07,-0.88 1.16,-0.77 1.22,-0.65 1.29,-0.53 1.33,-0.40 1.37,-0.27 1.38,-0.13 1.4,1.11 1.38,0.13 1.37,0.27 1.33,0.40 1.29,0.53 1.22,0.65 1.16,0.77 1.07,0.88 0.98,0.98 0.70,1.27 0.41,1.56 -1.49,2.96 -3.39,4.35 -12.57,11.78 -21.74,19.21 -41.84,35.18 -61.93,51.15 -71.96,59.37 -82.00,67.59 -87.37,72.28 -92.75,76.97 -92.87,77.03 -93.00,77.09 -93.13,77.12 -93.27,77.15 -93.40,77.15 -93.54,77.16 -93.68,77.14 -93.81,77.11 -93.94,77.06 -94.07,77.02 -94.18,76.94 -94.30,76.87 -94.40,76.78 -94.50,76.68 -94.58,76.57 -94.66,76.46 -94.72,76.33 -94.77,76.21 -94.81,76.08 -94.84,75.94 -94.84,75.81 -94.85,75.67 -94.82,75.53 -94.80,75.40 -94.75,75.27 -94.70,75.14 -94.63,75.02 -94.56,74.91 -94.46,74.81 -94.37,74.71 -94.26,74.63 -94.15,74.55 -94.02,74.49 -93.90,74.43 -93.76,74.40 -93.63,74.37 -93.49,74.37 -93.36,74.36 -93.22,74.39 -93.08,74.41 -92.96,74.46 -92.83,74.51 -92.71,74.58 -92.59,74.65 -92.49,74.74 -92.39,74.84 -92.31,74.95 -92.24,75.06 -92.18,75.19 -92.12,75.31 -92.09,75.45 -92.06,75.58 -92.06,75.72 -92.05,75.85 -92.07,75.99 -92.10,76.12 -92.14,76.25 -92.19,76.38 -92.27,76.50 -92.34,76.61 -92.43,76.71 -92.53,76.81 -92.64,76.89 -92.75,76.97 -92.87,77.03 -93.00,77.09 -93.13,77.12 -93.27,77.15 -93.40,77.15 -93.54,77.16 -93.68,77.14 -93.81,77.11 -93.94,77.06 -94.07,77.02 -94.18,76.94 -94.30,76.87 -94.40,76.78 -94.50,76.68 -94.58,76.57 -94.66,76.46 -94.72,76.33 -94.77,76.21 -94.81,76.08 -94.84,75.94 -94.84,75.81 -94.85,75.67 -94.82,75.53 -94.80,75.40 -94.75,75.27 -94.70,75.14 -94.63,75.02 -94.56,74.91 -94.46,74.81 -94.37,74.71 -89.09,70.08 -83.81,65.46 -73.75,57.21 -63.69,48.97 -43.59,33.00 -23.50,17.03 -14.30,9.58 -5.10,2.14 -3.25,0.78 -1.41,-0.56 -1.20,-0.77 -0.98,-0.98 -0.98,-0.98 L -0.98,-0.98 Z"></path></g><g transform="translate(146 173) rotate(0 -49.5 38.5)" stroke="none"><path fill="#1971c2" d="M -1.06,-0.91 Q -1.06,-0.91 -0.96,-1.00 -0.86,-1.10 -0.74,-1.17 -0.63,-1.24 -0.50,-1.29 -0.37,-1.34 -0.24,-1.37 -0.10,-1.39 0.02,-1.39 0.16,-1.39 0.30,-1.36 0.43,-1.33 0.56,-1.27 0.68,-1.22 0.79,-1.14 0.91,-1.06 1.00,-0.96 1.10,-0.86 1.17,-0.74 1.24,-0.63 1.29,-0.50 1.34,-0.37 1.37,-0.24 1.39,-0.10 1.39,0.02 1.39,0.16 1.36,0.30 1.33,0.43 1.27,0.56 1.22,0.68 1.14,0.79 1.06,0.91 -0.47,2.70 -2.02,4.50 -6.82,8.42 -11.62,12.34 -25.51,23.28 -39.39,34.23 -54.07,45.19 -68.76,56.16 -75.20,61.46 -81.64,66.76 -81.77,66.81 -81.90,66.86 -82.03,66.89 -82.17,66.92 -82.30,66.92 -82.44,66.92 -82.58,66.89 -82.71,66.87 -82.84,66.81 -82.96,66.76 -83.08,66.69 -83.19,66.61 -83.29,66.51 -83.39,66.42 -83.46,66.30 -83.54,66.19 -83.59,66.06 -83.65,65.94 -83.67,65.80 -83.70,65.67 -83.70,65.53 -83.70,65.39 -83.67,65.26 -83.65,65.12 -83.60,65.00 -83.54,64.87 -83.47,64.76 -83.39,64.64 -83.30,64.54 -83.20,64.45 -83.08,64.37 -82.97,64.29 -82.84,64.24 -82.72,64.19 -82.58,64.16 -82.45,64.13 -82.31,64.13 -82.17,64.13 -82.04,64.16 -81.90,64.19 -81.78,64.24 -81.65,64.29 -81.54,64.37 -81.42,64.44 -81.32,64.54 -81.23,64.64 -81.15,64.75 -81.07,64.86 -81.02,64.99 -80.97,65.12 -80.94,65.25 -80.91,65.39 -80.91,65.52 -80.91,65.66 -80.94,65.79 -80.97,65.93 -81.02,66.06 -81.07,66.18 -81.15,66.30 -81.22,66.41 -81.32,66.51 -81.42,66.61 -81.53,66.68 -81.64,66.76 -81.77,66.81 -81.90,66.86 -82.03,66.89 -82.17,66.92 -82.30,66.92 -82.44,66.92 -82.58,66.89 -82.71,66.87 -82.84,66.81 -82.96,66.76 -83.08,66.69 -83.19,66.61 -83.29,66.51 -83.39,66.42 -83.46,66.30 -83.54,66.19 -83.59,66.06 -83.65,65.94 -83.67,65.80 -83.70,65.67 -83.70,65.53 -83.70,65.39 -83.67,65.26 -83.65,65.12 -83.60,65.00 -83.54,64.87 -83.47,64.76 -83.39,64.64 -83.30,64.54 -83.20,64.45 -76.84,59.20 -70.48,53.96 -55.79,42.98 -41.10,32.01 -27.23,21.08 -13.37,10.15 -8.67,6.32 -3.97,2.49 -2.52,0.79 -1.06,-0.91 -1.06,-0.91 L -1.06,-0.91 Z"></path></g></svg>