<?xml version="1.0" standalone="no"?>
<!DOCTYPE svg PUBLIC "-//W3C//DTD SVG 1.1//EN" "http://www.w3.org/Graphics/SVG/1.1/DTD/svg11.dtd">
<svg version="1.1" xmlns="http://www.w3.org/2000/svg" viewBox="0 0 1363.4720347377984 773.2168905359003" width="4090.416104213395" height="2319.650671607701"><!-- svg-source:excalidraw --><metadata></metadata><defs><style class="style-fonts">
      </style></defs><g transform="translate(502.73472907288874 88.27296477459953) rotate(0 114.8431204479781 332.3393094528078)" stroke="none"><path fill="#56a2e8" d="M 8.57,-1.4 Q 8.57,-1.4 0.13,-1.38 0.27,-1.37 0.40,-1.33 0.53,-1.29 0.65,-1.22 0.77,-1.16 0.88,-1.07 0.98,-0.98 1.07,-0.88 1.16,-0.77 1.22,-0.65 1.29,-0.53 1.33,-0.40 1.37,-0.27 1.38,-0.13 1.4,1.71 1.38,0.13 1.37,0.27 1.33,0.40 1.29,0.53 1.22,0.65 1.16,0.77 1.07,0.88 0.98,0.98 0.88,1.07 0.77,1.16 0.65,1.22 0.53,1.29 0.40,1.33 0.27,1.37 0.13,1.38 -8.57,1.4 -0.64,1.4 -1.28,1.4 -4.81,1.4 -8.34,1.4 -18.71,1.39 -29.07,1.39 -54.73,5.55 -80.39,9.71 -104.11,15.63 -127.82,21.54 -150.24,29.62 -172.65,37.70 -194.40,47.81 -216.14,57.91 -238.85,73.20 -261.56,88.49 -278.33,102.20 -295.10,115.90 -312.76,136.82 -330.42,157.74 -342.76,175.55 -355.10,193.35 -364.78,213.43 -374.46,233.50 -381.55,255.06 -388.63,276.62 -392.16,291.20 -395.70,305.77 -396.51,320.68 -397.31,335.58 -394.84,354.55 -392.37,373.52 -388.59,390.35 -384.80,407.19 -379.07,422.94 -373.35,438.69 -366.03,453.25 -358.71,467.81 -343.57,487.54 -328.42,507.27 -305.50,526.73 -282.58,546.19 -257.68,562.00 -232.78,577.82 -201.12,592.13 -169.46,606.44 -137.95,617.12 -106.43,627.80 -62.81,636.66 -19.20,645.53 26.62,649.32 72.44,653.11 124.52,650.52 176.59,647.93 213.82,643.44 251.04,638.95 290.78,627.73 330.53,616.52 360.31,605.48 390.08,594.44 422.56,576.12 455.04,557.81 485.03,534.58 515.03,511.35 540.28,483.72 565.52,456.09 580.06,438.13 594.59,420.17 602.76,406.51 610.93,392.84 616.30,363.03 621.66,333.22 620.85,306.86 620.04,280.49 608.46,250.08 596.89,219.67 578.31,192.29 559.73,164.92 542.50,146.47 525.27,128.03 489.13,107.28 453.00,86.53 415.05,70.70 377.11,54.86 343.42,45.03 309.73,35.19 273.97,28.99 238.22,22.79 207.21,18.72 176.21,14.66 134.45,13.91 92.70,13.16 55.16,16.63 17.62,20.10 -4.64,23.43 -26.90,26.76 -46.50,32.29 -66.09,37.83 -66.23,37.83 -66.37,37.82 -66.50,37.79 -66.64,37.76 -66.76,37.71 -66.89,37.65 -67.00,37.58 -67.11,37.50 -67.21,37.40 -67.30,37.30 -67.38,37.18 -67.45,37.07 -67.50,36.94 -67.55,36.81 -67.58,36.68 -67.60,36.54 -67.60,36.41 -67.60,36.27 -67.57,36.13 -67.54,36.00 -67.48,35.87 -67.43,35.75 -67.35,35.64 -67.27,35.52 -67.17,35.43 -67.07,35.33 -66.96,35.26 -66.84,35.19 -66.71,35.14 -66.59,35.09 -66.45,35.06 -66.32,35.04 -66.18,35.04 -66.04,35.04 -65.91,35.07 -65.77,35.10 -65.65,35.16 -65.52,35.21 -65.41,35.29 -65.30,35.37 -65.20,35.47 -65.11,35.56 -65.03,35.68 -64.96,35.80 -64.91,35.92 -64.86,36.05 -64.83,36.19 -64.81,36.32 -64.81,36.46 -64.82,36.60 -64.84,36.73 -64.87,36.86 -64.93,36.99 -64.98,37.12 -65.06,37.23 -65.14,37.34 -65.24,37.44 -65.34,37.53 -65.45,37.60 -65.57,37.68 -65.70,37.73 -65.82,37.78 -65.96,37.80 -66.09,37.83 -66.23,37.83 -66.37,37.82 -66.50,37.79 -66.64,37.76 -66.76,37.71 -66.89,37.65 -67.00,37.58 -67.11,37.50 -67.21,37.40 -67.30,37.30 -67.38,37.18 -67.45,37.07 -67.50,36.94 -67.55,36.81 -67.58,36.68 -67.60,36.54 -67.60,36.41 -67.60,36.27 -67.57,36.13 -67.54,36.00 -67.48,35.87 -67.43,35.75 -67.35,35.64 -67.27,35.52 -67.17,35.43 -67.07,35.33 -66.96,35.26 -66.84,35.19 -66.71,35.14 -66.59,35.09 -47.04,29.55 -27.49,24.02 -5.10,20.67 17.28,17.32 54.94,13.84 92.59,10.36 134.50,11.12 176.41,11.87 207.53,15.94 238.64,20.02 274.50,26.24 310.36,32.46 344.20,42.34 378.04,52.22 416.14,68.12 454.24,84.02 490.62,104.93 527.01,125.83 544.47,144.50 561.92,163.17 580.65,190.77 599.37,218.37 611.08,249.16 622.78,279.94 623.62,306.68 624.46,333.42 619.01,363.63 613.55,393.83 605.22,407.80 596.89,421.77 582.27,439.84 567.65,457.92 542.29,485.66 516.92,513.41 486.76,536.78 456.59,560.14 423.93,578.56 391.26,596.98 361.33,608.08 331.40,619.18 291.49,630.44 251.59,641.69 214.21,646.21 176.83,650.72 124.61,653.32 72.40,655.91 26.40,652.10 -19.59,648.30 -63.38,639.40 -107.16,630.50 -138.82,619.78 -170.49,609.05 -202.30,594.66 -234.11,580.28 -259.18,564.36 -284.24,548.44 -307.34,528.82 -330.45,509.20 -345.77,489.25 -361.09,469.30 -368.50,454.55 -375.92,439.80 -381.70,423.89 -387.48,407.98 -391.31,390.99 -395.13,374.01 -397.62,354.85 -400.11,335.69 -399.29,320.53 -398.47,305.37 -394.90,290.61 -391.32,275.86 -384.19,254.15 -377.06,232.45 -367.29,212.20 -357.52,191.94 -345.08,173.99 -332.64,156.04 -314.85,134.97 -297.06,113.90 -280.14,100.07 -263.23,86.25 -240.37,70.86 -217.52,55.48 -195.62,45.29 -173.71,35.11 -151.18,26.99 -128.64,18.87 -104.80,12.91 -80.96,6.96 -55.13,2.78 -29.30,-1.39 -18.82,-1.39 -8.34,-1.4 -4.81,-1.4 -1.28,-1.4 -0.64,-1.4 8.57,-1.4 8.57,-1.4 L 8.57,-1.4 Z"></path></g><g transform="translate(270.4821614630116 188.35970661753004) rotate(0 -81.48087316700116 117.40944716189935)" stroke="none"><path fill="#56a2e8" d="M -0.62,-1.25 Q -0.62,-1.25 -0.49,-1.30 -0.36,-1.35 -0.23,-1.37 -0.09,-1.39 0.03,-1.39 0.17,-1.38 0.30,-1.35 0.44,-1.32 0.56,-1.27 0.69,-1.21 0.80,-1.13 0.91,-1.05 1.01,-0.95 1.10,-0.85 1.17,-0.74 1.25,-0.62 1.30,-0.49 1.35,-0.36 1.37,-0.23 1.39,-0.09 1.39,0.03 1.38,0.17 1.35,0.30 1.32,0.44 1.27,0.56 1.21,0.69 1.13,0.80 1.05,0.91 0.95,1.01 0.85,1.10 0.74,1.17 0.62,1.25 0.10,1.49 -0.41,1.73 -4.14,6.27 -7.87,10.80 -25.82,35.24 -43.77,59.68 -59.80,81.84 -75.83,104.00 -97.31,136.88 -118.79,169.76 -128.65,185.99 -138.51,202.22 -138.61,202.31 -138.71,202.40 -138.83,202.47 -138.95,202.54 -139.08,202.59 -139.21,202.63 -139.34,202.65 -139.48,202.67 -139.61,202.66 -139.75,202.65 -139.88,202.62 -140.02,202.59 -140.14,202.53 -140.27,202.47 -140.37,202.39 -140.48,202.30 -140.58,202.20 -140.67,202.10 -140.74,201.98 -140.81,201.86 -140.85,201.73 -140.90,201.60 -140.92,201.47 -140.94,201.33 -140.93,201.20 -140.92,201.06 -140.89,200.93 -140.85,200.79 -140.80,200.67 -140.74,200.55 -140.65,200.44 -140.57,200.33 -140.47,200.23 -140.37,200.14 -140.25,200.07 -140.13,200.00 -140.00,199.96 -139.87,199.91 -139.74,199.89 -139.60,199.87 -139.46,199.88 -139.33,199.89 -139.19,199.92 -139.06,199.96 -138.94,200.01 -138.81,200.07 -138.70,200.16 -138.59,200.24 -138.50,200.34 -138.41,200.44 -138.34,200.56 -138.27,200.68 -138.22,200.81 -138.18,200.94 -138.16,201.07 -138.14,201.21 -138.15,201.35 -138.16,201.48 -138.19,201.62 -138.22,201.75 -138.28,201.87 -138.34,202.00 -138.42,202.11 -138.51,202.22 -138.61,202.31 -138.71,202.40 -138.83,202.47 -138.95,202.54 -139.08,202.59 -139.21,202.63 -139.34,202.65 -139.48,202.67 -139.61,202.66 -139.75,202.65 -139.88,202.62 -140.02,202.59 -140.14,202.53 -140.27,202.47 -140.37,202.39 -140.48,202.30 -140.58,202.20 -140.67,202.10 -140.74,201.98 -140.81,201.86 -140.85,201.73 -140.90,201.60 -140.92,201.47 -140.94,201.33 -140.93,201.20 -140.92,201.06 -140.89,200.93 -140.85,200.79 -140.80,200.67 -140.74,200.55 -130.95,184.41 -121.16,168.27 -99.65,135.34 -78.14,102.42 -62.09,80.23 -46.04,58.04 -28.06,33.56 -10.08,9.08 -6.12,4.31 -2.15,-0.45 -1.39,-0.85 -0.62,-1.25 -0.62,-1.25 L -0.62,-1.25 Z"></path></g><g transform="translate(441.1428879387777 107.52041512900928) rotate(0 -143.71429597959246 207.87246382762496)" stroke="none"><path fill="#56a2e8" d="M -8.57,1.4 Q -8.57,1.4 -0.13,1.38 -0.27,1.37 -0.40,1.33 -0.53,1.29 -0.65,1.22 -0.77,1.16 -0.88,1.07 -0.98,0.98 -1.07,0.88 -1.16,0.77 -1.22,0.65 -1.29,0.53 -1.33,0.40 -1.37,0.27 -1.38,0.13 -1.4,-1.71 -1.38,-0.13 -1.37,-0.27 -1.33,-0.40 -1.29,-0.53 -1.22,-0.65 -1.16,-0.77 -1.07,-0.88 -0.98,-0.98 -0.88,-1.07 -0.77,-1.16 -0.65,-1.22 -0.53,-1.29 -0.40,-1.33 -0.27,-1.37 -0.13,-1.38 8.57,-1.4 1.05,-1.26 2.10,-1.13 2.70,0.47 3.31,2.08 -5.94,17.32 -15.21,32.56 -54.13,81.11 -93.05,129.66 -117.30,160.65 -141.55,191.63 -170.03,230.21 -198.51,268.79 -219.47,299.28 -240.42,329.77 -252.49,351.07 -264.55,372.38 -269.70,383.47 -274.84,394.56 -274.93,394.67 -275.02,394.77 -275.13,394.85 -275.24,394.94 -275.36,394.99 -275.49,395.05 -275.62,395.09 -275.75,395.12 -275.89,395.13 -276.03,395.14 -276.16,395.12 -276.30,395.10 -276.43,395.06 -276.56,395.01 -276.68,394.94 -276.79,394.87 -276.90,394.78 -277.00,394.69 -277.08,394.58 -277.16,394.47 -277.22,394.35 -277.28,394.22 -277.32,394.09 -277.35,393.96 -277.36,393.82 -277.37,393.68 -277.35,393.55 -277.33,393.41 -277.29,393.28 -277.24,393.15 -277.17,393.03 -277.10,392.92 -277.01,392.81 -276.92,392.71 -276.81,392.63 -276.70,392.55 -276.58,392.49 -276.45,392.43 -276.32,392.39 -276.19,392.36 -276.05,392.35 -275.91,392.34 -275.78,392.36 -275.64,392.38 -275.51,392.42 -275.38,392.47 -275.26,392.54 -275.15,392.61 -275.04,392.70 -274.94,392.79 -274.86,392.90 -274.78,393.01 -274.72,393.13 -274.66,393.26 -274.62,393.39 -274.59,393.52 -274.58,393.66 -274.57,393.80 -274.59,393.93 -274.61,394.07 -274.65,394.20 -274.70,394.33 -274.77,394.45 -274.84,394.56 -274.93,394.67 -275.02,394.77 -275.13,394.85 -275.24,394.94 -275.36,394.99 -275.49,395.05 -275.62,395.09 -275.75,395.12 -275.89,395.13 -276.03,395.14 -276.16,395.12 -276.30,395.10 -276.43,395.06 -276.56,395.01 -276.68,394.94 -276.79,394.87 -276.90,394.78 -277.00,394.69 -277.08,394.58 -277.16,394.47 -277.22,394.35 -277.28,394.22 -277.32,394.09 -277.35,393.96 -277.36,393.82 -277.37,393.68 -277.35,393.55 -277.33,393.41 -277.29,393.28 -277.24,393.15 -272.14,382.13 -267.05,371.10 -254.92,349.69 -242.80,328.28 -221.79,297.72 -200.79,267.16 -172.28,228.55 -143.78,189.94 -119.51,158.93 -95.24,127.92 -56.37,79.44 -17.50,30.95 -8.48,16.35 0.53,1.76 0.49,1.45 0.46,1.13 0.23,1.26 -8.57,1.4 -8.57,1.4 L -8.57,1.4 Z"></path></g><g transform="translate(629.7679014119931 117.78572198469442) rotate(0 -167.45281808336466 244.44261950100346)" stroke="none"><path fill="#56a2e8" d="M -0.77,1.16 Q -0.77,1.16 -0.88,1.07 -0.98,0.99 -1.07,0.88 -1.16,0.77 -1.22,0.65 -1.29,0.53 -1.33,0.40 -1.37,0.27 -1.38,0.13 -1.39,0.00 -1.38,-0.13 -1.37,-0.27 -1.33,-0.40 -1.29,-0.53 -1.22,-0.65 -1.16,-0.77 -1.07,-0.88 -0.99,-0.98 -0.88,-1.07 -0.77,-1.16 -0.65,-1.22 -0.53,-1.29 -0.40,-1.33 -0.27,-1.37 -0.13,-1.38 -0.00,-1.39 0.13,-1.38 0.27,-1.37 0.40,-1.33 0.53,-1.29 0.65,-1.22 0.77,-1.16 2.02,-0.12 3.27,0.91 0.15,7.86 -2.96,14.82 -17.35,35.09 -31.75,55.36 -65.56,99.80 -99.36,144.23 -137.75,195.63 -176.14,247.03 -211.05,296.13 -245.95,345.24 -268.21,378.44 -290.46,411.64 -302.23,431.12 -313.99,450.60 -319.31,459.81 -324.64,469.02 -324.74,469.11 -324.84,469.21 -324.95,469.28 -325.07,469.35 -325.20,469.40 -325.33,469.45 -325.46,469.47 -325.60,469.50 -325.73,469.49 -325.87,469.49 -326.01,469.46 -326.14,469.43 -326.26,469.37 -326.39,469.31 -326.50,469.23 -326.61,469.15 -326.71,469.05 -326.80,468.95 -326.87,468.84 -326.95,468.72 -326.99,468.59 -327.04,468.46 -327.06,468.33 -327.09,468.19 -327.08,468.05 -327.08,467.92 -327.05,467.78 -327.02,467.65 -326.96,467.53 -326.90,467.40 -326.82,467.29 -326.74,467.18 -326.64,467.08 -326.54,466.99 -326.43,466.92 -326.31,466.84 -326.18,466.80 -326.05,466.75 -325.92,466.72 -325.78,466.70 -325.65,466.71 -325.51,466.71 -325.38,466.74 -325.24,466.77 -325.12,466.83 -324.99,466.89 -324.88,466.97 -324.77,467.05 -324.67,467.15 -324.58,467.25 -324.51,467.36 -324.44,467.48 -324.39,467.61 -324.34,467.74 -324.32,467.87 -324.29,468.01 -324.30,468.14 -324.30,468.28 -324.33,468.41 -324.36,468.55 -324.42,468.67 -324.48,468.80 -324.56,468.91 -324.64,469.02 -324.74,469.11 -324.84,469.21 -324.95,469.28 -325.07,469.35 -325.20,469.40 -325.33,469.45 -325.46,469.47 -325.60,469.50 -325.73,469.49 -325.87,469.49 -326.01,469.46 -326.14,469.43 -326.26,469.37 -326.39,469.31 -326.50,469.23 -326.61,469.15 -326.71,469.05 -326.80,468.95 -326.87,468.84 -326.95,468.72 -326.99,468.59 -327.04,468.46 -327.06,468.33 -327.09,468.19 -327.08,468.05 -327.08,467.92 -327.05,467.78 -327.02,467.65 -326.96,467.53 -326.90,467.40 -321.65,458.29 -316.40,449.17 -304.61,429.65 -292.82,410.14 -270.54,376.89 -248.26,343.65 -213.33,294.51 -178.40,245.38 -140.00,193.96 -101.60,142.55 -67.80,98.12 -34.00,53.70 -19.69,33.55 -5.37,13.40 -2.40,7.53 0.57,1.65 -0.10,1.41 -0.77,1.16 -0.77,1.16 L -0.77,1.16 Z"></path></g><g transform="translate(772.1990340346249 147.29847919478937) rotate(0 -165.5280730479236 239.95154775164113)" stroke="none"><path fill="#56a2e8" d="M -1.28,-0.55 Q -1.28,-0.55 -1.22,-0.67 -1.15,-0.79 -1.06,-0.89 -0.97,-1.00 -0.87,-1.08 -0.76,-1.17 -0.64,-1.23 -0.51,-1.29 -0.38,-1.33 -0.25,-1.37 -0.11,-1.38 0.01,-1.39 0.15,-1.38 0.28,-1.36 0.42,-1.32 0.55,-1.28 0.67,-1.22 0.79,-1.15 0.89,-1.06 1.00,-0.97 1.08,-0.87 1.17,-0.76 1.23,-0.64 1.29,-0.51 1.33,-0.38 1.37,-0.25 1.38,-0.11 1.39,0.01 1.38,0.15 1.36,0.28 1.32,0.42 1.28,0.55 0.30,2.84 -0.68,5.13 -8.58,17.87 -16.47,30.61 -39.99,63.27 -63.50,95.93 -105.08,152.35 -146.66,208.76 -183.80,261.98 -220.95,315.20 -244.97,351.11 -268.99,387.02 -284.30,410.53 -299.60,434.05 -299.71,434.14 -299.81,434.23 -299.93,434.29 -300.05,434.36 -300.18,434.40 -300.32,434.44 -300.45,434.46 -300.59,434.47 -300.73,434.46 -300.86,434.45 -300.99,434.41 -301.13,434.37 -301.25,434.31 -301.37,434.25 -301.48,434.16 -301.58,434.07 -301.67,433.97 -301.76,433.86 -301.83,433.74 -301.89,433.62 -301.93,433.49 -301.98,433.36 -301.99,433.23 -302.01,433.09 -301.99,432.95 -301.98,432.82 -301.94,432.68 -301.91,432.55 -301.84,432.43 -301.78,432.31 -301.69,432.20 -301.61,432.10 -301.50,432.01 -301.40,431.92 -301.28,431.85 -301.16,431.79 -301.03,431.74 -300.90,431.70 -300.76,431.69 -300.62,431.67 -300.49,431.68 -300.35,431.70 -300.22,431.73 -300.09,431.77 -299.96,431.84 -299.84,431.90 -299.74,431.98 -299.63,432.07 -299.54,432.18 -299.45,432.28 -299.39,432.40 -299.32,432.52 -299.28,432.65 -299.24,432.78 -299.22,432.92 -299.21,433.06 -299.22,433.19 -299.23,433.33 -299.27,433.46 -299.31,433.59 -299.37,433.71 -299.43,433.84 -299.52,433.94 -299.60,434.05 -299.71,434.14 -299.81,434.23 -299.93,434.29 -300.05,434.36 -300.18,434.40 -300.32,434.44 -300.45,434.46 -300.59,434.47 -300.73,434.46 -300.86,434.45 -300.99,434.41 -301.13,434.37 -301.25,434.31 -301.37,434.25 -301.48,434.16 -301.58,434.07 -301.67,433.97 -301.76,433.86 -301.83,433.74 -301.89,433.62 -301.93,433.49 -301.98,433.36 -301.99,433.23 -302.01,433.09 -301.99,432.95 -301.98,432.82 -301.94,432.68 -301.91,432.55 -301.84,432.43 -301.78,432.31 -286.55,408.89 -271.33,385.48 -247.29,349.55 -223.26,313.62 -186.10,260.38 -148.94,207.13 -107.35,150.71 -65.77,94.29 -42.28,61.67 -18.80,29.05 -10.98,16.44 -3.16,3.84 -2.22,1.64 -1.28,-0.55 -1.28,-0.55 L -1.28,-0.55 Z"></path></g><g transform="translate(891.5332262319653 196.058686759294) rotate(0 -180.92603333145144 249.57527292884603)" stroke="none"><path fill="#56a2e8" d="M -1.37,-0.27 Q -1.37,-0.27 -1.33,-0.40 -1.29,-0.53 -1.22,-0.65 -1.16,-0.77 -1.07,-0.88 -0.98,-0.99 -0.88,-1.07 -0.77,-1.16 -0.65,-1.22 -0.53,-1.29 -0.40,-1.33 -0.27,-1.37 -0.13,-1.38 0.00,-1.39 0.13,-1.38 0.27,-1.37 0.40,-1.33 0.53,-1.29 0.65,-1.22 0.77,-1.16 0.88,-1.07 0.99,-0.98 1.07,-0.88 1.16,-0.77 1.22,-0.65 1.29,-0.53 1.33,-0.40 1.37,-0.27 1.38,-0.13 1.39,0.00 1.38,0.13 1.37,0.27 1.02,1.97 0.68,3.66 -4.35,13.59 -9.39,23.51 -32.45,54.12 -55.50,84.74 -96.20,136.58 -136.90,188.43 -169.75,232.62 -202.60,276.81 -229.93,316.23 -257.26,355.65 -280.88,389.48 -304.50,423.32 -318.24,442.49 -331.98,461.66 -339.27,471.03 -346.56,480.40 -346.67,480.48 -346.78,480.56 -346.91,480.62 -347.03,480.67 -347.17,480.70 -347.30,480.73 -347.44,480.74 -347.57,480.74 -347.71,480.72 -347.84,480.69 -347.97,480.65 -348.10,480.60 -348.22,480.52 -348.33,480.45 -348.43,480.36 -348.53,480.26 -348.61,480.15 -348.69,480.04 -348.75,479.91 -348.80,479.79 -348.83,479.65 -348.86,479.52 -348.87,479.38 -348.87,479.24 -348.85,479.11 -348.82,478.97 -348.78,478.85 -348.73,478.72 -348.65,478.60 -348.58,478.49 -348.49,478.39 -348.39,478.29 -348.28,478.21 -348.17,478.13 -348.04,478.07 -347.92,478.02 -347.78,477.99 -347.65,477.96 -347.51,477.95 -347.37,477.95 -347.24,477.97 -347.10,477.99 -346.98,478.04 -346.85,478.09 -346.73,478.17 -346.62,478.24 -346.52,478.33 -346.42,478.43 -346.34,478.54 -346.26,478.65 -346.20,478.78 -346.15,478.90 -346.12,479.04 -346.09,479.17 -346.08,479.31 -346.08,479.44 -346.10,479.58 -346.12,479.71 -346.17,479.84 -346.22,479.97 -346.30,480.09 -346.37,480.20 -346.46,480.30 -346.56,480.40 -346.67,480.48 -346.78,480.56 -346.91,480.62 -347.03,480.67 -347.17,480.70 -347.30,480.73 -347.44,480.74 -347.57,480.74 -347.71,480.72 -347.84,480.69 -347.97,480.65 -348.10,480.60 -348.22,480.52 -348.33,480.45 -348.43,480.36 -348.53,480.26 -348.61,480.15 -348.69,480.04 -348.75,479.91 -348.80,479.79 -348.83,479.65 -348.86,479.52 -348.87,479.38 -348.87,479.24 -348.85,479.11 -348.82,478.97 -348.78,478.85 -348.73,478.72 -348.65,478.60 -348.58,478.49 -341.40,469.24 -334.22,459.99 -320.50,440.84 -306.78,421.70 -283.17,387.87 -259.56,354.05 -232.22,314.61 -204.87,275.18 -172.00,230.95 -139.13,186.73 -98.43,134.88 -57.72,83.03 -34.75,52.53 -11.77,22.03 -6.86,12.39 -1.96,2.74 -1.66,1.23 -1.37,-0.27 -1.37,-0.27 L -1.37,-0.27 Z"></path></g><g transform="translate(991.6199680748957 249.95154775164121) rotate(0 -130.8826624099862 211.0803722200266)" stroke="none"><path fill="#56a2e8" d="M -8.57,1.4 Q -8.57,1.4 -0.13,1.38 -0.27,1.37 -0.40,1.33 -0.53,1.29 -0.65,1.22 -0.77,1.16 -0.88,1.07 -0.98,0.98 -1.07,0.88 -1.16,0.77 -1.22,0.65 -1.29,0.53 -1.33,0.40 -1.37,0.27 -1.38,0.13 -1.4,-1.71 -1.38,-0.13 -1.37,-0.27 -1.33,-0.40 -1.29,-0.53 -1.22,-0.65 -1.16,-0.77 -1.07,-0.88 -0.98,-0.98 -0.88,-1.07 -0.77,-1.16 -0.65,-1.22 -0.53,-1.29 -0.40,-1.33 -0.27,-1.37 -0.13,-1.38 8.57,-1.4 1.18,-1.13 2.37,-0.87 0.55,8.47 -1.25,17.81 -17.99,48.24 -34.73,78.67 -71.64,133.96 -108.55,189.24 -137.58,231.63 -166.61,274.01 -189.46,308.67 -212.31,343.33 -225.01,362.57 -237.72,381.81 -243.82,392.18 -249.93,402.55 -250.03,402.64 -250.13,402.73 -250.25,402.80 -250.36,402.88 -250.49,402.92 -250.62,402.97 -250.76,402.99 -250.89,403.01 -251.03,403.01 -251.17,403.00 -251.30,402.97 -251.43,402.94 -251.56,402.88 -251.68,402.82 -251.79,402.74 -251.90,402.66 -252.00,402.56 -252.09,402.46 -252.16,402.34 -252.23,402.22 -252.28,402.10 -252.33,401.97 -252.35,401.83 -252.37,401.70 -252.37,401.56 -252.36,401.42 -252.33,401.29 -252.30,401.15 -252.24,401.03 -252.18,400.91 -252.10,400.79 -252.02,400.68 -251.92,400.59 -251.82,400.50 -251.70,400.43 -251.58,400.35 -251.45,400.31 -251.33,400.26 -251.19,400.24 -251.05,400.22 -250.92,400.22 -250.78,400.23 -250.65,400.26 -250.51,400.29 -250.39,400.35 -250.26,400.41 -250.15,400.49 -250.04,400.57 -249.95,400.67 -249.86,400.77 -249.78,400.89 -249.71,401.01 -249.67,401.13 -249.62,401.26 -249.60,401.40 -249.58,401.53 -249.58,401.67 -249.59,401.81 -249.62,401.94 -249.65,402.08 -249.71,402.20 -249.77,402.32 -249.85,402.44 -249.93,402.55 -250.03,402.64 -250.13,402.73 -250.25,402.80 -250.36,402.88 -250.49,402.92 -250.62,402.97 -250.76,402.99 -250.89,403.01 -251.03,403.01 -251.17,403.00 -251.30,402.97 -251.43,402.94 -251.56,402.88 -251.68,402.82 -251.79,402.74 -251.90,402.66 -252.00,402.56 -252.09,402.46 -252.16,402.34 -252.23,402.22 -252.28,402.10 -252.33,401.97 -252.35,401.83 -252.37,401.70 -252.37,401.56 -252.36,401.42 -252.33,401.29 -252.30,401.15 -252.24,401.03 -252.18,400.91 -246.14,390.62 -240.09,380.33 -227.37,361.06 -214.65,341.79 -191.79,307.12 -168.93,272.45 -139.90,230.06 -110.87,187.68 -73.99,132.45 -37.12,77.22 -20.50,47.02 -3.87,16.82 -1.84,8.85 0.19,0.87 0.09,1.13 -8.57,1.4 -8.57,1.4 L -8.57,1.4 Z"></path></g><g transform="translate(1071.176096206456 351.32145295153236) rotate(0 -103.29465023533214 143.0727143011122)" stroke="none"><path fill="#56a2e8" d="M -1.25,-0.62 Q -1.25,-0.62 -1.17,-0.74 -1.10,-0.85 -1.01,-0.95 -0.91,-1.05 -0.80,-1.13 -0.69,-1.21 -0.56,-1.27 -0.44,-1.32 -0.30,-1.35 -0.17,-1.38 -0.03,-1.39 0.09,-1.39 0.23,-1.37 0.36,-1.35 0.49,-1.30 0.62,-1.25 0.74,-1.17 0.85,-1.10 0.95,-1.01 1.05,-0.91 1.13,-0.80 1.21,-0.69 1.27,-0.56 1.32,-0.44 1.35,-0.30 1.38,-0.17 1.39,-0.03 1.39,0.09 1.37,0.23 1.35,0.36 1.30,0.49 1.25,0.62 0.27,2.57 -0.69,4.52 -8.90,18.04 -17.10,31.55 -37.57,61.41 -58.04,91.27 -88.81,132.51 -119.58,173.75 -141.05,201.74 -162.52,229.73 -173.35,244.14 -184.18,258.55 -184.29,258.63 -184.40,258.71 -184.52,258.77 -184.65,258.83 -184.78,258.86 -184.91,258.90 -185.05,258.90 -185.19,258.91 -185.32,258.89 -185.46,258.87 -185.59,258.82 -185.72,258.77 -185.83,258.70 -185.95,258.63 -186.05,258.54 -186.15,258.44 -186.23,258.33 -186.32,258.22 -186.37,258.10 -186.43,257.97 -186.46,257.84 -186.50,257.71 -186.50,257.57 -186.51,257.43 -186.49,257.30 -186.47,257.16 -186.42,257.03 -186.37,256.90 -186.30,256.79 -186.23,256.67 -186.14,256.57 -186.05,256.47 -185.94,256.39 -185.82,256.31 -185.70,256.25 -185.58,256.19 -185.44,256.16 -185.31,256.12 -185.17,256.12 -185.04,256.11 -184.90,256.13 -184.76,256.15 -184.63,256.20 -184.51,256.25 -184.39,256.32 -184.27,256.39 -184.17,256.48 -184.07,256.58 -183.99,256.69 -183.91,256.80 -183.85,256.92 -183.79,257.05 -183.76,257.18 -183.73,257.31 -183.72,257.45 -183.71,257.59 -183.73,257.72 -183.76,257.86 -183.80,257.99 -183.85,258.12 -183.92,258.23 -183.99,258.35 -184.08,258.45 -184.18,258.55 -184.29,258.63 -184.40,258.71 -184.52,258.77 -184.65,258.83 -184.78,258.86 -184.91,258.90 -185.05,258.90 -185.19,258.91 -185.32,258.89 -185.46,258.87 -185.59,258.82 -185.72,258.77 -185.83,258.70 -185.95,258.63 -186.05,258.54 -186.15,258.44 -186.23,258.33 -186.32,258.22 -186.37,258.10 -186.43,257.97 -186.46,257.84 -186.50,257.71 -186.50,257.57 -186.51,257.43 -186.49,257.30 -186.47,257.16 -186.42,257.03 -186.37,256.90 -186.30,256.79 -186.23,256.67 -175.49,242.35 -164.75,228.03 -143.28,200.04 -121.81,172.06 -91.06,130.85 -60.32,89.64 -39.89,59.84 -19.46,30.03 -11.30,16.60 -3.15,3.17 -2.20,1.27 -1.25,-0.62 -1.25,-0.62 L -1.25,-0.62 Z"></path></g><g transform="translate(480.9209520045579 180.66072647576618) rotate(0 -135.37373415934837 182.85077836689234)" stroke="none"><path fill="#56a2e8" d="M 8.57,-1.4 Q 8.57,-1.4 0.13,-1.38 0.27,-1.37 0.40,-1.33 0.53,-1.29 0.65,-1.22 0.77,-1.16 0.88,-1.07 0.98,-0.98 1.07,-0.88 1.16,-0.77 1.22,-0.65 1.29,-0.53 1.33,-0.40 1.37,-0.27 1.38,-0.13 1.4,1.71 1.38,0.13 1.37,0.27 1.33,0.40 1.29,0.53 1.22,0.65 1.16,0.77 1.07,0.88 0.98,0.98 0.88,1.07 0.77,1.16 0.65,1.22 0.53,1.29 0.40,1.33 0.27,1.37 0.13,1.38 -8.57,1.4 -0.01,1.33 -0.03,1.26 -2.83,4.90 -5.63,8.55 -26.39,35.81 -47.15,63.06 -92.50,125.45 -137.84,187.84 -165.01,225.77 -192.18,263.71 -211.23,289.43 -230.28,315.15 -240.22,327.47 -250.17,339.78 -250.28,339.86 -250.39,339.94 -250.52,339.99 -250.65,340.05 -250.78,340.07 -250.91,340.10 -251.05,340.10 -251.19,340.10 -251.32,340.08 -251.46,340.05 -251.59,340.00 -251.71,339.95 -251.83,339.88 -251.94,339.80 -252.04,339.70 -252.14,339.61 -252.22,339.49 -252.29,339.38 -252.35,339.25 -252.40,339.13 -252.43,338.99 -252.46,338.86 -252.46,338.72 -252.46,338.59 -252.43,338.45 -252.41,338.32 -252.36,338.19 -252.30,338.06 -252.23,337.95 -252.15,337.83 -252.06,337.73 -251.96,337.64 -251.85,337.56 -251.73,337.48 -251.61,337.43 -251.48,337.37 -251.35,337.35 -251.21,337.32 -251.08,337.32 -250.94,337.32 -250.80,337.34 -250.67,337.37 -250.54,337.42 -250.42,337.47 -250.30,337.54 -250.19,337.62 -250.09,337.72 -249.99,337.81 -249.91,337.93 -249.84,338.04 -249.78,338.17 -249.73,338.29 -249.70,338.43 -249.67,338.56 -249.67,338.70 -249.67,338.83 -249.70,338.97 -249.72,339.10 -249.77,339.23 -249.82,339.36 -249.90,339.47 -249.97,339.59 -250.07,339.69 -250.17,339.78 -250.28,339.86 -250.39,339.94 -250.52,339.99 -250.65,340.05 -250.78,340.07 -250.91,340.10 -251.05,340.10 -251.19,340.10 -251.32,340.08 -251.46,340.05 -251.59,340.00 -251.71,339.95 -251.83,339.88 -251.94,339.80 -252.04,339.70 -252.14,339.61 -252.22,339.49 -252.29,339.38 -252.35,339.25 -252.40,339.13 -252.43,338.99 -252.46,338.86 -252.46,338.72 -252.46,338.59 -252.43,338.45 -252.41,338.32 -252.36,338.19 -252.30,338.06 -252.23,337.95 -252.15,337.83 -242.32,325.63 -232.49,313.43 -213.47,287.75 -194.44,262.06 -167.28,224.13 -140.11,186.20 -94.76,123.79 -49.40,61.39 -28.62,34.11 -7.84,6.84 -4.54,2.78 -1.25,-1.26 -0.62,-1.33 8.57,-1.4 8.57,-1.4 L 8.57,-1.4 Z"></path></g><g transform="translate(690.0765791891436 180.66072647576618) rotate(0 -153.33802115679748 206.5893004706643)" stroke="none"><path fill="#56a2e8" d="M -0.89,-1.07 Q -0.89,-1.07 -0.78,-1.15 -0.66,-1.22 -0.54,-1.28 -0.41,-1.33 -0.28,-1.36 -0.14,-1.39 -0.01,-1.39 0.12,-1.39 0.26,-1.36 0.39,-1.34 0.52,-1.29 0.65,-1.23 0.76,-1.16 0.87,-1.08 0.97,-0.99 1.07,-0.89 1.15,-0.78 1.22,-0.66 1.28,-0.54 1.33,-0.41 1.36,-0.28 1.39,-0.14 1.39,-0.01 1.39,0.12 1.36,0.26 1.34,0.39 1.29,0.52 1.23,0.65 1.16,0.76 1.08,0.87 0.99,0.97 0.89,1.07 -0.99,2.64 -2.88,4.22 -18.23,21.01 -33.58,37.80 -61.14,71.53 -88.71,105.27 -126.54,157.41 -164.37,209.54 -191.95,251.65 -219.53,293.76 -235.25,317.72 -250.97,341.67 -262.70,359.13 -274.43,376.59 -282.33,386.07 -290.23,395.55 -290.35,395.63 -290.46,395.70 -290.59,395.75 -290.71,395.80 -290.85,395.83 -290.98,395.86 -291.12,395.86 -291.26,395.85 -291.39,395.83 -291.53,395.80 -291.65,395.75 -291.78,395.69 -291.89,395.62 -292.01,395.54 -292.10,395.44 -292.20,395.34 -292.28,395.23 -292.35,395.11 -292.40,394.99 -292.45,394.86 -292.48,394.73 -292.51,394.59 -292.51,394.45 -292.51,394.32 -292.48,394.18 -292.45,394.05 -292.40,393.92 -292.34,393.79 -292.27,393.68 -292.19,393.57 -292.09,393.47 -291.99,393.37 -291.88,393.30 -291.76,393.22 -291.64,393.17 -291.51,393.12 -291.38,393.09 -291.24,393.07 -291.10,393.07 -290.97,393.07 -290.83,393.10 -290.70,393.13 -290.57,393.18 -290.44,393.23 -290.33,393.31 -290.22,393.39 -290.12,393.48 -290.02,393.58 -289.95,393.70 -289.87,393.81 -289.82,393.94 -289.77,394.06 -289.74,394.20 -289.72,394.33 -289.72,394.47 -289.72,394.61 -289.75,394.74 -289.78,394.88 -289.83,395.00 -289.88,395.13 -289.96,395.24 -290.04,395.36 -290.13,395.45 -290.23,395.55 -290.35,395.63 -290.46,395.70 -290.59,395.75 -290.71,395.80 -290.85,395.83 -290.98,395.86 -291.12,395.86 -291.26,395.85 -291.39,395.83 -291.53,395.80 -291.65,395.75 -291.78,395.69 -291.89,395.62 -292.01,395.54 -292.10,395.44 -292.20,395.34 -292.28,395.23 -292.35,395.11 -292.40,394.99 -292.45,394.86 -292.48,394.73 -292.51,394.59 -292.51,394.45 -292.51,394.32 -292.48,394.18 -292.45,394.05 -292.40,393.92 -292.34,393.79 -292.27,393.68 -292.19,393.57 -284.43,384.24 -276.68,374.91 -264.99,357.52 -253.30,340.12 -237.59,316.18 -221.87,292.23 -194.27,250.09 -166.68,207.95 -128.80,155.76 -90.93,103.56 -63.31,69.76 -35.70,35.97 -20.26,19.08 -4.81,2.19 -2.85,0.55 -0.89,-1.07 -0.89,-1.07 L -0.89,-1.07 Z"></path></g><g transform="translate(828.6582217408934 217.87246382762498) rotate(0 -162.32016465552192 199.53190200738075)" stroke="none"><path fill="#56a2e8" d="M -0.98,-0.98 Q -0.98,-0.98 -0.88,-1.07 -0.77,-1.16 -0.65,-1.22 -0.53,-1.29 -0.40,-1.33 -0.27,-1.37 -0.13,-1.38 1.11,-1.4 0.13,-1.38 0.27,-1.37 0.40,-1.33 0.53,-1.29 0.65,-1.22 0.77,-1.16 0.88,-1.07 0.98,-0.98 1.07,-0.88 1.16,-0.77 1.22,-0.65 1.29,-0.53 1.33,-0.40 1.37,-0.27 1.38,-0.13 1.4,1.11 1.38,0.13 1.37,0.27 1.33,0.40 1.29,0.53 1.22,0.65 1.16,0.77 1.07,0.88 0.98,0.98 -0.26,2.24 -1.52,3.50 -12.73,17.27 -23.93,31.04 -47.19,59.10 -70.45,87.17 -104.53,129.75 -138.61,172.33 -167.83,209.02 -197.06,245.70 -216.49,270.78 -235.92,295.86 -249.81,313.55 -263.70,331.23 -277.07,347.46 -290.45,363.70 -298.80,372.84 -307.15,381.98 -311.16,384.70 -315.16,387.43 -315.29,387.47 -315.42,387.51 -315.56,387.52 -315.70,387.54 -315.83,387.53 -315.97,387.52 -316.10,387.48 -316.23,387.44 -316.35,387.37 -316.48,387.31 -316.58,387.23 -316.69,387.14 -316.78,387.03 -316.87,386.93 -316.93,386.81 -317.00,386.69 -317.04,386.56 -317.08,386.43 -317.10,386.29 -317.11,386.15 -317.10,386.02 -317.09,385.88 -317.05,385.75 -317.01,385.62 -316.95,385.50 -316.88,385.37 -316.80,385.27 -316.71,385.16 -316.61,385.07 -316.50,384.98 -316.38,384.92 -316.26,384.85 -316.13,384.81 -316.00,384.77 -315.86,384.75 -315.73,384.74 -315.59,384.75 -315.45,384.76 -315.32,384.80 -315.19,384.84 -315.07,384.90 -314.95,384.97 -314.84,385.05 -314.73,385.14 -314.64,385.24 -314.55,385.35 -314.49,385.47 -314.42,385.59 -314.38,385.72 -314.34,385.85 -314.33,385.99 -314.31,386.13 -314.32,386.26 -314.33,386.40 -314.37,386.53 -314.41,386.66 -314.48,386.78 -314.54,386.91 -314.62,387.01 -314.71,387.12 -314.82,387.21 -314.92,387.30 -315.04,387.36 -315.16,387.43 -315.29,387.47 -315.42,387.51 -315.56,387.52 -315.70,387.54 -315.83,387.53 -315.97,387.52 -316.10,387.48 -316.23,387.44 -316.35,387.37 -316.48,387.31 -316.58,387.23 -316.69,387.14 -316.78,387.03 -316.87,386.93 -316.93,386.81 -317.00,386.69 -317.04,386.56 -317.08,386.43 -317.10,386.29 -317.11,386.15 -317.10,386.02 -317.09,385.88 -317.05,385.75 -317.01,385.62 -316.95,385.50 -316.88,385.37 -316.80,385.27 -316.71,385.16 -316.61,385.07 -316.50,384.98 -312.74,382.42 -308.99,379.86 -300.77,370.86 -292.56,361.86 -279.22,345.67 -265.88,329.47 -252.00,311.81 -238.12,294.14 -218.69,269.06 -199.26,243.97 -170.03,207.28 -140.79,170.58 -106.71,127.99 -72.62,85.40 -49.36,57.33 -26.10,29.26 -14.85,15.44 -3.60,1.62 -2.29,0.31 -0.98,-0.98 -0.98,-0.98 L -0.98,-0.98 Z"></path></g><g transform="translate(931.3112902977452 270.4821614630115) rotate(0 -150.1301127643958 180.28445165297106)" stroke="none"><path fill="#56a2e8" d="M -0.44,-1.32 Q -0.44,-1.32 -0.30,-1.35 -0.17,-1.38 -0.03,-1.39 0.09,-1.39 0.23,-1.37 0.36,-1.35 0.49,-1.30 0.62,-1.25 0.74,-1.17 0.85,-1.10 0.95,-1.01 1.05,-0.91 1.13,-0.80 1.21,-0.69 1.27,-0.56 1.32,-0.44 1.35,-0.30 1.38,-0.17 1.39,-0.03 1.39,0.09 1.37,0.23 1.35,0.36 1.30,0.49 1.25,0.62 1.17,0.74 1.10,0.85 1.01,0.95 0.91,1.05 0.80,1.13 0.69,1.21 0.56,1.27 0.44,1.32 -0.35,1.57 -1.16,1.81 -11.11,12.75 -21.07,23.68 -41.83,49.41 -62.58,75.14 -95.75,115.92 -128.91,156.70 -155.76,189.60 -182.60,222.50 -202.12,246.65 -221.64,270.80 -236.22,288.66 -250.80,306.52 -262.58,319.95 -274.37,333.37 -280.68,340.50 -286.99,347.62 -287.11,347.69 -287.22,347.76 -287.35,347.81 -287.48,347.86 -287.62,347.88 -287.75,347.90 -287.89,347.90 -288.02,347.89 -288.16,347.86 -288.29,347.83 -288.42,347.77 -288.54,347.72 -288.65,347.64 -288.76,347.56 -288.86,347.46 -288.95,347.35 -289.02,347.24 -289.09,347.12 -289.14,346.99 -289.19,346.86 -289.21,346.73 -289.23,346.59 -289.23,346.46 -289.22,346.32 -289.19,346.19 -289.16,346.05 -289.10,345.93 -289.05,345.80 -288.97,345.69 -288.89,345.58 -288.79,345.49 -288.69,345.39 -288.57,345.32 -288.45,345.25 -288.32,345.20 -288.19,345.15 -288.06,345.13 -287.92,345.11 -287.79,345.11 -287.65,345.12 -287.52,345.15 -287.38,345.18 -287.26,345.24 -287.13,345.30 -287.02,345.38 -286.91,345.46 -286.82,345.56 -286.72,345.66 -286.65,345.78 -286.58,345.89 -286.53,346.02 -286.48,346.15 -286.46,346.28 -286.44,346.42 -286.44,346.56 -286.45,346.69 -286.48,346.83 -286.51,346.96 -286.57,347.09 -286.63,347.21 -286.71,347.32 -286.79,347.43 -286.89,347.53 -286.99,347.62 -287.11,347.69 -287.22,347.76 -287.35,347.81 -287.48,347.86 -287.62,347.88 -287.75,347.90 -287.89,347.90 -288.02,347.89 -288.16,347.86 -288.29,347.83 -288.42,347.77 -288.54,347.72 -288.65,347.64 -288.76,347.56 -288.86,347.46 -288.95,347.35 -289.02,347.24 -289.09,347.12 -289.14,346.99 -289.19,346.86 -289.21,346.73 -289.23,346.59 -289.23,346.46 -289.22,346.32 -289.19,346.19 -289.16,346.05 -289.10,345.93 -289.05,345.80 -288.97,345.69 -288.89,345.58 -282.68,338.55 -276.47,331.52 -264.70,318.12 -252.93,304.71 -238.37,286.88 -223.81,269.04 -204.29,244.89 -184.77,220.74 -157.93,187.84 -131.08,154.93 -97.92,114.16 -64.76,73.38 -43.98,47.62 -23.19,21.86 -12.94,10.66 -2.68,-0.53 -1.56,-0.93 -0.44,-1.32 -0.44,-1.32 L -0.44,-1.32 Z"></path></g><g transform="translate(1019.84956192803 346.1887995236898) rotate(0 -85.33036323788315 114.84312044797801)" stroke="none"><path fill="#56a2e8" d="M 0.98,0.98 Q 0.98,0.98 0.88,1.07 0.77,1.16 0.65,1.22 0.53,1.29 0.40,1.33 0.27,1.37 0.13,1.38 6.19,1.39 -0.13,1.38 -0.27,1.37 -0.40,1.33 -0.53,1.29 -0.65,1.22 -0.77,1.16 -0.88,1.07 -0.98,0.98 -1.07,0.88 -1.16,0.77 -1.22,0.65 -1.29,0.53 -1.33,0.40 -1.37,0.27 -1.38,0.13 -1.39,6.19 -1.38,-0.13 -1.37,-0.27 -1.33,-0.40 -1.29,-0.53 -1.22,-0.65 -1.16,-0.77 -1.07,-0.88 -0.98,-0.98 -0.66,-1.31 -0.34,-1.63 0.12,-1.83 0.60,-2.04 1.08,-1.86 1.57,-1.68 1.80,-1.22 2.03,-0.76 1.88,-0.26 1.74,0.22 -0.65,3.26 -3.05,6.29 -15.15,23.20 -27.24,40.10 -50.31,72.63 -73.37,105.16 -97.83,136.93 -122.30,168.70 -122.41,168.78 -122.52,168.86 -122.65,168.92 -122.77,168.97 -122.90,169.01 -123.04,169.04 -123.18,169.04 -123.31,169.05 -123.45,169.02 -123.58,169.00 -123.71,168.95 -123.84,168.90 -123.96,168.83 -124.07,168.76 -124.17,168.66 -124.27,168.57 -124.35,168.46 -124.43,168.35 -124.49,168.22 -124.55,168.10 -124.58,167.96 -124.61,167.83 -124.61,167.69 -124.62,167.55 -124.59,167.42 -124.57,167.28 -124.52,167.16 -124.47,167.03 -124.40,166.91 -124.33,166.79 -124.23,166.69 -124.14,166.59 -124.03,166.51 -123.92,166.43 -123.79,166.38 -123.67,166.32 -123.53,166.29 -123.40,166.26 -123.26,166.26 -123.13,166.25 -122.99,166.27 -122.85,166.30 -122.73,166.35 -122.60,166.39 -122.48,166.47 -122.37,166.54 -122.26,166.63 -122.16,166.73 -122.09,166.84 -122.01,166.95 -121.95,167.08 -121.89,167.20 -121.86,167.33 -121.83,167.47 -121.83,167.60 -121.82,167.74 -121.84,167.88 -121.87,168.01 -121.92,168.14 -121.96,168.27 -122.04,168.39 -122.11,168.50 -122.20,168.60 -122.30,168.70 -122.41,168.78 -122.52,168.86 -122.65,168.92 -122.77,168.97 -122.90,169.01 -123.04,169.04 -123.18,169.04 -123.31,169.05 -123.45,169.02 -123.58,169.00 -123.71,168.95 -123.84,168.90 -123.96,168.83 -124.07,168.76 -124.17,168.66 -124.27,168.57 -124.35,168.46 -124.43,168.35 -124.49,168.22 -124.55,168.10 -124.58,167.96 -124.61,167.83 -124.61,167.69 -124.62,167.55 -124.59,167.42 -124.57,167.28 -124.52,167.16 -124.47,167.03 -124.40,166.91 -124.33,166.79 -99.98,135.15 -75.62,103.50 -52.57,70.99 -29.53,38.48 -17.40,21.54 -5.28,4.61 -2.87,1.55 -0.45,-1.50 -0.37,-0.55 -0.28,0.40 -0.31,-0.61 -0.34,-1.63 0.12,-1.83 0.60,-2.04 1.08,-1.86 1.57,-1.68 1.80,-1.22 2.03,-0.76 1.88,-0.26 1.74,0.22 0.72,0.31 -0.28,0.40 0.67,0.37 1.63,0.34 1.31,0.66 0.98,0.98 0.98,0.98 L 0.98,0.98 Z"></path></g><g transform="translate(10 10) rotate(0 558.1760602778819 376.6084452679502)" stroke="none"><path fill="#ff8383" d="M -0.98,0.98 Q -0.98,0.98 -1.07,0.88 -1.16,0.77 -1.22,0.65 -1.29,0.53 -1.33,0.40 -1.37,0.27 -1.38,0.13 -1.4,1.54 -1.38,-0.13 -1.37,-0.27 -1.33,-0.40 -1.29,-0.53 -1.22,-0.65 -1.16,-0.77 -1.07,-0.88 -0.98,-0.98 -0.88,-1.07 -0.77,-1.16 -0.65,-1.22 -0.53,-1.29 -0.40,-1.33 -0.27,-1.37 -0.13,-1.38 -1.54,-1.4 0.13,-1.38 0.27,-1.37 0.40,-1.33 0.53,-1.29 0.65,-1.22 0.77,-1.16 0.88,-1.07 0.98,-0.98 1.61,-0.36 2.23,0.25 22.69,17.84 43.15,35.42 98.59,67.63 154.03,99.83 232.15,144.18 310.27,188.54 385.91,234.78 461.55,281.02 513.81,314.09 566.07,347.16 606.32,373.97 646.58,400.77 693.01,433.42 739.45,466.08 774.86,491.71 810.27,517.34 853.96,550.37 897.66,583.40 939.39,614.99 981.13,646.58 1011.62,670.40 1042.11,694.21 1060.89,708.69 1079.66,723.16 1088.18,729.85 1096.71,736.54 1096.79,736.65 1096.87,736.77 1096.92,736.89 1096.98,737.02 1097.01,737.15 1097.04,737.29 1097.04,737.42 1097.04,737.56 1097.02,737.70 1097.00,737.83 1096.95,737.96 1096.90,738.09 1096.82,738.20 1096.75,738.32 1096.66,738.42 1096.56,738.52 1096.45,738.60 1096.34,738.67 1096.21,738.73 1096.09,738.79 1095.95,738.82 1095.82,738.85 1095.68,738.85 1095.54,738.85 1095.41,738.83 1095.27,738.80 1095.15,738.75 1095.02,738.70 1094.90,738.63 1094.79,738.56 1094.69,738.46 1094.59,738.37 1094.51,738.26 1094.43,738.14 1094.37,738.02 1094.32,737.89 1094.29,737.76 1094.26,737.62 1094.26,737.49 1094.25,737.35 1094.28,737.22 1094.30,737.08 1094.35,736.95 1094.40,736.82 1094.47,736.71 1094.55,736.59 1094.64,736.49 1094.74,736.39 1094.85,736.32 1094.96,736.24 1095.09,736.18 1095.21,736.13 1095.35,736.10 1095.48,736.07 1095.62,736.06 1095.75,736.06 1095.89,736.08 1096.02,736.11 1096.15,736.16 1096.28,736.21 1096.40,736.28 1096.51,736.35 1096.61,736.45 1096.71,736.54 1096.79,736.65 1096.87,736.77 1096.92,736.89 1096.98,737.02 1097.01,737.15 1097.04,737.29 1097.04,737.42 1097.04,737.56 1097.02,737.70 1097.00,737.83 1096.95,737.96 1096.90,738.09 1096.82,738.20 1096.75,738.32 1096.66,738.42 1096.56,738.52 1096.45,738.60 1096.34,738.67 1096.21,738.73 1096.09,738.79 1095.95,738.82 1095.82,738.85 1095.68,738.85 1095.54,738.85 1095.41,738.83 1095.27,738.80 1095.15,738.75 1095.02,738.70 1094.90,738.63 1094.79,738.56 1086.36,731.96 1077.94,725.37 1059.17,710.90 1040.39,696.42 1009.91,672.61 979.42,648.80 937.69,617.22 895.97,585.63 852.29,552.61 808.61,519.59 773.22,493.98 737.82,468.36 691.41,435.72 645.00,403.08 604.77,376.29 564.55,349.51 512.31,316.45 460.07,283.40 384.46,237.17 308.85,190.95 230.74,146.60 152.64,102.26 97.08,69.98 41.53,37.71 20.93,20.01 0.33,2.30 -0.32,1.64 -0.98,0.98 -0.98,0.98 L -0.98,0.98 Z"></path></g><g transform="translate(54.91071749362277 754.2347470371758) rotate(0 649.2806586220877 -365.05997505530434)" stroke="none"><path fill="#ff8383" d="M 1.4,8.57 Q 1.4,8.57 1.38,0.13 1.37,0.27 1.33,0.40 1.29,0.53 1.22,0.65 1.16,0.77 1.07,0.88 0.98,0.98 0.88,1.07 0.77,1.16 0.65,1.22 0.53,1.29 0.40,1.33 0.27,1.37 0.13,1.38 -1.71,1.4 -0.13,1.38 -0.27,1.37 -0.40,1.33 -0.53,1.29 -0.65,1.22 -0.77,1.16 -0.88,1.07 -0.98,0.98 -1.07,0.88 -1.16,0.77 -1.22,0.65 -1.29,0.53 -1.33,0.40 -1.37,0.27 -1.38,0.13 -1.4,-8.57 -1.30,-0.67 -1.20,-1.34 18.60,-12.66 38.41,-23.97 69.34,-43.93 100.28,-63.88 172.87,-111.73 245.45,-159.57 335.97,-214.62 426.50,-269.66 517.95,-322.21 609.41,-374.75 666.68,-407.12 723.96,-439.49 785.33,-473.00 846.70,-506.51 921.66,-544.77 996.62,-583.02 1062.97,-615.94 1129.32,-648.86 1169.23,-668.20 1209.14,-687.55 1231.33,-698.50 1253.53,-709.45 1259.81,-712.68 1266.09,-715.91 1265.75,-715.06 1265.41,-714.20 1265.93,-715.12 1266.45,-716.04 1266.93,-715.96 1267.42,-715.89 1267.74,-715.51 1268.05,-715.14 1268.04,-714.64 1268.03,-714.15 1267.70,-713.79 1267.37,-713.42 1266.39,-713.81 1265.41,-714.20 1266.22,-713.75 1267.02,-713.30 1262.47,-712.35 1257.92,-711.40 1254.23,-710.59 1250.53,-709.78 1250.40,-709.79 1250.26,-709.80 1250.13,-709.83 1250.00,-709.87 1249.87,-709.93 1249.75,-709.99 1249.64,-710.08 1249.54,-710.16 1249.45,-710.27 1249.36,-710.37 1249.29,-710.49 1249.22,-710.61 1249.18,-710.74 1249.14,-710.87 1249.12,-711.01 1249.10,-711.14 1249.11,-711.28 1249.12,-711.42 1249.16,-711.55 1249.20,-711.68 1249.26,-711.80 1249.32,-711.93 1249.40,-712.03 1249.49,-712.14 1249.59,-712.23 1249.70,-712.32 1249.82,-712.39 1249.94,-712.46 1250.07,-712.50 1250.20,-712.54 1250.33,-712.56 1250.47,-712.58 1250.61,-712.57 1250.74,-712.56 1250.87,-712.52 1251.01,-712.48 1251.13,-712.42 1251.25,-712.36 1251.36,-712.27 1251.47,-712.19 1251.56,-712.09 1251.65,-711.98 1251.71,-711.86 1251.78,-711.74 1251.82,-711.61 1251.87,-711.48 1251.88,-711.35 1251.90,-711.21 1251.89,-711.07 1251.88,-710.94 1251.84,-710.80 1251.81,-710.67 1251.75,-710.55 1251.68,-710.43 1251.60,-710.32 1251.51,-710.21 1251.41,-710.12 1251.31,-710.03 1251.19,-709.96 1251.07,-709.90 1250.94,-709.85 1250.81,-709.81 1250.67,-709.79 1250.53,-709.78 1250.40,-709.79 1250.26,-709.80 1250.13,-709.83 1250.00,-709.87 1249.87,-709.93 1249.75,-709.99 1249.64,-710.08 1249.54,-710.16 1249.45,-710.27 1249.36,-710.37 1249.29,-710.49 1249.22,-710.61 1249.18,-710.74 1249.14,-710.87 1249.12,-711.01 1249.10,-711.14 1249.11,-711.28 1249.12,-711.42 1249.16,-711.55 1249.20,-711.68 1249.26,-711.80 1249.32,-711.93 1249.40,-712.03 1249.49,-712.14 1249.59,-712.23 1249.70,-712.32 1249.82,-712.39 1249.94,-712.46 1250.07,-712.50 1250.20,-712.54 1253.76,-713.34 1257.33,-714.14 1261.89,-715.09 1266.45,-716.04 1266.93,-715.96 1267.42,-715.89 1267.74,-715.51 1268.05,-715.14 1268.04,-714.64 1268.03,-714.15 1267.70,-713.79 1267.37,-713.42 1261.08,-710.19 1254.79,-706.95 1232.58,-695.99 1210.37,-685.03 1170.46,-665.69 1130.55,-646.34 1064.22,-613.43 997.88,-580.52 922.94,-542.28 848.01,-504.04 786.66,-470.54 725.32,-437.04 668.06,-404.68 610.79,-372.32 519.36,-319.79 427.92,-267.25 337.44,-212.23 246.95,-157.20 174.38,-109.37 101.81,-61.54 70.83,-41.56 39.86,-21.57 20.53,-10.75 1.20,0.06 1.30,0.03 1.4,8.57 1.4,8.57 L 1.4,8.57 Z"></path></g></svg>